<svg xmlns="http://www.w3.org/2000/svg" xmlns:xlink="http://www.w3.org/1999/xlink" viewBox="0 0 146.71 34.71"><defs><style>.a{fill:url(#a);}.b{fill:#004b2c;}.c{fill:#f69220;}</style><radialGradient id="a" cx="17.74" cy="18.84" r="14.4" gradientUnits="userSpaceOnUse"><stop offset="0" stop-color="#fff"/><stop offset="0.11" stop-color="#fdfefc"/><stop offset="0.19" stop-color="#f9fbf2"/><stop offset="0.26" stop-color="#f1f7e2"/><stop offset="0.33" stop-color="#e5f0cb"/><stop offset="0.39" stop-color="#d7e7ae"/><stop offset="0.43" stop-color="#cee29c"/><stop offset="0.57" stop-color="#71c675"/><stop offset="0.72" stop-color="#10a84b"/><stop offset="0.84" stop-color="#158741"/><stop offset="1" stop-color="#1d5631"/></radialGradient></defs><title>horizontal logo</title><path class="a" d="M23.51,5.65a6.77,6.77,0,0,1,1,1.15,10.69,10.69,0,0,1,.75,1.32A11.86,11.86,0,0,1,26.18,11a13.81,13.81,0,0,1-.34,6.13c-.06.25-.15.49-.22.74l-.25.72-.14.36-.15.35c-.1.23-.19.46-.3.69-.22.46-.43.91-.68,1.35s-.51.88-.77,1.3a20.32,20.32,0,0,1-1.81,2.42l-.51.55c-.18.18-.35.36-.53.53a9.61,9.61,0,0,1-1.16.95c.28-.41.54-.83.8-1.24l.38-.63.36-.64c.47-.84.92-1.7,1.33-2.57s.79-1.75,1.14-2.63l.26-.67.12-.34c.05-.11.08-.22.12-.33s.16-.45.22-.67.14-.45.2-.68a17.53,17.53,0,0,0,.64-5.54,15.9,15.9,0,0,0-.41-2.8A12.8,12.8,0,0,0,23.51,5.65ZM15,30.49a12.86,12.86,0,0,1-1.82.53,7.12,7.12,0,0,1-.88.12,4.38,4.38,0,0,1-.82,0,2.59,2.59,0,0,1-.7-.21,2.36,2.36,0,0,1-.59-.42,4.24,4.24,0,0,1-.9-1.36q-.18-.41-.33-.84c-.09-.29-.18-.59-.26-.9-.32-1.23-.53-2.53-.77-3.88a7.34,7.34,0,0,0-.28,1,9,9,0,0,0-.17,1,10.2,10.2,0,0,0-.06,2.07,7.67,7.67,0,0,0,.13,1.06,8.3,8.3,0,0,0,.28,1.06,5.13,5.13,0,0,0,1.22,2,5,5,0,0,0,.49.4,3.86,3.86,0,0,0,.57.3,3.51,3.51,0,0,0,1.21.29,4.19,4.19,0,0,0,1.18-.08,5.41,5.41,0,0,0,1.06-.32,7.88,7.88,0,0,0,1.83-1.06,8.47,8.47,0,0,0,.79-.67,7.07,7.07,0,0,0,.68-.77C16.19,30,15.58,30.27,15,30.49ZM4.69,17.77A14.92,14.92,0,0,1,6.91,16,17.39,17.39,0,0,1,12,13.8l.68-.17.69-.14.35-.07.35-.06.71-.11c.94-.14,1.9-.25,2.85-.33s1.93-.12,2.9-.13H22l1.48.06a9.91,9.91,0,0,0-1.41-.52l-.72-.2L20.63,12a19.85,19.85,0,0,0-3-.36c-.5,0-1,0-1.51,0s-1,.05-1.51.08l-.75.09-.38,0-.38.06-.75.15c-.25.05-.5.1-.75.17A14,14,0,0,0,6.13,15a11.64,11.64,0,0,0-2.06,2.26,9.19,9.19,0,0,0-.76,1.32A6.73,6.73,0,0,0,2.79,20,13.56,13.56,0,0,1,4.69,17.77ZM28.59,15A15.66,15.66,0,0,1,30,16.28a6.9,6.9,0,0,1,.54.7,5,5,0,0,1,.38.72,2.84,2.84,0,0,1,.16.72,2.15,2.15,0,0,1-.07.71,4.27,4.27,0,0,1-.72,1.47c-.18.24-.37.47-.57.7s-.42.46-.65.68c-.9.89-1.92,1.72-3,2.6a5.85,5.85,0,0,0,1-.25c.33-.1.65-.22,1-.35a11.09,11.09,0,0,0,1.82-1,8.7,8.7,0,0,0,.85-.65,6.22,6.22,0,0,0,.77-.77,4.87,4.87,0,0,0,1.11-2,4.14,4.14,0,0,0,.1-.63,4.56,4.56,0,0,0,0-.64,3.79,3.79,0,0,0-.36-1.2,4.48,4.48,0,0,0-.66-1,5.26,5.26,0,0,0-.81-.76A7.85,7.85,0,0,0,29,14.27a8.74,8.74,0,0,0-1-.34,5.85,5.85,0,0,0-1-.21C27.56,14.13,28.09,14.54,28.59,15ZM22.7,30.22a15.35,15.35,0,0,1-2.63-1,17.11,17.11,0,0,1-4.47-3.32c-.17-.16-.33-.34-.49-.51s-.31-.35-.47-.53-.15-.17-.23-.26l-.23-.28-.45-.55Q12.85,22.6,12,21.41C11.47,20.62,11,19.8,10.46,19c-.13-.21-.24-.42-.37-.63l-.36-.64c-.23-.43-.46-.87-.68-1.32a12.36,12.36,0,0,0,.25,1.48c.06.25.13.49.19.73s.15.48.23.72a20.39,20.39,0,0,0,1.18,2.77c.24.44.48.89.75,1.31s.54.85.83,1.27c.14.21.3.4.45.61l.22.3.24.3c.17.19.33.39.51.58s.34.38.52.56a13.84,13.84,0,0,0,5.14,3.35,11.51,11.51,0,0,0,3,.66,9.64,9.64,0,0,0,1.52,0,6.74,6.74,0,0,0,1.49-.26A13.49,13.49,0,0,1,22.7,30.22ZM8.33,10.93a11.91,11.91,0,0,1,.45-1.85,7.43,7.43,0,0,1,.34-.82,4.05,4.05,0,0,1,.44-.69,2.55,2.55,0,0,1,.54-.5,2.16,2.16,0,0,1,.65-.3,4.34,4.34,0,0,1,1.63-.1c.29,0,.59.08.89.14s.6.14.91.22c1.23.34,2.45.81,3.74,1.27a8.27,8.27,0,0,0-.71-.74,9.87,9.87,0,0,0-.8-.65,10.65,10.65,0,0,0-1.77-1.09,6.53,6.53,0,0,0-1-.41,7.4,7.4,0,0,0-1.05-.29,5,5,0,0,0-2.33.06,4.79,4.79,0,0,0-.59.23,6.16,6.16,0,0,0-.55.33,4.1,4.1,0,0,0-.86.91,4.69,4.69,0,0,0-.51,1.06,6.06,6.06,0,0,0-.26,1.08,8.35,8.35,0,0,0,0,2.12,7.31,7.31,0,0,0,.19,1,5.9,5.9,0,0,0,.32,1C8.12,12.23,8.21,11.57,8.33,10.93Z"/><path class="b" d="M18.81,8.7a.26.26,0,0,1-.3-.29V.24A11.81,11.81,0,0,1,19.74.07,11.74,11.74,0,0,1,21,0a3.21,3.21,0,0,1,2.21.65,2.82,2.82,0,0,1,.71,2.16,3.8,3.8,0,0,1-.19,1.3,2.23,2.23,0,0,1-.54.87,2,2,0,0,1-.85.49,3.61,3.61,0,0,1-1.12.16c-.21,0-.44,0-.68,0s-.49-.08-.76-.13V8.7Zm1-4.24.65.11a4.58,4.58,0,0,0,.64,0,2.87,2.87,0,0,0,.7-.08,1,1,0,0,0,.49-.29,1.2,1.2,0,0,0,.29-.55,3.13,3.13,0,0,0,.1-.88,3.3,3.3,0,0,0-.1-.92,1.2,1.2,0,0,0-.32-.54,1,1,0,0,0-.52-.26A2.87,2.87,0,0,0,21,1l-.7,0a4.84,4.84,0,0,0-.54.07Z"/><path class="b" d="M5.3,25.52a.26.26,0,0,1,.29.28v3.94a6.29,6.29,0,0,1-1,.27,7.51,7.51,0,0,1-1.2.09,4.69,4.69,0,0,1-1.6-.24,2.25,2.25,0,0,1-1-.77,3.22,3.22,0,0,1-.57-1.34,9.32,9.32,0,0,1-.18-2,9.16,9.16,0,0,1,.19-2.05,3.19,3.19,0,0,1,.59-1.34,2.23,2.23,0,0,1,1-.74,4.37,4.37,0,0,1,1.49-.22,5.77,5.77,0,0,1,1.09.09,3.2,3.2,0,0,1,.69.19.43.43,0,0,1,.19.14.78.78,0,0,1,0,.26v.54l-.86-.09c-.33,0-.65,0-.94,0a3.58,3.58,0,0,0-1,.13,1.23,1.23,0,0,0-.68.48,2.43,2.43,0,0,0-.37,1,9.83,9.83,0,0,0-.11,1.6,8.77,8.77,0,0,0,.13,1.72,2.5,2.5,0,0,0,.4,1,1.3,1.3,0,0,0,.68.48,3.38,3.38,0,0,0,1,.12H4A4.28,4.28,0,0,0,4.42,29V26.57h-1a.23.23,0,0,1-.18-.08.25.25,0,0,1-.08-.2v-.77Z"/><path class="b" d="M31,26a.25.25,0,0,1,.29.29v.79H27.72v2.66h3a.26.26,0,0,1,.29.29v.8H27.72v2.77h3.43a.31.31,0,0,1,.22.08.29.29,0,0,1,.08.21v.79H26.71a.26.26,0,0,1-.3-.29V26Z"/><path class="c" d="M17.74,18.25h0a.56.56,0,0,0-.42.18.59.59,0,0,0,.42,1h0a.58.58,0,0,0,.59-.59.63.63,0,0,0-.17-.42A.59.59,0,0,0,17.74,18.25Z"/><path class="c" d="M16.39,19.63l.59-.16a1,1,0,0,1-.16-.28Z"/><path class="c" d="M17,17.5l.16.58a1.2,1.2,0,0,1,.27-.16Z"/><path class="c" d="M18.53,17.49l-.44.43a1.12,1.12,0,0,1,.28.16Z"/><path class="c" d="M18.71,19l.59-.16h0l-.6-.16a.88.88,0,0,1,0,.16A1,1,0,0,1,18.71,19Z"/><path class="c" d="M19.09,19.63l-.43-.44a1,1,0,0,1-.16.28Z"/><path class="c" d="M16.77,18.68l-.59.16h0l.59.16a.92.92,0,0,1,0-.16A1,1,0,0,1,16.77,18.68Z"/><path class="c" d="M17.74,17.86h.16l-.15-.59h0l-.16.59Z"/><path class="c" d="M17.74,19.83l-.16,0,.16.6h0l.15-.6-.16,0Z"/><path class="c" d="M17,20.19l.43-.43a.92.92,0,0,1-.27-.16Z"/><path class="c" d="M16.4,18.06l.42.43a.92.92,0,0,1,.16-.27Z"/><path class="c" d="M18.53,20.2l-.16-.6a1.12,1.12,0,0,1-.28.16Z"/><path class="c" d="M19.09,18.06l-.59.16a.92.92,0,0,1,.16.27Z"/><path class="b" d="M49.87,11a3,3,0,0,1,1,.28c.4.14.6.31.6.52a1.32,1.32,0,0,1-.1.46,6.44,6.44,0,0,0-.15,1.69,13.19,13.19,0,0,1-.71,4.45,11,11,0,0,1-1.82,3.5A8.77,8.77,0,0,1,46,24.23a6,6,0,0,1-1.82.73c-.09,0-.14,0-.14-.11s.12-.15.34-.31a14.81,14.81,0,0,0,3.26-3,9.62,9.62,0,0,0,1.88-3.75A14.58,14.58,0,0,0,50,13.94a5.51,5.51,0,0,0-.22-1.89,1.57,1.57,0,0,1-.23-.75C49.59,11.09,49.68,11,49.87,11Zm5.9,4.27c.5.31.75.54.75.71s-.25.25-.7.27c-1.3,0-2.77.14-4.43.32-1,.1-2.19.29-3.73.58a5.23,5.23,0,0,1-.56.1,1.91,1.91,0,0,1-.93-.25c-.37-.15-.55-.29-.55-.42s.14-.12.41-.18q4.69-.62,7.69-1.14A10.37,10.37,0,0,1,55.05,15,3.92,3.92,0,0,1,55.77,15.26Zm-6.2,6.58a5.29,5.29,0,0,1,1.6.7,1.55,1.55,0,0,1,.47,1.21c0,.37-.15.56-.46.56a1,1,0,0,1-.64-.26,11.23,11.23,0,0,1-1.78-2q-.15-.16-.15-.24c0-.09.07-.13.14-.13A2.33,2.33,0,0,1,49.57,21.84ZM51.32,16l.26.63a20.59,20.59,0,0,0,4,5.35,9.7,9.7,0,0,0,1.83,1.33L58.8,24c.43.17.64.31.64.41s-.12.19-.35.21a10.09,10.09,0,0,1-2.48.22,1.69,1.69,0,0,1-1.44-.56,23.09,23.09,0,0,1-1.43-2.21,28,28,0,0,1-2-3.82,14.26,14.26,0,0,0-.82-1.69,1.3,1.3,0,0,1-.19-.41.29.29,0,0,1,.32-.28Z"/><path class="b" d="M80.32,17.51c.48.26.72.5.72.71s-.33.29-1,.29c-1,0-2,0-3.12,0s-2.69.07-4.57.22a26.28,26.28,0,0,0-4.32.62,4.82,4.82,0,0,1-.8.16,2.66,2.66,0,0,1-1-.28c-.46-.2-.69-.37-.69-.49s.15-.24.45-.26a23.69,23.69,0,0,0,3.73-.25c1.5-.18,3.15-.32,4.95-.41s3-.31,3.91-.49a5.16,5.16,0,0,1,.71-.1A6,6,0,0,1,80.32,17.51Zm-11-3.35a3.58,3.58,0,0,1,1.18.75,2.21,2.21,0,0,1,.35,1.31c0,.46-.19.68-.57.68-.13,0-.27-.09-.42-.29a12,12,0,0,1-1.22-2.21.66.66,0,0,1-.1-.26c0-.1.09-.16.18-.16A1.27,1.27,0,0,1,69.32,14.16ZM76.49,11c.23.1.35.23.35.38s-.14.18-.43.23a17.4,17.4,0,0,1-2.2.38c-1.73.21-2.85.32-3.38.32a2.32,2.32,0,0,1-1.09-.18c-.21-.14-.31-.27-.31-.37s.21-.13.62-.15c1-.08,2.06-.22,3.23-.41a17.1,17.1,0,0,0,2-.39,1.82,1.82,0,0,1,.35-.08A2.06,2.06,0,0,1,76.49,11Zm-3.68,1,.63.23c.39.18.58.38.58.6a4.35,4.35,0,0,1-.12.43,8.72,8.72,0,0,0-.17,1.6l-.08,6.94a21.65,21.65,0,0,1-.27,3.47c-.16.65-.29,1-.41,1s-.25-.23-.33-.7c0-.78,0-1.82,0-3.1V13.91a4.59,4.59,0,0,0-.16-1.34,1.92,1.92,0,0,1-.08-.31.25.25,0,0,1,.26-.27Zm4.21.92a1.93,1.93,0,0,1,.77.39c.41.33.62.55.62.67a.52.52,0,0,1-.25.44,29.49,29.49,0,0,1-2.83,2.22.61.61,0,0,1-.34.13s-.07,0-.07-.1,0-.07.1-.15a14.15,14.15,0,0,0,1-1.65,8.1,8.1,0,0,0,.79-1.68Q76.9,12.91,77,12.91Z"/><path class="b" d="M89.08,14.73a5.48,5.48,0,0,1,1.34.44.9.9,0,0,1,.39.77c0,.45-.19.68-.56.68a.92.92,0,0,1-.5-.19A8.8,8.8,0,0,1,88.34,15q-.12-.12-.12-.18c0-.1.09-.16.18-.16A2.53,2.53,0,0,1,89.08,14.73ZM92,16.83c.09,0,.13.06.13.16a3.19,3.19,0,0,1-.28,1c-.34.92-.78,2-1.34,3.18-.19.45-.39,1-.6,1.7-.14.48-.31.73-.51.73s-.33-.2-.52-.6a4.42,4.42,0,0,1-.38-1.24.64.64,0,0,1,.32-.52,3.86,3.86,0,0,0,1.11-1.13A21.81,21.81,0,0,0,91.73,17C91.82,16.89,91.9,16.83,92,16.83Zm-1.22-5.32A5.59,5.59,0,0,1,92,11.9a.81.81,0,0,1,.37.69c0,.45-.19.68-.56.68a.82.82,0,0,1-.47-.18A7.67,7.67,0,0,1,90,11.74a.34.34,0,0,1-.11-.16c0-.11.09-.16.18-.16A2.59,2.59,0,0,1,90.75,11.51ZM102.37,19c.42.23.63.44.63.62s-.29.25-.87.25-1.44,0-2.25,0-1.93.06-3.29.18a16.8,16.8,0,0,0-3.1.51,3.67,3.67,0,0,1-.58.14,2.54,2.54,0,0,1-.85-.25c-.4-.18-.6-.32-.6-.43s.13-.21.39-.23a15.08,15.08,0,0,0,2.71-.2c1.09-.15,2.29-.27,3.59-.35a26.55,26.55,0,0,0,2.84-.41,2.92,2.92,0,0,1,.52-.08A4.88,4.88,0,0,1,102.37,19Zm-2.16-5.15q.3.13.3.33c0,.12-.14.21-.43.28a14.19,14.19,0,0,1-2.2.47,28.2,28.2,0,0,1-3.38.4,2.06,2.06,0,0,1-.93-.15c-.17-.12-.26-.23-.26-.32s.21-.16.62-.17c1-.1,2-.27,3.22-.5a13.88,13.88,0,0,0,2-.47,1.33,1.33,0,0,1,.35-.09A1.72,1.72,0,0,1,100.21,13.82Zm-5.4-2.28a2.29,2.29,0,0,1,.92.71,1.64,1.64,0,0,1,.22.8c0,.43-.19.65-.57.65s-.63-.34-1.08-1a4.16,4.16,0,0,1-.77-1.38c0-.07,0-.11.14-.12A2.75,2.75,0,0,1,94.81,11.54Zm4.58,4.95c.32.12.48.21.48.29s-.19.24-.58.32-.84.1-1.16.16l-2.17.4a9.12,9.12,0,0,1-1.38.16,2.09,2.09,0,0,1-.61-.07c-.25-.08-.37-.17-.37-.27s.19-.23.57-.24c1.34-.19,2.64-.44,3.91-.75l.61-.12A3.94,3.94,0,0,1,99.39,16.49Zm-3.12-1.58.62.23c.39.18.59.38.59.6a2.48,2.48,0,0,1-.12.33,6.17,6.17,0,0,0-.18,1.25l-.07,5.44a14.14,14.14,0,0,1-.28,2.72c-.15.65-.29,1-.41,1s-.25-.23-.33-.69,0-1.4,0-2.39V16.83a5,5,0,0,0-.15-1.34,1.92,1.92,0,0,1-.08-.31c0-.15.08-.24.25-.27ZM100,10.37c.39.24.59.45.59.62s-.06.12-.18.19a3.16,3.16,0,0,0-.76.6,15.1,15.1,0,0,1-1.73,1.46,2.78,2.78,0,0,1-.76.39.08.08,0,0,1-.09-.09,15.1,15.1,0,0,0,1.38-2.07,2.86,2.86,0,0,0,.4-1.14.24.24,0,0,1,.26-.27A2.64,2.64,0,0,1,100,10.37Z"/><path class="b" d="M110,21.34a2.87,2.87,0,0,1,1,.68,2.08,2.08,0,0,1,.3,1.19c0,.45-.18.68-.56.68q-.17,0-.36-.27a11.63,11.63,0,0,1-1-2,.54.54,0,0,1-.08-.24c0-.11.08-.16.17-.16A1,1,0,0,1,110,21.34Zm3.23-10a1.47,1.47,0,0,1,.59.3c.24.21.36.39.36.55a1.32,1.32,0,0,1-.33.6c-.42.54-1,1.42-1.88,2.64a.91.91,0,0,0-.15.34c0,.09,0,.14.15.14l.77-.09a7.38,7.38,0,0,1,1-.14q.27,0,.27.15c0,.11-.12.2-.35.26-1,.25-1.44.39-1.44.4a2.86,2.86,0,0,0-.75.26.66.66,0,0,1-.38.14c-.12,0-.24-.11-.36-.34a1,1,0,0,1-.21-.52c0-.12.09-.24.27-.35a6,6,0,0,0,1.38-1.84,7.31,7.31,0,0,0,.76-2.12C112.93,11.47,113,11.35,113.18,11.35Zm1.42,2.42c.13,0,.29.13.49.39a1.56,1.56,0,0,1,.3.59.7.7,0,0,1-.3.53c-.51.54-1,1-1.33,1.5a23.22,23.22,0,0,0-1.6,1.91s0,.08.13.08L114,18.4a2.64,2.64,0,0,1,.55-.07c.15,0,.22.05.22.15s-.16.23-.49.31a12.43,12.43,0,0,0-2.55,1.06.4.4,0,0,1-.22.12.65.65,0,0,1-.45-.24,1.12,1.12,0,0,1-.35-.63c0-.11.07-.2.22-.27a3.17,3.17,0,0,0,1-1.06s.56-.7,1.62-2.1a4.41,4.41,0,0,0,.73-1.6C114.36,13.87,114.45,13.77,114.6,13.77Zm-2.38,7.08a2.78,2.78,0,0,1,.85.44,1.09,1.09,0,0,1,.25.75c0,.37-.16.56-.47.56a.45.45,0,0,1-.3-.18,6.82,6.82,0,0,1-.84-1.37.33.33,0,0,1-.07-.16c0-.09.07-.14.14-.14A1.07,1.07,0,0,1,112.22,20.85Zm1.92-.8a3,3,0,0,1,.85.36.82.82,0,0,1,.25.63c0,.38-.15.57-.47.57a.45.45,0,0,1-.29-.16,6,6,0,0,1-.85-1.21.25.25,0,0,1-.07-.14.14.14,0,0,1,.15-.13A1.46,1.46,0,0,1,114.14,20.05Zm.1-2.33a2.37,2.37,0,0,1,.77.46,1.2,1.2,0,0,1,.23.79c0,.38-.15.57-.47.57-.08,0-.17-.06-.26-.19a7.42,7.42,0,0,1-.74-1.43.35.35,0,0,1-.07-.17.14.14,0,0,1,.15-.13A.87.87,0,0,1,114.24,17.72Zm4,2.75c.09,0,.14.05.14.16s0,.1-.1.17c-.28.31-.7.74-1.28,1.28-.31.3-.67.69-1.1,1.15-.05.09-.1.13-.14.13A1.49,1.49,0,0,1,115,23q-.39-.36-.39-.57s0-.07.09-.08a1.27,1.27,0,0,0,.48-.15,29.49,29.49,0,0,0,2.72-1.48A1.76,1.76,0,0,1,118.27,20.47Zm5.94-4.5c.36.18.54.31.54.41s-.12.24-.35.29a3.08,3.08,0,0,1-.85.08,33.32,33.32,0,0,0-3.5.2c-1.71.21-2.84.37-3.41.48a1.76,1.76,0,0,1-.39.08,1.65,1.65,0,0,1-.61-.22c-.25-.12-.37-.22-.37-.29s.11-.12.31-.14l3.6-.45c2-.3,3.26-.5,3.82-.6a3.94,3.94,0,0,1,.47-.08A2.19,2.19,0,0,1,124.21,16Zm-7.34,2.24a3.32,3.32,0,0,1,.91.39.94.94,0,0,1,.26.69c0,.45-.18.68-.56.68a.43.43,0,0,1-.3-.18,6.82,6.82,0,0,1-.87-1.35.37.37,0,0,1-.07-.16c0-.11.08-.16.17-.16A1.34,1.34,0,0,1,116.87,18.21Zm1.66-7.79a1.53,1.53,0,0,1,.59.3.85.85,0,0,1,.36.55,1.33,1.33,0,0,1-.22.55c-.26.5-.66,1.31-1.2,2.44a1.09,1.09,0,0,0-.09.31c0,.09,0,.13.14.13a10.33,10.33,0,0,0,1-.11,9.21,9.21,0,0,1,1.35-.18q.27,0,.27.15t-.42.27c-1.15.27-1.72.42-1.72.43a4,4,0,0,0-.9.28.92.92,0,0,1-.45.15c-.13,0-.25-.11-.36-.34a1,1,0,0,1-.21-.53.44.44,0,0,1,.19-.32,5.75,5.75,0,0,0,.93-1.73,8.16,8.16,0,0,0,.52-2C118.36,10.54,118.42,10.42,118.53,10.42ZM119.88,17a.4.4,0,0,1,.3.45,2.3,2.3,0,0,1,0,.34,3.75,3.75,0,0,0-.11,1.07c0,1,0,1.8,0,2.4s0,1.3,0,1.95a4,4,0,0,1-.27,1.77c-.3.41-.55.62-.74.62a.42.42,0,0,1-.35-.23,8.5,8.5,0,0,0-1.2-1.25c-.17-.11-.25-.2-.25-.28s0-.1.09-.1l.29,0a8.38,8.38,0,0,0,1.06.13c.14,0,.22-.14.26-.43a27.54,27.54,0,0,0,.12-3.48,10.44,10.44,0,0,0-.24-2.47,1.62,1.62,0,0,1-.14-.52c0-.16.07-.24.2-.24A2.54,2.54,0,0,1,119.88,17ZM122,12.06c.32.13.48.29.48.47s-.12.35-.37.54a22.36,22.36,0,0,0-1.58,2.49c-.57.9-1,1.34-1.16,1.34s-.14,0-.14-.12c.63-1.56,1.08-2.81,1.36-3.75a.11.11,0,0,0-.12-.12c-.7.05-1.16.08-1.38.08a3.26,3.26,0,0,1-.53,0c-.22-.08-.33-.19-.33-.32s.11-.11.28-.13a7.88,7.88,0,0,0,2.11-.44,3.39,3.39,0,0,1,.75-.21A2.15,2.15,0,0,1,122,12.06Zm.13,5.41a1.62,1.62,0,0,1,.65.33c.35.28.52.47.52.57s-.06.18-.2.25a24.42,24.42,0,0,1-2.38,1.27.67.67,0,0,1-.29.08s-.06,0-.06-.09,0-.05.09-.09a12.05,12.05,0,0,0,.87-1.06,5,5,0,0,0,.65-1.09C122.06,17.53,122.11,17.47,122.17,17.47Zm-1,3.15c.56.17,1.1.36,1.63.58a4.12,4.12,0,0,1,1.38.92,1.33,1.33,0,0,1,.25.8,1.29,1.29,0,0,1-.1.48.36.36,0,0,1-.32.2,1,1,0,0,1-.44-.17,4.89,4.89,0,0,1-1.22-1.06A13,13,0,0,0,120.93,21c-.26-.17-.39-.29-.39-.38s0-.1.08-.1A4.13,4.13,0,0,1,121.2,20.62Z"/><path class="b" d="M133.32,17.4l.49.22c.25.12.38.25.38.4a.82.82,0,0,1-.07.21A3.1,3.1,0,0,0,134,19l0,1.45a10,10,0,0,1-.21,2,5.15,5.15,0,0,1-.5,1.43,3.14,3.14,0,0,1-.83,1,1.92,1.92,0,0,1-.68.4c-.07,0-.1,0-.1-.08a6.4,6.4,0,0,0,.84-1.34,5.53,5.53,0,0,0,.45-1.6,10.15,10.15,0,0,0,.18-2v-.8a4.7,4.7,0,0,0-.11-1.11,1.09,1.09,0,0,0-.16-.48c-.12-.11-.17-.18-.17-.21s.08-.23.26-.23Zm2.08-6.31.47.47a1.12,1.12,0,0,1,.26.54,1.32,1.32,0,0,1-.38.71L134,15a.79.79,0,0,0-.17.24c0,.07.06.1.17.1.69-.1,1.57-.24,2.64-.44a5.25,5.25,0,0,1,.72-.12q.33,0,.33.21c0,.12-.2.23-.61.34L134,16.2a5.25,5.25,0,0,0-1,.38,2.3,2.3,0,0,1-.44.18c-.22,0-.4-.22-.54-.67a1.27,1.27,0,0,1-.07-.33c0-.24.18-.45.53-.63A3.32,3.32,0,0,0,133.66,14a9.79,9.79,0,0,0,.85-1.35,4.07,4.07,0,0,0,.46-1.39.23.23,0,0,1,.26-.21Zm2.16,6.08c.31.21.47.37.47.5a.82.82,0,0,1-.13.37,5.47,5.47,0,0,0-.23,1.91c0,.91,0,1.58.05,2s0,.71,0,1.12a3.47,3.47,0,0,1-.34,1.71c-.26.44-.49.65-.69.65l-.46-1.67a.35.35,0,0,0,.3-.2,10.45,10.45,0,0,0,.17-2.53c0-.74,0-1.7-.06-2.89a.87.87,0,0,0-.09-.4.39.39,0,0,0-.29-.1c-.08,0-.34,0-.75.09-.68.16-1.16.28-1.44.38a.88.88,0,0,1-.27.09.69.69,0,0,1-.4-.18c-.13-.12-.2-.21-.2-.29s.06-.1.17-.11a16.25,16.25,0,0,0,1.88-.34c.49-.15.88-.29,1.17-.41l.31-.11A2.52,2.52,0,0,1,137.56,17.17Zm-1,3.51c.08,0,.11,0,.11.09a.41.41,0,0,1-.08.19,4.62,4.62,0,0,1-.84.8l-.76.66a.72.72,0,0,1-.42.2c-.11,0-.29-.13-.55-.37s-.34-.44-.34-.55,0-.13.13-.13a4.71,4.71,0,0,0,1.18-.24,14.29,14.29,0,0,0,1.44-.59A.24.24,0,0,1,136.55,20.68ZM135,19.12a2.58,2.58,0,0,1,.88.33.51.51,0,0,1,.2.36q0,.51-.45.51a1.9,1.9,0,0,1-1.07-.53c-.51-.39-.76-.64-.76-.73s0-.08.12-.09A4.78,4.78,0,0,1,135,19.12Zm.14,4.38a10.94,10.94,0,0,0,1.09.28l.46,1.67c-.09,0-.19-.08-.31-.23-.45-.53-.89-1-1.31-1.42-.16-.13-.24-.22-.24-.25s0-.09.08-.09ZM137,13.69a7.39,7.39,0,0,1,.81.47,2.37,2.37,0,0,1,.69.73,1.71,1.71,0,0,1,.13.65,1.56,1.56,0,0,1-.13.56.42.42,0,0,1-.37.23s-.11,0-.19-.15a3.63,3.63,0,0,1-.53-.92,10.22,10.22,0,0,0-.63-1.18.72.72,0,0,1-.17-.33q0-.12.09-.12A1.27,1.27,0,0,1,137,13.69Zm2.7,4.14.44.26c.31.17.46.36.46.57a1,1,0,0,1-.09.19,4.71,4.71,0,0,0-.25,1.25c-.08.75-.12,1.32-.12,1.72,0,1,.2,1.67.59,1.95a4.25,4.25,0,0,0,2.11.42,3.16,3.16,0,0,0,1.87-.39,3,3,0,0,0,.8-1.56l.14-1.06c0-.24.08-.36.17-.36s.15.2.21.58a7.52,7.52,0,0,0,.52,2.08,1.6,1.6,0,0,1,.2.7c0,.26-.31.51-.92.73a7.87,7.87,0,0,1-2.78.4,4.59,4.59,0,0,1-2.87-.69,3.17,3.17,0,0,1-.87-2.5c0-.29,0-.64,0-1.05s0-.89,0-1.49a3.79,3.79,0,0,0-.15-1.19A.91.91,0,0,1,139,18c0-.13.09-.19.28-.19Zm.59-6.54c.22.09.33.22.33.37s-.06.2-.13.4a15,15,0,0,0-.26,3.35,1.4,1.4,0,0,0,.22.89.9.9,0,0,0,.75.28,7.09,7.09,0,0,0,2.28-.31,2.19,2.19,0,0,1,.66-.22,1.28,1.28,0,0,1,.67.19c.25.17.37.33.37.5s-.17.26-.51.37a9.08,9.08,0,0,1-2.65.36,2.91,2.91,0,0,1-2.08-.56,2.11,2.11,0,0,1-.53-1.5c0-.65,0-1.22,0-1.7s0-.89,0-1.22a3.08,3.08,0,0,0-.11-.91.53.53,0,0,1-.1-.29.21.21,0,0,1,.23-.23A2.22,2.22,0,0,1,140.25,11.29Zm4,8.74c.34.16.51.3.51.43s-.25.32-.75.44l-2.12.33a6.38,6.38,0,0,1-1,.09,3.77,3.77,0,0,1-.8-.09c-.28-.05-.41-.12-.41-.19s.16-.18.49-.25l2.87-.72a6,6,0,0,1,.72-.17A2.9,2.9,0,0,1,144.28,20Zm-.5-6.77c.34.16.51.3.51.43s-.2.24-.6.33l-1.7.25a6,6,0,0,1-.83.06,3.68,3.68,0,0,1-.8-.08c-.28-.06-.42-.12-.42-.19s.17-.18.5-.26l2.24-.54a5.17,5.17,0,0,1,.56-.13A2.9,2.9,0,0,1,143.78,13.26Z"/></svg>