<svg xmlns="http://www.w3.org/2000/svg" viewBox="0 0 72.96 77.46"><defs><style>.cls-1{fill:#fff;}</style></defs><title>Asset 1</title><g id="Layer_2" data-name="Layer 2"><g id="Layer_1-2" data-name="Layer 1"><path class="cls-1" d="M52.48,12.6a14.85,14.85,0,0,1,2.17,2.57,21.45,21.45,0,0,1,1.69,3,25.84,25.84,0,0,1,2.08,6.52,31,31,0,0,1-.74,13.68c-.14.56-.33,1.1-.5,1.65s-.37,1.08-.57,1.61c-.1.27-.2.54-.31.8l-.33.78c-.22.52-.43,1-.67,1.55-.49,1-1,2-1.52,3s-1.12,2-1.71,2.91A44.18,44.18,0,0,1,48,56c-.37.42-.75.83-1.13,1.24s-.78.8-1.2,1.17a21.93,21.93,0,0,1-2.57,2.14c.62-.92,1.2-1.85,1.78-2.79l.84-1.4c.26-.48.55-.94.8-1.41,1.06-1.9,2.06-3.8,3-5.74s1.77-3.9,2.55-5.89l.57-1.49.28-.75c.09-.25.17-.5.25-.75.17-.49.36-1,.5-1.49s.31-1,.43-1.51A38.5,38.5,0,0,0,55.55,25a34.27,34.27,0,0,0-.91-6.25A30.27,30.27,0,0,0,52.48,12.6ZM33.39,68.05a29.53,29.53,0,0,1-4.07,1.18,15.06,15.06,0,0,1-2,.26,8.34,8.34,0,0,1-1.82-.08A5.53,5.53,0,0,1,24,68.93,5,5,0,0,1,22.66,68a9.82,9.82,0,0,1-2-3c-.27-.6-.51-1.23-.73-1.88s-.41-1.32-.59-2c-.72-2.75-1.18-5.65-1.71-8.66A16.29,16.29,0,0,0,17,54.64c-.17.75-.29,1.51-.39,2.27a24.63,24.63,0,0,0-.12,4.63,19,19,0,0,0,.3,2.36,17.5,17.5,0,0,0,.62,2.36,11.24,11.24,0,0,0,2.72,4.42,8.73,8.73,0,0,0,1.1.89,8.44,8.44,0,0,0,1.25.69,8.55,8.55,0,0,0,2.72.64,10.26,10.26,0,0,0,2.62-.18A13.39,13.39,0,0,0,30.18,72a17.67,17.67,0,0,0,4.08-2.36A19.46,19.46,0,0,0,36,68.13a14.69,14.69,0,0,0,1.53-1.72C36.13,67,34.76,67.56,33.39,68.05ZM10.46,39.66a34.39,34.39,0,0,1,5-3.92A38.67,38.67,0,0,1,26.85,30.8c.5-.14,1-.25,1.52-.37s1-.22,1.54-.32c.26-.05.51-.11.78-.15l.78-.13,1.58-.26c2.11-.32,4.23-.55,6.37-.73s4.29-.27,6.46-.3h1.63l1.64,0c1.09,0,2.19.07,3.3.15a21.89,21.89,0,0,0-3.14-1.16c-.54-.18-1.08-.3-1.62-.45s-1.09-.25-1.64-.36a45.17,45.17,0,0,0-6.67-.81c-1.12,0-2.25-.07-3.37,0s-2.25.11-3.38.19c-.56.05-1.12.13-1.68.19l-.83.11c-.28,0-.57.09-.85.13-.56.1-1.13.19-1.68.32s-1.12.23-1.68.39a31.12,31.12,0,0,0-12.22,6.19,26.08,26.08,0,0,0-4.61,5.07,22.66,22.66,0,0,0-1.7,2.94,14.39,14.39,0,0,0-1.14,3.16A29.64,29.64,0,0,1,10.46,39.66ZM63.8,33.4a29.5,29.5,0,0,1,3.06,2.93,15.7,15.7,0,0,1,1.21,1.57,9.55,9.55,0,0,1,.84,1.61,5.67,5.67,0,0,1,.37,1.61,5.11,5.11,0,0,1-.15,1.59A9.83,9.83,0,0,1,67.51,46c-.39.53-.81,1.06-1.27,1.57s-.93,1-1.44,1.52c-2,2-4.3,3.84-6.63,5.81a16.92,16.92,0,0,0,2.23-.56c.73-.23,1.44-.5,2.15-.8a24.76,24.76,0,0,0,4.08-2.2,21.43,21.43,0,0,0,1.89-1.44,16.51,16.51,0,0,0,1.73-1.72,11.23,11.23,0,0,0,2.47-4.57,8.77,8.77,0,0,0,.22-1.39,7.89,7.89,0,0,0-.83-4.11,9.85,9.85,0,0,0-1.47-2.17,12.55,12.55,0,0,0-1.81-1.7,17.71,17.71,0,0,0-4.09-2.36,19.48,19.48,0,0,0-2.18-.77,14.39,14.39,0,0,0-2.26-.47C61.52,31.55,62.69,32.45,63.8,33.4ZM50.67,67.45a35.21,35.21,0,0,1-5.87-2.34,38.61,38.61,0,0,1-10-7.42c-.38-.36-.73-.75-1.09-1.13s-.7-.79-1-1.18l-.52-.59-.5-.62-1-1.24q-2-2.51-3.82-5.15C25.6,46,24.45,44.2,23.34,42.33c-.28-.46-.54-.93-.82-1.4l-.79-1.43c-.53-1-1-1.93-1.52-2.94a21.65,21.65,0,0,0,.55,3.3c.12.55.29,1.08.43,1.63s.32,1.07.5,1.6a44.85,44.85,0,0,0,2.64,6.18c.53,1,1.06,2,1.66,2.94S27.21,54.1,27.84,55c.32.47.67.91,1,1.36l.51.68.53.66c.37.44.73.88,1.12,1.3s.77.85,1.18,1.25a31,31,0,0,0,11.47,7.49,25.93,25.93,0,0,0,6.69,1.46,24.12,24.12,0,0,0,3.4,0,14.85,14.85,0,0,0,3.31-.6A29.83,29.83,0,0,1,50.67,67.45ZM18.59,24.39a28.38,28.38,0,0,1,1-4.11,16.06,16.06,0,0,1,.75-1.84,9,9,0,0,1,1-1.54,5.68,5.68,0,0,1,1.2-1.11A5.06,5.06,0,0,1,24,15.12a9.64,9.64,0,0,1,3.64-.23c.65.07,1.32.18,2,.31s1.35.3,2,.49c2.73.75,5.47,1.8,8.35,2.84a17.81,17.81,0,0,0-1.6-1.65c-.56-.52-1.16-1-1.77-1.47a24.32,24.32,0,0,0-4-2.43,19.36,19.36,0,0,0-2.19-.91,15.06,15.06,0,0,0-2.35-.64,11.17,11.17,0,0,0-5.19.14,9,9,0,0,0-1.32.51,7.93,7.93,0,0,0-1.22.74,8.19,8.19,0,0,0-1.92,2,9.89,9.89,0,0,0-1.15,2.36,13.26,13.26,0,0,0-.57,2.42,18.19,18.19,0,0,0,0,4.72,21.63,21.63,0,0,0,.43,2.27,15.58,15.58,0,0,0,.72,2.19C18.12,27.29,18.32,25.82,18.59,24.39Z"/><path class="cls-1" d="M42,19.41c-.45,0-.67-.21-.67-.63V.53C42.13.38,43,.25,44.06.15S46,0,46.91,0q3.36,0,4.94,1.44c1.06,1,1.58,2.57,1.58,4.83A8.55,8.55,0,0,1,53,9.18a5,5,0,0,1-1.2,1.94,4.73,4.73,0,0,1-1.9,1.1,8.47,8.47,0,0,1-2.49.34,13.57,13.57,0,0,1-1.52-.09c-.54-.07-1.1-.16-1.69-.29v7.23ZM44.2,10c.48.09,1,.17,1.44.23a10,10,0,0,0,1.44.1,6,6,0,0,0,1.55-.18,2.25,2.25,0,0,0,1.1-.64,2.88,2.88,0,0,0,.65-1.23,7.28,7.28,0,0,0,.22-2,7.14,7.14,0,0,0-.23-2A2.7,2.7,0,0,0,49.66,3a2.42,2.42,0,0,0-1.15-.58A7.14,7.14,0,0,0,47,2.27c-.55,0-1.08,0-1.57.06a11.81,11.81,0,0,0-1.2.14Z"/><path class="cls-1" d="M11.83,57a.57.57,0,0,1,.65.63v8.78a11.6,11.6,0,0,1-2.24.6,15,15,0,0,1-2.67.22A10.32,10.32,0,0,1,4,66.65a5,5,0,0,1-2.33-1.73,7.52,7.52,0,0,1-1.28-3A21.37,21.37,0,0,1,0,57.53,21.11,21.11,0,0,1,.42,53a7.42,7.42,0,0,1,1.32-3A5.07,5.07,0,0,1,4,48.32a10,10,0,0,1,3.34-.5A12.5,12.5,0,0,1,9.78,48a7.15,7.15,0,0,1,1.53.42.73.73,0,0,1,.42.32,1.39,1.39,0,0,1,.1.57v1.22c-.53-.07-1.17-.14-1.92-.2s-1.45-.1-2.1-.1a8.17,8.17,0,0,0-2.33.29A2.86,2.86,0,0,0,4,51.62a5.32,5.32,0,0,0-.83,2.17,20.29,20.29,0,0,0-.26,3.58,19.74,19.74,0,0,0,.3,3.84,5.68,5.68,0,0,0,.9,2.25,2.9,2.9,0,0,0,1.5,1.07,7.55,7.55,0,0,0,2.13.27c.42,0,.81,0,1.18,0s.7-.07,1-.12V59.3H7.54a.57.57,0,0,1-.41-.17A.61.61,0,0,1,7,58.67V57Z"/><path class="cls-1" d="M69.22,58.1a.56.56,0,0,1,.64.64V60.5h-8v6h6.62a.57.57,0,0,1,.64.65v1.78H61.87v6.18h7.66a.73.73,0,0,1,.49.17.61.61,0,0,1,.18.47v1.76H59.61c-.45,0-.67-.21-.67-.64V58.1Z"/><path class="cls-1" d="M39.6,40.74h0a1.31,1.31,0,0,0-.94.38,1.32,1.32,0,0,0,.94,2.25h0a1.32,1.32,0,0,0,.93-2.25A1.3,1.3,0,0,0,39.6,40.74Z"/><path class="cls-1" d="M36.58,43.81l1.32-.36a2.06,2.06,0,0,1-.35-.61Z"/><path class="cls-1" d="M37.85,39.05c.11.43.23.87.35,1.31a2.06,2.06,0,0,1,.61-.35Z"/><path class="cls-1" d="M41.35,39l-1,1a2.34,2.34,0,0,1,.61.36Z"/><path class="cls-1" d="M41.76,42.42l1.33-.35v0l-1.33-.36a2.22,2.22,0,0,1,0,.37A2.19,2.19,0,0,1,41.76,42.42Z"/><path class="cls-1" d="M42.6,43.8l-1-1a2.34,2.34,0,0,1-.36.61Z"/><path class="cls-1" d="M37.43,41.69l-1.32.36h0l1.32.36a2.19,2.19,0,0,1,0-.36A2.4,2.4,0,0,1,37.43,41.69Z"/><path class="cls-1" d="M39.6,39.86a2.19,2.19,0,0,1,.36,0c-.12-.44-.24-.88-.35-1.32h0c-.12.44-.24.88-.35,1.32a2,2,0,0,1,.35,0Z"/><path class="cls-1" d="M39.6,44.25a2.22,2.22,0,0,1-.37,0l.36,1.32h0L40,44.22a2.19,2.19,0,0,1-.36,0Z"/><path class="cls-1" d="M37.85,45.07l1-1a2.24,2.24,0,0,1-.62-.36Z"/><path class="cls-1" d="M36.6,40.31l.95,1a2.06,2.06,0,0,1,.35-.61Z"/><path class="cls-1" d="M41.35,45.08,41,43.75a2.24,2.24,0,0,1-.62.36Z"/><path class="cls-1" d="M42.6,40.31l-1.31.35a2.34,2.34,0,0,1,.36.61C42,41,42.28,40.62,42.6,40.31Z"/></g></g></svg>