<svg xmlns="http://www.w3.org/2000/svg" viewBox="0 0 33.24 33.24"><defs><style>.a{fill:#fff;}</style></defs><title>Social</title><path class="a" d="M16.62,33.24A16.62,16.62,0,1,1,33.24,16.62,16.64,16.64,0,0,1,16.62,33.24ZM16.62,1A15.62,15.62,0,1,0,32.24,16.62,15.64,15.64,0,0,0,16.62,1Z"/><circle class="a" cx="22.33" cy="11.01" r="1.25"/><path class="a" d="M16.76,11.36A5.26,5.26,0,1,0,22,16.62,5.27,5.27,0,0,0,16.76,11.36Zm0,8.63a3.37,3.37,0,1,1,3.37-3.37A3.37,3.37,0,0,1,16.76,20Z"/><path class="a" d="M20.94,27.3H12.41A6.43,6.43,0,0,1,6,20.88V12.36a6.43,6.43,0,0,1,6.42-6.42h8.53a6.43,6.43,0,0,1,6.41,6.42v8.52A6.43,6.43,0,0,1,20.94,27.3ZM12.41,8A4.42,4.42,0,0,0,8,12.36v8.52a4.41,4.41,0,0,0,4.41,4.41h8.53a4.4,4.4,0,0,0,4.4-4.41V12.36A4.41,4.41,0,0,0,20.94,8Z"/></svg>