<svg xmlns="http://www.w3.org/2000/svg" viewBox="0 0 33.24 33.24"><defs><style>.a{fill:#fff;}</style></defs><title>Social</title><path class="a" d="M16.62,33.24A16.62,16.62,0,1,1,33.24,16.62,16.64,16.64,0,0,1,16.62,33.24ZM16.62,1A15.62,15.62,0,1,0,32.24,16.62,15.64,15.64,0,0,0,16.62,1Z"/><path class="a" d="M8.94,13.23h3.53V24.56H8.94Zm1.77-5.64A2,2,0,1,1,8.66,9.64a2,2,0,0,1,2.05-2.05"/><path class="a" d="M14.68,13.23h3.38v1.55h.05A3.7,3.7,0,0,1,21.44,13c3.57,0,4.23,2.34,4.23,5.4v6.21H22.15V19.05c0-1.31,0-3-1.83-3S18.2,17.48,18.2,19v5.6H14.68Z"/></svg>