<svg xmlns="http://www.w3.org/2000/svg" viewBox="0 0 33.24 33.24"><defs><style>.a,.b{fill:#fff;}.b{fill-rule:evenodd;}</style></defs><title>Social</title><path class="a" d="M16.62,33.24A16.62,16.62,0,1,1,33.24,16.62,16.64,16.64,0,0,1,16.62,33.24ZM16.62,1A15.62,15.62,0,1,0,32.24,16.62,15.64,15.64,0,0,0,16.62,1Z"/><path class="b" d="M14,16.8v9.88a.25.25,0,0,0,.26.25h3.66a.25.25,0,0,0,.26-.25v-10h2.66a.25.25,0,0,0,.25-.23l.26-3A.26.26,0,0,0,21,13.1H18.13V11a.91.91,0,0,1,.91-.91h2.05a.26.26,0,0,0,.26-.26v-3a.26.26,0,0,0-.26-.26H17.63A3.68,3.68,0,0,0,14,10.19V13.1H12.12a.26.26,0,0,0-.26.26v3a.25.25,0,0,0,.26.25H14Z"/></svg>