<svg xmlns="http://www.w3.org/2000/svg" viewBox="0 0 1438.13 809.38"><defs><style>.a{fill:#00abff;stroke:#fff;stroke-miterlimit:10;}</style></defs><title>Solar Panel</title><rect class="a" x="18.63" y="533.01" width="22.68" height="2.93"/><rect class="a" x="38.31" y="533.01" width="22.68" height="2.93"/><rect class="a" x="59.5" y="533.01" width="22.68" height="2.93"/><rect class="a" x="127.08" y="639.99" width="33.7" height="5.81"/><rect class="a" x="163.3" y="639.99" width="33.7" height="5.81"/><rect class="a" x="52.63" y="683.7" width="33.7" height="5.81"/><rect class="a" x="88.85" y="683.7" width="33.7" height="5.81"/><rect class="a" x="20.24" y="683.7" width="29.79" height="5.81"/><rect class="a" x="32.12" y="777.46" width="33.1" height="5.81"/><rect class="a" x="67.7" y="777.46" width="33.1" height="5.81"/><rect class="a" x="0.3" y="777.46" width="29.27" height="5.81"/><rect class="a" x="225.23" y="689.52" width="33.7" height="5.81"/><rect class="a" x="261.45" y="689.52" width="33.7" height="5.81"/><rect class="a" x="192.83" y="689.52" width="29.79" height="5.81"/><rect class="a" x="199.4" y="639.99" width="33.7" height="5.81"/><rect class="a" x="286.55" y="676.46" width="33.7" height="5.81"/><rect class="a" x="322.65" y="676.46" width="33.7" height="5.81"/><rect class="a" x="359.23" y="676.46" width="33.7" height="5.81"/><rect class="a" x="342.38" y="745.93" width="33.7" height="5.81"/><rect class="a" x="378.95" y="745.93" width="33.7" height="5.81"/><rect class="a" x="414.08" y="745.93" width="33.7" height="5.81"/><rect class="a" x="449.06" y="745.93" width="24.58" height="5.81"/><rect class="a" x="521.77" y="692.93" width="33.7" height="5.81"/><rect class="a" x="558.84" y="692.93" width="33.7" height="5.81"/><rect class="a" x="607.95" y="665.79" width="33.7" height="5.81"/><rect class="a" x="553.84" y="761.39" width="33.7" height="5.81"/><rect class="a" x="587.54" y="761.39" width="33.7" height="5.81"/><rect class="a" x="621.24" y="761.39" width="33.7" height="5.81"/><rect class="a" x="644.37" y="665.79" width="33.7" height="5.81"/><rect class="a" x="691.6" y="629.93" width="33.7" height="5.81"/><rect class="a" x="728.03" y="629.93" width="33.7" height="5.81"/><rect class="a" x="765.88" y="665.79" width="33.7" height="5.81"/><rect class="a" x="802.3" y="665.79" width="33.7" height="5.81"/><rect class="a" x="802.59" y="625.42" width="33.7" height="5.81"/><rect class="a" x="839.15" y="625.42" width="33.7" height="5.81"/><rect class="a" x="875.13" y="625.42" width="33.7" height="5.81"/><rect class="a" x="837.58" y="665.79" width="33.7" height="5.81"/><rect class="a" x="874.01" y="665.79" width="33.7" height="5.81"/><rect class="a" x="910.59" y="665.79" width="33.7" height="5.81"/><rect class="a" x="752.68" y="707.35" width="33.7" height="5.81"/><rect class="a" x="789.1" y="707.35" width="33.7" height="5.81"/><rect class="a" x="824.39" y="707.35" width="33.7" height="5.81"/><rect class="a" x="860.81" y="707.35" width="33.7" height="5.81"/><rect class="a" x="895.91" y="707.35" width="33.7" height="5.81"/><rect class="a" x="931.74" y="707.35" width="33.7" height="5.81"/><rect class="a" x="980.17" y="729.05" width="31.5" height="5.81"/><rect class="a" x="1012.98" y="729.05" width="31.5" height="5.81"/><rect class="a" x="1046.48" y="729.05" width="31.5" height="5.81"/><rect class="a" x="1072.08" y="677.48" width="31.5" height="5.81"/><rect class="a" x="1104.9" y="677.48" width="31.5" height="5.81"/><rect class="a" x="429.47" y="636.54" width="33.7" height="5.81"/><rect class="a" x="463.17" y="636.54" width="33.7" height="5.81"/><rect class="a" x="74.09" y="510.48" width="21.22" height="2.93"/><rect class="a" x="59.17" y="440.29" width="13.13" height="2.93"/><rect class="a" x="190.72" y="420.77" width="13.13" height="2.93"/><rect class="a" x="87.05" y="462.72" width="13.13" height="2.93"/><rect class="a" x="213.75" y="410.53" width="13.13" height="2.93"/><rect class="a" x="513.11" y="401.75" width="13.13" height="2.93"/><rect class="a" x="547.99" y="401.75" width="13.13" height="2.93"/><rect class="a" x="726.1" y="445.41" width="13.13" height="2.93"/><rect class="a" x="705.73" y="466.09" width="13.13" height="2.93"/><rect class="a" x="753.03" y="432.64" width="13.13" height="2.93"/><rect class="a" x="794.16" y="451.02" width="13.13" height="2.93"/><rect class="a" x="873.31" y="487.15" width="13.13" height="2.93"/><rect class="a" x="951.82" y="474.51" width="13.13" height="2.93"/><rect class="a" x="991.91" y="473.04" width="13.13" height="2.93"/><rect class="a" x="285.45" y="386.3" width="13.13" height="2.93"/><rect class="a" x="298.58" y="386.3" width="13.13" height="2.93"/><rect class="a" x="315.53" y="386.3" width="13.13" height="2.93"/><rect class="a" x="328.66" y="386.3" width="13.13" height="2.93"/><rect class="a" x="95.31" y="510.48" width="21.22" height="2.93"/><rect class="a" x="116.54" y="510.48" width="21.22" height="2.93"/><rect class="a" x="165.43" y="485.92" width="22.68" height="2.93"/><rect class="a" x="189.51" y="485.92" width="22.68" height="2.93"/><rect class="a" x="247.26" y="485.92" width="22.68" height="2.93"/><rect class="a" x="176.01" y="530.08" width="22.68" height="2.93"/><rect class="a" x="199.85" y="530.08" width="22.68" height="2.93"/><rect class="a" x="269.95" y="485.92" width="22.68" height="2.93"/><rect class="a" x="292.63" y="485.92" width="22.68" height="2.93"/><rect class="a" x="328.41" y="548.13" width="22.68" height="2.93"/><rect class="a" x="351.1" y="548.13" width="22.68" height="2.93"/><rect class="a" x="463.42" y="567.37" width="22.68" height="2.93"/><rect class="a" x="486.1" y="567.37" width="22.68" height="2.93"/><rect class="a" x="524.67" y="520.3" width="22.68" height="2.93"/><rect class="a" x="547.36" y="520.3" width="22.68" height="2.93"/><rect class="a" x="542.57" y="496.4" width="22.68" height="2.93"/><rect class="a" x="567.2" y="496.4" width="22.68" height="2.93"/><rect class="a" x="592.3" y="496.4" width="22.68" height="2.93"/><rect class="a" x="779.21" y="527.4" width="22.08" height="2.93"/><rect class="a" x="803.2" y="527.4" width="22.08" height="2.93"/><rect class="a" x="827.64" y="527.4" width="22.08" height="2.93"/><rect class="a" x="869.96" y="514.71" width="22.08" height="2.93"/><rect class="a" x="894.4" y="514.71" width="22.08" height="2.93"/><rect class="a" x="934.3" y="545.71" width="22.08" height="2.93"/><rect class="a" x="973.9" y="538.29" width="22.08" height="2.93"/><rect class="a" x="995.98" y="538.29" width="22.08" height="2.93"/><rect class="a" x="1018.07" y="538.29" width="22.08" height="2.93"/><rect class="a" x="1023.79" y="509.64" width="22.08" height="2.93"/><rect class="a" x="1045.87" y="509.64" width="22.08" height="2.93"/><rect class="a" x="1067.96" y="509.64" width="22.08" height="2.93"/><rect class="a" x="1111.02" y="475.97" width="22.08" height="2.93"/><rect class="a" x="1133.1" y="475.97" width="22.08" height="2.93"/><rect class="a" x="1155.19" y="475.97" width="22.08" height="2.93"/><rect class="a" x="1203.96" y="483.42" width="22.08" height="2.93"/><rect class="a" x="1226.04" y="483.42" width="22.08" height="2.93"/><rect class="a" x="1248.13" y="483.42" width="22.08" height="2.93"/><rect class="a" x="1081.62" y="532.88" width="22.08" height="2.93"/><rect class="a" x="1103.7" y="532.88" width="22.08" height="2.93"/><rect class="a" x="719.06" y="511.79" width="22.68" height="2.93"/><rect class="a" x="744.17" y="511.79" width="22.68" height="2.93"/><rect class="a" x="508.78" y="567.37" width="22.68" height="2.93"/><rect class="a" x="531.46" y="567.37" width="17.24" height="2.93"/><rect class="a" x="373.78" y="548.13" width="16.75" height="2.93"/><rect class="a" x="385.94" y="522.44" width="23.79" height="2.93"/><rect class="a" x="409.73" y="522.44" width="23.79" height="2.93"/><rect class="a" x="434.27" y="522.44" width="23.79" height="2.93"/><rect class="a" x="401.38" y="582.19" width="8.35" height="2.93"/><rect class="a" x="409.73" y="582.19" width="23.79" height="2.93"/><rect class="a" x="434.27" y="582.19" width="23.79" height="2.93"/><rect class="a" x="463.81" y="522.44" width="11.31" height="2.93"/><rect class="a" x="476.24" y="522.44" width="11.95" height="2.93"/><rect class="a" x="385.94" y="460.18" width="23.79" height="2.93"/><rect class="a" x="409.73" y="460.18" width="23.79" height="2.93"/><rect class="a" x="434.27" y="460.18" width="23.79" height="2.93"/><rect class="a" x="463.81" y="460.18" width="11.31" height="2.93"/><rect class="a" x="476.24" y="460.18" width="11.95" height="2.93"/><rect class="a" x="385.94" y="399.54" width="23.79" height="2.93"/><rect class="a" x="409.73" y="399.54" width="23.79" height="2.93"/><rect class="a" x="434.27" y="399.54" width="23.79" height="2.93"/><rect class="a" x="463.81" y="399.54" width="11.31" height="2.93"/><rect class="a" x="476.24" y="399.54" width="11.95" height="2.93"/><rect class="a" x="385.94" y="344.65" width="23.79" height="2.93"/><rect class="a" x="409.73" y="344.65" width="23.79" height="2.93"/><rect class="a" x="434.27" y="344.65" width="23.79" height="2.93"/><rect class="a" x="463.81" y="344.65" width="11.31" height="2.93"/><rect class="a" x="476.24" y="344.65" width="11.95" height="2.93"/><rect class="a" x="385.94" y="285.42" width="23.79" height="2.93"/><rect class="a" x="409.73" y="285.42" width="23.79" height="2.93"/><rect class="a" x="434.27" y="285.42" width="23.79" height="2.93"/><rect class="a" x="463.81" y="285.42" width="11.31" height="2.93"/><rect class="a" x="476.24" y="285.42" width="11.95" height="2.93"/></svg>