<svg xmlns="http://www.w3.org/2000/svg" viewBox="0 0 1438.13 809.38"><defs><style>.a{fill:#00abff;stroke:#fff;stroke-miterlimit:10;}</style></defs><title>Solar Panel</title><rect class="a" x="18.63" y="533.01" width="22.68" height="2.93"/><rect class="a" x="38.31" y="533.01" width="22.68" height="2.93"/><rect class="a" x="59.5" y="533.01" width="22.68" height="2.93"/><rect class="a" x="74.09" y="510.48" width="21.22" height="2.93"/><rect class="a" x="59.17" y="440.29" width="13.13" height="2.93"/><rect class="a" x="190.72" y="420.77" width="13.13" height="2.93"/><rect class="a" x="87.05" y="462.72" width="13.13" height="2.93"/><rect class="a" x="213.75" y="410.53" width="13.13" height="2.93"/><rect class="a" x="513.11" y="401.75" width="13.13" height="2.93"/><rect class="a" x="547.99" y="401.75" width="13.13" height="2.93"/><rect class="a" x="726.1" y="445.41" width="13.13" height="2.93"/><rect class="a" x="705.73" y="466.09" width="13.13" height="2.93"/><rect class="a" x="753.03" y="432.64" width="13.13" height="2.93"/><rect class="a" x="794.16" y="451.02" width="13.13" height="2.93"/><rect class="a" x="873.31" y="487.15" width="13.13" height="2.93"/><rect class="a" x="285.45" y="386.3" width="13.13" height="2.93"/><rect class="a" x="298.58" y="386.3" width="13.13" height="2.93"/><rect class="a" x="315.53" y="386.3" width="13.13" height="2.93"/><rect class="a" x="328.66" y="386.3" width="13.13" height="2.93"/><rect class="a" x="95.31" y="510.48" width="21.22" height="2.93"/><rect class="a" x="116.54" y="510.48" width="21.22" height="2.93"/><rect class="a" x="165.43" y="485.92" width="22.68" height="2.93"/><rect class="a" x="189.51" y="485.92" width="22.68" height="2.93"/><rect class="a" x="247.26" y="485.92" width="22.68" height="2.93"/><rect class="a" x="176.01" y="530.08" width="22.68" height="2.93"/><rect class="a" x="199.85" y="530.08" width="22.68" height="2.93"/><rect class="a" x="269.95" y="485.92" width="22.68" height="2.93"/><rect class="a" x="292.63" y="485.92" width="22.68" height="2.93"/><rect class="a" x="328.41" y="548.13" width="22.68" height="2.93"/><rect class="a" x="351.1" y="548.13" width="22.68" height="2.93"/><rect class="a" x="463.42" y="567.37" width="22.68" height="2.93"/><rect class="a" x="486.1" y="567.37" width="22.68" height="2.93"/><rect class="a" x="524.67" y="520.3" width="22.68" height="2.93"/><rect class="a" x="547.36" y="520.3" width="22.68" height="2.93"/><rect class="a" x="542.57" y="496.4" width="22.68" height="2.93"/><rect class="a" x="567.2" y="496.4" width="22.68" height="2.93"/><rect class="a" x="592.3" y="496.4" width="22.68" height="2.93"/><rect class="a" x="779.21" y="527.4" width="22.08" height="2.93"/><rect class="a" x="803.2" y="527.4" width="22.08" height="2.93"/><rect class="a" x="827.64" y="527.4" width="22.08" height="2.93"/><rect class="a" x="719.06" y="511.79" width="22.68" height="2.93"/><rect class="a" x="744.17" y="511.79" width="22.68" height="2.93"/><rect class="a" x="508.78" y="567.37" width="22.68" height="2.93"/><rect class="a" x="531.46" y="567.37" width="17.24" height="2.93"/><rect class="a" x="373.78" y="548.13" width="16.75" height="2.93"/><rect class="a" x="385.94" y="522.44" width="23.79" height="2.93"/><rect class="a" x="409.73" y="522.44" width="23.79" height="2.93"/><rect class="a" x="434.27" y="522.44" width="23.79" height="2.93"/><rect class="a" x="401.38" y="582.19" width="8.35" height="2.93"/><rect class="a" x="409.73" y="582.19" width="23.79" height="2.93"/><rect class="a" x="434.27" y="582.19" width="23.79" height="2.93"/><rect class="a" x="463.81" y="522.44" width="11.31" height="2.93"/><rect class="a" x="476.24" y="522.44" width="11.95" height="2.93"/><rect class="a" x="385.94" y="460.18" width="23.79" height="2.93"/><rect class="a" x="409.73" y="460.18" width="23.79" height="2.93"/><rect class="a" x="434.27" y="460.18" width="23.79" height="2.93"/><rect class="a" x="463.81" y="460.18" width="11.31" height="2.93"/><rect class="a" x="476.24" y="460.18" width="11.95" height="2.93"/><rect class="a" x="385.94" y="399.54" width="23.79" height="2.93"/><rect class="a" x="409.73" y="399.54" width="23.79" height="2.93"/><rect class="a" x="434.27" y="399.54" width="23.79" height="2.93"/><rect class="a" x="463.81" y="399.54" width="11.31" height="2.93"/><rect class="a" x="476.24" y="399.54" width="11.95" height="2.93"/><rect class="a" x="385.94" y="344.65" width="23.79" height="2.93"/><rect class="a" x="409.73" y="344.65" width="23.79" height="2.93"/><rect class="a" x="434.27" y="344.65" width="23.79" height="2.93"/><rect class="a" x="463.81" y="344.65" width="11.31" height="2.93"/><rect class="a" x="476.24" y="344.65" width="11.95" height="2.93"/><rect class="a" x="385.94" y="285.42" width="23.79" height="2.93"/><rect class="a" x="409.73" y="285.42" width="23.79" height="2.93"/><rect class="a" x="434.27" y="285.42" width="23.79" height="2.93"/><rect class="a" x="463.81" y="285.42" width="11.31" height="2.93"/><rect class="a" x="476.24" y="285.42" width="11.95" height="2.93"/></svg>