<svg xmlns="http://www.w3.org/2000/svg" viewBox="0 0 429.52 733.09"><defs><style>.a{fill:#00abff;}</style></defs><title>Mobile Solar Panel</title><rect class="a" x="70.66" y="454.26" width="4.87" height="9.11" transform="translate(531.91 385.73) rotate(90)"/><rect class="a" x="80.73" y="454.26" width="4.87" height="9.11" transform="translate(541.99 375.65) rotate(90)"/><rect class="a" x="90.81" y="454.26" width="4.87" height="9.11" transform="translate(552.06 365.57) rotate(90)"/><rect class="a" x="70.66" y="460.32" width="4.87" height="9.11" transform="translate(537.97 391.78) rotate(90)"/><rect class="a" x="80.73" y="460.32" width="4.87" height="9.11" transform="translate(548.04 381.71) rotate(90)"/><rect class="a" x="90.81" y="460.32" width="4.87" height="9.11" transform="translate(558.12 371.63) rotate(90)"/><rect class="a" x="70.66" y="466.38" width="4.87" height="9.11" transform="translate(544.02 397.84) rotate(90)"/><rect class="a" x="80.73" y="466.38" width="4.87" height="9.11" transform="translate(554.1 387.76) rotate(90)"/><rect class="a" x="90.81" y="466.38" width="4.87" height="9.11" transform="translate(564.18 377.69) rotate(90)"/><rect class="a" x="70.66" y="472.43" width="4.87" height="9.11" transform="translate(550.08 403.9) rotate(90)"/><rect class="a" x="80.73" y="472.43" width="4.87" height="9.11" transform="translate(560.16 393.82) rotate(90)"/><rect class="a" x="90.81" y="472.43" width="4.87" height="9.11" transform="translate(570.23 383.75) rotate(90)"/><rect class="a" x="82.04" y="514.78" width="4.87" height="9.11" transform="translate(603.81 434.86) rotate(90)"/><rect class="a" x="92.11" y="514.78" width="4.87" height="9.11" transform="translate(613.88 424.78) rotate(90)"/><rect class="a" x="102.19" y="514.78" width="4.87" height="9.11" transform="translate(623.96 414.71) rotate(90)"/><rect class="a" x="82.04" y="520.83" width="4.87" height="9.11" transform="translate(609.86 440.91) rotate(90)"/><rect class="a" x="92.11" y="520.83" width="4.87" height="9.11" transform="translate(619.94 430.84) rotate(90)"/><rect class="a" x="102.19" y="520.83" width="4.87" height="9.11" transform="translate(630.01 420.76) rotate(90)"/><rect class="a" x="82.04" y="526.89" width="4.87" height="9.11" transform="translate(615.92 446.97) rotate(90)"/><rect class="a" x="92.11" y="526.89" width="4.87" height="9.11" transform="translate(626 436.89) rotate(90)"/><rect class="a" x="102.19" y="526.89" width="4.87" height="9.11" transform="translate(636.07 426.82) rotate(90)"/><rect class="a" x="82.04" y="532.95" width="4.87" height="9.11" transform="translate(621.98 453.03) rotate(90)"/><rect class="a" x="92.11" y="532.95" width="4.87" height="9.11" transform="translate(632.05 442.95) rotate(90)"/><rect class="a" x="102.19" y="532.95" width="4.87" height="9.11" transform="translate(642.13 432.88) rotate(90)"/><rect class="a" x="111.3" y="537.82" width="4.87" height="9.11" transform="translate(656.11 428.64) rotate(90)"/><rect class="a" x="121.37" y="537.82" width="4.87" height="9.11" transform="translate(666.19 418.57) rotate(90)"/><rect class="a" x="131.45" y="537.82" width="4.87" height="9.11" transform="translate(676.26 408.49) rotate(90)"/><rect class="a" x="111.3" y="543.88" width="4.87" height="9.11" transform="translate(662.17 434.7) rotate(90)"/><rect class="a" x="121.37" y="543.88" width="4.87" height="9.11" transform="translate(672.24 424.62) rotate(90)"/><rect class="a" x="131.45" y="543.88" width="4.87" height="9.11" transform="translate(682.32 414.55) rotate(90)"/><rect class="a" x="111.3" y="549.93" width="4.87" height="9.11" transform="translate(668.22 440.75) rotate(90)"/><rect class="a" x="121.37" y="549.93" width="4.87" height="9.11" transform="translate(678.3 430.68) rotate(90)"/><rect class="a" x="131.45" y="549.93" width="4.87" height="9.11" transform="translate(688.37 420.6) rotate(90)"/><rect class="a" x="111.3" y="555.99" width="4.87" height="9.11" transform="translate(674.28 446.81) rotate(90)"/><rect class="a" x="121.37" y="555.99" width="4.87" height="9.11" transform="translate(684.36 436.74) rotate(90)"/><rect class="a" x="131.45" y="555.99" width="4.87" height="9.11" transform="translate(694.43 426.66) rotate(90)"/><rect class="a" x="328.78" y="76.61" width="4.87" height="9.11" transform="translate(412.38 -250.05) rotate(90)"/><rect class="a" x="338.86" y="76.61" width="4.87" height="9.11" transform="translate(422.46 -260.13) rotate(90)"/><rect class="a" x="348.93" y="76.61" width="4.87" height="9.11" transform="translate(432.54 -270.2) rotate(90)"/><rect class="a" x="328.78" y="82.67" width="4.87" height="9.11" transform="translate(418.44 -244) rotate(90)"/><rect class="a" x="338.86" y="82.67" width="4.87" height="9.11" transform="translate(428.52 -254.07) rotate(90)"/><rect class="a" x="348.93" y="82.67" width="4.87" height="9.11" transform="translate(438.59 -264.15) rotate(90)"/><rect class="a" x="328.78" y="88.73" width="4.87" height="9.11" transform="translate(424.5 -237.94) rotate(90)"/><rect class="a" x="338.86" y="88.73" width="4.87" height="9.11" transform="translate(434.57 -248.01) rotate(90)"/><rect class="a" x="348.93" y="88.73" width="4.87" height="9.11" transform="translate(444.65 -258.09) rotate(90)"/><rect class="a" x="328.78" y="94.78" width="4.87" height="9.11" transform="translate(430.56 -231.88) rotate(90)"/><rect class="a" x="338.86" y="94.78" width="4.87" height="9.11" transform="translate(440.63 -241.96) rotate(90)"/><rect class="a" x="348.93" y="94.78" width="4.87" height="9.11" transform="translate(450.71 -252.03) rotate(90)"/><rect class="a" x="328.78" y="52.58" width="4.87" height="9.11" transform="translate(388.36 -274.08) rotate(90)"/><rect class="a" x="338.86" y="52.58" width="4.87" height="9.11" transform="translate(398.43 -284.16) rotate(90)"/><rect class="a" x="348.93" y="52.58" width="4.87" height="9.11" transform="translate(408.51 -294.23) rotate(90)"/><rect class="a" x="328.78" y="58.64" width="4.87" height="9.11" transform="translate(394.41 -268.02) rotate(90)"/><rect class="a" x="338.86" y="58.64" width="4.87" height="9.11" transform="translate(404.49 -278.1) rotate(90)"/><rect class="a" x="348.93" y="58.64" width="4.87" height="9.11" transform="translate(414.56 -288.18) rotate(90)"/><rect class="a" x="328.78" y="64.7" width="4.87" height="9.11" transform="translate(400.47 -261.97) rotate(90)"/><rect class="a" x="338.86" y="64.7" width="4.87" height="9.11" transform="translate(410.55 -272.04) rotate(90)"/><rect class="a" x="348.93" y="64.7" width="4.87" height="9.11" transform="translate(420.62 -282.12) rotate(90)"/><rect class="a" x="328.78" y="70.75" width="4.87" height="9.11" transform="translate(406.53 -255.91) rotate(90)"/><rect class="a" x="338.86" y="70.75" width="4.87" height="9.11" transform="translate(416.6 -265.99) rotate(90)"/><rect class="a" x="348.93" y="70.75" width="4.87" height="9.11" transform="translate(426.68 -276.06) rotate(90)"/><rect class="a" x="298.55" y="52.58" width="4.87" height="9.11" transform="translate(358.13 -243.85) rotate(90)"/><rect class="a" x="308.63" y="52.58" width="4.87" height="9.11" transform="translate(368.2 -253.93) rotate(90)"/><rect class="a" x="318.71" y="52.58" width="4.87" height="9.11" transform="translate(378.28 -264.01) rotate(90)"/><rect class="a" x="298.55" y="58.64" width="4.87" height="9.11" transform="translate(364.19 -237.8) rotate(90)"/><rect class="a" x="308.63" y="58.64" width="4.87" height="9.11" transform="translate(374.26 -247.87) rotate(90)"/><rect class="a" x="318.71" y="58.64" width="4.87" height="9.11" transform="translate(384.34 -257.95) rotate(90)"/><rect class="a" x="298.55" y="64.7" width="4.87" height="9.11" transform="translate(370.24 -231.74) rotate(90)"/><rect class="a" x="308.63" y="64.7" width="4.87" height="9.11" transform="translate(380.32 -241.82) rotate(90)"/><rect class="a" x="318.71" y="64.7" width="4.87" height="9.11" transform="translate(390.39 -251.89) rotate(90)"/><rect class="a" x="298.55" y="70.75" width="4.87" height="9.11" transform="translate(376.3 -225.68) rotate(90)"/><rect class="a" x="308.63" y="70.75" width="4.87" height="9.11" transform="translate(386.38 -235.76) rotate(90)"/><rect class="a" x="318.71" y="70.75" width="4.87" height="9.11" transform="translate(396.45 -245.83) rotate(90)"/><rect class="a" x="328.78" y="121.52" width="4.87" height="9.11" transform="translate(457.29 -205.14) rotate(90)"/><rect class="a" x="338.86" y="121.52" width="4.87" height="9.11" transform="translate(467.37 -215.22) rotate(90)"/><rect class="a" x="348.93" y="121.52" width="4.87" height="9.11" transform="translate(477.45 -225.29) rotate(90)"/><rect class="a" x="328.78" y="127.58" width="4.87" height="9.11" transform="translate(463.35 -199.09) rotate(90)"/><rect class="a" x="338.86" y="127.58" width="4.87" height="9.11" transform="translate(473.43 -209.16) rotate(90)"/><rect class="a" x="348.93" y="127.58" width="4.87" height="9.11" transform="translate(483.5 -219.24) rotate(90)"/><rect class="a" x="328.78" y="133.64" width="4.87" height="9.11" transform="translate(469.41 -193.03) rotate(90)"/><rect class="a" x="338.86" y="133.64" width="4.87" height="9.11" transform="translate(479.48 -203.1) rotate(90)"/><rect class="a" x="348.93" y="133.64" width="4.87" height="9.11" transform="translate(489.56 -213.18) rotate(90)"/><rect class="a" x="328.78" y="139.69" width="4.87" height="9.11" transform="translate(475.46 -186.97) rotate(90)"/><rect class="a" x="338.86" y="139.69" width="4.87" height="9.11" transform="translate(485.54 -197.05) rotate(90)"/><rect class="a" x="348.93" y="139.69" width="4.87" height="9.11" transform="translate(495.62 -207.12) rotate(90)"/><rect class="a" x="298.55" y="146.02" width="4.87" height="9.11" transform="translate(451.57 -150.41) rotate(90)"/><rect class="a" x="308.63" y="146.02" width="4.87" height="9.11" transform="translate(461.65 -160.49) rotate(90)"/><rect class="a" x="318.71" y="146.02" width="4.87" height="9.11" transform="translate(471.72 -170.56) rotate(90)"/><rect class="a" x="298.55" y="152.08" width="4.87" height="9.11" transform="translate(457.63 -144.36) rotate(90)"/><rect class="a" x="308.63" y="152.08" width="4.87" height="9.11" transform="translate(467.7 -154.43) rotate(90)"/><rect class="a" x="318.71" y="152.08" width="4.87" height="9.11" transform="translate(477.78 -164.51) rotate(90)"/><rect class="a" x="298.55" y="158.14" width="4.87" height="9.11" transform="translate(463.68 -138.3) rotate(90)"/><rect class="a" x="308.63" y="158.14" width="4.87" height="9.11" transform="translate(473.76 -148.38) rotate(90)"/><rect class="a" x="318.71" y="158.14" width="4.87" height="9.11" transform="translate(483.83 -158.45) rotate(90)"/><rect class="a" x="298.55" y="164.19" width="4.87" height="9.11" transform="translate(469.74 -132.24) rotate(90)"/><rect class="a" x="308.63" y="164.19" width="4.87" height="9.11" transform="translate(479.82 -142.32) rotate(90)"/><rect class="a" x="318.71" y="164.19" width="4.87" height="9.11" transform="translate(489.89 -152.39) rotate(90)"/><rect class="a" x="228.26" y="200.94" width="4.87" height="9.11" transform="translate(436.19 -25.2) rotate(90)"/><rect class="a" x="238.34" y="200.94" width="4.87" height="9.11" transform="translate(446.27 -35.28) rotate(90)"/><rect class="a" x="248.41" y="200.94" width="4.87" height="9.11" transform="translate(456.34 -45.35) rotate(90)"/><rect class="a" x="228.26" y="207" width="4.87" height="9.11" transform="translate(442.25 -19.14) rotate(90)"/><rect class="a" x="238.34" y="207" width="4.87" height="9.11" transform="translate(452.33 -29.22) rotate(90)"/><rect class="a" x="248.41" y="207" width="4.87" height="9.11" transform="translate(462.4 -39.3) rotate(90)"/><rect class="a" x="228.26" y="213.06" width="4.87" height="9.11" transform="translate(448.31 -13.09) rotate(90)"/><rect class="a" x="238.34" y="213.06" width="4.87" height="9.11" transform="translate(458.38 -23.16) rotate(90)"/><rect class="a" x="248.41" y="213.06" width="4.87" height="9.11" transform="translate(468.46 -33.24) rotate(90)"/><rect class="a" x="228.26" y="219.11" width="4.87" height="9.11" transform="translate(454.36 -7.03) rotate(90)"/><rect class="a" x="238.34" y="219.11" width="4.87" height="9.11" transform="translate(464.44 -17.11) rotate(90)"/><rect class="a" x="248.41" y="219.11" width="4.87" height="9.11" transform="translate(474.52 -27.18) rotate(90)"/><rect class="a" x="167.84" y="200.94" width="4.87" height="9.11" transform="translate(375.78 35.22) rotate(90)"/><rect class="a" x="177.92" y="200.94" width="4.87" height="9.11" transform="translate(385.85 25.14) rotate(90)"/><rect class="a" x="187.99" y="200.94" width="4.87" height="9.11" transform="translate(395.93 15.06) rotate(90)"/><rect class="a" x="167.84" y="207" width="4.87" height="9.11" transform="translate(381.83 41.27) rotate(90)"/><rect class="a" x="177.92" y="207" width="4.87" height="9.11" transform="translate(391.91 31.2) rotate(90)"/><rect class="a" x="187.99" y="207" width="4.87" height="9.11" transform="translate(401.98 21.12) rotate(90)"/><rect class="a" x="167.84" y="213.06" width="4.87" height="9.11" transform="translate(387.89 47.33) rotate(90)"/><rect class="a" x="177.92" y="213.06" width="4.87" height="9.11" transform="translate(397.97 37.25) rotate(90)"/><rect class="a" x="187.99" y="213.06" width="4.87" height="9.11" transform="translate(408.04 27.18) rotate(90)"/><rect class="a" x="167.84" y="219.11" width="4.87" height="9.11" transform="translate(393.95 53.39) rotate(90)"/><rect class="a" x="177.92" y="219.11" width="4.87" height="9.11" transform="translate(404.02 43.31) rotate(90)"/><rect class="a" x="187.99" y="219.11" width="4.87" height="9.11" transform="translate(414.1 33.24) rotate(90)"/><rect class="a" x="198.04" y="177.76" width="4.87" height="9.11" transform="translate(382.79 -18.17) rotate(90)"/><rect class="a" x="208.12" y="177.76" width="4.87" height="9.11" transform="translate(392.86 -28.24) rotate(90)"/><rect class="a" x="218.19" y="177.76" width="4.87" height="9.11" transform="translate(402.94 -38.32) rotate(90)"/><rect class="a" x="198.04" y="183.81" width="4.87" height="9.11" transform="translate(388.84 -12.11) rotate(90)"/><rect class="a" x="208.12" y="183.81" width="4.87" height="9.11" transform="translate(398.92 -22.18) rotate(90)"/><rect class="a" x="218.19" y="183.81" width="4.87" height="9.11" transform="translate(409 -32.26) rotate(90)"/><rect class="a" x="198.04" y="189.87" width="4.87" height="9.11" transform="translate(394.9 -6.05) rotate(90)"/><rect class="a" x="208.12" y="189.87" width="4.87" height="9.11" transform="translate(404.98 -16.13) rotate(90)"/><rect class="a" x="218.19" y="189.87" width="4.87" height="9.11" transform="translate(415.05 -26.2) rotate(90)"/><rect class="a" x="198.04" y="195.93" width="4.87" height="9.11" transform="translate(400.96 0.01) rotate(90)"/><rect class="a" x="208.12" y="195.93" width="4.87" height="9.11" transform="translate(411.03 -10.07) rotate(90)"/><rect class="a" x="218.19" y="195.93" width="4.87" height="9.11" transform="translate(421.11 -20.15) rotate(90)"/><rect class="a" x="198.04" y="230.81" width="4.87" height="9.11" transform="translate(435.84 34.89) rotate(90)"/><rect class="a" x="208.12" y="230.81" width="4.87" height="9.11" transform="translate(445.92 24.81) rotate(90)"/><rect class="a" x="218.19" y="230.81" width="4.87" height="9.11" transform="translate(455.99 14.74) rotate(90)"/><rect class="a" x="198.04" y="236.87" width="4.87" height="9.11" transform="translate(441.9 40.95) rotate(90)"/><rect class="a" x="208.12" y="236.87" width="4.87" height="9.11" transform="translate(451.97 30.87) rotate(90)"/><rect class="a" x="218.19" y="236.87" width="4.87" height="9.11" transform="translate(462.05 20.79) rotate(90)"/><rect class="a" x="198.04" y="242.92" width="4.87" height="9.11" transform="translate(447.95 47) rotate(90)"/><rect class="a" x="208.12" y="242.92" width="4.87" height="9.11" transform="translate(458.03 36.93) rotate(90)"/><rect class="a" x="218.19" y="242.92" width="4.87" height="9.11" transform="translate(468.11 26.85) rotate(90)"/><rect class="a" x="198.04" y="248.98" width="4.87" height="9.11" transform="translate(454.01 53.06) rotate(90)"/><rect class="a" x="208.12" y="248.98" width="4.87" height="9.11" transform="translate(464.09 42.98) rotate(90)"/><rect class="a" x="218.19" y="248.98" width="4.87" height="9.11" transform="translate(474.16 32.91) rotate(90)"/><rect class="a" x="224.05" y="373.16" width="4.87" height="9.11" transform="translate(604.2 151.23) rotate(90)"/><rect class="a" x="234.12" y="373.16" width="4.87" height="9.11" transform="translate(614.28 141.16) rotate(90)"/><rect class="a" x="244.2" y="373.16" width="4.87" height="9.11" transform="translate(624.35 131.08) rotate(90)"/><rect class="a" x="224.05" y="379.22" width="4.87" height="9.11" transform="translate(610.26 157.29) rotate(90)"/><rect class="a" x="234.12" y="379.22" width="4.87" height="9.11" transform="translate(620.33 147.22) rotate(90)"/><rect class="a" x="244.2" y="379.22" width="4.87" height="9.11" transform="translate(630.41 137.14) rotate(90)"/><rect class="a" x="224.05" y="385.28" width="4.87" height="9.11" transform="translate(616.31 163.35) rotate(90)"/><rect class="a" x="234.12" y="385.28" width="4.87" height="9.11" transform="translate(626.39 153.27) rotate(90)"/><rect class="a" x="244.2" y="385.28" width="4.87" height="9.11" transform="translate(636.46 143.2) rotate(90)"/><rect class="a" x="224.05" y="391.33" width="4.87" height="9.11" transform="translate(622.37 169.4) rotate(90)"/><rect class="a" x="234.12" y="391.33" width="4.87" height="9.11" transform="translate(632.45 159.33) rotate(90)"/><rect class="a" x="244.2" y="391.33" width="4.87" height="9.11" transform="translate(642.52 149.25) rotate(90)"/><rect class="a" x="224.05" y="397.19" width="4.87" height="9.11" transform="translate(628.23 175.26) rotate(90)"/><rect class="a" x="234.12" y="397.19" width="4.87" height="9.11" transform="translate(638.3 165.19) rotate(90)"/><rect class="a" x="244.2" y="397.19" width="4.87" height="9.11" transform="translate(648.38 155.11) rotate(90)"/><rect class="a" x="224.05" y="403.25" width="4.87" height="9.11" transform="translate(634.29 181.32) rotate(90)"/><rect class="a" x="234.12" y="403.25" width="4.87" height="9.11" transform="translate(644.36 171.24) rotate(90)"/><rect class="a" x="244.2" y="403.25" width="4.87" height="9.11" transform="translate(654.44 161.17) rotate(90)"/><rect class="a" x="224.05" y="409.31" width="4.87" height="9.11" transform="translate(640.34 187.38) rotate(90)"/><rect class="a" x="234.12" y="409.31" width="4.87" height="9.11" transform="translate(650.42 177.3) rotate(90)"/><rect class="a" x="244.2" y="409.31" width="4.87" height="9.11" transform="translate(660.49 167.23) rotate(90)"/><rect class="a" x="224.05" y="415.36" width="4.87" height="9.11" transform="translate(646.4 193.43) rotate(90)"/><rect class="a" x="234.12" y="415.36" width="4.87" height="9.11" transform="translate(656.47 183.36) rotate(90)"/><rect class="a" x="244.2" y="415.36" width="4.87" height="9.11" transform="translate(666.55 173.28) rotate(90)"/><rect class="a" x="193.54" y="432.85" width="4.87" height="9.11" transform="translate(633.39 241.43) rotate(90)"/><rect class="a" x="203.62" y="432.85" width="4.87" height="9.11" transform="translate(643.46 231.35) rotate(90)"/><rect class="a" x="213.7" y="432.85" width="4.87" height="9.11" transform="translate(653.54 221.28) rotate(90)"/><rect class="a" x="193.54" y="438.91" width="4.87" height="9.11" transform="translate(639.44 247.48) rotate(90)"/><rect class="a" x="203.62" y="438.91" width="4.87" height="9.11" transform="translate(649.52 237.41) rotate(90)"/><rect class="a" x="213.7" y="438.91" width="4.87" height="9.11" transform="translate(659.6 227.33) rotate(90)"/><rect class="a" x="193.54" y="444.97" width="4.87" height="9.11" transform="translate(645.5 253.54) rotate(90)"/><rect class="a" x="203.62" y="444.97" width="4.87" height="9.11" transform="translate(655.58 243.46) rotate(90)"/><rect class="a" x="213.7" y="444.97" width="4.87" height="9.11" transform="translate(665.65 233.39) rotate(90)"/><rect class="a" x="193.54" y="451.02" width="4.87" height="9.11" transform="translate(651.56 259.6) rotate(90)"/><rect class="a" x="203.62" y="451.02" width="4.87" height="9.11" transform="translate(661.63 249.52) rotate(90)"/><rect class="a" x="213.7" y="451.02" width="4.87" height="9.11" transform="translate(671.71 239.45) rotate(90)"/><rect class="a" x="178.91" y="372.57" width="4.87" height="9.11" transform="translate(558.48 195.77) rotate(90)"/><rect class="a" x="188.99" y="372.57" width="4.87" height="9.11" transform="translate(568.55 185.7) rotate(90)"/><rect class="a" x="199.07" y="372.57" width="4.87" height="9.11" transform="translate(578.63 175.62) rotate(90)"/><rect class="a" x="178.91" y="378.63" width="4.87" height="9.11" transform="translate(564.53 201.83) rotate(90)"/><rect class="a" x="188.99" y="378.63" width="4.87" height="9.11" transform="translate(574.61 191.76) rotate(90)"/><rect class="a" x="199.07" y="378.63" width="4.87" height="9.11" transform="translate(584.68 181.68) rotate(90)"/><rect class="a" x="178.91" y="384.68" width="4.87" height="9.11" transform="translate(570.59 207.89) rotate(90)"/><rect class="a" x="188.99" y="384.68" width="4.87" height="9.11" transform="translate(580.67 197.81) rotate(90)"/><rect class="a" x="199.07" y="384.68" width="4.87" height="9.11" transform="translate(590.74 187.74) rotate(90)"/><rect class="a" x="178.91" y="390.74" width="4.87" height="9.11" transform="translate(576.65 213.94) rotate(90)"/><rect class="a" x="188.99" y="390.74" width="4.87" height="9.11" transform="translate(586.72 203.87) rotate(90)"/><rect class="a" x="199.07" y="390.74" width="4.87" height="9.11" transform="translate(596.8 193.79) rotate(90)"/><rect class="a" x="109.01" y="364.08" width="4.87" height="9.11" transform="translate(480.08 257.19) rotate(90)"/><rect class="a" x="119.08" y="364.08" width="4.87" height="9.11" transform="translate(490.15 247.11) rotate(90)"/><rect class="a" x="129.16" y="364.08" width="4.87" height="9.11" transform="translate(500.23 237.04) rotate(90)"/><rect class="a" x="109.01" y="370.13" width="4.87" height="9.11" transform="translate(486.13 263.24) rotate(90)"/><rect class="a" x="119.08" y="370.13" width="4.87" height="9.11" transform="translate(496.21 253.17) rotate(90)"/><rect class="a" x="129.16" y="370.13" width="4.87" height="9.11" transform="translate(506.28 243.09) rotate(90)"/><rect class="a" x="109.01" y="376.19" width="4.87" height="9.11" transform="translate(492.19 269.3) rotate(90)"/><rect class="a" x="119.08" y="376.19" width="4.87" height="9.11" transform="translate(502.27 259.23) rotate(90)"/><rect class="a" x="129.16" y="376.19" width="4.87" height="9.11" transform="translate(512.34 249.15) rotate(90)"/><rect class="a" x="109.01" y="382.25" width="4.87" height="9.11" transform="translate(498.25 275.36) rotate(90)"/><rect class="a" x="119.08" y="382.25" width="4.87" height="9.11" transform="translate(508.32 265.28) rotate(90)"/><rect class="a" x="129.16" y="382.25" width="4.87" height="9.11" transform="translate(518.4 255.21) rotate(90)"/><rect class="a" x="48.23" y="364.08" width="4.87" height="9.11" transform="translate(419.3 317.96) rotate(90)"/><rect class="a" x="58.31" y="364.08" width="4.87" height="9.11" transform="translate(429.38 307.89) rotate(90)"/><rect class="a" x="68.38" y="364.08" width="4.87" height="9.11" transform="translate(439.45 297.81) rotate(90)"/><rect class="a" x="48.23" y="370.13" width="4.87" height="9.11" transform="translate(425.36 324.02) rotate(90)"/><rect class="a" x="58.31" y="370.13" width="4.87" height="9.11" transform="translate(435.43 313.95) rotate(90)"/><rect class="a" x="68.38" y="370.13" width="4.87" height="9.11" transform="translate(445.51 303.87) rotate(90)"/><rect class="a" x="48.23" y="376.19" width="4.87" height="9.11" transform="translate(431.41 330.08) rotate(90)"/><rect class="a" x="58.31" y="376.19" width="4.87" height="9.11" transform="translate(441.49 320) rotate(90)"/><rect class="a" x="68.38" y="376.19" width="4.87" height="9.11" transform="translate(451.56 309.93) rotate(90)"/><rect class="a" x="48.23" y="382.25" width="4.87" height="9.11" transform="translate(437.47 336.13) rotate(90)"/><rect class="a" x="58.31" y="382.25" width="4.87" height="9.11" transform="translate(447.55 326.06) rotate(90)"/><rect class="a" x="68.38" y="382.25" width="4.87" height="9.11" transform="translate(457.62 315.98) rotate(90)"/><rect class="a" x="78.72" y="340.05" width="4.87" height="9.11" transform="translate(425.76 263.45) rotate(90)"/><rect class="a" x="88.79" y="340.05" width="4.87" height="9.11" transform="translate(435.83 253.37) rotate(90)"/><rect class="a" x="98.87" y="340.05" width="4.87" height="9.11" transform="translate(445.91 243.3) rotate(90)"/><rect class="a" x="78.72" y="346.11" width="4.87" height="9.11" transform="translate(431.82 269.5) rotate(90)"/><rect class="a" x="88.79" y="346.11" width="4.87" height="9.11" transform="translate(441.89 259.43) rotate(90)"/><rect class="a" x="98.87" y="346.11" width="4.87" height="9.11" transform="translate(451.97 249.35) rotate(90)"/><rect class="a" x="78.72" y="352.16" width="4.87" height="9.11" transform="translate(437.87 275.56) rotate(90)"/><rect class="a" x="88.79" y="352.16" width="4.87" height="9.11" transform="translate(447.95 265.49) rotate(90)"/><rect class="a" x="98.87" y="352.16" width="4.87" height="9.11" transform="translate(458.02 255.41) rotate(90)"/><rect class="a" x="78.72" y="358.22" width="4.87" height="9.11" transform="translate(443.93 281.62) rotate(90)"/><rect class="a" x="88.79" y="358.22" width="4.87" height="9.11" transform="translate(454 271.54) rotate(90)"/><rect class="a" x="98.87" y="358.22" width="4.87" height="9.11" transform="translate(464.08 261.47) rotate(90)"/><rect class="a" x="78.72" y="402.66" width="4.87" height="9.11" transform="translate(488.37 326.06) rotate(90)"/><rect class="a" x="88.79" y="402.66" width="4.87" height="9.11" transform="translate(498.44 315.98) rotate(90)"/><rect class="a" x="98.87" y="402.66" width="4.87" height="9.11" transform="translate(508.52 305.9) rotate(90)"/><rect class="a" x="78.72" y="408.71" width="4.87" height="9.11" transform="translate(494.42 332.11) rotate(90)"/><rect class="a" x="88.79" y="408.71" width="4.87" height="9.11" transform="translate(504.5 322.04) rotate(90)"/><rect class="a" x="98.87" y="408.71" width="4.87" height="9.11" transform="translate(514.57 311.96) rotate(90)"/><rect class="a" x="78.72" y="414.77" width="4.87" height="9.11" transform="translate(500.48 338.17) rotate(90)"/><rect class="a" x="88.79" y="414.77" width="4.87" height="9.11" transform="translate(510.56 328.09) rotate(90)"/><rect class="a" x="98.87" y="414.77" width="4.87" height="9.11" transform="translate(520.63 318.02) rotate(90)"/><rect class="a" x="78.72" y="420.83" width="4.87" height="9.11" transform="translate(506.54 344.23) rotate(90)"/><rect class="a" x="88.79" y="420.83" width="4.87" height="9.11" transform="translate(516.61 334.15) rotate(90)"/><rect class="a" x="98.87" y="420.83" width="4.87" height="9.11" transform="translate(526.69 324.07) rotate(90)"/><rect class="a" x="101.22" y="454.26" width="4.87" height="9.11" transform="translate(562.48 355.16) rotate(90)"/><rect class="a" x="111.3" y="454.26" width="4.87" height="9.11" transform="translate(572.55 345.08) rotate(90)"/><rect class="a" x="121.37" y="454.26" width="4.87" height="9.11" transform="translate(582.63 335.01) rotate(90)"/><rect class="a" x="101.22" y="460.32" width="4.87" height="9.11" transform="translate(568.53 361.22) rotate(90)"/><rect class="a" x="111.3" y="460.32" width="4.87" height="9.11" transform="translate(578.61 351.14) rotate(90)"/><rect class="a" x="121.37" y="460.32" width="4.87" height="9.11" transform="translate(588.68 341.07) rotate(90)"/><rect class="a" x="101.22" y="466.38" width="4.87" height="9.11" transform="translate(574.59 367.27) rotate(90)"/><rect class="a" x="111.3" y="466.38" width="4.87" height="9.11" transform="translate(584.67 357.2) rotate(90)"/><rect class="a" x="121.37" y="466.38" width="4.87" height="9.11" transform="translate(594.74 347.12) rotate(90)"/><rect class="a" x="101.22" y="472.43" width="4.87" height="9.11" transform="translate(580.65 373.33) rotate(90)"/><rect class="a" x="111.3" y="472.43" width="4.87" height="9.11" transform="translate(590.72 363.25) rotate(90)"/><rect class="a" x="121.37" y="472.43" width="4.87" height="9.11" transform="translate(600.8 353.18) rotate(90)"/><rect class="a" x="222.8" y="455.9" width="4.87" height="9.11" transform="translate(685.69 235.21) rotate(90)"/><rect class="a" x="232.88" y="455.9" width="4.87" height="9.11" transform="translate(695.77 225.13) rotate(90)"/><rect class="a" x="242.95" y="455.9" width="4.87" height="9.11" transform="translate(705.84 215.06) rotate(90)"/><rect class="a" x="222.8" y="461.95" width="4.87" height="9.11" transform="translate(691.75 241.27) rotate(90)"/><rect class="a" x="232.88" y="461.95" width="4.87" height="9.11" transform="translate(701.82 231.19) rotate(90)"/><rect class="a" x="242.95" y="461.95" width="4.87" height="9.11" transform="translate(711.9 221.12) rotate(90)"/><rect class="a" x="222.8" y="468.01" width="4.87" height="9.11" transform="translate(697.8 247.32) rotate(90)"/><rect class="a" x="232.88" y="468.01" width="4.87" height="9.11" transform="translate(707.88 237.25) rotate(90)"/><rect class="a" x="242.95" y="468.01" width="4.87" height="9.11" transform="translate(717.96 227.17) rotate(90)"/><rect class="a" x="222.8" y="474.07" width="4.87" height="9.11" transform="translate(703.86 253.38) rotate(90)"/><rect class="a" x="232.88" y="474.07" width="4.87" height="9.11" transform="translate(713.94 243.31) rotate(90)"/><rect class="a" x="242.95" y="474.07" width="4.87" height="9.11" transform="translate(724.01 233.23) rotate(90)"/><rect class="a" x="164.28" y="455.9" width="4.87" height="9.11" transform="translate(627.17 293.73) rotate(90)"/><rect class="a" x="174.36" y="455.9" width="4.87" height="9.11" transform="translate(637.25 283.65) rotate(90)"/><rect class="a" x="184.44" y="455.9" width="4.87" height="9.11" transform="translate(647.32 273.58) rotate(90)"/><rect class="a" x="164.28" y="461.95" width="4.87" height="9.11" transform="translate(633.23 299.79) rotate(90)"/><rect class="a" x="174.36" y="461.95" width="4.87" height="9.11" transform="translate(643.3 289.71) rotate(90)"/><rect class="a" x="184.44" y="461.95" width="4.87" height="9.11" transform="translate(653.38 279.63) rotate(90)"/><rect class="a" x="164.28" y="468.01" width="4.87" height="9.11" transform="translate(639.29 305.84) rotate(90)"/><rect class="a" x="174.36" y="468.01" width="4.87" height="9.11" transform="translate(649.36 295.77) rotate(90)"/><rect class="a" x="184.44" y="468.01" width="4.87" height="9.11" transform="translate(659.44 285.69) rotate(90)"/><rect class="a" x="164.28" y="474.07" width="4.87" height="9.11" transform="translate(645.34 311.9) rotate(90)"/><rect class="a" x="174.36" y="474.07" width="4.87" height="9.11" transform="translate(655.42 301.82) rotate(90)"/><rect class="a" x="184.44" y="474.07" width="4.87" height="9.11" transform="translate(665.49 291.75) rotate(90)"/><rect class="a" x="254.68" y="373.16" width="4.87" height="9.11" transform="translate(634.83 120.6) rotate(90)"/><rect class="a" x="264.76" y="373.16" width="4.87" height="9.11" transform="translate(644.91 110.52) rotate(90)"/><rect class="a" x="274.83" y="373.16" width="4.87" height="9.11" transform="translate(654.99 100.45) rotate(90)"/><rect class="a" x="254.68" y="379.22" width="4.87" height="9.11" transform="translate(640.89 126.66) rotate(90)"/><rect class="a" x="264.76" y="379.22" width="4.87" height="9.11" transform="translate(650.97 116.58) rotate(90)"/><rect class="a" x="274.83" y="379.22" width="4.87" height="9.11" transform="translate(661.04 106.51) rotate(90)"/><rect class="a" x="254.68" y="385.28" width="4.87" height="9.11" transform="translate(646.95 132.71) rotate(90)"/><rect class="a" x="264.76" y="385.28" width="4.87" height="9.11" transform="translate(657.02 122.64) rotate(90)"/><rect class="a" x="274.83" y="385.28" width="4.87" height="9.11" transform="translate(667.1 112.56) rotate(90)"/><rect class="a" x="254.68" y="391.33" width="4.87" height="9.11" transform="translate(653 138.77) rotate(90)"/><rect class="a" x="264.76" y="391.33" width="4.87" height="9.11" transform="translate(663.08 128.69) rotate(90)"/><rect class="a" x="274.83" y="391.33" width="4.87" height="9.11" transform="translate(673.16 118.62) rotate(90)"/><rect class="a" x="110.57" y="269.09" width="4.87" height="9.11" transform="translate(386.65 160.63) rotate(90)"/><rect class="a" x="120.65" y="269.09" width="4.87" height="9.11" transform="translate(396.72 150.56) rotate(90)"/><rect class="a" x="130.72" y="269.09" width="4.87" height="9.11" transform="translate(406.8 140.48) rotate(90)"/><rect class="a" x="110.57" y="275.14" width="4.87" height="9.11" transform="translate(392.71 166.69) rotate(90)"/><rect class="a" x="120.65" y="275.14" width="4.87" height="9.11" transform="translate(402.78 156.62) rotate(90)"/><rect class="a" x="130.72" y="275.14" width="4.87" height="9.11" transform="translate(412.86 146.54) rotate(90)"/><rect class="a" x="110.57" y="281.2" width="4.87" height="9.11" transform="translate(398.76 172.75) rotate(90)"/><rect class="a" x="120.65" y="281.2" width="4.87" height="9.11" transform="translate(408.84 162.67) rotate(90)"/><rect class="a" x="130.72" y="281.2" width="4.87" height="9.11" transform="translate(418.91 152.6) rotate(90)"/><rect class="a" x="110.57" y="287.26" width="4.87" height="9.11" transform="translate(404.82 178.81) rotate(90)"/><rect class="a" x="120.65" y="287.26" width="4.87" height="9.11" transform="translate(414.9 168.73) rotate(90)"/><rect class="a" x="130.72" y="287.26" width="4.87" height="9.11" transform="translate(424.97 158.65) rotate(90)"/><rect class="a" x="141.13" y="269.09" width="4.87" height="9.11" transform="translate(417.21 130.08) rotate(90)"/><rect class="a" x="151.2" y="269.09" width="4.87" height="9.11" transform="translate(427.28 120) rotate(90)"/><rect class="a" x="161.28" y="269.09" width="4.87" height="9.11" transform="translate(437.36 109.93) rotate(90)"/><rect class="a" x="141.13" y="275.14" width="4.87" height="9.11" transform="translate(423.26 136.13) rotate(90)"/><rect class="a" x="151.2" y="275.14" width="4.87" height="9.11" transform="translate(433.34 126.06) rotate(90)"/><rect class="a" x="161.28" y="275.14" width="4.87" height="9.11" transform="translate(443.41 115.98) rotate(90)"/><rect class="a" x="141.13" y="281.2" width="4.87" height="9.11" transform="translate(429.32 142.19) rotate(90)"/><rect class="a" x="151.2" y="281.2" width="4.87" height="9.11" transform="translate(439.4 132.12) rotate(90)"/><rect class="a" x="161.28" y="281.2" width="4.87" height="9.11" transform="translate(449.47 122.04) rotate(90)"/><rect class="a" x="141.13" y="287.26" width="4.87" height="9.11" transform="translate(435.38 148.25) rotate(90)"/><rect class="a" x="151.2" y="287.26" width="4.87" height="9.11" transform="translate(445.45 138.17) rotate(90)"/><rect class="a" x="161.28" y="287.26" width="4.87" height="9.11" transform="translate(455.53 128.1) rotate(90)"/></svg>