<svg xmlns="http://www.w3.org/2000/svg" viewBox="0 0 1437.13 808.38"><defs><style>.a,.c,.d{fill:#fff;}.a,.b,.d,.e,.g,.h{stroke:#000;stroke-miterlimit:10;}.a,.b{stroke-width:4px;}.b,.e,.f,.g,.h{fill:none;}.d,.e,.g,.h{stroke-width:3px;}.g,.h{stroke-linecap:round;}.h{stroke-dasharray:1.04 7.29;}.i{font-size:20px;}.i,.j,.k{fill:#00abff;}.i,.j{font-family:MicrosoftJhengHeiUIRegular, Microsoft JhengHei UI;letter-spacing:0.05em;}.j{font-size:10px;}</style></defs><title>Mobile hand phone</title><rect class="a" x="468.31" y="12.71" width="468.14" height="782.97" rx="58.23"/><rect class="a" x="480.14" y="24.54" width="444.98" height="759.29" rx="58.23"/><rect class="b" x="648.14" y="41.81" width="118.23" height="7.8" rx="3.9"/><path class="c" d="M1461.74,370.08V520.35l-368.56-1.64c-.32,0-6.92.8-6.92.8s-13.51,12.4-20,16.31-20,11.78-43,18.38S961,559.59,961,559.59l-22.83-.25s-.85-198.6-2.08-203-19.5,3.89-32.59,2.48c-16.2-1.73-49.26-3.72-58-16.29s-9.89-15.8-1.94-25.31,34.87-12.95,34.87-12.95L934,299s27.51-2.24,35.43-2.24c10,0,29.49,3.17,42.46,9.78s40.51,22,52.25,33.48,24,28.15,24,28.15Z"/><line class="d" x1="1461.74" y1="520.35" x2="1087.01" y2="518.66"/><path class="e" d="M938.4,559.34c19.2-.15,38.81,1,58-.67,62-5.38,90.57-40,90.57-40"/><path class="e" d="M1461.74,370.08l-373.61-1.91s-16.49-35.2-84-65.22c-23.1-10.28-59.55-5.09-76.7-3.19-28.35,3.13-61.26,4.1-77.38,12.89-23.64,12.9-9.15,33.37,16.72,41.56,23.4,7.4,48.72,4.37,76.42,1.27"/><path class="e" d="M953.06,498.45l.88-118.72s1.69,65.12,76.39,60.15"/><path class="c" d="M700.87,517.77c-.45,2.33-1,4.63-1.3,7a10.28,10.28,0,0,1-2.75,5.53c-3.45,4-8.05,6.54-12.46,9.35a93.81,93.81,0,0,0-10.63,7.52c-7,6-11.87,13.53-15.55,21.83a76.12,76.12,0,0,0-6,21.94c-.56,4.78.33,9.48,1.25,14.15.86,4.41,1.4,8.83.33,13.29a14.13,14.13,0,0,1-4.73,8,36.05,36.05,0,0,0-3.76,4.17,1,1,0,0,1-.33-1.7,8.3,8.3,0,0,1,1.47-1.36c4-3.05,5.55-7.16,5.75-12a37.53,37.53,0,0,0-1.46-11.83,41.3,41.3,0,0,1-.55-18.92c.87-4.65,2.16-9.24,3.43-13.82,1.52-5.48,4.46-10.32,7.75-14.94a104.38,104.38,0,0,1,15-17.47c3.94-3.54,8.07-6.88,12.24-10.16S697.19,521.85,700.87,517.77Z"/><path class="c" d="M805.48,318.57c0,3.88.17,7.31-.07,10.71a9.53,9.53,0,0,1-1.64,4.47,48.19,48.19,0,0,1-5.14,6.2,18.37,18.37,0,0,0-5.45,13.42,41.63,41.63,0,0,1-.3,5.12c-.63,5.21-3.52,9-8,11.6-3.45,2-7.07,3.64-10.6,5.45-4.28,2.19-8.28,4.79-11,8.74a71.27,71.27,0,0,0-4.23,7.79c-.43.84-.69,1.76-1.09,2.79-1-8.16,1.35-13.49,6.36-18.23,3.33-3.15,7.25-5.73,11-8.45,2.18-1.59,4.54-2.94,6.82-4.42,7-4.53,10.36-10.92,9.28-19-.9-6.71,1.2-12.14,5.6-17C799.66,324.8,802.42,321.87,805.48,318.57Z"/><path d="M732.09,447.66l.15-.16s0-.07,0-.1l0,.06Z"/><path d="M680.84,130l-.15-.18-.07,0,0,.06Z"/><path d="M643.66,578.45l.15-.15,0-.07,0,0Z"/><path d="M753.27,416.69l0,0,.12-.2-.15.16Z"/><path d="M647.37,577.62h0C647.41,577.48,647.44,577.4,647.37,577.62Z"/><path class="c" d="M841.74,213.23c-.23,2.61-.33,5.08-.71,7.51a5.86,5.86,0,0,1-1.45,2.7,18.39,18.39,0,0,1-3.19,2.91c-5.27,3.79-7.87,9-8.83,15.18a25.36,25.36,0,0,1-3.28,10,14.62,14.62,0,0,1-4.66,4.63A39.88,39.88,0,0,0,808.79,266c-3.44,4.57-4.92,9.85-5.8,15.34-.27,1.66-.43,3.34-.68,5.42-.51-2-.91-3.53-1.3-5.08a21,21,0,0,1,.4-11c1.71-6.21,4.13-12.09,8.47-17,1.58-1.8,3.35-3.44,5-5.14,2.17-2.18,4.59-4.16,6.44-6.58,1.53-2,3.06-4.4,3.41-6.79,1.18-8,5.94-13.44,12.09-18.13C838.39,215.88,839.88,214.68,841.74,213.23Z"/><path class="c" d="M646.74,645c-.39,4.22-.69,4.57-5,4.57-6.63,0-13-1.05-18.41-5.19a27.85,27.85,0,0,1-2.41-2.06,23.46,23.46,0,0,0-14.52-6.55,47.66,47.66,0,0,1-6-1.37,71.16,71.16,0,0,0,7.19-1.25c4.92-1.41,9,0,12.61,3.22.64.57,1.25,1.19,1.85,1.82,5,5.25,11.48,6.88,18.4,7.37A38.05,38.05,0,0,0,646.74,645Z"/><path class="c" d="M753.28,416.62c-.18,3.31-.33,6.63-.57,9.93a3.16,3.16,0,0,1-.76,1.8c-1.76,1.88-3.37,4-5.47,5.45a53.35,53.35,0,0,0-14.27,13.66l0,0c.76-6,3.71-11.11,7.32-15.84,1.56-2,3.53-3.77,5.27-5.67,2.84-3.1,5.66-6.22,8.48-9.33Z"/><path class="c" d="M713.19,111c.58,9.2-6.42,17.37-13,19.8a7.58,7.58,0,0,0,.19-2.77,9.91,9.91,0,0,0-1.82-2.5C701.43,119.71,707.94,113.25,713.19,111Z"/><path class="c" d="M686.84,124.45l-2.76,4.88c-6.36-4.54-8.28-11.48-9.82-18.82C678.11,112.34,684.28,119.27,686.84,124.45Z"/><path class="c" d="M696.21,123l-7,.64c-.83-5.62.49-11,3-16.62A34.64,34.64,0,0,1,696.21,123Z"/><path class="c" d="M669.65,140a10.63,10.63,0,0,1,1.57-1.51c2.68-1.71,5.36-3.41,8.13-5a4.6,4.6,0,0,1,2.74-.44c1.78.29,3.5.87,5.62,1.42A31.49,31.49,0,0,1,669.65,140Z"/><path class="c" d="M699.58,134.3c2.2-.4,4.55-.85,6.91-1.24a2.74,2.74,0,0,1,1.66,0c2.8,1.68,5.73,3.23,7.71,5.92a2.92,2.92,0,0,1,.28.77C711.9,140.49,703.91,137.78,699.58,134.3Z"/><path class="c" d="M698.62,120.17c-.4-2.3-.8-4.6-1.24-7.09l6.43-7.93c.29,2.79.61,4.94.69,7.11a4.08,4.08,0,0,1-.77,2.58C702.13,116.72,700.32,118.42,698.62,120.17Z"/><path class="c" d="M686.84,128.66c5.71-4.69,7.92-4,11.13-.06C694.59,133.91,690.43,133.93,686.84,128.66Z"/><path class="c" d="M686.73,119.54c-2-2.3-3.94-4.06-5.28-6.19-.85-1.34-.91-3.2-1.17-4.85a23.1,23.1,0,0,1,0-3.36c2.34,1.27,3.25,3.55,4.91,5.13.48.46.75,1.13,1.23,1.57a2.76,2.76,0,0,1,.79,3.29A22.62,22.62,0,0,0,686.73,119.54Z"/><path class="c" d="M705.6,130.8c1.88-1.91,3.47-3.69,5.25-5.26a5.37,5.37,0,0,1,2.84-1.17c1.81-.19,3.66-.05,5.86-.05C715.44,127.88,710.84,129.69,705.6,130.8Z"/><path class="c" d="M680.69,129.86c-3.2-1.94-6.43-3.84-9.59-5.86a41.77,41.77,0,0,1-3.74-3.12c1.74.46,3,.75,4.21,1.12,2.45.73,4.65,1.75,6,4.11a29.51,29.51,0,0,0,3.08,3.77Z"/><path class="c" d="M703.31,139.18l-6.57,1.15v-4.74Z"/><path class="c" d="M643.79,578.28l-.13.17.15-.15Z"/><path class="c" d="M732.21,447.46l-.12.2.15-.16Z"/><polygon class="c" points="680.67 129.88 680.84 130.04 680.69 129.86 680.67 129.88"/><path class="c" d="M713.48,121.87l-.12.24.12-.24Z"/><path class="c" d="M753.31,416.66l.12-.2-.15.16Z"/><polygon class="c" points="581.71 546.86 581.59 547.02 581.74 546.89 581.71 546.86"/><path class="c" d="M704.85,202.46l-5.53,5.92H685.78c-.6-1.91-.54-3.42,1.18-4.65s3.28.34,5,.49c1.16-1.6,1.07-4.06,3.3-4.8a12.13,12.13,0,0,1,4.22-.79C702.17,198.76,704.25,200,704.85,202.46Z"/><path class="c" d="M710,276.12c4.85-3.91,13-7.34,16.65-7-1.08,3.29-1.08,3.32-4.27,3.4a22.29,22.29,0,0,0-9.22,2.29c-1,.49-2.13.86-3.19,1.29Z"/><path class="c" d="M733.67,273.2l-5.8-.77,1.71-3.57C733,269.6,733.6,270.18,733.67,273.2Z"/><path class="c" d="M710,276.09l-1.76,1.15,0,0,1.76-1.14Z"/><polygon class="c" points="705.88 278.97 705.79 279.04 705.86 278.96 705.88 278.97"/><path class="c" d="M705.86,279l.6-.56h0l-.57.58Z"/><path class="c" d="M706.46,278.4l.13-.16-.14.15Z"/><path class="c" d="M708.2,277.24l-.13.2.16-.18Z"/><path class="c" d="M811.27,221.86c2.13,1.12,2.13,1.12,1.68,3.31-.64-1.3-1.14-2.32-1.65-3.34Z"/><path class="c" d="M811.3,221.83l-.23-.09.2.12Z"/><path class="c" d="M734.81,338.14a1.46,1.46,0,0,1-2.23.22c-.62-.46-1.19-1-1.83-1.41-2.32-1.54-4-1.34-5.92.66-1.79,1.85-2.59,1.83-4.15-.1-2.68-3.36-4.32-3.66-8.08-1.52-.31.17-.63.33-1.48.76a7.73,7.73,0,0,1,.79-1.88q3.68-4,7.45-8a7,7,0,0,1,1.89-1.3c2.57-1.31,4.1-1.08,5.94,1a39.26,39.26,0,0,1,3.47,4.57C732.12,333.4,733.4,335.75,734.81,338.14Z"/><path class="c" d="M725.78,302.37c-2.33-1.48-3.7.33-5.16,1.58-3.67-3.65-3.74-3.66-8.91-1.13,1.54-2.41,2.89-4.37,4.94-5.76,1.88-1.27,3.83-1.16,5.25.41s2.58,3.27,3.86,4.92Z"/><polygon class="c" points="725.76 302.39 725.92 302.53 725.78 302.37 725.76 302.39"/><path d="M676.29,278.76c.39.49.93.91.86,1.13-.14.4-.64.67-1,1-.26-.32-.73-.65-.72-1S675.9,279.25,676.29,278.76Z"/><path class="f" d="M698,128.6c-3.21-4-5.42-4.63-11.13.06C690.43,133.93,694.59,133.91,698,128.6Z"/><path class="f" d="M679.35,133.5c-2.77,1.56-5.45,3.26-8.13,5a10.63,10.63,0,0,0-1.57,1.51,31.49,31.49,0,0,0,18.06-5.5c-2.12-.55-3.84-1.13-5.62-1.42A4.6,4.6,0,0,0,679.35,133.5Z"/><path class="f" d="M680.84,130l-.15-.18-.07,0,0,.06Z"/><path class="f" d="M640.47,645.6c-6.92-.49-13.44-2.12-18.4-7.37-.6-.63-1.21-1.25-1.85-1.82-3.63-3.2-7.69-4.63-12.61-3.22a71.16,71.16,0,0,1-7.19,1.25,47.66,47.66,0,0,0,6,1.37,23.46,23.46,0,0,1,14.52,6.55,27.85,27.85,0,0,0,2.41,2.06c5.42,4.14,11.78,5.19,18.41,5.19,4.34,0,4.64-.35,5-4.57A38.05,38.05,0,0,1,640.47,645.6Z"/><path class="f" d="M739.56,431.66c-3.59,4.71-6.53,9.76-7.3,15.74a53.4,53.4,0,0,1,14.22-13.6c2.1-1.43,3.71-3.57,5.47-5.45a3.16,3.16,0,0,0,.76-1.8c.24-3.28.39-6.57.56-9.86-2.81,3.1-5.61,6.21-8.44,9.3C743.09,427.89,741.12,429.62,739.56,431.66Z"/><path class="f" d="M732.09,447.66l.15-.16s0-.07,0-.1l0,.06Z"/><path class="f" d="M677.59,126.11c-1.37-2.36-3.57-3.38-6-4.11-1.22-.37-2.47-.66-4.21-1.12A40.41,40.41,0,0,0,671.1,124c3.13,2,6.34,3.89,9.52,5.82A28.57,28.57,0,0,1,677.59,126.11Z"/><path class="f" d="M688.54,528.35c-4.17,3.28-8.3,6.62-12.24,10.16a104.38,104.38,0,0,0-15,17.47c-3.29,4.62-6.23,9.46-7.75,14.94-1.27,4.58-2.56,9.17-3.43,13.82a41.3,41.3,0,0,0,.55,18.92,37.53,37.53,0,0,1,1.46,11.83c-.2,4.8-1.78,8.91-5.75,12a8.3,8.3,0,0,0-1.47,1.36,1,1,0,0,0,.33,1.7,36.05,36.05,0,0,1,3.76-4.17,14.13,14.13,0,0,0,4.73-8c1.07-4.46.53-8.88-.33-13.29-.92-4.67-1.81-9.37-1.25-14.15a76.12,76.12,0,0,1,6-21.94c3.68-8.3,8.53-15.85,15.55-21.83a93.81,93.81,0,0,1,10.63-7.52c4.41-2.81,9-5.33,12.46-9.35a10.28,10.28,0,0,0,2.75-5.53c.28-2.35.85-4.65,1.3-7C697.19,521.85,692.79,525,688.54,528.35Z"/><path class="f" d="M705.6,130.8c5.24-1.11,9.84-2.92,13.95-6.48-2.2,0-4-.14-5.86.05a5.37,5.37,0,0,0-2.84,1.17C709.07,127.11,707.48,128.89,705.6,130.8Z"/><path class="f" d="M696.74,140.33l6.57-1.15-6.57-3.59Z"/><path class="f" d="M797,327.77c-4.4,4.86-6.5,10.29-5.6,17,1.08,8.07-2.32,14.46-9.28,19-2.28,1.48-4.64,2.83-6.82,4.42-3.75,2.72-7.67,5.3-11,8.45-5,4.74-7.37,10.07-6.36,18.23.4-1,.66-1.95,1.09-2.79a71.27,71.27,0,0,1,4.23-7.79c2.73-3.95,6.73-6.55,11-8.74,3.53-1.81,7.15-3.48,10.6-5.45,4.52-2.58,7.41-6.39,8-11.6a41.63,41.63,0,0,0,.3-5.12A18.37,18.37,0,0,1,798.63,340a48.19,48.19,0,0,0,5.14-6.2,9.53,9.53,0,0,0,1.64-4.47c.24-3.4.07-6.83.07-10.71C802.42,321.87,799.66,324.8,797,327.77Z"/><path class="f" d="M706.49,133.06c-2.36.39-4.71.84-6.91,1.24,4.33,3.48,12.32,6.19,16.56,5.49a2.92,2.92,0,0,0-.28-.77c-2-2.69-4.91-4.24-7.71-5.92A2.74,2.74,0,0,0,706.49,133.06Z"/><path class="f" d="M703.73,114.84a4.08,4.08,0,0,0,.77-2.58c-.08-2.17-.4-4.32-.69-7.11l-6.43,7.93c.44,2.49.84,4.79,1.24,7.09C700.32,118.42,702.13,116.72,703.73,114.84Z"/><path class="f" d="M696.21,123a34.64,34.64,0,0,0-4-16c-2.47,5.61-3.79,11-3,16.62Z"/><path class="f" d="M681.45,113.35c1.34,2.13,3.27,3.89,5.28,6.19a22.62,22.62,0,0,1,.45-4.41,2.76,2.76,0,0,0-.79-3.29c-.48-.44-.75-1.11-1.23-1.57-1.66-1.58-2.57-3.86-4.91-5.13a23.1,23.1,0,0,0,0,3.36C680.54,110.15,680.6,112,681.45,113.35Z"/><path class="f" d="M700.38,128a7.58,7.58,0,0,1-.19,2.77c6.58-2.43,13.58-10.6,13-19.8-5.25,2.29-11.76,8.75-14.63,14.53A9.91,9.91,0,0,1,700.38,128Z"/><path class="f" d="M684.08,129.33l2.76-4.88c-2.56-5.18-8.73-12.11-12.58-13.94C675.8,117.85,677.72,124.79,684.08,129.33Z"/><path class="f" d="M753.27,416.69l0,0,.12-.2-.15.16Z"/><path class="f" d="M824.77,235.17c-.35,2.39-1.88,4.79-3.41,6.79-1.85,2.42-4.27,4.4-6.44,6.58-1.69,1.7-3.46,3.34-5,5.14-4.34,4.94-6.76,10.82-8.47,17a21,21,0,0,0-.4,11c.39,1.55.79,3.11,1.3,5.08.25-2.08.41-3.76.68-5.42.88-5.49,2.36-10.77,5.8-15.34a39.88,39.88,0,0,1,10.83-9.87,14.62,14.62,0,0,0,4.66-4.63,25.36,25.36,0,0,0,3.28-10c1-6.17,3.56-11.39,8.83-15.18a18.39,18.39,0,0,0,3.19-2.91,5.86,5.86,0,0,0,1.45-2.7c.38-2.43.48-4.9.71-7.51-1.85,1.45-3.35,2.65-4.88,3.81C830.71,221.73,826,227.2,824.77,235.17Z"/><path class="f" d="M643.66,578.45l.15-.15,0-.07,0,0Z"/><path class="c" d="M706.49,499.43A28.37,28.37,0,0,1,711,487.18a79.26,79.26,0,0,1,6.73-7.85c2.82-3.13,5.71-6.18,8.5-9.2.12,2.39-.86,4.79-2,7.15-2.47,5.26-6.28,9.57-10.24,13.79C711.49,493.72,709.12,496.49,706.49,499.43Z"/><path class="c" d="M674.17,487.85a10,10,0,0,0,7.59-5.65,7.22,7.22,0,0,0-2.09-9,10.5,10.5,0,0,0-12-.73c-3.12,1.92-4.93,5.42-4.36,8.41.7,3.71,3.14,6,7.24,6.81a6.38,6.38,0,0,1,1.09.44,17.71,17.71,0,0,0,.22,2.88,1.13,1.13,0,0,0,2.24,0A17.59,17.59,0,0,0,674.17,487.85Z"/><path class="c" d="M690.94,501a23,23,0,0,0,2.92-.91c5.3-2.47,6.66-7.87,3.75-11.81-2.59-3.51-6.86-4.67-11.22-3.51-3.41.91-5.88,3.11-6.36,6.71s1.18,6.27,4.37,8a41.48,41.48,0,0,0,3.89,1.68c.76,1-.8,2.83,1.21,3.4C690.69,503.43,690.69,503.43,690.94,501Z"/><path class="c" d="M680.35,519.17a44.29,44.29,0,0,0,4.07-2,7.68,7.68,0,0,0-.51-13.38,11.84,11.84,0,0,0-7.36-.95c-3.53.48-6.81,3.87-7.12,7a8,8,0,0,0,5.68,8.58c.91.3,1.83.57,2.82.88a12.82,12.82,0,0,0,.43,2.25,1.53,1.53,0,0,0,1,.7c.2,0,.67-.41.73-.69A18.23,18.23,0,0,0,680.35,519.17Z"/><path class="c" d="M664,506.79a12.58,12.58,0,0,0,1.82-.43c3.06-1.22,5.33-3.12,5.71-6.57a7.52,7.52,0,0,0-4.2-8.08,9.72,9.72,0,0,0-9.23-.24A7.67,7.67,0,0,0,657,504.86a33.29,33.29,0,0,0,4.59,2.26,17,17,0,0,0,.38,2.52c.08.31.67.61,1.06.67.23,0,.71-.39.76-.67A26.38,26.38,0,0,0,664,506.79Z"/><path d="M674.17,487.85a17.59,17.59,0,0,1-.06,3.15,1.13,1.13,0,0,1-2.24,0,17.71,17.71,0,0,1-.22-2.88,6.38,6.38,0,0,0-1.09-.44c-4.1-.81-6.54-3.1-7.24-6.81-.57-3,1.24-6.49,4.36-8.41a10.5,10.5,0,0,1,12,.73,7.22,7.22,0,0,1,2.09,9A10,10,0,0,1,674.17,487.85Zm0-2.84c3.37-.5,5.59-2.64,5.76-5.46s-1.45-5-4.41-5.91a7.91,7.91,0,0,0-6.92,1.15c-2.25,1.46-3.43,4-2.91,6.07.68,2.7,2.62,4.14,5.86,4.37.14-1.53.27-3.06.44-4.91C674.77,481.37,673.19,483.58,674.21,485Z"/><path d="M690.94,501c-.25,2.41-.25,2.41-1.44,3.58-2-.57-.45-2.36-1.21-3.4a41.48,41.48,0,0,1-3.89-1.68c-3.19-1.75-4.85-4.44-4.37-8s3-5.8,6.36-6.71c4.36-1.16,8.63,0,11.22,3.51,2.91,3.94,1.55,9.34-3.75,11.81A23,23,0,0,1,690.94,501Zm-.05-2.91c3.12-.28,4.67-1.53,5.56-4.05s-.25-4.19-1.91-5.54a7.73,7.73,0,0,0-8.72-.94c-2.75,1.33-3.84,3.48-3.23,6.31.48,2.24,3.06,4.08,5.89,4.18a20,20,0,0,1,.21-2.8c.07-.37.71-1,.84-.91.46.2,1,.58,1.14,1A14.72,14.72,0,0,1,690.89,498.11Z"/><path d="M680.35,519.17a18.23,18.23,0,0,1-.22,2.38c-.06.28-.53.73-.73.69a1.53,1.53,0,0,1-1-.7,12.82,12.82,0,0,1-.43-2.25c-1-.31-1.91-.58-2.82-.88a8,8,0,0,1-5.68-8.58c.31-3.11,3.59-6.5,7.12-7a11.84,11.84,0,0,1,7.36.95,7.68,7.68,0,0,1,.51,13.38A44.29,44.29,0,0,1,680.35,519.17Zm.18-2.69a15,15,0,0,0,2.83-1.43c3.09-2.49,3.39-6.59-.2-8.86a7.51,7.51,0,0,0-7.49-.54c-2.8,1.26-4.08,3.26-3.72,6.09.33,2.53,2.24,4.13,5.58,4.55a21.43,21.43,0,0,1,.19-2.79,1,1,0,0,1,2-.26A30.73,30.73,0,0,1,680.53,516.48Z"/><path d="M664,506.79a26.38,26.38,0,0,1-.29,2.85c0,.28-.53.7-.76.67-.39-.06-1-.36-1.06-.67a17,17,0,0,1-.38-2.52,33.29,33.29,0,0,1-4.59-2.26,7.67,7.67,0,0,1,1.18-13.39,9.72,9.72,0,0,1,9.23.24,7.52,7.52,0,0,1,4.2,8.08c-.38,3.45-2.65,5.35-5.71,6.57A12.58,12.58,0,0,1,664,506.79Zm-.06-2.62c3.31-.8,5.08-2.45,5.4-4.94.27-2.11-1.47-4.66-4-5.8-.26-.12-.55-.18-.82-.28-3.32-1.16-7.4.72-8.28,3.81-.94,3.34.92,6.08,5,7.1a11.32,11.32,0,0,1,.05-2.55c.13-.54.74-1,1.13-1.44.44.43,1.11.8,1.26,1.31A14.13,14.13,0,0,1,664,504.17Z"/><path class="c" d="M674.21,485c-1-1.43.56-3.64-2.18-4.69-.17,1.85-.3,3.38-.44,4.91-3.24-.23-5.18-1.67-5.86-4.37-.52-2.09.66-4.61,2.91-6.07a7.91,7.91,0,0,1,6.92-1.15c3,.91,4.58,3.06,4.41,5.91S677.58,484.51,674.21,485Z"/><path class="c" d="M690.89,498.11a14.72,14.72,0,0,0-.22-2.75c-.11-.42-.68-.8-1.14-1-.13-.06-.77.54-.84.91a20,20,0,0,0-.21,2.8c-2.83-.1-5.41-1.94-5.89-4.18-.61-2.83.48-5,3.23-6.31a7.73,7.73,0,0,1,8.72.94c1.66,1.35,2.75,3.17,1.91,5.54S694,497.83,690.89,498.11Z"/><path class="c" d="M680.53,516.48a30.73,30.73,0,0,0-.84-3.24,1,1,0,0,0-2,.26,21.43,21.43,0,0,0-.19,2.79c-3.34-.42-5.25-2-5.58-4.55-.36-2.83.92-4.83,3.72-6.09a7.51,7.51,0,0,1,7.49.54c3.59,2.27,3.29,6.37.2,8.86A15,15,0,0,1,680.53,516.48Z"/><path class="c" d="M664,504.17a14.13,14.13,0,0,0-.25-2.79c-.15-.51-.82-.88-1.26-1.31-.39.48-1,.9-1.13,1.44a11.32,11.32,0,0,0-.05,2.55c-4.07-1-5.93-3.76-5-7.1.88-3.09,5-5,8.28-3.81.27.1.56.16.82.28,2.51,1.14,4.25,3.69,4,5.8C669.05,501.72,667.28,503.37,664,504.17Z"/><path class="f" d="M711,487.18a28.37,28.37,0,0,0-4.46,12.25c2.63-2.94,5-5.71,7.49-8.36,4-4.22,7.77-8.53,10.24-13.79,1.1-2.36,2.08-4.76,2-7.15-2.79,3-5.68,6.07-8.5,9.2A79.26,79.26,0,0,0,711,487.18Z"/><path class="c" d="M668,357.11a19.44,19.44,0,0,0,.22,3.09,5.35,5.35,0,0,0,1,1.52c.37-.47.93-.9,1.06-1.42a17,17,0,0,0,.23-2.86c2.24,0,4.27-.08,6.29,0,2.23.11,2.6-.3,1.66-2.38-2.26-5-4.54-10-6.88-15a20.91,20.91,0,0,0-2-2.76,27.1,27.1,0,0,0-1.73,2.4c-2.54,4.59-5,9.19-7.54,13.79a9.88,9.88,0,0,0-.86,1.8c-.35,1.15.23,1.83,1.43,1.83Z"/><path class="c" d="M647.7,361.91a23.9,23.9,0,0,0,.53,3.19,1.05,1.05,0,0,0,2-.16,21.18,21.18,0,0,0,.28-2.75c2.68-.79,5.51.44,7.92-.84a3.17,3.17,0,0,0,0-.88c-2.4-5.09-4.79-10.18-7.24-15.24-.26-.53-.87-.89-1.92-1.91-.36.73-.6,1.26-.89,1.75-2.78,4.8-5.6,9.57-8.34,14.39-.93,1.63-.39,2.38,1.66,2.44S645.57,361.91,647.7,361.91Z"/><path class="c" d="M657.13,338.31a30.8,30.8,0,0,0,0,3.81c.05.39.7.7,1.07,1.05.31-.32.78-.6.88-1,.3-1.17.45-2.38.71-3.8,1.71,0,3.25.07,4.78,0,1.71-.11,2.26-.75,2.16-2.37a4.93,4.93,0,0,0-.4-1.64c-1.94-4.45-3.91-8.89-5.85-13.33a2.68,2.68,0,0,0-2.42-2,7,7,0,0,0-1,1.2c-2.37,4.89-4.74,9.78-7,14.7a12.76,12.76,0,0,0-.6,2.8Z"/><path d="M668,357.11H660.9c-1.2,0-1.78-.68-1.43-1.83a9.88,9.88,0,0,1,.86-1.8c2.5-4.6,5-9.2,7.54-13.79a27.1,27.1,0,0,1,1.73-2.4,20.91,20.91,0,0,1,2,2.76c2.34,5,4.62,10,6.88,15,.94,2.08.57,2.49-1.66,2.38-2-.11-4,0-6.29,0a17,17,0,0,1-.23,2.86c-.13.52-.69.95-1.06,1.42a5.35,5.35,0,0,1-1-1.52A19.44,19.44,0,0,1,668,357.11Zm7.56-2.43-6-13.07c-2.45,4.57-4.67,8.71-7,13h5.69a21,21,0,0,1,.05-3.31c.08-.53.6-1.34,1-1.41,1-.15,1.24.74,1.24,1.53,0,1.08-.11,2.16-.17,3.29Z"/><path d="M647.7,361.91c-2.13,0-4.06,0-6,0s-2.59-.81-1.66-2.44c2.74-4.82,5.56-9.59,8.34-14.39.29-.49.53-1,.89-1.75,1.05,1,1.66,1.38,1.92,1.91,2.45,5.06,4.84,10.15,7.24,15.24a3.17,3.17,0,0,1,0,.88c-2.41,1.28-5.24,0-7.92.84a21.18,21.18,0,0,1-.28,2.75,1.05,1.05,0,0,1-2,.16A23.9,23.9,0,0,1,647.7,361.91Zm7.53-2.64c-1.84-3.82-3.57-7.44-5.54-11.53L643,359.21h4.69c.31-2.08.59-4,.88-5.94,1.94.25,2,.25,2,1.44,0,1.48,0,3,0,4.56Z"/><path d="M657.13,338.31l-7.66-.53a12.76,12.76,0,0,1,.6-2.8c2.3-4.92,4.67-9.81,7-14.7a7,7,0,0,1,1-1.2,2.68,2.68,0,0,1,2.42,2c1.94,4.44,3.91,8.88,5.85,13.33a4.93,4.93,0,0,1,.4,1.64c.1,1.62-.45,2.26-2.16,2.37-1.53.09-3.07,0-4.78,0-.26,1.42-.41,2.63-.71,3.8-.1.37-.57.65-.88,1-.37-.35-1-.66-1.07-1.05A30.8,30.8,0,0,1,657.13,338.31Zm-4.76-2.58h4.8c0-1.45,0-2.67,0-3.9,0-.82.32-1.53,1.34-1.51s1.19.8,1.2,1.6c0,1.29,0,2.58,0,3.82h4.56l-5.73-13Z"/><path class="c" d="M675.58,354.68h-5.17c.06-1.13.17-2.21.17-3.29,0-.79-.23-1.68-1.24-1.53-.42.07-.94.88-1,1.41a21,21,0,0,0-.05,3.31h-5.69c2.3-4.26,4.52-8.4,7-13Z"/><path class="c" d="M655.23,359.27h-4.64c0-1.6,0-3.08,0-4.56,0-1.19,0-1.19-2-1.44-.29,1.92-.57,3.86-.88,5.94H643l6.65-11.47C651.66,351.83,653.39,355.45,655.23,359.27Z"/><path class="c" d="M652.37,335.73l6.23-13,5.73,13h-4.56c0-1.24,0-2.53,0-3.82,0-.8-.15-1.57-1.2-1.6s-1.32.69-1.34,1.51c0,1.23,0,2.45,0,3.9Z"/><path class="c" d="M543.16,462.94c2.41,0,4.36.08,6.29,0s2.4-1,1.89-2.68a13.6,13.6,0,0,0-.69-1.57q-2.17-4.82-4.37-9.62c-1.11-2.42-2.16-4.87-3.37-7.25-.89-1.75-1.82-1.7-2.83,0a12.73,12.73,0,0,0-.64,1.28q-2.91,6.21-5.83,12.41c-.73,1.55-1.46,3.1-2.17,4.66-1,2.26-.65,2.81,2,2.87,1.56,0,3.12,0,4.68,0,.75,0,1.5.1,2.52.17a23.92,23.92,0,0,0,0,3.52,1.9,1.9,0,0,0,1.07,1.36c.94.23,1.39-.48,1.41-1.36C543.18,465.6,543.16,464.48,543.16,462.94Z"/><path class="c" d="M561.87,449.46c2.55,0,4.68,0,6.8,0,1.9.06,2.31-.39,1.58-2.1s-1.69-3.63-2.52-5.45c-1.79-3.9-3.53-7.81-5.37-11.69-.42-.88-.62-2.42-1.93-2.13-.77.18-1.39,1.42-1.87,2.28-.79,1.42-1.41,2.92-2.09,4.39-1.84,4-3.7,8-5.49,12-.81,1.82-.33,2.67,1.65,3a15.34,15.34,0,0,0,2.63.06h4.11c0,1.64-.08,3,0,4.43,0,.45.61.85.94,1.27.48-.39,1.11-.69,1.39-1.19a3.86,3.86,0,0,0,.13-1.68C561.88,451.69,561.87,450.75,561.87,449.46Z"/><path class="c" d="M559.57,478.63c2.15.13,4,.32,5.79.33,1.32,0,1.71-.57,1.45-1.81a6.44,6.44,0,0,0-.33-1.08c-2.11-5-4.19-10-6.37-14.94a3.15,3.15,0,0,0-1.67-1.68c-1.12-.3-1.66.71-2.11,1.58q-1.11,2.16-2.24,4.32-2.69,5.2-5.38,10.41c-.52,1-1.18,2,0,3H557c0,1.19,0,2.14,0,3.08s.45,1.62,1.38,1.43a2,2,0,0,0,1.1-1.41A19.65,19.65,0,0,0,559.57,478.63Z"/><path d="M543.16,462.94c0,1.54,0,2.66,0,3.78,0,.88-.47,1.59-1.41,1.36a1.9,1.9,0,0,1-1.07-1.36,23.92,23.92,0,0,1,0-3.52c-1-.07-1.77-.16-2.52-.17-1.56,0-3.12,0-4.68,0-2.63-.06-3-.61-2-2.87.71-1.56,1.44-3.11,2.17-4.66q2.91-6.21,5.83-12.41a12.73,12.73,0,0,1,.64-1.28c1-1.71,1.94-1.76,2.83,0,1.21,2.38,2.26,4.83,3.37,7.25q2.19,4.81,4.37,9.62a13.6,13.6,0,0,1,.69,1.57c.51,1.68-.07,2.58-1.89,2.68S545.57,462.94,543.16,462.94Zm-.83-10.81c.94,2.64-.35,5.65,1.17,8.26h5.19c-2.37-5.25-4.66-10.35-7.16-15.9l-7.47,15.86h6.5c0-1,0-1.8,0-2.62-.06-1.32-.19-2.65-.22-4S540.69,451.69,542.33,452.13Z"/><path d="M561.87,449.46c0,1.29,0,2.23,0,3.17a3.86,3.86,0,0,1-.13,1.68c-.28.5-.91.8-1.39,1.19-.33-.42-.9-.82-.94-1.27-.12-1.39,0-2.79,0-4.43h-4.11a15.34,15.34,0,0,1-2.63-.06c-2-.35-2.46-1.2-1.65-3,1.79-4,3.65-8,5.49-12,.68-1.47,1.3-3,2.09-4.39.48-.86,1.1-2.1,1.87-2.28,1.31-.29,1.51,1.25,1.93,2.13,1.84,3.88,3.58,7.79,5.37,11.69.83,1.82,1.73,3.62,2.52,5.45s.32,2.16-1.58,2.1C566.55,449.41,564.42,449.46,561.87,449.46Zm-2.52-2.27c0-1.73-.09-3.17,0-4.58.06-.5.7-.94,1.07-1.41.41.46,1,.86,1.18,1.4a7.48,7.48,0,0,1,.14,2c.06.83.14,1.65.22,2.59h5.43c-2.31-5-4.56-9.9-7-15.14l-7.06,15.17Z"/><path d="M559.57,478.63a19.65,19.65,0,0,1-.05,3.19,2,2,0,0,1-1.1,1.41c-.93.19-1.33-.6-1.38-1.43s0-1.89,0-3.08h-8.27c-1.22-.92-.56-1.94,0-3q2.7-5.2,5.38-10.41,1.13-2.16,2.24-4.32c.45-.87,1-1.88,2.11-1.58a3.15,3.15,0,0,1,1.67,1.68c2.18,4.95,4.26,9.95,6.37,14.94a6.44,6.44,0,0,1,.33,1.08c.26,1.24-.13,1.82-1.45,1.81C563.54,479,561.72,478.76,559.57,478.63Zm-1.37-15.76c-2.43,4.63-4.72,8.81-6.88,13.42h5.6c-.08-1.43-.22-2.73-.22-4,0-.78.32-1.66,1.29-1.53.41,0,.92.87,1,1.4.22,1.36.22,2.75.32,4.19h4.46Z"/><path class="c" d="M542.33,452.13c-1.64-.44-2,.42-2,1.63s.16,2.65.22,4c0,.82,0,1.65,0,2.62h-6.5l7.47-15.86c2.5,5.55,4.79,10.65,7.16,15.9H543.5C542,457.78,543.27,454.77,542.33,452.13Z"/><path class="c" d="M559.35,447.19h-6L560.46,432c2.42,5.24,4.67,10.11,7,15.14H562c-.08-.94-.16-1.76-.22-2.59a7.48,7.48,0,0,0-.14-2c-.2-.54-.77-.94-1.18-1.4-.37.47-1,.91-1.07,1.41C559.26,444,559.35,445.46,559.35,447.19Z"/><path class="c" d="M558.2,462.87l5.57,13.44h-4.46c-.1-1.44-.1-2.83-.32-4.19-.08-.53-.59-1.35-1-1.4-1-.13-1.28.75-1.29,1.53,0,1.31.14,2.61.22,4h-5.6C553.48,471.68,555.77,467.5,558.2,462.87Z"/><path class="c" d="M690.74,201.11c-1,0-1.64,0-2.32,0a5.57,5.57,0,0,0-5.39,4.39,5.44,5.44,0,0,0,.85,4.37c.78,1.16,2.13.67,3.25.72,2.1.1,4.24-.2,6.07.71a14.59,14.59,0,0,0,0,3.52c.68,2.5,2.39,3.6,5.56,3.65,5.46.09,10.92.11,16.38.12a10.43,10.43,0,0,0,3.46-.32,10.18,10.18,0,0,0,2.51-1.91,7.58,7.58,0,0,1,.23,5.89c-1.19,3.71-2.26,7.46-3.31,11.21-.58,2.06-.89,4.23-3.42,4.85.29,1.63,1.43,1.35,2.34,1.35q12.87.06,25.75.07a4.27,4.27,0,0,0,1.44-.1c.39-.16.89-.57.91-.9a1.24,1.24,0,0,0-.76-1c-1.72-.1-1.89-1.32-2.24-2.54-1.35-4.65-2.79-9.27-4.09-13.94a6.55,6.55,0,0,1,0-3c.52-2.41,1.23-4.78,1.82-7.17.42-1.71.55-3.36-1.41-4.17.6-2.68,1.15-5.18,1.71-7.68.47-2.14.47-2.14-1.6-3.07.56-2.29,1-4.63,1.71-6.89.51-1.66.46-3-1.27-3.83.75-2.41,1.5-4.66,2.15-7,.7-2.47.64-2.51-2.06-3.33.66-2.36,1.31-4.73,2-7.09,1.21-4.12,1.07-4.36-3.26-4.87-.38-2.31-2.06-2.84-4.26-2.66a13.58,13.58,0,0,1-2.39-.22c0-4.37,0-8.55,0-12.74a7.64,7.64,0,0,0-.26-2.24,1.39,1.39,0,0,0-1.12-.65,1.35,1.35,0,0,0-1,.76,6.44,6.44,0,0,0-.15,2c0,3.62,0,7.23,0,10.85a20.54,20.54,0,0,1-.22,2.12c-2.58.61-6.07-1.19-6.58,2.93-3.93.41-4,.55-3.23,4.29.54,2.5,1.07,5,1.66,7.76-2.63.63-2.07,2.45-1.55,4.29s1,3.85,1.58,5.92c-1.71.81-1.73,2.08-1.15,3.76.76,2.22,1.18,4.55,1.75,6.82-2.29.82-2.43,1-2.19,3,.07.56.35,1.1.38,1.66.15,2.72,2.25,5.35.35,8.18-.2.3.13.95.23,1.51l-3.6-1.21c-1-4.42-3.55-7.28-8.57-7-1.56-3.63-4-5.84-8-5.85C695.7,196.44,692.4,197.2,690.74,201.11Z"/><path d="M690.74,201.11c1.66-3.91,5-4.67,8.67-4.66,4.05,0,6.46,2.22,8,5.85,5-.23,7.55,2.63,8.57,7l3.6,1.21c-.1-.56-.43-1.21-.23-1.51,1.9-2.83-.2-5.46-.35-8.18,0-.56-.31-1.1-.38-1.66-.24-2-.1-2.21,2.19-3-.57-2.27-1-4.6-1.75-6.82-.58-1.68-.56-3,1.15-3.76-.55-2.07-1-4-1.58-5.92s-1.08-3.66,1.55-4.29c-.59-2.75-1.12-5.26-1.66-7.76-.81-3.74-.7-3.88,3.23-4.29.51-4.12,4-2.32,6.58-2.93a20.54,20.54,0,0,0,.22-2.12c0-3.62,0-7.23,0-10.85a6.44,6.44,0,0,1,.15-2,1.35,1.35,0,0,1,1-.76,1.39,1.39,0,0,1,1.12.65,7.64,7.64,0,0,1,.26,2.24c0,4.19,0,8.37,0,12.74a13.58,13.58,0,0,0,2.39.22c2.2-.18,3.88.35,4.26,2.66,4.33.51,4.47.75,3.26,4.87-.69,2.36-1.34,4.73-2,7.09,2.7.82,2.76.86,2.06,3.33-.65,2.29-1.4,4.54-2.15,7,1.73.85,1.78,2.17,1.27,3.83-.7,2.26-1.15,4.6-1.71,6.89,2.07.93,2.07.93,1.6,3.07-.56,2.5-1.11,5-1.71,7.68,2,.81,1.83,2.46,1.41,4.17-.59,2.39-1.3,4.76-1.82,7.17a6.55,6.55,0,0,0,0,3c1.3,4.67,2.74,9.29,4.09,13.94.35,1.22.52,2.44,2.24,2.54a1.24,1.24,0,0,1,.76,1c0,.33-.52.74-.91.9a4.27,4.27,0,0,1-1.44.1q-12.87,0-25.75-.07c-.91,0-2,.28-2.34-1.35,2.53-.62,2.84-2.79,3.42-4.85,1-3.75,2.12-7.5,3.31-11.21a7.58,7.58,0,0,0-.23-5.89,10.18,10.18,0,0,1-2.51,1.91,10.43,10.43,0,0,1-3.46.32c-5.46,0-10.92,0-16.38-.12-3.17,0-4.88-1.15-5.56-3.65a14.59,14.59,0,0,1,0-3.52c-1.83-.91-4-.61-6.07-.71-1.12,0-2.47.44-3.25-.72a5.44,5.44,0,0,1-.85-4.37,5.57,5.57,0,0,1,5.39-4.39C689.1,201.08,689.78,201.11,690.74,201.11Zm28.71,36.34h20.71c-1.62-5.51-3.17-10.78-4.75-16.12-3.73-.8-7.32-.3-11.13-.37Zm-5.22-25.25c-.37-1.4-.57-2.52-1-3.58-.56-1.52-1.21-3.06-3-3.65a6.33,6.33,0,0,0-7.88,4c-.27.86-.53,1.73-.86,2.78-.78-.34-1.23-.49-1.63-.72a2.65,2.65,0,0,0-3.45.35,3,3,0,0,0-.84,3.36c.58,1.34,1.78,1.22,3,1.26,4.17.14,8.34.34,12.51.48,1.75,0,3.5.07,5.25,0a2.09,2.09,0,0,0,2.24-2.09,2,2,0,0,0-2.08-2.19C715.85,212.15,715.18,212.2,714.23,212.2Zm6.44-46c.62,2.68,1.2,5.16,1.75,7.64.2.9.5,1.7,1.61,1.71,4.07,0,8.14,0,12.31,0,.93-3.27,1.77-6.26,2.65-9.35Zm15.14,41.08,1.69-7.87c-2.56-.91-13.5-1-16.38-.23.64,2.71,1.29,5.42,1.92,8.1Zm-31-4.77c-.6-2.48-2.68-3.7-5.38-3.83a12.13,12.13,0,0,0-4.22.79c-2.23.74-2.14,3.2-3.3,4.8-1.71-.15-3.17-1.81-5-.49s-1.78,2.74-1.18,4.65h13.54Zm17.13,7c.85,3.2,1.65,6.17,2.46,9.19h10.85c.62-3.1,1.88-5.95,2-9.19Zm-1.1-31.39c.36,1.49.58,2.8,1,4,1.27,4,.35,3.51,4.82,3.57,1.36,0,2.71,0,4.07,0h5.53l2.35-7.63Zm15,18.34,2.08-8H721.42c.36,1.46.64,2.75,1,4s.81,2.66,1.23,4Zm-1.28-33c-2.55-1-8-1-10.17-.26a3,3,0,0,0,.85.25C728.34,163.45,731.44,163.44,734.55,163.44Z"/><path class="c" d="M719.45,237.45,724.28,221c3.81.07,7.4-.43,11.13.37,1.58,5.34,3.13,10.61,4.75,16.12Z"/><path class="c" d="M714.23,212.2c.95,0,1.62,0,2.28,0a2,2,0,0,1,2.08,2.19,2.09,2.09,0,0,1-2.24,2.09c-1.75.06-3.5,0-5.25,0-4.17-.14-8.34-.34-12.51-.48-1.18,0-2.38.08-3-1.26a3,3,0,0,1,.84-3.36,2.65,2.65,0,0,1,3.45-.35c.4.23.85.38,1.63.72.33-1,.59-1.92.86-2.78a6.33,6.33,0,0,1,7.88-4c1.76.59,2.41,2.13,3,3.65C713.66,209.68,713.86,210.8,714.23,212.2Z"/><path class="c" d="M720.67,166.15H739c-.88,3.09-1.72,6.08-2.65,9.35-4.17,0-8.24,0-12.31,0-1.11,0-1.41-.81-1.61-1.71C721.87,171.31,721.29,168.83,720.67,166.15Z"/><path class="c" d="M735.81,207.23H723c-.63-2.68-1.28-5.39-1.92-8.1,2.88-.79,13.82-.68,16.38.23Z"/><path class="c" d="M722,209.51h15.35c-.16,3.24-1.42,6.09-2,9.19H724.44C723.63,215.68,722.83,212.71,722,209.51Z"/><path class="c" d="M720.88,178.12h17.75l-2.35,7.63h-5.53c-1.36,0-2.71,0-4.07,0-4.47-.06-3.55.46-4.82-3.57C721.46,180.92,721.24,179.61,720.88,178.12Z"/><path class="c" d="M735.83,196.46H723.65c-.42-1.35-.86-2.67-1.23-4s-.64-2.57-1-4h16.49Z"/><path class="c" d="M734.55,163.44c-3.11,0-6.21,0-9.32,0a3,3,0,0,1-.85-.25C726.54,162.44,732,162.41,734.55,163.44Z"/><path class="c" d="M736,340.44c.3.24.5.33.59.48q5.39,9,10.74,18,3.17,5.3,6.34,10.59c.43.72,1,1.25,1.9.84s.63-1.23.26-1.93c-.18-.34-.37-.67-.56-1-6.89-11.48-13.73-23-20.69-34.43a71.16,71.16,0,0,0-5.71-7.91c-2.43-3-4.72-3.41-8.22-1.7a13.13,13.13,0,0,0-3.54,2.46c-2.65,2.65-5.29,5.34-7.69,8.2-9.13,10.89-18.16,21.86-27.23,32.8a4.26,4.26,0,0,0-1,1.39c-.12.45,0,1.26.32,1.46s1.05,0,1.57-.17c.24-.06.41-.39.59-.61q2.76-3.31,5.51-6.65l19.91-24c1.89.89,3.54.41,5.21-.63,2.15-1.34,2.66-1.14,4.27.95a12,12,0,0,0,1.34,1.5c2.08,2,4.11,1.88,6-.17,1.67-1.77,2.17-1.87,4.07-.38S733.81,341.88,736,340.44Z"/><path class="c" d="M723.87,304.34c.77.33,1.59,1,2.34.93,1.81-.15,2.64.93,3.51,2.1,2.28,3.08,4.57,6.16,6.88,9.21a15,15,0,0,0,1.93,2.13,5.66,5.66,0,0,0,7,.81,37.91,37.91,0,0,0,3.85-2.57c2.78-2.08,5.48-4.28,8.3-6.31,3.17-2.3,5.75-2.06,8.57.63a17.92,17.92,0,0,1,1.6,1.66q3.67,4.6,7.3,9.26c1.06,1.36,2,2.84,3.09,4.15.33.38,1.14.38,1.73.55a10.4,10.4,0,0,0,.16-1.84c0-.33-.38-.64-.61-.95-1.11-1.56-2.14-3.18-3.36-4.66-2.75-3.33-5.51-6.65-8.42-9.84-3.4-3.76-7.56-3.51-11.51-.81-2.63,1.79-5.08,3.84-7.64,5.74-1.47,1.09-3,2.12-4.5,3.15a2.73,2.73,0,0,1-3.71-.4,13.08,13.08,0,0,1-1.52-1.72c-2.71-3.6-5.37-7.24-8.11-10.82-2.27-3-4.49-6-7-8.75s-5.45-2.95-8.62-.79a16,16,0,0,0-2.75,2.51c-.84.92-1.51,2-2.26,3q-8.22,10.92-16.44,21.84c-.56.75-1.38,1.69-.31,2.48s1.7-.28,2.31-1c.06-.07.11-.15.17-.23,4-5.3,8-10.57,11.88-15.9,1.27-1.73,2.34-3.48,5-3.15.65.08,1.39-.58,2.1-.89s1.2-.49,1.73-.71C720.47,307.12,720.57,307.13,723.87,304.34Z"/><path class="c" d="M793.92,276.31c1.72-.74,1.64-1.5.91-2.43-1.55-2-3-4-4.6-5.91-3.17-3.84-6.39-7.64-9.61-11.45a9.51,9.51,0,0,0-4.71-2.72c-4.82-1.48-9.07-.07-12.88,2.7a40.92,40.92,0,0,0-6.22,5.61c-6.11,6.77-12.1,13.66-18.07,20.55-.68.78-2,1.6-1.07,2.93.53.81,1.53.37,3-1.35,4.56-5.33,9.07-10.7,13.69-16,1.15-1.31,2.08-3,4-3.56a7,7,0,0,1,.75.59c.2.21.32.48.51.69a5,5,0,0,0,6.59.9c.49-.3.94-.67,1.42-1,2.22-1.54,2.65-1.5,4.39.39,3,3.26,4.37,3.41,7.88.85.23-.17.48-.31.81-.52a4.71,4.71,0,0,0,1.59.4,2.1,2.1,0,0,0,1.36-.74c.13-.17-.2-.88-.51-1.17a3.08,3.08,0,0,0-4-.27c-1,.58-1.87,1.27-2.68,1.82a4.33,4.33,0,0,1-1.08-.42c-.79-.71-1.54-1.45-2.29-2.19-2.12-2.07-3.35-2.22-5.93-.69-.42.25-.81.54-1.2.82-2.8,1.94-3.45,1.84-5.34-.85-.21-.3-.44-.59-.85-1.12a46.45,46.45,0,0,1,5.63-4.54,15.68,15.68,0,0,1,5.72-1.92c4.28-.57,7.49,1.4,10,4.65,2.82,3.63,5.69,7.24,8.56,10.84C791,272.92,792.47,274.58,793.92,276.31Z"/><path d="M736,340.44c-2.2,1.44-4.08.5-6-1s-2.4-1.39-4.07.38c-1.94,2.05-4,2.12-6,.17a12,12,0,0,1-1.34-1.5c-1.61-2.09-2.12-2.29-4.27-.95-1.67,1-3.32,1.52-5.21.63l-19.91,24q-2.75,3.33-5.51,6.65c-.18.22-.35.55-.59.61-.52.15-1.23.39-1.57.17s-.44-1-.32-1.46a4.26,4.26,0,0,1,1-1.39c9.07-10.94,18.1-21.91,27.23-32.8,2.4-2.86,5-5.55,7.69-8.2a13.13,13.13,0,0,1,3.54-2.46c3.5-1.71,5.79-1.28,8.22,1.7a71.16,71.16,0,0,1,5.71,7.91c7,11.44,13.8,22.95,20.69,34.43.19.33.38.66.56,1,.37.7.76,1.46-.26,1.93s-1.47-.12-1.9-.84q-3.18-5.3-6.34-10.59-5.37-9-10.74-18C736.51,340.77,736.31,340.68,736,340.44Zm-1.2-2.3c-1.41-2.39-2.69-4.74-4.15-7a39.26,39.26,0,0,0-3.47-4.57c-1.84-2.13-3.37-2.36-5.94-1a7,7,0,0,0-1.89,1.3q-3.78,4-7.45,8a7.73,7.73,0,0,0-.79,1.88c.85-.43,1.17-.59,1.48-.76,3.76-2.14,5.4-1.84,8.08,1.52,1.56,1.93,2.36,1.95,4.15.1,1.93-2,3.6-2.2,5.92-.66.64.42,1.21.95,1.83,1.41A1.46,1.46,0,0,0,734.81,338.14Z"/><path d="M723.87,304.34c-3.3,2.79-3.4,2.78-7.34-1.22-.53.22-1.14.45-1.73.71s-1.45,1-2.1.89c-2.66-.33-3.73,1.42-5,3.15-3.91,5.33-7.91,10.6-11.88,15.9-.06.08-.11.16-.17.23-.61.72-1.21,1.81-2.31,1s-.25-1.73.31-2.48q8.21-10.93,16.44-21.84c.75-1,1.42-2.05,2.26-3a16,16,0,0,1,2.75-2.51c3.17-2.16,6.08-2,8.62.79s4.73,5.79,7,8.75c2.74,3.58,5.4,7.22,8.11,10.82a13.08,13.08,0,0,0,1.52,1.72,2.73,2.73,0,0,0,3.71.4c1.51-1,3-2.06,4.5-3.15,2.56-1.9,5-3.95,7.64-5.74,3.95-2.7,8.11-3,11.51.81,2.91,3.19,5.67,6.51,8.42,9.84,1.22,1.48,2.25,3.1,3.36,4.66.23.31.58.62.61.95a10.4,10.4,0,0,1-.16,1.84c-.59-.17-1.4-.17-1.73-.55-1.12-1.31-2-2.79-3.09-4.15q-3.61-4.65-7.3-9.26a17.92,17.92,0,0,0-1.6-1.66c-2.82-2.69-5.4-2.93-8.57-.63-2.82,2-5.52,4.23-8.3,6.31a37.91,37.91,0,0,1-3.85,2.57,5.66,5.66,0,0,1-7-.81,15,15,0,0,1-1.93-2.13c-2.31-3.05-4.6-6.13-6.88-9.21-.87-1.17-1.7-2.25-3.51-2.1C725.46,305.33,724.64,304.67,723.87,304.34Zm1.91-2,.14.16-.16-.14c-1.28-1.65-2.46-3.37-3.86-4.92s-3.37-1.68-5.25-.41c-2,1.39-3.4,3.35-4.94,5.76,5.17-2.53,5.24-2.52,8.91,1.13C722.08,302.7,723.45,300.89,725.78,302.37Z"/><path d="M793.92,276.31c-1.45-1.73-2.88-3.39-4.25-5.09-2.87-3.6-5.74-7.21-8.56-10.84-2.52-3.25-5.73-5.22-10-4.65a15.68,15.68,0,0,0-5.72,1.92,46.45,46.45,0,0,0-5.63,4.54c.41.53.64.82.85,1.12,1.89,2.69,2.54,2.79,5.34.85.39-.28.78-.57,1.2-.82,2.58-1.53,3.81-1.38,5.93.69.75.74,1.5,1.48,2.29,2.19a4.33,4.33,0,0,0,1.08.42c.81-.55,1.71-1.24,2.68-1.82a3.08,3.08,0,0,1,4,.27c.31.29.64,1,.51,1.17a2.1,2.1,0,0,1-1.36.74,4.71,4.71,0,0,1-1.59-.4c-.33.21-.58.35-.81.52-3.51,2.56-4.87,2.41-7.88-.85-1.74-1.89-2.17-1.93-4.39-.39-.48.34-.93.71-1.42,1a5,5,0,0,1-6.59-.9c-.19-.21-.31-.48-.51-.69a7,7,0,0,0-.75-.59c-1.89.58-2.82,2.25-4,3.56-4.62,5.27-9.13,10.64-13.69,16-1.47,1.72-2.47,2.16-3,1.35-.88-1.33.39-2.15,1.07-2.93,6-6.89,12-13.78,18.07-20.55A40.92,40.92,0,0,1,763,256.5c3.81-2.77,8.06-4.18,12.88-2.7a9.51,9.51,0,0,1,4.71,2.72c3.22,3.81,6.44,7.61,9.61,11.45,1.59,1.93,3,3.95,4.6,5.91C795.56,274.81,795.64,275.57,793.92,276.31Z"/><path d="M845.32,200.72a9.71,9.71,0,0,0-10.27-5.48,12.41,12.41,0,0,1-5.32-.59c-.65-2.2.17-3.89,1.41-5.43a8.51,8.51,0,0,0,2-6.11c-.25-4.18-.34-8.36-.63-12.54a9.11,9.11,0,0,0-4-7c-2.35-1.64-3-3.77-3.07-6.4a24.5,24.5,0,0,0-.48-5.35c-1.2-5.29-4.57-9.14-8.93-12.3a33.41,33.41,0,0,0-12.87-5.19c-5.7-1.23-9.21-4.58-11.17-9.81-.91-2.4-2-4.73-3.18-7-3.82-7.69-11.89-10.89-20-9.79-8.83,1.2-16.15,5.51-22.38,11.51-3.39,3.26-6.35,7-9.44,10.52a47.09,47.09,0,0,1-12.15,9.72,7.43,7.43,0,0,1-5.67,1c-1.26-4.13-4.75-6.26-8.2-8.52A37.65,37.65,0,0,0,722,125.37c1.54-1.32,1.19-2.43-.73-3.07-2.57-.85-5.2-.54-7.82-.43l-.12.24.12-.24c.73-3.13,1.53-6.25,2.18-9.4.29-1.42,1.05-3.2-.53-4.2s-3,.28-4.26,1.08-2.61,1.74-4.28,2.87c0-1.47.07-2.42,0-3.36a33,33,0,0,0-.65-5.07c-.4-1.59-1.57-1.88-2.83-.75a45.6,45.6,0,0,0-3.77,4c-.92,1-1.73,2.2-2.88,3.67-1-2.88-2.05-5.28-4.26-7.09-2.35,1.67-2.61,4.44-4,6.72-1.13-1.41-2-2.73-3.14-3.9a22.46,22.46,0,0,0-3.79-3.51c-2-1.29-3.07-.6-3.13,1.73,0,1.65,0,3.3,0,5.19-1.2-.75-2-1.37-3-1.84-1.87-.93-3-.28-3.17,1.74a5.5,5.5,0,0,0,.22,1.69c.7,3,1.43,6,2.14,9-7-2.44-9.27-2.71-11.36-1.13,3.91,5.34,9.57,8.6,15.21,12.18-.77.44-1.37.74-1.92,1.1-2.9,1.92-5.82,3.81-8.67,5.8-.88.61-1.7,1.7-1.07,2.68.47.73,1.67,1.06,2.58,1.48a3.19,3.19,0,0,0,1.16,0A30.37,30.37,0,0,0,682.36,140c2.73-1.15,5.35-2.54,8.22-3.92,0,1.58-.12,3,0,4.42.2,1.91-.58,3-2.18,4.2-6,4.36-10.26,9.91-11.11,17.4a54.19,54.19,0,0,0-.11,8.26c.2,4.93-1.16,9.23-5,12.58a14.66,14.66,0,0,0-5.05,9.4,81.83,81.83,0,0,0-.6,9.65c-.06,4.08-1.18,7.66-4.23,10.57-1.25,1.2-2.36,2.54-3.54,3.81-5.61,6-11.61,11.53-19,15.52a50.47,50.47,0,0,0-6.57,4.25c-9.87,7.5-15.63,17.05-15.35,29.6a48.86,48.86,0,0,1-.47,6.82,23.34,23.34,0,0,1-6,13.07,54.84,54.84,0,0,1-9.81,8.1,27.44,27.44,0,0,0-8.35,9.39,57.06,57.06,0,0,0-5.2,13.29c-1.87,7.2-6.2,12.52-12.4,16.68S563.4,341.5,557.45,346a44.33,44.33,0,0,0-14,17.6,62.85,62.85,0,0,0-5.36,18.59,109.33,109.33,0,0,0-.66,13.66c.05,4.45.64,8.9.9,13.36a31.93,31.93,0,0,1-3.24,16.34c-2.47,4.95-5,9.87-7.39,14.87-4.65,9.83-5.4,20.22-3.68,30.7,1.2,7.35,5.21,13.68,9.74,19.59a26.28,26.28,0,0,0,4.19,4c2.37,2,4.9,3.78,7.26,5.77a18.08,18.08,0,0,1,5.05,5.85,27.13,27.13,0,0,1,2.54,15,38.66,38.66,0,0,0,1.19,15c2.43,8.73,8.09,15.09,16,19.52a85.91,85.91,0,0,0,9,4c10.78,4.5,17.76,12,18.9,23.67.59,6.15.77,12.34.79,18.52a45.1,45.1,0,0,1-1.2,9.58c-.84,3.8-2.11,7.51-3.2,11.26-2.36,8.17,2,14.88,10.52,16.35,2.19.38,4.38.86,6.53,1.42,3.33.88,5.73,3.18,8.12,5.41a26.37,26.37,0,0,0,13.4,6.58c4.71.88,9.42,1.39,14.16-.06a3.21,3.21,0,0,0,2.63-2.65c.61-3.56,1.21-7.12,1.9-10.66a5.75,5.75,0,0,0-1.4-5c-1.3-1.57-1.31-2.21-.08-3.71.61-.73,1.43-1.3,2-2a28,28,0,0,0,3.39-4.21c3-5.34,3-11.1,2.13-16.93-.58-3.85-1.47-7.67-1.8-11.54-.36-4.28.61-8.5,1.56-12.67a66.82,66.82,0,0,1,15.27-29.8c4-4.58,9.09-8,14.38-11.13,4.78-2.81,9.46-5.77,12.85-10.2a16.28,16.28,0,0,0,3.07-5.73c1.12-4.61,1.66-9.34,2.59-14a25.19,25.19,0,0,1,1.87-6.23,46.54,46.54,0,0,1,8.32-11.67c1.8-1.88,3.63-3.74,5.26-5.75,5.38-6.6,9.41-13.71,9-22.57a20.12,20.12,0,0,1,1.37-9.26c3.35-7.32,7.88-13.76,14.83-18.36a40.52,40.52,0,0,0,5.42-4.33c3.19-3,5.29-6.52,5.13-11.08a46.92,46.92,0,0,1,.35-6.26c.43-4.43.3-8.93,2.07-13.18a49,49,0,0,0,1.81-6c2.46-8.69,7.23-15.51,16-19.19a63.08,63.08,0,0,0,6-3A60.7,60.7,0,0,0,789,371.7a16.4,16.4,0,0,0,7-10.2,41,41,0,0,0,.88-8.19,15.6,15.6,0,0,1,4.42-11.12,75.9,75.9,0,0,0,5.33-6.42,11.44,11.44,0,0,0,2.47-7.42c-.18-5.9,0-11.8-.1-17.7a56.27,56.27,0,0,0-.92-8.18c-1.1-6.57-2.18-13.13-1.41-19.81a31.08,31.08,0,0,1,4.43-13.45,33.36,33.36,0,0,1,10.61-10.07,18.54,18.54,0,0,0,6.22-6.66c2-3.48,2.72-7.3,3.35-11.15a17.83,17.83,0,0,1,7-12.09,25,25,0,0,0,3.85-3.49c1.25-1.43,2.48-2.91,2.63-5,.39-5.31.92-10.61,1.23-15.92A9.62,9.62,0,0,0,845.32,200.72Zm-15.82-18.4a7.57,7.57,0,0,1-1.73,5.53c-1.08,1.37-1.57,3.2-2.31,4.8-3.35-2-4.09-5.61-1.64-9a17.39,17.39,0,0,1,1.67-2c1.14-1.14,2.35-2.22,3.81-3.6C829.38,179.86,829.42,181.09,829.5,182.32ZM715.86,139a2.92,2.92,0,0,1,.28.77c-4.24.7-12.23-2-16.56-5.49,2.2-.4,4.55-.85,6.91-1.24a2.74,2.74,0,0,1,1.66,0C711,134.78,713.88,136.33,715.86,139Zm-12.55.16-6.57,1.15v-4.74Zm10.38-14.81c1.81-.19,3.66-.05,5.86-.05-4.11,3.56-8.71,5.37-13.95,6.48,1.88-1.91,3.47-3.69,5.25-5.26A5.37,5.37,0,0,1,713.69,124.37Zm-.5-13.41c.58,9.2-6.42,17.37-13,19.8a7.58,7.58,0,0,0,.19-2.77,9.91,9.91,0,0,0-1.82-2.5C701.43,119.71,707.94,113.25,713.19,111Zm-9.38-5.81c.29,2.79.61,4.94.69,7.11a4.08,4.08,0,0,1-.77,2.58c-1.6,1.88-3.41,3.58-5.11,5.33-.4-2.3-.8-4.6-1.24-7.09Zm-11.63,1.9a34.64,34.64,0,0,1,4,16l-7,.64C688.39,118.05,689.71,112.66,692.18,107.05Zm-11.93-1.91c2.34,1.27,3.25,3.55,4.91,5.13.48.46.75,1.13,1.23,1.57a2.76,2.76,0,0,1,.79,3.29,22.62,22.62,0,0,0-.45,4.41c-2-2.3-3.94-4.06-5.28-6.19-.85-1.34-.91-3.2-1.17-4.85A23.1,23.1,0,0,1,680.25,105.14Zm-6,5.37c3.85,1.83,10,8.76,12.58,13.94l-2.76,4.88C677.72,124.79,675.8,117.85,674.26,110.51ZM671.1,124a40.41,40.41,0,0,1-3.74-3.12c1.74.46,3,.75,4.21,1.12,2.45.73,4.65,1.75,6,4.11a28.57,28.57,0,0,0,3,3.71l.07,0,.15.18-.17-.16,0-.06C677.44,127.89,674.23,126,671.1,124Zm-1.45,16a10.63,10.63,0,0,1,1.57-1.51c2.68-1.71,5.36-3.41,8.13-5a4.6,4.6,0,0,1,2.74-.44c1.78.29,3.5.87,5.62,1.42A31.49,31.49,0,0,1,669.65,140Zm17.19-11.32c5.71-4.69,7.92-4,11.13-.06C694.59,133.91,690.43,133.93,686.84,128.66Zm-45.13,521c-6.63,0-13-1.05-18.41-5.19a27.85,27.85,0,0,1-2.41-2.06,23.46,23.46,0,0,0-14.52-6.55,47.66,47.66,0,0,1-6-1.37,71.16,71.16,0,0,0,7.19-1.25c4.92-1.41,9,0,12.61,3.22.64.57,1.25,1.19,1.85,1.82,5,5.25,11.48,6.88,18.4,7.37a38.05,38.05,0,0,0,6.27-.56C646.35,649.26,646.05,649.61,641.71,649.61Zm57.86-124.86a10.28,10.28,0,0,1-2.75,5.53c-3.45,4-8.05,6.54-12.46,9.35a93.81,93.81,0,0,0-10.63,7.52c-7,6-11.87,13.53-15.55,21.83a76.12,76.12,0,0,0-6,21.94c-.56,4.78.33,9.48,1.25,14.15.86,4.41,1.4,8.83.33,13.29a14.13,14.13,0,0,1-4.73,8,36.05,36.05,0,0,0-3.76,4.17,1,1,0,0,1-.33-1.7,8.3,8.3,0,0,1,1.47-1.36c4-3.05,5.55-7.16,5.75-12a37.53,37.53,0,0,0-1.46-11.83,41.3,41.3,0,0,1-.55-18.92c.87-4.65,2.16-9.24,3.43-13.82,1.52-5.48,4.46-10.32,7.75-14.94a104.38,104.38,0,0,1,15-17.47c3.94-3.54,8.07-6.88,12.24-10.16s8.65-6.5,12.33-10.58C700.42,520.1,699.85,522.4,699.57,524.75Zm24.65-47.47c-2.47,5.26-6.28,9.57-10.24,13.79-2.49,2.65-4.86,5.42-7.49,8.36A28.37,28.37,0,0,1,711,487.18a79.26,79.26,0,0,1,6.73-7.85c2.82-3.13,5.71-6.18,8.5-9.2C726.3,472.52,725.32,474.92,724.22,477.28Zm29.09-60.62,0,0c-.17,3.29-.32,6.58-.56,9.86a3.16,3.16,0,0,1-.76,1.8c-1.76,1.88-3.37,4-5.47,5.45a53.4,53.4,0,0,0-14.22,13.6s0,.06,0,.1l-.15.16.12-.2,0-.06c.77-6,3.71-11,7.3-15.74,1.56-2,3.53-3.77,5.27-5.67,2.83-3.09,5.63-6.2,8.44-9.3v-.07l.15-.16Zm52.1-87.38a9.53,9.53,0,0,1-1.64,4.47,48.19,48.19,0,0,1-5.14,6.2,18.37,18.37,0,0,0-5.45,13.42,41.63,41.63,0,0,1-.3,5.12c-.63,5.21-3.52,9-8,11.6-3.45,2-7.07,3.64-10.6,5.45-4.28,2.19-8.28,4.79-11,8.74a71.27,71.27,0,0,0-4.23,7.79c-.43.84-.69,1.76-1.09,2.79-1-8.16,1.35-13.49,6.36-18.23,3.33-3.15,7.25-5.73,11-8.45,2.18-1.59,4.54-2.94,6.82-4.42,7-4.53,10.36-10.92,9.28-19-.9-6.71,1.2-12.14,5.6-17,2.69-3,5.45-5.9,8.51-9.2C805.48,322.45,805.65,325.88,805.41,329.28ZM841,220.74a5.86,5.86,0,0,1-1.45,2.7,18.39,18.39,0,0,1-3.19,2.91c-5.27,3.79-7.87,9-8.83,15.18a25.36,25.36,0,0,1-3.28,10,14.62,14.62,0,0,1-4.66,4.63A39.88,39.88,0,0,0,808.79,266c-3.44,4.57-4.92,9.85-5.8,15.34-.27,1.66-.43,3.34-.68,5.42-.51-2-.91-3.53-1.3-5.08a21,21,0,0,1,.4-11c1.71-6.21,4.13-12.09,8.47-17,1.58-1.8,3.35-3.44,5-5.14,2.17-2.18,4.59-4.16,6.44-6.58,1.53-2,3.06-4.4,3.41-6.79,1.18-8,5.94-13.44,12.09-18.13,1.53-1.16,3-2.36,4.88-3.81C841.51,215.84,841.41,218.31,841,220.74Zm.47-13.63a21,21,0,0,1-7.09,7.43c-6.34,4.18-11.15,9.63-12.61,17.15a20.73,20.73,0,0,1-6.49,11.49c-3.57,3.36-7.43,6.46-10.24,10.54-4.94,7.17-8.12,15-8.31,23.67-.1,4.31,1.26,8.43,2.75,12.47,1.55,4.2,3.23,8.36,4.6,12.61,2.1,6.53.1,12.11-4.46,17.08-3,3.26-5.93,6.57-8.59,10.07a17.56,17.56,0,0,0-3.42,14c1.07,6.5-.7,12.13-6.09,16.29-2.2,1.7-4.87,2.81-7.16,4.41-4,2.81-8.16,5.57-11.89,8.75A23.57,23.57,0,0,0,753.86,392c0,3.61,0,7.23,0,10.84-.05,5.7-2.48,10.52-6.1,14.78a90.71,90.71,0,0,1-7,7.28c-8,7.54-12.14,16.83-13.29,27.52-.59,5.52-1.75,10.93-5,15.62a59.89,59.89,0,0,1-5,5.95c-2.44,2.72-5.09,5.27-7.43,8.07a31.5,31.5,0,0,0-7.5,20.28c-.06,5.74-2.3,10.27-6.07,14.37-4,4.35-8.91,7.68-13.55,11.3a119,119,0,0,0-26.6,28.62,50,50,0,0,0-6.49,13.66c-.45,1.54-1,3-1.52,4.56a5.25,5.25,0,0,1-.08.71s0,.07,0,.11a2.74,2.74,0,0,1-.35,1.26,10.89,10.89,0,0,1-.7,1.65c-.38,2.33-.77,4.66-1.09,7a50.11,50.11,0,0,0,1.44,21.19,24,24,0,0,1,.48,11.29,10,10,0,0,1-3.51,6.08c-.59.49-1.19,1-1.74,1.51-2.69,2.65-2.6,5.75.32,8.16a17.84,17.84,0,0,0,3.2,2,2.37,2.37,0,0,1,1.54,2.48A2.78,2.78,0,0,1,646,641a10.64,10.64,0,0,1-3.1.75c-7.31.27-13.92-1.37-19.07-6.87a18.66,18.66,0,0,0-5.72-4.37,16.4,16.4,0,0,0-11.1-1,19.91,19.91,0,0,1-5.74.62c-2.69-.16-3.93-1.83-3.64-4.48a31.12,31.12,0,0,1,.9-3.88c1.21-4.79,2.66-9.54,3.56-14.38.66-3.62.56-7.37.88-11.06.53-6.25-.82-12.27-2.2-18.3-1.86-8.09-6.8-14-13.81-18.33a63.28,63.28,0,0,0-9.46-4.43c-8.31-3.37-15-8.43-18.73-16.67-1.91-4.19-2.29-8.59-2.35-13.07,0-4.08.19-8.18-.17-12.24-.63-7.26-4.57-12.78-10.38-17.15-1.55-1.16-3.07-2.36-4.58-3.55a36.23,36.23,0,0,1-13.58-22.69c-1.66-9.8-.82-19.73,3.84-28.95,2.41-4.77,4.85-9.53,7.16-14.35a36,36,0,0,0,3.38-17.47c-.34-7.78-1-15.61-.51-23.37.63-11.17,3.75-21.66,11.42-30.5a51,51,0,0,1,9.12-8.38c6-4.23,12.11-8.32,18.07-12.6a28.4,28.4,0,0,0,11.19-15.9,60.26,60.26,0,0,1,5.5-14.09,22.25,22.25,0,0,1,7.31-8,45.89,45.89,0,0,0,13.9-13.67,14.54,14.54,0,0,0,1.31-2.54,34.13,34.13,0,0,0,2.3-12,79.44,79.44,0,0,1,.6-9.39c.7-4.81,3.15-8.95,6.06-12.81a34.63,34.63,0,0,1,10.89-9.4,85.1,85.1,0,0,0,23.34-19.24,14.89,14.89,0,0,1,2.43-2.46c3.83-2.75,4.89-6.72,5.22-11,.16-2.08,0-4.19,0-6.28.12-4.8,1.31-9.1,5.16-12.56a16.33,16.33,0,0,0,5.5-13.06c-.07-3.13,0-6.27.27-9.39.47-6.25,4.25-10.62,9.17-14.83.1,1,.21,1.72.22,2.4q0,4.73,0,9.43c0,1.41.42,2.24,2.46,1.59.15-8.29,0-16.72.09-25.14l.58-.09a13.54,13.54,0,0,1,.28,1.88c0,6.76,0,13.52,0,20.28v3.2h2.47v-16.9a23.94,23.94,0,0,1,4.85-1.13c3.59-.09,7.2.06,10.79.27,3,.18,6,.64,9,.86,2.47.18,4.53-1,6.52-2.24a53.34,53.34,0,0,0,13.39-11.37,117.38,117.38,0,0,1,8.12-9c5.68-5.44,12.3-9.44,20.34-10.43,6.62-.82,12.59,1.56,15.89,7.77,1,1.94,1.85,4,2.76,6,.19.43.34.89.52,1.33a18,18,0,0,0,14,11.62,28.11,28.11,0,0,1,11.75,4.83c4.75,3.58,7.71,8,7.47,14.07a16.12,16.12,0,0,0,.5,4.24,7.35,7.35,0,0,0,2.94,4.76,9.57,9.57,0,0,1,2.37,2.46c1.38,2,1.46,4.11-.3,6q-2.46,2.64-5,5.21a13.29,13.29,0,0,0-3.5,5.53c-1.15,3.89,0,7.11,2.92,9.81,3.24,3,7.24,4,11.54,4.08,1.07,0,2.15-.1,3.22-.06C841.45,199.1,843.79,203,841.5,207.11Z"/><path d="M648.2,575.69a10.66,10.66,0,0,1-.35,1.26A2.74,2.74,0,0,0,648.2,575.69Z"/><path class="c" d="M648.22,574.9c0,.29,0,.55,0,.79,0,0,0-.07,0-.11a5.25,5.25,0,0,0,.08-.71v0Z"/><rect class="d" x="531.7" y="704.74" width="340.04" height="33.29" rx="12"/><line class="g" x1="860.08" y1="704.74" x2="860.08" y2="705.24"/><line class="h" x1="860.08" y1="712.53" x2="860.08" y2="733.88"/><line class="g" x1="860.08" y1="737.53" x2="860.08" y2="738.03"/><text class="i" transform="translate(829.72 684.01)">20GW</text><text class="j" transform="translate(831.64 663.42)">2025 GOAL</text><polygon class="k" points="860.13 698.94 853.79 692.24 866.69 692.24 860.13 698.94"/></svg>