<svg xmlns="http://www.w3.org/2000/svg" viewBox="0 0 429.52 733.09"><defs><style>.a{fill:#00abff;}</style></defs><title>Mobile Solar Panel</title><rect class="a" x="298.55" y="52.58" width="4.87" height="9.11" transform="translate(358.13 -243.85) rotate(90)"/><rect class="a" x="308.63" y="52.58" width="4.87" height="9.11" transform="translate(368.2 -253.93) rotate(90)"/><rect class="a" x="318.71" y="52.58" width="4.87" height="9.11" transform="translate(378.28 -264.01) rotate(90)"/><rect class="a" x="298.55" y="58.64" width="4.87" height="9.11" transform="translate(364.19 -237.8) rotate(90)"/><rect class="a" x="308.63" y="58.64" width="4.87" height="9.11" transform="translate(374.26 -247.87) rotate(90)"/><rect class="a" x="318.71" y="58.64" width="4.87" height="9.11" transform="translate(384.34 -257.95) rotate(90)"/><rect class="a" x="298.55" y="64.7" width="4.87" height="9.11" transform="translate(370.24 -231.74) rotate(90)"/><rect class="a" x="308.63" y="64.7" width="4.87" height="9.11" transform="translate(380.32 -241.82) rotate(90)"/><rect class="a" x="318.71" y="64.7" width="4.87" height="9.11" transform="translate(390.39 -251.89) rotate(90)"/><rect class="a" x="298.55" y="70.75" width="4.87" height="9.11" transform="translate(376.3 -225.68) rotate(90)"/><rect class="a" x="308.63" y="70.75" width="4.87" height="9.11" transform="translate(386.38 -235.76) rotate(90)"/><rect class="a" x="318.71" y="70.75" width="4.87" height="9.11" transform="translate(396.45 -245.83) rotate(90)"/></svg>