<svg xmlns="http://www.w3.org/2000/svg" viewBox="0 0 429.52 733.09"><defs><style>.a{fill:#00abff;}</style></defs><title>Mobile Solar Panel</title><rect class="a" x="328.78" y="76.61" width="4.87" height="9.11" transform="translate(412.38 -250.05) rotate(90)"/><rect class="a" x="338.86" y="76.61" width="4.87" height="9.11" transform="translate(422.46 -260.13) rotate(90)"/><rect class="a" x="348.93" y="76.61" width="4.87" height="9.11" transform="translate(432.54 -270.2) rotate(90)"/><rect class="a" x="328.78" y="82.67" width="4.87" height="9.11" transform="translate(418.44 -244) rotate(90)"/><rect class="a" x="338.86" y="82.67" width="4.87" height="9.11" transform="translate(428.52 -254.07) rotate(90)"/><rect class="a" x="348.93" y="82.67" width="4.87" height="9.11" transform="translate(438.59 -264.15) rotate(90)"/><rect class="a" x="328.78" y="88.73" width="4.87" height="9.11" transform="translate(424.5 -237.94) rotate(90)"/><rect class="a" x="338.86" y="88.73" width="4.87" height="9.11" transform="translate(434.57 -248.01) rotate(90)"/><rect class="a" x="348.93" y="88.73" width="4.87" height="9.11" transform="translate(444.65 -258.09) rotate(90)"/><rect class="a" x="328.78" y="94.78" width="4.87" height="9.11" transform="translate(430.56 -231.88) rotate(90)"/><rect class="a" x="338.86" y="94.78" width="4.87" height="9.11" transform="translate(440.63 -241.96) rotate(90)"/><rect class="a" x="348.93" y="94.78" width="4.87" height="9.11" transform="translate(450.71 -252.03) rotate(90)"/><rect class="a" x="328.78" y="52.58" width="4.87" height="9.11" transform="translate(388.36 -274.08) rotate(90)"/><rect class="a" x="338.86" y="52.58" width="4.87" height="9.11" transform="translate(398.43 -284.16) rotate(90)"/><rect class="a" x="348.93" y="52.58" width="4.87" height="9.11" transform="translate(408.51 -294.23) rotate(90)"/><rect class="a" x="328.78" y="58.64" width="4.87" height="9.11" transform="translate(394.41 -268.02) rotate(90)"/><rect class="a" x="338.86" y="58.64" width="4.87" height="9.11" transform="translate(404.49 -278.1) rotate(90)"/><rect class="a" x="348.93" y="58.64" width="4.87" height="9.11" transform="translate(414.56 -288.18) rotate(90)"/><rect class="a" x="328.78" y="64.7" width="4.87" height="9.11" transform="translate(400.47 -261.97) rotate(90)"/><rect class="a" x="338.86" y="64.7" width="4.87" height="9.11" transform="translate(410.55 -272.04) rotate(90)"/><rect class="a" x="348.93" y="64.7" width="4.87" height="9.11" transform="translate(420.62 -282.12) rotate(90)"/><rect class="a" x="328.78" y="70.75" width="4.87" height="9.11" transform="translate(406.53 -255.91) rotate(90)"/><rect class="a" x="338.86" y="70.75" width="4.87" height="9.11" transform="translate(416.6 -265.99) rotate(90)"/><rect class="a" x="348.93" y="70.75" width="4.87" height="9.11" transform="translate(426.68 -276.06) rotate(90)"/><rect class="a" x="298.55" y="52.58" width="4.87" height="9.11" transform="translate(358.13 -243.85) rotate(90)"/><rect class="a" x="308.63" y="52.58" width="4.87" height="9.11" transform="translate(368.2 -253.93) rotate(90)"/><rect class="a" x="318.71" y="52.58" width="4.87" height="9.11" transform="translate(378.28 -264.01) rotate(90)"/><rect class="a" x="298.55" y="58.64" width="4.87" height="9.11" transform="translate(364.19 -237.8) rotate(90)"/><rect class="a" x="308.63" y="58.64" width="4.87" height="9.11" transform="translate(374.26 -247.87) rotate(90)"/><rect class="a" x="318.71" y="58.64" width="4.87" height="9.11" transform="translate(384.34 -257.95) rotate(90)"/><rect class="a" x="298.55" y="64.7" width="4.87" height="9.11" transform="translate(370.24 -231.74) rotate(90)"/><rect class="a" x="308.63" y="64.7" width="4.87" height="9.11" transform="translate(380.32 -241.82) rotate(90)"/><rect class="a" x="318.71" y="64.7" width="4.87" height="9.11" transform="translate(390.39 -251.89) rotate(90)"/><rect class="a" x="298.55" y="70.75" width="4.87" height="9.11" transform="translate(376.3 -225.68) rotate(90)"/><rect class="a" x="308.63" y="70.75" width="4.87" height="9.11" transform="translate(386.38 -235.76) rotate(90)"/><rect class="a" x="318.71" y="70.75" width="4.87" height="9.11" transform="translate(396.45 -245.83) rotate(90)"/><rect class="a" x="328.78" y="121.52" width="4.87" height="9.11" transform="translate(457.29 -205.14) rotate(90)"/><rect class="a" x="338.86" y="121.52" width="4.87" height="9.11" transform="translate(467.37 -215.22) rotate(90)"/><rect class="a" x="348.93" y="121.52" width="4.87" height="9.11" transform="translate(477.45 -225.29) rotate(90)"/><rect class="a" x="328.78" y="127.58" width="4.87" height="9.11" transform="translate(463.35 -199.09) rotate(90)"/><rect class="a" x="338.86" y="127.58" width="4.87" height="9.11" transform="translate(473.43 -209.16) rotate(90)"/><rect class="a" x="348.93" y="127.58" width="4.87" height="9.11" transform="translate(483.5 -219.24) rotate(90)"/><rect class="a" x="328.78" y="133.64" width="4.87" height="9.11" transform="translate(469.41 -193.03) rotate(90)"/><rect class="a" x="338.86" y="133.64" width="4.87" height="9.11" transform="translate(479.48 -203.1) rotate(90)"/><rect class="a" x="348.93" y="133.64" width="4.87" height="9.11" transform="translate(489.56 -213.18) rotate(90)"/><rect class="a" x="328.78" y="139.69" width="4.87" height="9.11" transform="translate(475.46 -186.97) rotate(90)"/><rect class="a" x="338.86" y="139.69" width="4.87" height="9.11" transform="translate(485.54 -197.05) rotate(90)"/><rect class="a" x="348.93" y="139.69" width="4.87" height="9.11" transform="translate(495.62 -207.12) rotate(90)"/><rect class="a" x="298.55" y="146.02" width="4.87" height="9.11" transform="translate(451.57 -150.41) rotate(90)"/><rect class="a" x="308.63" y="146.02" width="4.87" height="9.11" transform="translate(461.65 -160.49) rotate(90)"/><rect class="a" x="318.71" y="146.02" width="4.87" height="9.11" transform="translate(471.72 -170.56) rotate(90)"/><rect class="a" x="298.55" y="152.08" width="4.87" height="9.11" transform="translate(457.63 -144.36) rotate(90)"/><rect class="a" x="308.63" y="152.08" width="4.87" height="9.11" transform="translate(467.7 -154.43) rotate(90)"/><rect class="a" x="318.71" y="152.08" width="4.87" height="9.11" transform="translate(477.78 -164.51) rotate(90)"/><rect class="a" x="298.55" y="158.14" width="4.87" height="9.11" transform="translate(463.68 -138.3) rotate(90)"/><rect class="a" x="308.63" y="158.14" width="4.87" height="9.11" transform="translate(473.76 -148.38) rotate(90)"/><rect class="a" x="318.71" y="158.14" width="4.87" height="9.11" transform="translate(483.83 -158.45) rotate(90)"/><rect class="a" x="298.55" y="164.19" width="4.87" height="9.11" transform="translate(469.74 -132.24) rotate(90)"/><rect class="a" x="308.63" y="164.19" width="4.87" height="9.11" transform="translate(479.82 -142.32) rotate(90)"/><rect class="a" x="318.71" y="164.19" width="4.87" height="9.11" transform="translate(489.89 -152.39) rotate(90)"/><rect class="a" x="198.04" y="177.76" width="4.87" height="9.11" transform="translate(382.79 -18.17) rotate(90)"/><rect class="a" x="208.12" y="177.76" width="4.87" height="9.11" transform="translate(392.86 -28.24) rotate(90)"/><rect class="a" x="218.19" y="177.76" width="4.87" height="9.11" transform="translate(402.94 -38.32) rotate(90)"/><rect class="a" x="198.04" y="183.81" width="4.87" height="9.11" transform="translate(388.84 -12.11) rotate(90)"/><rect class="a" x="208.12" y="183.81" width="4.87" height="9.11" transform="translate(398.92 -22.18) rotate(90)"/><rect class="a" x="218.19" y="183.81" width="4.87" height="9.11" transform="translate(409 -32.26) rotate(90)"/><rect class="a" x="198.04" y="189.87" width="4.87" height="9.11" transform="translate(394.9 -6.05) rotate(90)"/><rect class="a" x="208.12" y="189.87" width="4.87" height="9.11" transform="translate(404.98 -16.13) rotate(90)"/><rect class="a" x="218.19" y="189.87" width="4.87" height="9.11" transform="translate(415.05 -26.2) rotate(90)"/><rect class="a" x="198.04" y="195.93" width="4.87" height="9.11" transform="translate(400.96 0.01) rotate(90)"/><rect class="a" x="208.12" y="195.93" width="4.87" height="9.11" transform="translate(411.03 -10.07) rotate(90)"/><rect class="a" x="218.19" y="195.93" width="4.87" height="9.11" transform="translate(421.11 -20.15) rotate(90)"/><rect class="a" x="198.04" y="230.81" width="4.87" height="9.11" transform="translate(435.84 34.89) rotate(90)"/><rect class="a" x="208.12" y="230.81" width="4.87" height="9.11" transform="translate(445.92 24.81) rotate(90)"/><rect class="a" x="218.19" y="230.81" width="4.87" height="9.11" transform="translate(455.99 14.74) rotate(90)"/><rect class="a" x="198.04" y="236.87" width="4.87" height="9.11" transform="translate(441.9 40.95) rotate(90)"/><rect class="a" x="208.12" y="236.87" width="4.87" height="9.11" transform="translate(451.97 30.87) rotate(90)"/><rect class="a" x="218.19" y="236.87" width="4.87" height="9.11" transform="translate(462.05 20.79) rotate(90)"/><rect class="a" x="198.04" y="242.92" width="4.87" height="9.11" transform="translate(447.95 47) rotate(90)"/><rect class="a" x="208.12" y="242.92" width="4.87" height="9.11" transform="translate(458.03 36.93) rotate(90)"/><rect class="a" x="218.19" y="242.92" width="4.87" height="9.11" transform="translate(468.11 26.85) rotate(90)"/><rect class="a" x="198.04" y="248.98" width="4.87" height="9.11" transform="translate(454.01 53.06) rotate(90)"/><rect class="a" x="208.12" y="248.98" width="4.87" height="9.11" transform="translate(464.09 42.98) rotate(90)"/><rect class="a" x="218.19" y="248.98" width="4.87" height="9.11" transform="translate(474.16 32.91) rotate(90)"/></svg>