<svg xmlns="http://www.w3.org/2000/svg" viewBox="0 0 121.59 8.21"><title>PGE</title><path d="M21.16,2.74C28.12,0,35.34-.32,42.63.21a58.8,58.8,0,0,1,9.26,1.67A55,55,0,0,0,68.82,3.63a76,76,0,0,0,8.31-1.32A89.08,89.08,0,0,1,90.33.53a36.13,36.13,0,0,1,13.1,2.13,34.35,34.35,0,0,0,7.29,1.64c.53.06,1.06,0,1.6.13a25.41,25.41,0,0,0,4.45.11c.6,0,1.2-.08,1.79-.12s1.27,0,1.91-.11,1.14,0,1.12.68c0,.28-.54.73-.88.78a47.22,47.22,0,0,1-4.89.43,38.26,38.26,0,0,1-13.29-2.15,32.74,32.74,0,0,0-8-1.74,61.46,61.46,0,0,0-16,1.4c-3.33.64-6.67,1.33-10,1.66a48.15,48.15,0,0,1-12.32-.9c-5-.83-9.9-2.31-15-2.74a39.41,39.41,0,0,0-13.06.8C23.39,3.7,18.76,5.16,14.2,6.77A32.64,32.64,0,0,1,1.8,8.15a2.5,2.5,0,0,1-1.26-.3C.21,7.63-.14,7.07.05,6.68l.05,0a1,1,0,0,1,.63-.1H3.08c.54,0,1.09,0,1.63,0l1.87-.06a34.57,34.57,0,0,0,3.81-.35A6.88,6.88,0,0,0,11.18,6a5.17,5.17,0,0,0,.63-.21c.79-.29,1.57-.56,2.38-.8,1.22-.36,2.44-.71,3.66-1.09S20.07,3.17,21.16,2.74Z"/><text/></svg>