<svg xmlns="http://www.w3.org/2000/svg" viewBox="0 0 132.4 46.31"><defs><style>.a{fill:#fff;}</style></defs><title>PGE</title><path d="M71.62,8.58C72.38,7.32,73,6.41,73.5,5.42A2.38,2.38,0,0,1,76,3.91c1.44.08,2.89,0,4.34.06.73,0,1.18.28,1.15,1.2-.06,2,0,4,0,6.06v3.83c2.24.63,2.24.63,2,3.43l-1.72.39V21.2l3.75.18v5.49a7.84,7.84,0,0,0,5.32-5.43c.5-1.7.47-1.71,2.21-1.73,1.16,0,2.33,0,3.61,0V11.52c-.53-.27-1.25-.43-1.58-.88s-.19-1.13-.21-1.71c0-.77,0-1.54,0-2.37a28.52,28.52,0,0,1,5.85-.24c1.89-.05,3.79,0,5.92,0v-6A8.51,8.51,0,0,1,108.1,0c3,0,6,0,9.06,0,1.6,0,1.83.24,1.87,1.81s0,2.86,0,4.43l7.9.46c.84,2.62.56,3.79-1.09,4.76V14.1c.75,0,1.39.05,2,.1,1.22.07,1.65.51,1.6,1.71s-.13,2.33-.21,3.63l2.64.3a9.63,9.63,0,0,1,.41,1.76c.08,1.64.1,3.28.08,4.92s-1.12,2.78-1.92,4a22.68,22.68,0,0,1-2.64,3.16c-1.71,1.81-3.42,3.62-5.22,5.35a40.88,40.88,0,0,1-7.2,5.57c1.94,0,3.88,0,5.81,0,.1,0,.19.16.37.33-.09,1.08-1,1.26-1.8,1.29-4.2.16-8.33,0-12.4-1.39-4.56-1.6-9.18-3.06-13.87-4.23a39.63,39.63,0,0,0-13-.81c-5.13.44-10,1.92-15,2.74a47.27,47.27,0,0,1-12.32.9c-3.37-.32-6.71-1-10-1.65a61,61,0,0,0-16-1.4,32.74,32.74,0,0,0-8,1.74A38.5,38.5,0,0,1,5.77,44.3c-1.63,0-3.26-.22-4.88-.43-.34,0-.88-.51-.89-.79,0-.66.53-.75,1.12-.68s1.3.11,2.11.17c.32-3.45,2.85-4.94,5.51-6.32a16.15,16.15,0,0,0,2.54-1.5,1.67,1.67,0,0,0,.12-2.83,17.13,17.13,0,0,0-2.52-1.87,19.33,19.33,0,0,1-4.56-3.7A6.27,6.27,0,0,1,2.6,21.69c.08-1.11,0-2.23,0-3.35,0-1.33.22-1.6,1.58-1.67,1-.05,2,0,3,0,5.38.07,10.76.17,16.13.23,2.83,0,2.84,0,2.57,2.93A3.77,3.77,0,0,0,26,20.9l.46,0a10,10,0,0,0,.19-1.43c0-2.95,0-5.91,0-8.86,0-.39,0-.79,0-1.18.11-1.41.69-1.87,2-1.63.38.06.74.18,1.23.31.11,4.3.22,8.53.33,12.81l2.21,1.47c.45-2,2.33-.59,3.55-1.35,0-.42.1-1,.16-1.58-.86-.52-2.19-.41-2.08-1.94.1-1.38.08-1.49,2.1-2,0-1.88,0-3.83,0-5.78s.22-3.73.34-5.8c2.26,0,4.28-.06,6.3,0a2.41,2.41,0,0,1,1.4.93c.7.86,1.29,1.82,2,2.92.81-1.05,1.62-2,2.34-3.06a1.78,1.78,0,0,1,1.81-.85,42.77,42.77,0,0,0,4.53,0,2.42,2.42,0,0,1,2.4,1.35c.49.84,1.05,1.64,1.74,2.71.65-1,1.19-1.89,1.71-2.75a2.77,2.77,0,0,1,3.28-1.49,12.34,12.34,0,0,0,3.33.13,2,2,0,0,1,2,1.19C70.09,6.16,70.78,7.19,71.62,8.58Zm-27.54,5.3L44,14l.12-.09.38-.41.39-.78.09-.1-.08.12-.39.78ZM73.63,8.36l-.08.1.1-.08.07-.1ZM44.49,8l-.11-.09.09.1.41.78.12.1-.13-.09C44.75,8.5,44.62,8.23,44.49,8ZM61,13.88l.12.09L61,13.89,60.6,13l-.21.15Zm-13.41-.76c0-.15-.09-.29,0-.09-.12-.17,0,0,.06.07l.78,1.17.42.84.23-.17-.67-.65Zm1.2-1.61.1.08-.12-.06.26-.83-.36,0Zm0-3.91L48,8.77l-.54.49.23.16L48,8.75l.78-1.17.08-.11Zm12.61,0a2.74,2.74,0,0,0-1,2.29c1-.61,1.4-1.29,1-2.31l.09-.1ZM5.35,42.55c.67,0,1.25.1,1.83.09a35.31,35.31,0,0,0,11-1.88,36.16,36.16,0,0,1,13.1-2.13,87.6,87.6,0,0,1,13.2,1.78,78.46,78.46,0,0,0,8.31,1.32A55.39,55.39,0,0,0,69.71,40,59.61,59.61,0,0,1,79,38.31c7.29-.54,14.51-.18,21.47,2.53,3.11,1.21,6.38,2,9.54,3a3.72,3.72,0,0,0,3.2-.24c1.71-1,3.46-1.89,5.06-3,3.83-2.71,6.9-6.22,10.07-9.64,2.59-2.81,2.73-6,2.17-9.48h-38a8.86,8.86,0,0,1-4.77,6.22,12.72,12.72,0,0,1-6,1.63c-3.26,0-6.53,0-9.8,0-9.72,0-19.43-.05-29.15-.16-2.95,0-6-.33-8.41-2.2a51.41,51.41,0,0,1-4.44-4.37c-3.95,0-8.34,0-12.74,0S8.48,22,3.84,22.42c.56,1,.94,1.83,1.45,2.56A16.13,16.13,0,0,0,10,28.84a16.1,16.1,0,0,1,3.26,2.77,2.65,2.65,0,0,1-.56,4c-.87.68-1.85,1.21-2.79,1.82-1.2.78-2.46,1.49-3.6,2.36A2.31,2.31,0,0,0,5.35,42.55Zm92.9-23h29.49V15.93c-.59,0-1,0-1.5,0-1.72-.06-1.93-.27-1.94-1.95V11.32H111.51c0,1,0,1.92,0,2.83A1.31,1.31,0,0,1,110,15.57c-1.24,0-2.47.19-3.71.27s-1.56-.28-1.63-1.41c0-.59,0-1.18,0-1.77a12.36,12.36,0,0,0-.19-1.36l-.45,0c-.1.81-.25,1.63-.3,2.45-.12,2-.22,2.1-2.19,2.14L98.25,16ZM4,18.41c0,.81.09,1.44.12,2,1.64.53,18.34.62,20.07.14V18.41Zm34-13V15.55h4.21c.23-3.47.14-6.76,0-10.11ZM54.89,15.63c.34-3.24.22-8.51-.19-9.89H50.61v9.89ZM63.23,5.54v9.77a10.88,10.88,0,0,0,4.4-.07c0-2.17,0-4.26,0-6.35,0-3.7-.18-3.81-3.91-3.54A2.62,2.62,0,0,0,63.23,5.54Zm62.49,3-.34-.38H96.7V9.4c.59,0,1.11.07,1.62.07h25.54A2.77,2.77,0,0,0,125,9.39C125.32,9.25,125.49,8.82,125.72,8.52Zm-17.2-6.74V6.34H113l4.19,0V1.78ZM75.7,5.45c0,1.82,0,3.45,0,5.08s0,3.19.06,4.75h4V5.78ZM43.9,23.13v4.36h5V23.13Zm11.16,0H50.64v4.35H55.4C55.28,26,55.18,24.68,55.06,23.14Zm14.43,4.44H73.9V23.11H69.49Zm6.33-4.51v4.46l4.15.35V23.07Zm-8.23.06H63.53V27.5h4.06Zm-29.7,0c0,.89,0,1.61,0,2.31.13,1.36.46,1.67,1.8,1.79l2.26.15V23.11Zm60.37-11.8v2.76h3.9V11.31ZM69.49,21.18h4.36V18.89H69.49Zm-7.85-2.46L57,19.11v2.06h4.68ZM43.86,21.14H49c0-.77-.07-1.37-.1-1.94H43.86Zm19.27-2.28c.06.93.1,1.6.15,2.3h4.26v-2.3Zm43-4.84h3.58c.13-.93.24-1.76.36-2.65h-3.94ZM75.86,18.84v2.28h4c-.05-.85-.09-1.53-.13-2.28ZM55,21.19v-2H50.59v2ZM42,19.22H37.86L38,21.15h4ZM28.45,20.49l.13.05V9.62h-.13ZM46.07,13.9l-1.21,1.71h2.37ZM61.51,27.21l.14-.05V23.37h-.14Zm-6.85-9.92,0-.09H51v.09Zm2.54-.11,0,.11H61v-.11Zm6.37,0,0,.07h3.69V17.2Zm6.23,0v.05h3.64v-.05ZM57,23.4l-.11.07v3.78H57Zm-.07-16c-.29,1.26.54,1.66,1.34,2.09Zm1.41,5.84a1.47,1.47,0,0,0-.35-.09c-.4.6-.79,1.21-1.18,1.82l.3.16ZM76.2,17.19l0,.06h3.12v-.06Zm-34.64.08,0-.06H38.26v.06Zm2.63-.07v.06h2.92V17.2Zm16-1.55c-.85-1-.85-1-1.2,0Zm11.25-1.23-.8,1.06L72,15.26Zm2.5-3.34-.38.05.18.88.2,0ZM35.09,23.21v-.15l-.72.05v.14Zm24.27,0v-.08h-.66v.11ZM34.42,24.86c.23.29.32.47.38.46a1.4,1.4,0,0,0,.46-.19Zm49.38,0,0-.26-.66.13Zm-25.18-.19v.1h.88v-.1Zm.09,1.93v.1h.72v-.1Zm24.44.1ZM59.33,11.52c0-.12,0-.24,0-.37h-.11v.37Zm10.1.49h.15l0-.6h-.17Zm14.1,11.15v-.09l-.15,0ZM57,11.53l-.05-.15s-.07.08-.07.13a.28.28,0,0,0,0,.15Zm-8.52,5.74v-.06h-.14Zm-4.52-6.69c0,.05-.08.1-.08.15a.38.38,0,0,0,0,.17c0-.05.08-.1.08-.15S43.93,10.64,43.92,10.58Z"/><path class="a" d="M5.35,42.55a2.31,2.31,0,0,1,.92-2.78c1.14-.87,2.4-1.58,3.6-2.36.94-.61,1.92-1.14,2.79-1.82a2.65,2.65,0,0,0,.56-4A16.1,16.1,0,0,0,10,28.84,16.13,16.13,0,0,1,5.29,25c-.51-.73-.89-1.56-1.45-2.56,4.64-.44,9,.16,13.33.18s8.79,0,12.74,0A51.41,51.41,0,0,0,34.35,27c2.45,1.87,5.46,2.17,8.41,2.2,9.72.11,19.43.12,29.15.16,3.27,0,6.54,0,9.8,0a12.72,12.72,0,0,0,6-1.63,8.86,8.86,0,0,0,4.77-6.22h38c.56,3.46.42,6.67-2.17,9.48-3.17,3.42-6.24,6.93-10.07,9.64-1.6,1.13-3.35,2-5.06,3a3.72,3.72,0,0,1-3.2.24c-3.16-1.06-6.43-1.82-9.54-3-7-2.71-14.18-3.07-21.47-2.53A59.61,59.61,0,0,0,69.71,40a55.39,55.39,0,0,1-16.94,1.76,78.46,78.46,0,0,1-8.31-1.32,87.6,87.6,0,0,0-13.2-1.78,36.16,36.16,0,0,0-13.1,2.13,35.31,35.31,0,0,1-11,1.88C6.6,42.65,6,42.58,5.35,42.55Z"/><path class="a" d="M98.25,19.57V16l3.28-.08c2,0,2.07-.16,2.19-2.14,0-.82.2-1.64.3-2.45l.45,0a12.36,12.36,0,0,1,.19,1.36c0,.59,0,1.18,0,1.77.07,1.13.49,1.49,1.63,1.41s2.47-.24,3.71-.27a1.31,1.31,0,0,0,1.49-1.42c0-.91,0-1.81,0-2.83H124.3V14c0,1.68.22,1.89,1.94,1.95.46,0,.91,0,1.5,0v3.64Z"/><path class="a" d="M4,18.41H24.19v2.17c-1.73.48-18.43.39-20.07-.14C4.09,19.85,4.05,19.22,4,18.41Z"/><path class="a" d="M38,5.44h4.25c.1,3.35.19,6.64,0,10.11H38Z"/><path class="a" d="M54.89,15.63H50.61V5.74H54.7C55.11,7.12,55.23,12.39,54.89,15.63Z"/><path class="a" d="M63.23,5.54a2.62,2.62,0,0,1,.49-.19c3.73-.27,3.86-.16,3.91,3.54,0,2.09,0,4.18,0,6.35a10.88,10.88,0,0,1-4.4.07Z"/><path class="a" d="M125.72,8.52c-.23.3-.4.73-.7.87a2.77,2.77,0,0,1-1.16.07H98.32c-.51,0-1,0-1.62-.07V8.14h28.68Z"/><path class="a" d="M108.52,1.78h8.62V6.3l-4.19,0h-4.43Z"/><path class="a" d="M75.7,5.45l4,.33v9.5h-4c0-1.56-.05-3.16-.06-4.75S75.7,7.27,75.7,5.45Z"/><path class="a" d="M43.9,23.13h5v4.36h-5Z"/><path class="a" d="M55.06,23.14c.12,1.54.22,2.89.34,4.35H50.64V23.14Z"/><path class="a" d="M69.49,27.58V23.11H73.9v4.47Z"/><path class="a" d="M75.82,23.07H80v4.81l-4.15-.35Z"/><path class="a" d="M67.59,23.13V27.5H63.53V23.13Z"/><path class="a" d="M37.89,23.11H42v4.25l-2.26-.15c-1.34-.12-1.67-.43-1.8-1.79C37.84,24.72,37.89,24,37.89,23.11Z"/><path class="a" d="M98.26,11.31h3.9v2.76h-3.9Z"/><path class="a" d="M69.49,21.18V18.89h4.36v2.29Z"/><path class="a" d="M61.64,18.72v2.45H57V19.11Z"/><path class="a" d="M43.86,21.14V19.2h5.07c0,.57.06,1.17.1,1.94Z"/><path class="a" d="M63.13,18.86h4.41v2.3H63.28C63.23,20.46,63.19,19.79,63.13,18.86Z"/><path class="a" d="M106.13,14V11.37h3.94c-.12.89-.23,1.72-.36,2.65Z"/><path class="a" d="M75.86,18.84h3.91c0,.75.08,1.43.13,2.28h-4Z"/><path class="a" d="M55,21.19H50.59v-2H55Z"/><path class="a" d="M42,19.22v1.93H38l-.13-1.93Z"/><path class="a" d="M28.45,20.49V9.62h.13V20.54Z"/><path class="a" d="M46.07,13.9l1.16,1.71H44.86Z"/><path class="a" d="M61.51,27.21V23.38h.14v3.79Z"/><path class="a" d="M54.66,17.29H51V17.2h3.62Z"/><path class="a" d="M57.2,17.18H61v.11H57.23Z"/><path class="a" d="M63.57,17.2h3.67v.07H63.55Z"/><path class="a" d="M69.8,17.21h3.64v.05H69.8Z"/><path class="a" d="M57,23.4v3.85h-.11V23.47Z"/><path class="a" d="M61.41,7.58c.42,1,0,1.7-1,2.31a2.74,2.74,0,0,1,1-2.29Z"/><path class="a" d="M56.88,7.42l1.34,2.09C57.42,9.08,56.59,8.68,56.88,7.42Z"/><path class="a" d="M58.29,13.26l-1.23,1.89-.3-.16c.39-.61.78-1.22,1.18-1.82A1.47,1.47,0,0,1,58.29,13.26Z"/><path class="a" d="M76.2,17.19h3.06v.06H76.15Z"/><path class="a" d="M41.56,17.27h-3.3v-.06h3.32Z"/><path class="a" d="M44.19,17.2h2.92v.06H44.19Z"/><path class="a" d="M60.17,15.65H59C59.32,14.67,59.32,14.67,60.17,15.65Z"/><path class="a" d="M71.42,14.42l.55.84-1.35.22Z"/><path class="a" d="M73.92,11.08V12l-.2,0-.18-.88Z"/><path class="a" d="M35.09,23.21l-.72,0v-.14l.72-.05Z"/><path class="a" d="M48,8.77l.78-1.17,0,0L48,8.75Z"/><path class="a" d="M59.36,23.19l-.67,0v-.11h.66Z"/><path class="a" d="M48.82,11.51l-.12-.83.36,0-.26.83Z"/><path class="a" d="M47.62,13.12l.79,1.17,0,0-.78-1.17Z"/><path class="a" d="M34.42,24.86l.84.27a1.4,1.4,0,0,1-.46.19C34.74,25.33,34.65,25.15,34.42,24.86Z"/><path class="a" d="M83.8,24.87l-.68-.13.66-.13Z"/><path class="a" d="M61,13.88l-.64-.71L60.6,13l.42.87Z"/><path class="a" d="M58.62,24.68h.88v.1h-.88Z"/><path class="a" d="M48.41,14.29l.67.65-.23.17-.42-.84Z"/><path class="a" d="M58.71,26.61h.72v.1h-.72Z"/><path class="a" d="M83.15,26.71Z"/><path class="a" d="M59.33,11.52h-.12v-.37h.11C59.33,11.28,59.33,11.4,59.33,11.52Z"/><path class="a" d="M69.43,12v-.6h.17l0,.6Z"/><path class="a" d="M48,8.75l-.29.67-.23-.16L48,8.77Z"/><polygon class="a" points="83.53 23.16 83.39 23.1 83.54 23.07 83.53 23.16"/><path class="a" d="M44.88,8.76,44.47,8h0c.13.26.26.53.38.8Z"/><path class="a" d="M57,11.53l-.08.13a.28.28,0,0,1,0-.15s0-.09.07-.13Z"/><polygon class="a" points="48.44 17.27 48.31 17.22 48.45 17.21 48.44 17.27"/><path class="a" d="M43.92,10.58c0,.06,0,.12,0,.17s-.05.1-.08.15a.38.38,0,0,1,0-.17C43.84,10.68,43.89,10.63,43.92,10.58Z"/><path class="a" d="M47.65,13.1c-.09-.12-.18-.24-.06-.07-.06-.2,0-.06,0,.09Z"/><path class="a" d="M44.87,12.7l-.39.78v0l.39-.78Z"/><polygon class="a" points="73.65 8.38 73.55 8.46 73.63 8.36 73.65 8.38"/><path class="a" d="M44.87,8.77l.13.09-.12-.1Z"/><polygon class="a" points="73.63 8.36 73.72 8.28 73.65 8.38 73.63 8.36"/><polygon class="a" points="44.47 7.98 44.38 7.88 44.49 7.97 44.47 7.98"/><path class="a" d="M61.43,7.6l.07-.12-.09.1Z"/><path class="a" d="M48.82,7.6l.06-.13-.08.11Z"/><path class="a" d="M61,13.89l.13.08L61,13.88Z"/><polygon class="a" points="44.1 13.89 43.98 13.98 44.08 13.88 44.1 13.89"/><path class="a" d="M44.08,13.88l.41-.38v0l-.38.41Z"/><path class="a" d="M44.88,12.72,45,12.6l-.09.1Z"/><path class="a" d="M48.8,11.53l.12.06-.1-.08Z"/></svg>