<svg xmlns="http://www.w3.org/2000/svg" viewBox="0 0 429.52 733.09"><defs><style>.a{fill:#fff;}.b{fill:none;}</style></defs><title>PGE</title><path d="M160.31,633.43l.2-.19,0-.1-.06.07Z"/><path d="M165.25,632.33Z"/><path class="a" d="M160.48,633.21l-.17.22a1.8,1.8,0,0,0,.2-.19Z"/><polygon class="a" points="77.91 591.42 77.75 591.63 77.95 591.45 77.91 591.42"/><path class="a" d="M119.22,561a39.13,39.13,0,0,0-19.31-3.19c-5.82.5-11.07,2.45-15.3,6.56-1,1-1.86,2.23-1.28,3.74s2.22,1.53,3.64,1.53c3.51,0,7-.15,10.51-.07a46.61,46.61,0,0,1,11.65,2.18L95.92,580.9c-10.87-2.17-18.4,4.25-22.69,11.28-.73,1.2-1.46,2.43-.08,4.23,1.27-.35,2.73-.65,4.11-1.17,4-1.5,8.2-2.48,12.51-1.87a52.43,52.43,0,0,1,13.69,4c4,1.75,6.48,4.11,7,8.6s.77,4.39,5.08,2.88c.22-.08.36-.35.81-.82-.5-3.66-1-7.57-1.54-11.39h4c-.1,1.65-.36,3.13,1.22,4.23,2.14,1.49,3.58-.68,5.27-.94,3.7,4.18,5.15,4.2,8.07.18,1.78,1,3.62,2.22,5.71.89,2.53-1.61.79-3.87.67-5.84,4.58-1.13,4.58-1.13,6.09-4.67l-2.34-2.11c2.17-2.47,2.17-2.47,2.38-5.16,2.12.62,4.18,1.4,6.31,1.81a47.09,47.09,0,0,0,8.81,1.11c2.91,0,3.65-2.14,1.8-4.42-.32-.4-.72-.73-1.06-1.11-3.92-4.44-8.28-8.36-14.21-10.68,5.52-2.53,11-3.23,16.59-3.41a21,21,0,0,0,5.33-.66c2-.61,2.44-1.83,1.24-3.46a10.89,10.89,0,0,0-3.34-3.07c-9.21-5.21-18.84-5.66-28.72-2.06-1.91.7-3.73,1.65-6,2.68,2.8-8.36,1.56-16.24-.73-24.07a19.9,19.9,0,0,0-1.63-4.24,3.69,3.69,0,0,0-2.22-1.7c-.48-.09-1.39.93-1.79,1.63a73.11,73.11,0,0,0-4,7.76,40.37,40.37,0,0,0-3,9.31,35.26,35.26,0,0,0,0,12.42Z"/><path d="M119.18,561.06a35.26,35.26,0,0,1,0-12.42,40.37,40.37,0,0,1,3-9.31,73.11,73.11,0,0,1,4-7.76c.4-.7,1.31-1.72,1.79-1.63a3.69,3.69,0,0,1,2.22,1.7,19.9,19.9,0,0,1,1.63,4.24c2.29,7.83,3.53,15.71.73,24.07,2.3-1,4.12-2,6-2.68,9.88-3.6,19.51-3.15,28.72,2.06a10.89,10.89,0,0,1,3.34,3.07c1.2,1.63.78,2.85-1.24,3.46a21,21,0,0,1-5.33.66c-5.6.18-11.07.88-16.59,3.41,5.93,2.32,10.29,6.24,14.21,10.68.34.38.74.71,1.06,1.11,1.85,2.28,1.11,4.41-1.8,4.42a47.09,47.09,0,0,1-8.81-1.11c-2.13-.41-4.19-1.19-6.31-1.81-.21,2.69-.21,2.69-2.38,5.16l2.34,2.11c-1.51,3.54-1.51,3.54-6.09,4.67.12,2,1.86,4.23-.67,5.84-2.09,1.33-3.93.07-5.71-.89-2.92,4-4.37,4-8.07-.18-1.69.26-3.13,2.43-5.27.94-1.58-1.1-1.32-2.58-1.22-4.23h-4c.51,3.82,1,7.73,1.54,11.39-.45.47-.59.74-.81.82-4.31,1.51-4.61,1.52-5.08-2.88s-3-6.85-7-8.6a52.43,52.43,0,0,0-13.69-4c-4.31-.61-8.47.37-12.51,1.87-1.38.52-2.84.82-4.11,1.17-1.38-1.8-.65-3,.08-4.23,4.29-7,11.82-13.45,22.69-11.28l13.21-9.13a46.61,46.61,0,0,0-11.65-2.18c-3.5-.08-7,.06-10.51.07-1.42,0-3,.11-3.64-1.53s.23-2.73,1.28-3.74c4.23-4.11,9.48-6.06,15.3-6.56A39.13,39.13,0,0,1,119.22,561l.2.2Zm5.49,4.57a9.13,9.13,0,0,0-2.16,6.29c0,2-.13,4.05,0,6.06a10.21,10.21,0,0,1-4.64,10c1.93,1.3,1.28,3.6,2.09,4.87a10,10,0,0,1,2,5.08c3.36-2.59,5.68-1.34,7.65,1.69.4-1.1.65-1.78.94-2.54-.64-.22-1.12-.42-1.61-.56-7.19-2.09-8.58-5.78-4.52-12.06a15.79,15.79,0,0,0,2.52-8.58c.06-3.66-1.63-6.84-2.29-10.28l.79-.77a3.15,3.15,0,0,1,2.74,2.33c1.49,4.2,2.63,8.42,1.59,13,4.73,2.54,9.73,5,8,11.83l2.68-.18c-2.77-3.83-2.39-3.49,1.27-6.13-4-.75-4.23-1.11-3.66-5.22-3.53-.71-4.87-2-4.94-5.55s-.7-6.8-3-9.55c-1.69-2-1.54-4-.77-6.26,2.71-8.07,1.5-16-1.13-24-5.46,8.39-8.44,17-5.26,26.62,3.57.52,3.58.53,2.53,3.15Zm-9.37,19.71c3-.76,4-3,4.24-5.65.21-2.31,0-4.65,0-7.24a38.81,38.81,0,0,0-12.07,4.13c-4.26,2.3-8,5-9.69,10.23,1.27-.6,2.26-1.08,3.27-1.54q6.64-3,13.31-6c1.23-.55,2.48-1,3.26,1-1.16,1.44-2.64,2.93-2.32,5.12l-.2.27Zm-37.39,6.08c2-.31,4.06-.72,6.1-.89A38.17,38.17,0,0,1,103.17,594l6,2.71c-1.63-2.54-2.66-4.45-4-6.12-1.56-2-2.44-2.89-5.22-1.34a7,7,0,0,1-2.55.79c-2.3.26-3.39-.78-3.23-3.07a25.17,25.17,0,0,1,.54-2.92c-7.35-.78-13,1.35-16.75,7.38l-.2.18ZM167,563c-7.61-6.56-25.37-6.86-34.07,1l2.68,4.19c3.8.37,7.36.52,11-1.35C152.74,563.6,159.78,563.81,167,563Zm-46.13,2.51a32.28,32.28,0,0,0-17.37-5,23.06,23.06,0,0,0-16.73,6.11,4.31,4.31,0,0,0,1.15.22c7.16-1.45,14.1-.31,21.05,1.44,3.47.88,7,1.51,10.63.61C120,567.65,120.48,566.49,120.83,565.54Zm38.62,17.63c-7.1-8.81-16.17-13.14-23.81-11.5.32,1.65.63,3.32.89,4.68C144.05,579.32,151.1,582.14,159.45,583.17Zm-30.53,0c-1.08,1.55-1.95,2.65-2.65,3.84-2,3.34-.59,6,3.34,6.45a4.11,4.11,0,0,0,4.64-2.6,3.59,3.59,0,0,0-1-4.77C132,585.08,130.52,584.26,128.92,583.2Zm-19.37,1.3-4,2,3.23,3.35C109,588.19,109.23,586.73,109.55,584.5Zm26.5,9.66-2.81,2.3,3.9,1.69C136.7,596.54,136.42,595.49,136.05,594.16ZM115,591.1c-.07.38-.14.68-.17,1,0,0,.4.16.46.1s.33-.39.29-.56S115.23,591.34,115,591.1Zm27-9.22a1.11,1.11,0,0,0-.3-.08s-.06.11-.1.17a1.09,1.09,0,0,0,.3.07S142,581.94,142,581.88Z"/><path class="a" d="M125.47,564.86c1-2.62,1-2.63-2.53-3.15-3.18-9.66-.2-18.23,5.26-26.62,2.63,8,3.84,16,1.13,24-.77,2.29-.92,4.27.77,6.26,2.31,2.75,3,6,3,9.55s1.41,4.84,4.94,5.55c-.57,4.11-.31,4.47,3.66,5.22-3.66,2.64-4,2.3-1.27,6.13l-2.68.18c1.72-6.82-3.28-9.29-8-11.83,1-4.62-.1-8.84-1.59-13a3.15,3.15,0,0,0-2.74-2.33Z"/><path class="a" d="M167,563c-7.18.78-14.22.57-20.44,3.8-3.59,1.87-7.15,1.72-11,1.35L132.89,564C141.59,556.17,159.35,556.47,167,563Z"/><path class="a" d="M120.83,565.54c-.35,1-.79,2.11-1.27,3.4-3.58.9-7.16.27-10.63-.61-7-1.75-13.89-2.89-21.05-1.44a4.31,4.31,0,0,1-1.15-.22,23.06,23.06,0,0,1,16.73-6.11A32.28,32.28,0,0,1,120.83,565.54Z"/><path class="a" d="M159.45,583.17c-8.35-1-15.4-3.85-22.92-6.82-.26-1.36-.57-3-.89-4.68C143.28,570,152.35,574.36,159.45,583.17Z"/><path class="a" d="M78,591.45c3.79-6,9.4-8.16,16.75-7.38a25.17,25.17,0,0,0-.54,2.92c-.16,2.29.93,3.33,3.23,3.07a7,7,0,0,0,2.55-.79c2.78-1.55,3.66-.61,5.22,1.34,1.34,1.67,2.37,3.58,4,6.12l-6-2.71A38.17,38.17,0,0,0,84,590.53c-2,.17-4.07.58-6.1.89Z"/><path class="a" d="M115.34,585.38c-.32-2.19,1.16-3.68,2.32-5.12-.78-2-2-1.54-3.26-1q-6.66,3-13.31,6c-1,.46-2,.94-3.27,1.54,1.66-5.2,5.43-7.93,9.69-10.23a38.81,38.81,0,0,1,12.07-4.13c0,2.59.17,4.93,0,7.24-.24,2.62-1.26,4.89-4.24,5.65Z"/><path class="a" d="M124.63,565.59c.66,3.44,2.35,6.62,2.29,10.28a15.79,15.79,0,0,1-2.52,8.58c-4.06,6.28-2.67,10,4.52,12.06.49.14,1,.34,1.61.56-.29.76-.54,1.44-.94,2.54-2-3-4.29-4.28-7.65-1.69a10,10,0,0,0-2-5.08c-.81-1.27-.16-3.57-2.09-4.87a10.21,10.21,0,0,0,4.64-10c-.15-2,0-4,0-6.06a9.13,9.13,0,0,1,2.16-6.29Z"/><path class="a" d="M128.92,583.2c1.6,1.06,3.07,1.88,4.35,2.92a3.59,3.59,0,0,1,1,4.77,4.11,4.11,0,0,1-4.64,2.6c-3.93-.5-5.3-3.11-3.34-6.45C127,585.85,127.84,584.75,128.92,583.2Z"/><path class="a" d="M109.55,584.5c-.32,2.23-.54,3.69-.78,5.36l-3.23-3.35Z"/><path class="a" d="M136.05,594.16c.37,1.33.65,2.38,1.09,4l-3.9-1.69Z"/><path class="a" d="M115,591.1c.27.24.54.36.58.54s-.13.42-.29.56-.46-.07-.46-.1C114.82,591.78,114.89,591.48,115,591.1Z"/><path class="a" d="M142,581.88c0,.06-.07.16-.1.16a1.09,1.09,0,0,1-.3-.07c0-.06.07-.17.1-.17A1.11,1.11,0,0,1,142,581.88Z"/><path class="a" d="M115.3,585.34l-.16.31.2-.27Z"/><polygon class="a" points="119.18 561.06 119.42 561.22 119.22 561.02 119.18 561.06"/><path class="a" d="M124.67,565.63l.8-.77,0,0-.79.77Z"/><path class="b" d="M160.31,633.43l.2-.19,0-.1-.06.07Z"/><path d="M166.35,629.76a16,16,0,0,1-.46,1.68A3.63,3.63,0,0,0,166.35,629.76Z"/><path class="a" d="M166.39,628.71c0,.39,0,.74,0,1,0,0,0-.09,0-.14a7.86,7.86,0,0,0,.1-1l0,.05Z"/></svg>