<svg xmlns="http://www.w3.org/2000/svg" viewBox="0 0 95.09 54.61"><title>PGE</title><path d="M28.63,31.78a34.41,34.41,0,0,1-14-.38C7.92,29.72,3,26,.62,19.49c-.76-2.12-1.15-4.34.79-6,1.69-1.41,3.7-.67,5.52.08a10.82,10.82,0,0,0,9.35-.66c1.15-.58,2.27-1.21,3.4-1.83a15.24,15.24,0,0,1,13.09-1c.71.26,1.43.49,2.18.75C38,6,42.8,4.85,47.73,5s9.17-.41,12.74-4c1.61-1.63,3.35-1.06,4.17,1.2a12,12,0,0,1,.68,7.43c-2,7.26-5.6,13.28-12.93,16.6-2.65,1.2-5.2,2.61-8,4,.89,1.63,1.55,3,2.36,4.27,3.38,5.3,8.47,8.77,13.63,12.23a7.46,7.46,0,0,0,7.89.82,21.52,21.52,0,0,1,12.9-1.26c5,1,8.77,4.22,13.35,5.91a1.37,1.37,0,0,1,.49,1.27c-.23.51-.86,1.23-1.27,1.2a8.39,8.39,0,0,1-2.91-.85c-1.87-.88-3.65-1.92-5.5-2.84A18.82,18.82,0,0,0,70,50.1c-2.3.83-4.53,1.88-6.88,2.55a52.15,52.15,0,0,1-7.91,1.64c-5.53.66-10.8-.77-16-2.4A33.86,33.86,0,0,0,18.62,52a35.39,35.39,0,0,1-5.54,1.72,63.88,63.88,0,0,1-8.86.4c-1.16,0-2.38-.74-2.06-2.2S3.79,50.68,4.71,51c3.35,1.17,6.36-.12,9.47-.92,3.37-.87,6.72-1.83,10.13-2.47,2.63-.49,5.33-.54,7.63-.76C30.83,41.78,29.73,36.8,28.63,31.78Zm-19.25-6a17.28,17.28,0,0,0,9.47,3c4.12.07,8.25-.08,12.83-.14.38,3,.58,6.32,1.29,9.56s1.9,6.19,2.94,9.45c7.61,1.56,15.12,5.74,23.76,2.8C59.5,49,58,48.74,57.05,48.12c-5.08-3.35-9.85-7-13-12.24-1.53-2.51-2.91-5-3.09-8.07-.06-1.13-.78-2.51.73-2.87.8-.19,1.88.76,3.62,1.55,2.8-1.56,6.58-3.1,9.64-5.51,5.17-4.09,7.91-9.54,7.15-16.73-4.29,3.2-9,4-14,3.73-4.36-.2-8.1,1.25-10.38,5.33-1,1.82-1.65,1.93-3.76.66A12,12,0,0,0,20.71,14,18.32,18.32,0,0,1,3.23,15.59C3.59,20.47,6,23.5,9.38,25.8Z"/></svg>