<svg xmlns="http://www.w3.org/2000/svg" viewBox="0 0 111.97 8.21"><title>PGE</title><path d="M92.49,5.46C86.08,8.17,79.43,8.53,72.71,8a50.32,50.32,0,0,1-8.52-1.67A46.85,46.85,0,0,0,48.6,4.58,62.91,62.91,0,0,0,40.94,5.9,75.75,75.75,0,0,1,28.79,7.68,30.88,30.88,0,0,1,16.73,5.55,29.58,29.58,0,0,0,10,3.91c-.49-.07-1-.05-1.47-.13a21.6,21.6,0,0,0-4.1-.11c-.55,0-1.1.08-1.64.12S1.62,3.82,1,3.9s-1,0-1-.68a1.17,1.17,0,0,1,.82-.78A39.88,39.88,0,0,1,5.31,2,32.72,32.72,0,0,1,17.55,4.16,28.16,28.16,0,0,0,25,5.9,52.61,52.61,0,0,0,39.67,4.5c3.07-.64,6.15-1.33,9.25-1.66a40.52,40.52,0,0,1,11.34.9c4.62.82,9.12,2.31,13.84,2.74a33.69,33.69,0,0,0,12-.8A132.61,132.61,0,0,0,98.89,1.44,27.84,27.84,0,0,1,110.31.06a2.06,2.06,0,0,1,1.16.3,1.12,1.12,0,0,1,.45,1.17.08.08,0,0,1,0,0c-.19.15-.36.11-.59.11h-2.15c-.51,0-1,0-1.51,0l-1.72.06a29.38,29.38,0,0,0-3.51.35,4.71,4.71,0,0,0-1.31.36c-.72.28-1.44.55-2.19.8-1.12.36-2.24.71-3.36,1.09S93.49,5,92.49,5.46Z"/><text/></svg>