<svg xmlns="http://www.w3.org/2000/svg" viewBox="0 0 429.52 733.09"><defs><style>.a{fill:#fff;}.b{fill:none;}</style></defs><title>PGE</title><path class="a" d="M236.42,552.73c-.59,3.09-1.36,6.16-1.74,9.27a13.59,13.59,0,0,1-3.65,7.37c-4.6,5.34-10.7,8.7-16.57,12.43a122.88,122.88,0,0,0-14.14,10c-9.34,8-15.8,18-20.69,29a101.54,101.54,0,0,0-8,29.19c-.76,6.35.43,12.6,1.65,18.82,1.14,5.87,1.86,11.74.44,17.68a18.73,18.73,0,0,1-6.29,10.61c-1.84,1.51-3.23,3.54-5,5.55a1.36,1.36,0,0,1-.44-2.26,10.89,10.89,0,0,1,2-1.81c5.28-4.06,7.37-9.52,7.65-15.92A50,50,0,0,0,169.65,667a54.79,54.79,0,0,1-.72-25.17c1.16-6.2,2.87-12.3,4.56-18.38,2-7.3,5.92-13.74,10.3-19.89,5.92-8.32,12.28-16.34,19.94-23.23,5.24-4.71,10.74-9.15,16.29-13.52S231.52,558.14,236.42,552.73Z"/><path class="a" d="M375.57,287.74c0,5.16.22,9.72-.1,14.25a12.59,12.59,0,0,1-2.18,5.94,62.45,62.45,0,0,1-6.83,8.25A24.37,24.37,0,0,0,359.21,334a55.59,55.59,0,0,1-.4,6.82c-.83,6.92-4.68,12-10.7,15.43-4.58,2.61-9.4,4.83-14.1,7.25-5.68,2.91-11,6.36-14.64,11.63a93,93,0,0,0-5.62,10.35,35.1,35.1,0,0,0-1.45,3.71c-1.36-10.85,1.78-17.94,8.45-24.24,4.43-4.2,9.65-7.63,14.63-11.25,2.91-2.11,6.05-3.91,9.07-5.88,9.26-6,13.78-14.53,12.35-25.26-1.2-8.92,1.59-16.14,7.45-22.6C367.83,296,371.5,292.14,375.57,287.74Z"/><path d="M277.94,459.46l.21-.22s0-.08,0-.13l-.06.09Z"/><path d="M209.77,37l-.19-.23-.1-.06.07.08Z"/><path d="M160.31,633.43l.2-.19,0-.1-.06.07Z"/><path d="M306.13,418.27l0,0,.16-.26-.2.21Z"/><path d="M165.25,632.33Z"/><path class="a" d="M423.81,147.61c-.31,3.48-.44,6.77-.95,10a7.81,7.81,0,0,1-1.92,3.6,25.19,25.19,0,0,1-4.25,3.87c-7,5.05-10.47,12-11.75,20.19-.72,4.64-1.77,9.18-4.36,13.25a19.51,19.51,0,0,1-6.2,6.16A53,53,0,0,0,380,217.8c-4.59,6.08-6.55,13.1-7.72,20.4-.36,2.21-.57,4.44-.91,7.21l-1.73-6.76a28,28,0,0,1,.54-14.58c2.28-8.25,5.49-16.07,11.26-22.65,2.1-2.39,4.46-4.57,6.71-6.84,2.88-2.89,6.11-5.53,8.56-8.74,2-2.66,4.07-5.86,4.54-9,1.57-10.6,7.9-17.87,16.08-24.11C419.34,151.14,421.34,149.54,423.81,147.61Z"/><path class="a" d="M164.41,722c-.51,5.61-.91,6.08-6.69,6.08-8.82,0-17.28-1.4-24.49-6.9a35.1,35.1,0,0,1-3.2-2.75,31.17,31.17,0,0,0-19.32-8.71c-2.49-.24-4.93-1.12-7.92-1.83a94.45,94.45,0,0,0,9.57-1.66c6.55-1.87,12,0,16.77,4.29.86.76,1.67,1.58,2.46,2.42,6.6,7,15.28,9.14,24.49,9.8C158.83,723,161.64,722.29,164.41,722Z"/><path class="a" d="M306.13,418.17c-.24,4.41-.43,8.81-.75,13.21a4.18,4.18,0,0,1-1,2.39c-2.33,2.51-4.48,5.35-7.27,7.26-7.39,5.05-13.94,10.84-19,18.17l0,0c1-8,4.93-14.77,9.74-21.07,2.07-2.71,4.69-5,7-7.54,3.78-4.12,7.52-8.28,11.27-12.41Z"/><path class="a" d="M252.8,11.58c.78,12.23-8.54,23.1-17.29,26.33.11-1.23.61-2.59.25-3.68s-1.58-2.24-2.41-3.33C237.16,23.22,245.82,14.62,252.8,11.58Z"/><path class="a" d="M217.76,29.52,214.08,36c-8.46-6-11-15.27-13.06-25C206.14,13.41,214.35,22.63,217.76,29.52Z"/><path class="a" d="M230.22,27.64l-9.3.84c-1.1-7.47.66-14.65,3.93-22.11A45.89,45.89,0,0,1,230.22,27.64Z"/><path class="a" d="M194.89,50.18a13.66,13.66,0,0,1,2.09-2c3.56-2.27,7.13-4.54,10.81-6.6a6,6,0,0,1,3.64-.59c2.37.38,4.67,1.15,7.48,1.89A41.82,41.82,0,0,1,194.89,50.18Z"/><path class="a" d="M234.7,42.62c2.93-.53,6.05-1.13,9.19-1.65a3.66,3.66,0,0,1,2.21.06c3.72,2.24,7.62,4.29,10.26,7.88a4.08,4.08,0,0,1,.37,1C251.09,50.86,240.46,47.25,234.7,42.62Z"/><path class="a" d="M233.42,23.83c-.53-3.06-1.07-6.12-1.64-9.43l8.55-10.56c.39,3.72.82,6.59.92,9.46a5.34,5.34,0,0,1-1,3.43C238.09,19.23,235.68,21.5,233.42,23.83Z"/><path class="a" d="M217.76,35.12c7.59-6.24,10.53-5.39,14.8-.08C228.06,42.1,222.53,42.13,217.76,35.12Z"/><path class="a" d="M217.61,23c-2.67-3-5.24-5.41-7-8.23C209.45,13,209.37,10.5,209,8.31a31.29,31.29,0,0,1,0-4.48c3.12,1.69,4.33,4.73,6.55,6.83.63.61,1,1.5,1.63,2.09a3.68,3.68,0,0,1,1,4.38C217.69,18.76,217.82,20.59,217.61,23Z"/><path class="a" d="M242.7,38c2.5-2.54,4.62-4.91,7-7a7.13,7.13,0,0,1,3.77-1.56c2.42-.24,4.88-.07,7.81-.07C255.8,34.08,249.68,36.49,242.7,38Z"/><path class="a" d="M209.58,36.72c-4.26-2.59-8.57-5.11-12.76-7.8a56.29,56.29,0,0,1-5-4.15c2.31.61,4,1,5.6,1.49,3.26,1,6.18,2.33,8,5.47a37.89,37.89,0,0,0,4.1,5Z"/><path class="a" d="M239.66,49.12l-8.74,1.52v-6.3Z"/><path class="a" d="M160.48,633.21l-.17.22a1.8,1.8,0,0,0,.2-.19Z"/><path class="a" d="M278.11,459.2l-.17.26.21-.22Z"/><polygon class="a" points="209.55 36.74 209.77 36.95 209.58 36.72 209.55 36.74"/><path class="a" d="M253.19,26.09l-.16.31.16-.31Z"/><path class="a" d="M306.17,418.22l.16-.26-.2.21Z"/><polygon class="a" points="77.91 591.42 77.75 591.63 77.95 591.45 77.91 591.42"/><path class="a" d="M241.72,133.29l-7.37,7.87h-18c-.79-2.53-.72-4.54,1.57-6.19s4.36.46,6.64.67c1.55-2.14,1.42-5.41,4.39-6.39a16.16,16.16,0,0,1,5.61-1.06C238.15,128.37,240.92,130,241.72,133.29Z"/><path class="a" d="M248.54,231.28c6.46-5.21,17.27-9.76,22.16-9.33-1.45,4.38-1.44,4.41-5.69,4.52a29.69,29.69,0,0,0-12.25,3c-1.38.67-2.84,1.16-4.26,1.72Z"/><path class="a" d="M280.05,227.39l-7.71-1c.81-1.7,1.56-3.25,2.27-4.75C279.18,222.61,280,223.37,280.05,227.39Z"/><path class="a" d="M248.5,231.23l-2.33,1.53,0,0,2.33-1.51Z"/><polygon class="a" points="243.08 235.07 242.96 235.15 243.06 235.05 243.08 235.07"/><path class="a" d="M243.06,235.05l.79-.74h0l-.76.77Z"/><path class="a" d="M243.85,234.31l.17-.21-.18.2Z"/><path class="a" d="M246.17,232.76,246,233l.21-.23Z"/><path class="a" d="M383.27,159.1c2.83,1.49,2.83,1.49,2.24,4.4-.85-1.73-1.52-3.09-2.2-4.45Z"/><path class="a" d="M383.31,159.05l-.3-.12.26.17Z"/><path class="a" d="M281.56,313.77a1.92,1.92,0,0,1-3,.29c-.82-.61-1.59-1.3-2.44-1.87-3.08-2.05-5.3-1.78-7.87.88-2.38,2.46-3.45,2.44-5.51-.14-3.58-4.46-5.76-4.87-10.76-2-.41.24-.84.44-2,1a10.18,10.18,0,0,1,1-2.5Q256,304,261,298.75a9.25,9.25,0,0,1,2.52-1.73c3.42-1.74,5.45-1.44,7.9,1.38a55.3,55.3,0,0,1,4.62,6.08C278,307.47,279.69,310.6,281.56,313.77Z"/><path class="a" d="M269.56,266.2c-3.11-2-4.93.43-6.87,2.09-4.89-4.85-5-4.86-11.86-1.5,2.06-3.2,3.85-5.81,6.57-7.65,2.51-1.7,5.1-1.56,7,.53s3.44,4.36,5.14,6.55Z"/><polygon class="a" points="269.53 266.23 269.74 266.4 269.56 266.2 269.53 266.23"/><path d="M203.72,234.78c.52.66,1.24,1.22,1.14,1.51-.18.53-.85.89-1.32,1.32-.34-.43-1-.86-.95-1.28S203.2,235.44,203.72,234.78Z"/><path class="b" d="M232.56,35c-4.27-5.31-7.21-6.16-14.8.08C222.53,42.13,228.06,42.1,232.56,35Z"/><path class="b" d="M207.79,41.57c-3.68,2.06-7.25,4.33-10.81,6.6a13.66,13.66,0,0,0-2.09,2,41.82,41.82,0,0,0,24-7.31c-2.81-.74-5.11-1.51-7.48-1.89A6,6,0,0,0,207.79,41.57Z"/><path class="b" d="M209.77,37l-.19-.23-.1-.06.07.08Z"/><path class="b" d="M156.08,722.76c-9.21-.66-17.89-2.82-24.49-9.8-.79-.84-1.6-1.66-2.46-2.42-4.82-4.26-10.22-6.16-16.77-4.29a94.45,94.45,0,0,1-9.57,1.66c3,.71,5.43,1.59,7.92,1.83A31.17,31.17,0,0,1,130,718.45a35.1,35.1,0,0,0,3.2,2.75c7.21,5.5,15.67,6.89,24.49,6.9,5.78,0,6.18-.48,6.69-6.08C161.64,722.29,158.83,723,156.08,722.76Z"/><path class="b" d="M287.89,438.17c-4.79,6.27-8.69,13-9.72,20.94,5-7.29,11.55-13.05,18.92-18.08,2.79-1.91,4.94-4.75,7.27-7.26a4.18,4.18,0,0,0,1-2.39c.32-4.37.51-8.74.75-13.11-3.74,4.12-7.47,8.26-11.23,12.36C292.58,433.16,290,435.46,287.89,438.17Z"/><path class="b" d="M277.94,459.46l.21-.22s0-.08,0-.13l-.06.09Z"/><path class="b" d="M205.45,31.73c-1.83-3.14-4.75-4.49-8-5.47-1.63-.49-3.29-.88-5.6-1.49a56.29,56.29,0,0,0,5,4.15c4.16,2.67,8.43,5.17,12.66,7.74A35.9,35.9,0,0,1,205.45,31.73Z"/><path class="b" d="M220,566.79c-5.55,4.37-11.05,8.81-16.29,13.52-7.66,6.89-14,14.91-19.94,23.23-4.38,6.15-8.28,12.59-10.3,19.89-1.69,6.08-3.4,12.18-4.56,18.38a54.79,54.79,0,0,0,.72,25.17,50,50,0,0,1,1.95,15.72c-.28,6.4-2.37,11.86-7.65,15.92a10.89,10.89,0,0,0-2,1.81,1.36,1.36,0,0,0,.44,2.26c1.77-2,3.16-4,5-5.55a18.73,18.73,0,0,0,6.29-10.61c1.42-5.94.7-11.81-.44-17.68-1.22-6.22-2.41-12.47-1.65-18.82a101.54,101.54,0,0,1,8-29.19c4.89-11.05,11.35-21.08,20.69-29a122.88,122.88,0,0,1,14.14-10c5.87-3.73,12-7.09,16.57-12.43a13.59,13.59,0,0,0,3.65-7.37c.38-3.11,1.14-6.18,1.74-9.27C231.52,558.14,225.67,562.34,220,566.79Z"/><path class="b" d="M242.7,38c7-1.48,13.1-3.89,18.57-8.63-2.93,0-5.39-.17-7.81.07A7.13,7.13,0,0,0,249.69,31C247.32,33.06,245.2,35.43,242.7,38Z"/><path class="b" d="M230.92,50.64l8.74-1.52-8.74-4.78Z"/><path class="b" d="M364.25,300c-5.86,6.46-8.65,13.68-7.45,22.6,1.43,10.73-3.09,19.24-12.35,25.26-3,2-6.16,3.77-9.07,5.88-5,3.62-10.2,7-14.63,11.25-6.67,6.3-9.81,13.39-8.45,24.24a35.1,35.1,0,0,1,1.45-3.71,93,93,0,0,1,5.62-10.35c3.63-5.27,9-8.72,14.64-11.63,4.7-2.42,9.52-4.64,14.1-7.25,6-3.44,9.87-8.51,10.7-15.43a55.59,55.59,0,0,0,.4-6.82,24.37,24.37,0,0,1,7.25-17.85,62.45,62.45,0,0,0,6.83-8.25,12.59,12.59,0,0,0,2.18-5.94c.32-4.53.1-9.09.1-14.25C371.5,292.14,367.83,296,364.25,300Z"/><path class="b" d="M243.89,41c-3.14.52-6.26,1.12-9.19,1.65,5.76,4.63,16.39,8.24,22,7.31a4.08,4.08,0,0,0-.37-1c-2.64-3.59-6.54-5.64-10.26-7.88A3.66,3.66,0,0,0,243.89,41Z"/><path class="b" d="M400,108.31c-3.26,4.47-2.27,9.29,2.18,11.93,1-2.13,1.63-4.56,3.08-6.38a10.1,10.1,0,0,0,2.29-7.36c-.1-1.64-.16-3.27-.27-5.6-1.94,1.83-3.54,3.27-5.06,4.79A21.35,21.35,0,0,0,400,108.31Z"/><path class="b" d="M240.22,16.73a5.34,5.34,0,0,0,1-3.43c-.1-2.88-.53-5.74-.92-9.46L231.78,14.4c.57,3.31,1.11,6.37,1.64,9.43C235.68,21.5,238.09,19.23,240.22,16.73Z"/><path class="b" d="M230.22,27.64a45.89,45.89,0,0,0-5.37-21.27c-3.27,7.46-5,14.64-3.93,22.11Z"/><path class="b" d="M210.58,14.76c1.79,2.82,4.36,5.18,7,8.23.21-2.4.08-4.23.59-5.86a3.68,3.68,0,0,0-1-4.38c-.65-.59-1-1.48-1.63-2.09-2.22-2.1-3.43-5.14-6.55-6.83a31.29,31.29,0,0,0,0,4.48C209.37,10.5,209.45,13,210.58,14.76Z"/><path class="b" d="M235.76,34.23c.36,1.09-.14,2.45-.25,3.68,8.75-3.23,18.07-14.1,17.29-26.33-7,3-15.64,11.64-19.45,19.32C234.18,32,235.35,33,235.76,34.23Z"/><path class="b" d="M214.08,36l3.68-6.49C214.35,22.63,206.14,13.41,201,11,203.06,20.74,205.62,30,214.08,36Z"/><path class="b" d="M306.13,418.27l0,0,.16-.26-.2.21Z"/><path class="b" d="M401.23,176.8c-.47,3.18-2.5,6.38-4.54,9-2.45,3.21-5.68,5.85-8.56,8.74-2.25,2.27-4.61,4.45-6.71,6.84-5.77,6.58-9,14.4-11.26,22.65a28,28,0,0,0-.54,14.58l1.73,6.76c.34-2.77.55-5,.91-7.21,1.17-7.3,3.13-14.32,7.72-20.4a53,53,0,0,1,14.4-13.13,19.51,19.51,0,0,0,6.2-6.16c2.59-4.07,3.64-8.61,4.36-13.25,1.28-8.2,4.74-15.14,11.75-20.19a25.19,25.19,0,0,0,4.25-3.87,7.81,7.81,0,0,0,1.92-3.6c.51-3.22.64-6.51.95-10-2.47,1.93-4.47,3.53-6.5,5.08C409.13,158.93,402.8,166.2,401.23,176.8Z"/><path class="b" d="M160.31,633.43l.2-.19,0-.1-.06.07Z"/><path class="a" d="M243.9,528.32a37.92,37.92,0,0,1,5.92-16.3c2.59-3.74,5.88-7,9-10.44,3.75-4.15,7.59-8.22,11.31-12.22.16,3.17-1.15,6.36-2.62,9.5-3.28,7-8.35,12.73-13.62,18.34C250.54,520.73,247.39,524.41,243.9,528.32Z"/><path class="a" d="M200.9,512.92a13.32,13.32,0,0,0,10.1-7.51,9.63,9.63,0,0,0-2.78-12,14,14,0,0,0-16-1c-4.14,2.56-6.55,7.21-5.79,11.19.93,4.94,4.17,8,9.63,9.06a8,8,0,0,1,1.45.58,23.65,23.65,0,0,0,.29,3.84c.14.55,1,1.34,1.47,1.32a2.14,2.14,0,0,0,1.52-1.34A24.44,24.44,0,0,0,200.9,512.92Z"/><path class="a" d="M223.2,530.44a31.15,31.15,0,0,0,3.9-1.22c7-3.27,8.86-10.45,5-15.71-3.44-4.65-9.12-6.2-14.93-4.66-4.53,1.21-7.81,4.14-8.45,8.93s1.57,8.34,5.8,10.66a54.87,54.87,0,0,0,5.19,2.24c1,1.38-1.07,3.76,1.61,4.52C222.88,533.65,222.88,533.65,223.2,530.44Z"/><path class="a" d="M209.12,554.58c2-1,3.8-1.65,5.42-2.65a10.21,10.21,0,0,0-.68-17.8c-3.18-1.66-6.47-1.71-9.79-1.26-4.7.64-9.06,5.16-9.48,9.28a10.72,10.72,0,0,0,7.57,11.42c1.2.4,2.42.76,3.75,1.17a16.7,16.7,0,0,0,.56,3,2.05,2.05,0,0,0,1.39.94c.26.05.89-.55,1-.93A24.18,24.18,0,0,0,209.12,554.58Z"/><path class="a" d="M187.42,538.11a16.22,16.22,0,0,0,2.41-.57c4.08-1.62,7.09-4.15,7.6-8.74a10,10,0,0,0-5.59-10.75,13,13,0,0,0-12.28-.32A10.21,10.21,0,0,0,178,535.55a43.5,43.5,0,0,0,6.11,3,23,23,0,0,0,.5,3.36c.12.41.9.8,1.42.88.3.05.94-.51,1-.88A36,36,0,0,0,187.42,538.11Z"/><path d="M200.9,512.92a24.44,24.44,0,0,1-.07,4.19,2.14,2.14,0,0,1-1.52,1.34c-.48,0-1.33-.77-1.47-1.32a23.65,23.65,0,0,1-.29-3.84,8,8,0,0,0-1.45-.58c-5.46-1.08-8.7-4.12-9.63-9.06-.76-4,1.65-8.63,5.79-11.19a14,14,0,0,1,16,1,9.63,9.63,0,0,1,2.78,12A13.32,13.32,0,0,1,200.9,512.92Zm0-3.77c4.48-.67,7.44-3.52,7.66-7.28s-1.92-6.65-5.86-7.85a10.51,10.51,0,0,0-9.21,1.53c-3,1.95-4.56,5.29-3.86,8.08.9,3.58,3.48,5.5,7.79,5.8.18-2,.36-4.07.58-6.52C201.7,504.3,199.6,507.25,201,509.15Z"/><path d="M223.2,530.44c-.32,3.21-.32,3.21-1.9,4.76-2.68-.76-.6-3.14-1.61-4.52a54.87,54.87,0,0,1-5.19-2.24c-4.23-2.32-6.44-5.9-5.8-10.66s3.92-7.72,8.45-8.93c5.81-1.54,11.49,0,14.93,4.66,3.88,5.26,2.06,12.44-5,15.71A31.15,31.15,0,0,1,223.2,530.44Zm-.06-3.87c4.15-.38,6.21-2,7.39-5.38,1.12-3.16-.33-5.58-2.53-7.38a10.3,10.3,0,0,0-11.6-1.25c-3.66,1.77-5.11,4.62-4.3,8.4.64,3,4.07,5.43,7.83,5.55a30.9,30.9,0,0,1,.28-3.73c.09-.48.95-1.28,1.12-1.2.61.27,1.37.77,1.52,1.33A19.52,19.52,0,0,1,223.14,526.57Z"/><path d="M209.12,554.58a24.18,24.18,0,0,1-.29,3.16c-.08.38-.71,1-1,.93a2.05,2.05,0,0,1-1.39-.94,16.7,16.7,0,0,1-.56-3c-1.33-.41-2.55-.77-3.75-1.17a10.72,10.72,0,0,1-7.57-11.42c.42-4.12,4.78-8.64,9.48-9.28,3.32-.45,6.61-.4,9.79,1.26a10.21,10.21,0,0,1,.68,17.8C212.92,552.93,211.11,553.62,209.12,554.58Zm.24-3.58a19.83,19.83,0,0,0,3.77-1.9c4.1-3.31,4.5-8.77-.28-11.79a10,10,0,0,0-10-.72c-3.72,1.68-5.42,4.35-4.94,8.1.44,3.38,3,5.5,7.42,6.06a30.28,30.28,0,0,1,.25-3.71,1.79,1.79,0,0,1,1.15-1.21,1.83,1.83,0,0,1,1.48.86A40.51,40.51,0,0,1,209.36,551Z"/><path d="M187.42,538.11a36,36,0,0,1-.39,3.8c-.07.37-.71.93-1,.88-.52-.08-1.3-.47-1.42-.88a23,23,0,0,1-.5-3.36,43.5,43.5,0,0,1-6.11-3,10.21,10.21,0,0,1,1.57-17.82,13,13,0,0,1,12.28.32,10,10,0,0,1,5.59,10.75c-.51,4.59-3.52,7.12-7.6,8.74A16.22,16.22,0,0,1,187.42,538.11Zm-.08-3.47c4.4-1.07,6.76-3.27,7.18-6.58.36-2.81-2-6.2-5.29-7.71-.35-.16-.74-.25-1.1-.38-4.42-1.54-9.85,1-11,5.07-1.25,4.45,1.22,8.09,6.63,9.45a14.7,14.7,0,0,1,.07-3.4c.17-.72,1-1.28,1.51-1.91.58.57,1.47,1.06,1.67,1.74A18.79,18.79,0,0,1,187.34,534.64Z"/><path class="a" d="M201,509.15c-1.35-1.9.75-4.85-2.9-6.24-.22,2.45-.4,4.49-.58,6.52-4.31-.3-6.89-2.22-7.79-5.8-.7-2.79.87-6.13,3.86-8.08a10.51,10.51,0,0,1,9.21-1.53c3.94,1.2,6.09,4.07,5.86,7.85S205.43,508.48,201,509.15Z"/><path class="a" d="M223.14,526.57a19.52,19.52,0,0,0-.29-3.66c-.15-.56-.91-1.06-1.52-1.33-.17-.08-1,.72-1.12,1.2a30.9,30.9,0,0,0-.28,3.73c-3.76-.12-7.19-2.58-7.83-5.55-.81-3.78.64-6.63,4.3-8.4a10.3,10.3,0,0,1,11.6,1.25c2.2,1.8,3.65,4.22,2.53,7.38C229.35,524.53,227.29,526.19,223.14,526.57Z"/><path class="a" d="M209.36,551a40.51,40.51,0,0,0-1.11-4.31,1.83,1.83,0,0,0-1.48-.86,1.79,1.79,0,0,0-1.15,1.21,30.28,30.28,0,0,0-.25,3.71c-4.45-.56-7-2.68-7.42-6.06-.48-3.75,1.22-6.42,4.94-8.1a10,10,0,0,1,10,.72c4.78,3,4.38,8.48.28,11.79A19.83,19.83,0,0,1,209.36,551Z"/><path class="a" d="M187.34,534.64a18.79,18.79,0,0,0-.34-3.72c-.2-.68-1.09-1.17-1.67-1.74-.53.63-1.34,1.19-1.51,1.91a14.7,14.7,0,0,0-.07,3.4c-5.41-1.36-7.88-5-6.63-9.45,1.16-4.11,6.59-6.61,11-5.07.36.13.75.22,1.1.38,3.33,1.51,5.65,4.9,5.29,7.71C194.1,531.37,191.74,533.57,187.34,534.64Z"/><path class="b" d="M249.82,512a37.92,37.92,0,0,0-5.92,16.3c3.49-3.91,6.64-7.59,9.95-11.12,5.27-5.61,10.34-11.34,13.62-18.34,1.47-3.14,2.78-6.33,2.62-9.5-3.72,4-7.56,8.07-11.31,12.22C255.7,505,252.41,508.28,249.82,512Z"/><path class="a" d="M192.72,339a25.91,25.91,0,0,0,.29,4.11,7.18,7.18,0,0,0,1.29,2c.49-.63,1.24-1.19,1.42-1.89a21.64,21.64,0,0,0,.29-3.8c3,0,5.68-.11,8.37,0,3,.15,3.46-.4,2.22-3.16-3-6.68-6-13.36-9.16-20a27.34,27.34,0,0,0-2.62-3.68,35.82,35.82,0,0,0-2.3,3.2c-3.37,6.09-6.7,12.22-10,18.34a14.17,14.17,0,0,0-1.15,2.39c-.46,1.53.31,2.44,1.9,2.44Z"/><path class="a" d="M165.69,345.4a32.7,32.7,0,0,0,.7,4.24,1.81,1.81,0,0,0,1.45.92,1.78,1.78,0,0,0,1.24-1.13,28.18,28.18,0,0,0,.38-3.67c3.56-1,7.33.59,10.52-1.11,0-.68.09-1,0-1.17-3.19-6.77-6.37-13.54-9.63-20.27-.34-.71-1.15-1.19-2.54-2.55-.49,1-.8,1.67-1.19,2.34-3.7,6.38-7.46,12.72-11.1,19.13-1.23,2.17-.51,3.17,2.21,3.25C160.29,345.46,162.86,345.4,165.69,345.4Z"/><path class="a" d="M178.23,314a42.88,42.88,0,0,0,.07,5.07c.07.52.93.93,1.43,1.4.4-.43,1-.8,1.16-1.29.4-1.56.61-3.17,1-5.06,2.27,0,4.32.1,6.36,0,2.27-.14,3-1,2.88-3.15a6.84,6.84,0,0,0-.54-2.18c-2.58-5.92-5.2-11.82-7.79-17.74-.58-1.33-1.3-2.47-3.21-2.6a8.77,8.77,0,0,0-1.33,1.6c-3.16,6.5-6.31,13-9.37,19.54a17.85,17.85,0,0,0-.79,3.73Z"/><path d="M192.72,339h-9.48c-1.59,0-2.36-.91-1.9-2.44a14.17,14.17,0,0,1,1.15-2.39c3.33-6.12,6.66-12.25,10-18.34a35.82,35.82,0,0,1,2.3-3.2,27.34,27.34,0,0,1,2.62,3.68c3.11,6.64,6.14,13.32,9.16,20,1.24,2.76.75,3.31-2.22,3.16-2.69-.14-5.39,0-8.37,0a21.64,21.64,0,0,1-.29,3.8c-.18.7-.93,1.26-1.42,1.89a7.18,7.18,0,0,1-1.29-2A25.91,25.91,0,0,1,192.72,339Zm10.05-3.23c-2.78-6-5.28-11.45-8-17.39l-9.27,17.26h7.56a30.18,30.18,0,0,1,.06-4.41c.12-.7.81-1.78,1.37-1.87,1.34-.21,1.64,1,1.64,2,0,1.43-.14,2.87-.22,4.38Z"/><path d="M165.69,345.4c-2.83,0-5.4.06-8,0-2.72-.08-3.44-1.08-2.21-3.25,3.64-6.41,7.4-12.75,11.1-19.13.39-.67.7-1.37,1.19-2.34,1.39,1.36,2.2,1.84,2.54,2.55,3.26,6.73,6.44,13.5,9.63,20.27.1.2,0,.49,0,1.17-3.19,1.7-7,.07-10.52,1.11a28.18,28.18,0,0,1-.38,3.67,1.78,1.78,0,0,1-1.24,1.13,1.81,1.81,0,0,1-1.45-.92A32.7,32.7,0,0,1,165.69,345.4Zm10-3.52c-2.43-5.08-4.75-9.9-7.36-15.34l-8.85,15.26h6.24c.41-2.77.79-5.34,1.16-7.9,2.59.33,2.62.33,2.64,1.91,0,2,0,3.94,0,6.07Z"/><path d="M178.23,314l-10.18-.71a17.85,17.85,0,0,1,.79-3.73c3.06-6.54,6.21-13,9.37-19.54a8.77,8.77,0,0,1,1.33-1.6c1.91.13,2.63,1.27,3.21,2.6,2.59,5.92,5.21,11.82,7.79,17.74a6.84,6.84,0,0,1,.54,2.18c.13,2.15-.61,3-2.88,3.15-2,.13-4.09,0-6.36,0-.34,1.89-.55,3.5-1,5.06-.13.49-.76.86-1.16,1.29-.5-.47-1.36-.88-1.43-1.4A42.88,42.88,0,0,1,178.23,314Zm-6.33-3.43h6.38c0-1.92,0-3.56,0-5.19,0-1.1.42-2,1.78-2s1.58,1.06,1.6,2.13c0,1.71,0,3.43.07,5.07h6.07c-2.56-5.8-4.93-11.2-7.63-17.33Z"/><path class="a" d="M202.77,335.78H195.9c.08-1.51.23-2.95.22-4.38,0-1-.3-2.24-1.64-2-.56.09-1.25,1.17-1.37,1.87a30.18,30.18,0,0,0-.06,4.41h-7.56l9.27-17.26C197.49,324.33,200,329.75,202.77,335.78Z"/><path class="a" d="M175.7,341.88h-6.16c0-2.13,0-4.1,0-6.07,0-1.58-.05-1.58-2.64-1.91-.37,2.56-.75,5.13-1.16,7.9h-6.24l8.85-15.26C171,332,173.27,336.8,175.7,341.88Z"/><path class="a" d="M171.9,310.57l8.29-17.32c2.7,6.13,5.07,11.53,7.63,17.33h-6.07c0-1.64,0-3.36-.07-5.07,0-1.07-.2-2.1-1.6-2.13s-1.75.9-1.78,2c-.05,1.63,0,3.27,0,5.19Z"/><path class="a" d="M26.62,479.79c3.22,0,5.8.1,8.38,0,2.42-.13,3.19-1.33,2.51-3.57a20.32,20.32,0,0,0-.91-2.09l-5.82-12.79c-1.48-3.22-2.88-6.48-4.48-9.64-1.18-2.33-2.43-2.27-3.77,0-.32.55-.58,1.13-.85,1.7q-3.87,8.25-7.75,16.51C13,472,12,474,11,476.08c-1.37,3-.87,3.75,2.64,3.82,2.07.05,4.15,0,6.22,0,1,0,2,.13,3.35.22a32.71,32.71,0,0,0,.06,4.68,2.55,2.55,0,0,0,1.43,1.81c1.25.31,1.85-.63,1.88-1.8C26.65,483.33,26.62,481.84,26.62,479.79Z"/><path class="a" d="M51.52,461.85c3.39,0,6.22-.06,9,0,2.52.07,3.06-.52,2.09-2.79-1-2.45-2.24-4.83-3.35-7.25-2.37-5.19-4.69-10.4-7.15-15.55-.55-1.17-.81-3.23-2.55-2.83-1,.23-1.85,1.87-2.49,3-1,1.88-1.89,3.87-2.79,5.83-2.45,5.3-4.92,10.58-7.3,15.9-1.08,2.42-.43,3.55,2.2,4a21.31,21.31,0,0,0,3.49.09h5.47c0,2.17-.11,4.05.06,5.9,0,.59.81,1.12,1.25,1.68.63-.52,1.48-.93,1.84-1.59a5.1,5.1,0,0,0,.17-2.23C51.53,464.82,51.52,463.57,51.52,461.85Z"/><path class="a" d="M48.45,500.65c2.87.18,5.29.43,7.72.44,1.75,0,2.26-.76,1.91-2.4a8.31,8.31,0,0,0-.43-1.45c-2.81-6.63-5.58-13.28-8.48-19.87A4.14,4.14,0,0,0,47,475.14c-1.48-.4-2.2.94-2.8,2.11l-3,5.73L34,496.84c-.69,1.35-1.56,2.71.05,3.93h11c0,1.59,0,2.85,0,4.1s.6,2.16,1.84,1.9c.62-.12,1.33-1.16,1.46-1.88A25.68,25.68,0,0,0,48.45,500.65Z"/><path d="M26.62,479.79c0,2,0,3.54,0,5,0,1.17-.63,2.11-1.88,1.8a2.55,2.55,0,0,1-1.43-1.81,32.71,32.71,0,0,1-.06-4.68c-1.36-.09-2.35-.21-3.35-.22-2.07,0-4.15,0-6.22,0-3.51-.07-4-.81-2.64-3.82C12,474,13,472,13.93,469.89q3.87-8.26,7.75-16.51c.27-.57.53-1.15.85-1.7,1.34-2.28,2.59-2.34,3.77,0,1.6,3.16,3,6.42,4.48,9.64L36.6,474.1a20.32,20.32,0,0,1,.91,2.09c.68,2.24-.09,3.44-2.51,3.57C32.42,479.89,29.84,479.79,26.62,479.79ZM25.53,465.4c1.24,3.52-.48,7.52,1.55,11H34c-3.15-7-6.2-13.77-9.52-21.16l-9.94,21.11h8.65c0-1.3,0-2.4,0-3.5-.08-1.76-.26-3.51-.3-5.28C22.84,466,23.35,464.82,25.53,465.4Z"/><path d="M51.52,461.85c0,1.72,0,3,0,4.22a5.1,5.1,0,0,1-.17,2.23c-.36.66-1.21,1.07-1.84,1.59-.44-.56-1.2-1.09-1.25-1.68-.17-1.85-.06-3.73-.06-5.9H42.72a21.31,21.31,0,0,1-3.49-.09c-2.63-.46-3.28-1.59-2.2-4,2.38-5.32,4.85-10.6,7.3-15.9.9-2,1.74-3.95,2.79-5.83.64-1.16,1.46-2.8,2.49-3,1.74-.4,2,1.66,2.55,2.83,2.46,5.15,4.78,10.36,7.15,15.55,1.11,2.42,2.3,4.8,3.35,7.25,1,2.27.43,2.86-2.09,2.79C57.74,461.79,54.91,461.85,51.52,461.85Zm-3.35-3a60.16,60.16,0,0,1,.07-6.09c.07-.67.92-1.26,1.42-1.89.54.62,1.3,1.15,1.56,1.86a9.5,9.5,0,0,1,.19,2.63c.08,1.1.18,2.19.29,3.44h7.23c-3.08-6.69-6.07-13.16-9.28-20.14-3.26,7-6.24,13.39-9.4,20.19Z"/><path d="M48.45,500.65a25.68,25.68,0,0,1-.06,4.24c-.13.72-.84,1.76-1.46,1.88-1.24.26-1.78-.8-1.84-1.9s0-2.51,0-4.1h-11c-1.61-1.22-.74-2.58-.05-3.93L41.17,483l3-5.73c.6-1.17,1.32-2.51,2.8-2.11a4.14,4.14,0,0,1,2.22,2.23c2.9,6.59,5.67,13.24,8.48,19.87a8.31,8.31,0,0,1,.43,1.45c.35,1.64-.16,2.41-1.91,2.4C53.74,501.08,51.32,500.83,48.45,500.65Zm-1.82-21c-3.23,6.16-6.27,11.71-9.14,17.85h7.44c-.11-1.9-.29-3.63-.28-5.37,0-1,.42-2.21,1.71-2,.54.08,1.21,1.17,1.33,1.87.28,1.81.29,3.65.42,5.57H54C51.54,491.53,49.2,485.88,46.63,479.69Z"/><path class="a" d="M25.53,465.4c-2.18-.58-2.69.57-2.66,2.17,0,1.77.22,3.52.3,5.28,0,1.1,0,2.2,0,3.5H14.52l9.94-21.11c3.32,7.39,6.37,14.16,9.52,21.16h-6.9C25.05,472.92,26.77,468.92,25.53,465.4Z"/><path class="a" d="M48.17,458.84H40.25c3.16-6.8,6.14-13.19,9.4-20.19,3.21,7,6.2,13.45,9.28,20.14H51.7c-.11-1.25-.21-2.34-.29-3.44a9.5,9.5,0,0,0-.19-2.63c-.26-.71-1-1.24-1.56-1.86-.5.63-1.35,1.22-1.42,1.89A60.16,60.16,0,0,0,48.17,458.84Z"/><path class="a" d="M46.63,479.69c2.57,6.19,4.91,11.84,7.41,17.88H48.11c-.13-1.92-.14-3.76-.42-5.57-.12-.7-.79-1.79-1.33-1.87-1.29-.17-1.71,1-1.71,2,0,1.74.17,3.47.28,5.37H37.49C40.36,491.4,43.4,485.85,46.63,479.69Z"/><path class="a" d="M222.94,131.5c-1.27,0-2.18,0-3.08,0a7.41,7.41,0,0,0-7.17,5.85,7.24,7.24,0,0,0,1.13,5.81c1,1.54,2.83.89,4.32,1,2.79.13,5.64-.27,8.07.94,0,1.75-.31,3.31.06,4.69.91,3.33,3.18,4.78,7.39,4.85,7.27.12,14.53.15,21.8.16a13.67,13.67,0,0,0,4.59-.43c1.28-.47,2.27-1.68,3.35-2.53a10.13,10.13,0,0,1,.3,7.83c-1.58,4.94-3,9.92-4.41,14.91-.76,2.74-1.17,5.63-4.54,6.45.39,2.17,1.9,1.79,3.11,1.8q17.13.08,34.25.09a5.07,5.07,0,0,0,1.92-.14c.51-.2,1.18-.75,1.21-1.18s-.62-1.28-1-1.3c-2.27-.13-2.51-1.75-3-3.38-1.78-6.18-3.71-12.33-5.43-18.54a8.67,8.67,0,0,1,0-4c.68-3.21,1.64-6.35,2.42-9.54.56-2.27.72-4.47-1.88-5.54.79-3.57,1.53-6.89,2.27-10.21.63-2.85.64-2.85-2.12-4.09.74-3.06,1.34-6.16,2.27-9.17.68-2.2.61-4-1.68-5.1,1-3.2,2-6.2,2.85-9.23.93-3.3.85-3.34-2.74-4.44.88-3.14,1.74-6.29,2.67-9.43,1.61-5.47,1.41-5.8-4.34-6.48-.51-3.07-2.74-3.78-5.66-3.53a18.59,18.59,0,0,1-3.2-.3c0-5.82,0-11.38,0-16.94a9.55,9.55,0,0,0-.34-3,1.55,1.55,0,0,0-2.84.13,9.21,9.21,0,0,0-.2,2.63c0,4.81,0,9.63,0,14.44a27.56,27.56,0,0,1-.28,2.81c-3.44.82-8.08-1.57-8.75,3.9-5.24.54-5.38.74-4.31,5.71.72,3.33,1.42,6.66,2.21,10.33-3.49.83-2.75,3.25-2.07,5.7s1.37,5.12,2.11,7.87c-2.27,1.08-2.3,2.77-1.53,5,1,3,1.58,6.06,2.33,9.08-3.05,1.09-3.24,1.33-2.91,4,.09.74.46,1.46.5,2.21.2,3.61,3,7.11.47,10.87-.27.41.17,1.28.3,2l-4.79-1.61c-1.35-5.87-4.72-9.68-11.39-9.37-2.08-4.83-5.29-7.78-10.67-7.79C229.54,125.28,225.16,126.29,222.94,131.5Z"/><path d="M222.94,131.5c2.22-5.21,6.6-6.22,11.54-6.21,5.38,0,8.59,3,10.67,7.79,6.67-.31,10,3.5,11.39,9.37l4.79,1.61c-.13-.73-.57-1.6-.3-2,2.53-3.76-.27-7.26-.47-10.87,0-.75-.41-1.47-.5-2.21-.33-2.7-.14-2.94,2.91-4-.75-3-1.32-6.12-2.33-9.08-.77-2.23-.74-3.92,1.53-5-.74-2.75-1.39-5.32-2.11-7.87s-1.42-4.87,2.07-5.7c-.79-3.67-1.49-7-2.21-10.33-1.07-5-.93-5.17,4.31-5.71.67-5.47,5.31-3.08,8.75-3.9a27.56,27.56,0,0,0,.28-2.81c0-4.81,0-9.63,0-14.44a9.21,9.21,0,0,1,.2-2.63,1.55,1.55,0,0,1,2.84-.13,9.55,9.55,0,0,1,.34,3c0,5.56,0,11.12,0,16.94a18.59,18.59,0,0,0,3.2.3c2.92-.25,5.15.46,5.66,3.53,5.75.68,6,1,4.34,6.48-.93,3.14-1.79,6.29-2.67,9.43,3.59,1.1,3.67,1.14,2.74,4.44-.86,3-1.86,6-2.85,9.23,2.29,1.14,2.36,2.9,1.68,5.1-.93,3-1.53,6.11-2.27,9.17,2.76,1.24,2.75,1.24,2.12,4.09-.74,3.32-1.48,6.64-2.27,10.21,2.6,1.07,2.44,3.27,1.88,5.54-.78,3.19-1.74,6.33-2.42,9.54a8.67,8.67,0,0,0,0,4c1.72,6.21,3.65,12.36,5.43,18.54.47,1.63.71,3.25,3,3.38.4,0,1,.87,1,1.3s-.7,1-1.21,1.18a5.07,5.07,0,0,1-1.92.14q-17.13,0-34.25-.09c-1.21,0-2.72.37-3.11-1.8,3.37-.82,3.78-3.71,4.54-6.45,1.4-5,2.83-10,4.41-14.91a10.13,10.13,0,0,0-.3-7.83c-1.08.85-2.07,2.06-3.35,2.53a13.67,13.67,0,0,1-4.59.43c-7.27,0-14.53,0-21.8-.16-4.21-.07-6.48-1.52-7.39-4.85-.37-1.38-.06-2.94-.06-4.69-2.43-1.21-5.28-.81-8.07-.94-1.49-.07-3.28.58-4.32-1a7.24,7.24,0,0,1-1.13-5.81,7.41,7.41,0,0,1,7.17-5.85C220.76,131.46,221.67,131.5,222.94,131.5Zm38.2,48.33h27.54l-6.31-21.44c-5-1.07-9.74-.39-14.81-.49Zm-6.95-33.58c-.49-1.87-.76-3.36-1.28-4.76-.75-2-1.62-4.07-4-4.85A8.41,8.41,0,0,0,238.46,142c-.35,1.14-.7,2.29-1.14,3.7a21.3,21.3,0,0,1-2.16-1,3.53,3.53,0,0,0-4.59.47,4,4,0,0,0-1.12,4.47c.77,1.78,2.36,1.62,3.93,1.67,5.55.19,11.1.45,16.64.64,2.33.08,4.66.1,7,0a2.77,2.77,0,0,0,3-2.77c0-1.71-.89-2.74-2.76-2.92C256.35,146.18,255.45,146.25,254.19,146.25ZM262.76,85c.82,3.56,1.59,6.86,2.33,10.17.26,1.19.66,2.26,2.14,2.26,5.41,0,10.82,0,16.37,0,1.23-4.36,2.36-8.33,3.52-12.44Zm20.13,54.64q1.16-5.37,2.26-10.46c-3.41-1.21-18-1.36-21.79-.3.85,3.59,1.71,7.2,2.55,10.76Zm-41.17-6.34c-.8-3.3-3.57-4.92-7.17-5.1a16.16,16.16,0,0,0-5.61,1.06c-3,1-2.84,4.25-4.39,6.39-2.28-.21-4.21-2.41-6.64-.67s-2.36,3.66-1.57,6.19h18Zm22.77,9.38c1.14,4.25,2.21,8.21,3.28,12.22h14.44c.82-4.13,2.49-7.92,2.71-12.22ZM263,100.91c.47,2,.77,3.72,1.3,5.4,1.69,5.35.46,4.66,6.41,4.75,1.8,0,3.61,0,5.42,0h7.36l3.11-10.15Zm19.88,24.39c.9-3.49,1.81-7,2.77-10.68H263.76c.47,1.94.85,3.66,1.32,5.36s1.08,3.53,1.64,5.32Zm-1.7-43.91c-3.4-1.37-10.65-1.34-13.53-.35a4.7,4.7,0,0,0,1.13.34C273,81.4,277.09,81.39,281.22,81.39Z"/><path class="a" d="M261.14,179.83l6.42-21.93c5.07.1,9.85-.58,14.81.49l6.31,21.44Z"/><path class="a" d="M254.19,146.25c1.26,0,2.16-.07,3,0,1.87.18,2.8,1.21,2.76,2.92a2.77,2.77,0,0,1-3,2.77c-2.33.09-4.66.07-7,0-5.54-.19-11.09-.45-16.64-.64-1.57-.05-3.16.11-3.93-1.67a4,4,0,0,1,1.12-4.47,3.53,3.53,0,0,1,4.59-.47,21.3,21.3,0,0,0,2.16,1c.44-1.41.79-2.56,1.14-3.7A8.41,8.41,0,0,1,249,136.64c2.34.78,3.21,2.83,4,4.85C253.43,142.89,253.7,144.38,254.19,146.25Z"/><path class="a" d="M262.76,85h24.36c-1.16,4.11-2.29,8.08-3.52,12.44-5.55,0-11,0-16.37,0-1.48,0-1.88-1.07-2.14-2.26C264.35,91.85,263.58,88.55,262.76,85Z"/><path class="a" d="M282.89,139.63h-17c-.84-3.56-1.7-7.17-2.55-10.76,3.82-1.06,18.38-.91,21.79.3Q284,134.27,282.89,139.63Z"/><path class="a" d="M264.49,142.67h20.43c-.22,4.3-1.89,8.09-2.71,12.22H267.77C266.7,150.88,265.63,146.92,264.49,142.67Z"/><path class="a" d="M263,100.91h23.6l-3.11,10.15h-7.36c-1.81,0-3.62,0-5.42,0-5.95-.09-4.72.6-6.41-4.75C263.81,104.63,263.51,102.9,263,100.91Z"/><path class="a" d="M282.92,125.3h-16.2c-.56-1.79-1.14-3.55-1.64-5.32s-.85-3.42-1.32-5.36h21.93C284.73,118.32,283.82,121.81,282.92,125.3Z"/><path class="a" d="M281.22,81.39c-4.13,0-8.27,0-12.4,0a4.7,4.7,0,0,1-1.13-.34C270.57,80.05,277.82,80,281.22,81.39Z"/><path class="a" d="M283.16,316.83c.4.32.67.44.79.64q7.16,12,14.28,23.92,4.2,7,8.44,14.09c.57.95,1.34,1.66,2.53,1.12,1.34-.63.83-1.64.34-2.57-.24-.45-.49-.89-.75-1.33-9.16-15.28-18.26-30.59-27.52-45.8a95.11,95.11,0,0,0-7.59-10.52c-3.23-4-6.29-4.54-10.94-2.26a17.58,17.58,0,0,0-4.71,3.27c-3.53,3.52-7,7.1-10.23,10.91-12.14,14.49-24.15,29.07-36.21,43.63a5.53,5.53,0,0,0-1.31,1.84,2.17,2.17,0,0,0,.42,1.94c.46.3,1.4,0,2.09-.21.32-.1.54-.52.79-.82q3.67-4.41,7.33-8.84l26.48-32c2.52,1.2,4.7.56,6.93-.83,2.86-1.78,3.54-1.52,5.68,1.26a17.79,17.79,0,0,0,1.78,2c2.78,2.59,5.48,2.49,8.05-.23,2.22-2.35,2.89-2.48,5.42-.5S280.24,318.74,283.16,316.83Z"/><path class="a" d="M267,268.81c1,.44,2.11,1.32,3.12,1.24,2.41-.2,3.5,1.23,4.66,2.8,3,4.09,6.08,8.19,9.16,12.25a20.2,20.2,0,0,0,2.56,2.83,7.52,7.52,0,0,0,9.27,1.07,46.08,46.08,0,0,0,5.12-3.42c3.71-2.76,7.29-5.68,11-8.39,4.22-3.05,7.66-2.73,11.4.84a21.26,21.26,0,0,1,2.14,2.21q4.89,6.13,9.71,12.32c1.4,1.81,2.62,3.77,4.11,5.52.44.51,1.51.5,2.3.73a13.56,13.56,0,0,0,.21-2.44c0-.44-.51-.86-.81-1.27-1.48-2.08-2.85-4.24-4.48-6.2-3.65-4.42-7.33-8.84-11.19-13.1-4.53-5-10.06-4.66-15.32-1.07-3.49,2.39-6.75,5.11-10.15,7.64-2,1.45-4,2.82-6,4.19a3.64,3.64,0,0,1-4.93-.53,16.89,16.89,0,0,1-2-2.29c-3.61-4.79-7.15-9.64-10.8-14.4-3-3.94-6-8-9.31-11.63s-7.25-3.92-11.46-1.06a21.14,21.14,0,0,0-3.66,3.35c-1.11,1.22-2,2.63-3,3.95q-10.94,14.52-21.86,29c-.76,1-1.84,2.25-.42,3.31s2.27-.38,3.07-1.33a3.09,3.09,0,0,0,.23-.31c5.28-7.05,10.6-14.06,15.81-21.15,1.68-2.3,3.1-4.63,6.65-4.19.86.11,1.85-.77,2.79-1.18s1.59-.66,2.3-.95C262.49,272.51,262.63,272.53,267,268.81Z"/><path class="a" d="M360.19,231.52c2.3-1,2.19-2,1.21-3.23-2-2.61-4-5.29-6.11-7.85-4.22-5.12-8.51-10.18-12.79-15.24a12.72,12.72,0,0,0-6.27-3.61c-6.41-2-12.06-.1-17.13,3.58a54.26,54.26,0,0,0-8.27,7.46c-8.13,9-16.09,18.17-24,27.34-.9,1-2.59,2.13-1.43,3.9.71,1.08,2.05.49,4-1.8,6.06-7.08,12.05-14.23,18.2-21.24,1.53-1.74,2.77-4,5.29-4.73a11.5,11.5,0,0,1,1,.78c.26.28.42.64.68.92a6.66,6.66,0,0,0,8.76,1.2c.66-.41,1.26-.9,1.89-1.34,2.95-2.06,3.52-2,5.84.51,4,4.34,5.81,4.54,10.48,1.13.31-.22.65-.41,1.08-.69a6.69,6.69,0,0,0,2.12.54,2.85,2.85,0,0,0,1.8-1c.19-.23-.27-1.18-.67-1.55a4.09,4.09,0,0,0-5.32-.37c-1.29.78-2.5,1.69-3.57,2.42a5.39,5.39,0,0,1-1.43-.56c-1.05-.94-2.05-1.93-3.06-2.91-2.82-2.75-4.45-2.95-7.88-.91-.56.33-1.07.71-1.6,1.08-3.72,2.59-4.59,2.45-7.09-1.12-.28-.4-.6-.79-1.14-1.49,2.53-2.1,4.78-4.45,7.49-6.05a20.69,20.69,0,0,1,7.61-2.54c5.69-.77,10,1.85,13.32,6.18,3.75,4.83,7.56,9.63,11.38,14.41C356.36,227,358.27,229.23,360.19,231.52Z"/><path d="M283.16,316.83c-2.92,1.91-5.43.66-7.91-1.27s-3.2-1.85-5.42.5c-2.57,2.72-5.27,2.82-8.05.23a17.79,17.79,0,0,1-1.78-2c-2.14-2.78-2.82-3-5.68-1.26-2.23,1.39-4.41,2-6.93.83l-26.48,32q-3.66,4.43-7.33,8.84c-.25.3-.47.72-.79.82-.69.19-1.63.51-2.09.21a2.17,2.17,0,0,1-.42-1.94,5.53,5.53,0,0,1,1.31-1.84c12.06-14.56,24.07-29.14,36.21-43.63,3.2-3.81,6.7-7.39,10.23-10.91a17.58,17.58,0,0,1,4.71-3.27c4.65-2.28,7.71-1.71,10.94,2.26a95.11,95.11,0,0,1,7.59,10.52c9.26,15.21,18.36,30.52,27.52,45.8.26.44.51.88.75,1.33.49.93,1,1.94-.34,2.57-1.19.54-2-.17-2.53-1.12q-4.23-7.05-8.44-14.09-7.14-12-14.28-23.92C283.83,317.27,283.56,317.15,283.16,316.83Zm-1.6-3.06c-1.87-3.17-3.58-6.3-5.51-9.29a55.3,55.3,0,0,0-4.62-6.08c-2.45-2.82-4.48-3.12-7.9-1.38a9.25,9.25,0,0,0-2.52,1.73q-5,5.26-9.91,10.68a10.18,10.18,0,0,0-1,2.5c1.13-.58,1.56-.78,2-1,5-2.85,7.18-2.44,10.76,2,2.06,2.58,3.13,2.6,5.51.14,2.57-2.66,4.79-2.93,7.87-.88.85.57,1.62,1.26,2.44,1.87A1.92,1.92,0,0,0,281.56,313.77Z"/><path d="M267,268.81c-4.38,3.72-4.52,3.7-9.76-1.62-.71.29-1.51.6-2.3.95s-1.93,1.29-2.79,1.18c-3.55-.44-5,1.89-6.65,4.19-5.21,7.09-10.53,14.1-15.81,21.15a3.09,3.09,0,0,1-.23.31c-.8.95-1.61,2.41-3.07,1.33s-.34-2.3.42-3.31q10.91-14.53,21.86-29c1-1.32,1.9-2.73,3-3.95a21.14,21.14,0,0,1,3.66-3.35c4.21-2.86,8.08-2.66,11.46,1.06s6.29,7.69,9.31,11.63c3.65,4.76,7.19,9.61,10.8,14.4a16.89,16.89,0,0,0,2,2.29,3.64,3.64,0,0,0,4.93.53c2-1.37,4-2.74,6-4.19,3.4-2.53,6.66-5.25,10.15-7.64,5.26-3.59,10.79-3.92,15.32,1.07,3.86,4.26,7.54,8.68,11.19,13.1,1.63,2,3,4.12,4.48,6.2.3.41.77.83.81,1.27a13.56,13.56,0,0,1-.21,2.44c-.79-.23-1.86-.22-2.3-.73-1.49-1.75-2.71-3.71-4.11-5.52q-4.81-6.19-9.71-12.32a21.26,21.26,0,0,0-2.14-2.21c-3.74-3.57-7.18-3.89-11.4-.84-3.75,2.71-7.33,5.63-11,8.39a46.08,46.08,0,0,1-5.12,3.42,7.52,7.52,0,0,1-9.27-1.07A20.2,20.2,0,0,1,284,285.1c-3.08-4.06-6.12-8.16-9.16-12.25-1.16-1.57-2.25-3-4.66-2.8C269.12,270.13,268,269.25,267,268.81Zm2.55-2.61.18.21-.21-.19c-1.7-2.19-3.28-4.49-5.14-6.55s-4.48-2.23-7-.53c-2.72,1.84-4.51,4.45-6.57,7.65,6.88-3.36,7-3.35,11.86,1.5C264.63,266.63,266.45,264.23,269.56,266.2Z"/><path d="M360.19,231.52c-1.92-2.29-3.83-4.5-5.65-6.77-3.82-4.78-7.63-9.58-11.38-14.41-3.36-4.33-7.63-7-13.32-6.18a20.69,20.69,0,0,0-7.61,2.54c-2.71,1.6-5,4-7.49,6.05.54.7.86,1.09,1.14,1.49,2.5,3.57,3.37,3.71,7.09,1.12.53-.37,1-.75,1.6-1.08,3.43-2,5.06-1.84,7.88.91,1,1,2,2,3.06,2.91a5.39,5.39,0,0,0,1.43.56c1.07-.73,2.28-1.64,3.57-2.42a4.09,4.09,0,0,1,5.32.37c.4.37.86,1.32.67,1.55a2.85,2.85,0,0,1-1.8,1,6.69,6.69,0,0,1-2.12-.54c-.43.28-.77.47-1.08.69-4.67,3.41-6.48,3.21-10.48-1.13-2.32-2.52-2.89-2.57-5.84-.51-.63.44-1.23.93-1.89,1.34a6.66,6.66,0,0,1-8.76-1.2c-.26-.28-.42-.64-.68-.92a11.5,11.5,0,0,0-1-.78c-2.52.77-3.76,3-5.29,4.73-6.15,7-12.14,14.16-18.2,21.24-2,2.29-3.3,2.88-4,1.8-1.16-1.77.53-2.86,1.43-3.9,7.95-9.17,15.91-18.32,24-27.34a54.26,54.26,0,0,1,8.27-7.46c5.07-3.68,10.72-5.55,17.13-3.58a12.72,12.72,0,0,1,6.27,3.61c4.28,5.06,8.57,10.12,12.79,15.24,2.11,2.56,4.06,5.24,6.11,7.85C362.38,229.53,362.49,230.55,360.19,231.52Z"/><path d="M428.56,131c-2.13-5-7.85-8.09-13.65-7.3a16.35,16.35,0,0,1-7.08-.78c-.87-2.93.23-5.17,1.88-7.22a11.41,11.41,0,0,0,2.59-8.13c-.33-5.56-.45-11.12-.83-16.68a12.13,12.13,0,0,0-5.28-9.34c-3.12-2.18-4.06-5-4.08-8.51a32.6,32.6,0,0,0-.64-7.12c-1.6-7-6.08-12.16-11.87-16.35-5.13-3.71-11-5.61-17.13-6.92-7.58-1.63-12.24-6.09-14.86-13-1.21-3.2-2.7-6.3-4.22-9.37C348.31,10,337.56,5.73,326.76,7.2,315,8.8,305.27,14.53,297,22.51c-4.51,4.34-8.44,9.27-12.55,14a62.71,62.71,0,0,1-16.17,12.93,9.89,9.89,0,0,1-7.54,1.29c-1.68-5.49-6.32-8.32-10.91-11.32a50.16,50.16,0,0,0,14.75-8.67c2.05-1.75,1.59-3.23-1-4.08-3.42-1.13-6.92-.71-10.41-.57-.05.11-.11.21-.16.31.05-.1.11-.2.16-.31,1-4.16,2-8.31,2.9-12.5.38-1.9,1.4-4.26-.71-5.59s-3.94.37-5.66,1.43-3.47,2.31-5.7,3.82c0-2,.1-3.22,0-4.47A43.46,43.46,0,0,0,243.13,2c-.53-2.12-2.08-2.51-3.77-1a62.39,62.39,0,0,0-5,5.28c-1.23,1.4-2.3,2.92-3.83,4.88-1.36-3.83-2.74-7-5.67-9.42-3.13,2.21-3.48,5.9-5.39,8.93-1.5-1.88-2.73-3.63-4.18-5.19a29.6,29.6,0,0,0-5-4.66c-2.6-1.72-4.08-.8-4.16,2.29-.06,2.2,0,4.4,0,6.9-1.6-1-2.74-1.82-4-2.44-2.47-1.23-4-.38-4.22,2.32a7.9,7.9,0,0,0,.3,2.24c.93,4,1.9,8,2.86,12-9.38-3.25-12.35-3.6-15.12-1.51,5.2,7.11,12.74,11.45,20.23,16.21-1,.59-1.82,1-2.56,1.47-3.86,2.55-7.74,5.06-11.52,7.71-1.18.82-2.26,2.26-1.43,3.56.62,1,2.22,1.41,3.44,2a4.35,4.35,0,0,0,1.54.05A40.51,40.51,0,0,0,211.8,50.2c3.63-1.53,7.11-3.39,10.92-5.22,0,2.1-.15,4,0,5.88.26,2.54-.77,4-2.9,5.58-8,5.8-13.65,13.19-14.78,23.15a72,72,0,0,0-.15,11c.26,6.56-1.54,12.28-6.66,16.73a19.5,19.5,0,0,0-6.72,12.5,108.12,108.12,0,0,0-.8,12.85c-.07,5.42-1.56,10.18-5.63,14.06-1.66,1.59-3.13,3.37-4.71,5.06-7.46,8-15.44,15.34-25.24,20.64a67.91,67.91,0,0,0-8.74,5.65c-13.13,10-20.79,22.69-20.42,39.38a65.72,65.72,0,0,1-.62,9.07,31,31,0,0,1-7.94,17.39c-3.79,4.27-8.41,7.52-13,10.77a36.58,36.58,0,0,0-11.11,12.5,75.43,75.43,0,0,0-6.92,17.68c-2.48,9.57-8.25,16.65-16.49,22.18s-16.34,11.21-24.25,17.14A58.93,58.93,0,0,0,27,347.58a83.37,83.37,0,0,0-7.12,24.74A144.93,144.93,0,0,0,19,390.48c.06,5.93.85,11.85,1.2,17.78A42.43,42.43,0,0,1,15.85,430c-3.29,6.59-6.68,13.13-9.83,19.78-6.18,13.07-7.19,26.9-4.9,40.84,1.61,9.78,6.94,18.2,13,26.06a34,34,0,0,0,5.57,5.27c3.16,2.63,6.51,5,9.65,7.67,2.65,2.23,5.21,4.6,6.72,7.79a36.16,36.16,0,0,1,3.39,20A51.18,51.18,0,0,0,41,577.28c3.22,11.61,10.75,20.07,21.3,26a116.73,116.73,0,0,0,12,5.29c14.33,6,23.61,15.92,25.13,31.49.79,8.17,1,16.41,1,24.62a59.26,59.26,0,0,1-1.6,12.75c-1.11,5.05-2.8,10-4.25,15-3.14,10.88,2.62,19.79,14,21.76,2.92.5,5.82,1.13,8.68,1.89,4.44,1.17,7.63,4.23,10.82,7.19A35,35,0,0,0,146,732c6.27,1.17,12.54,1.86,18.84-.08,2-.61,3.16-1.52,3.5-3.52.81-4.73,1.61-9.47,2.53-14.18a7.64,7.64,0,0,0-1.86-6.68c-1.73-2.09-1.74-2.94-.11-4.93.81-1,1.9-1.73,2.73-2.7a36.28,36.28,0,0,0,4.51-5.6c4-7.09,4-14.76,2.83-22.51-.78-5.12-2-10.21-2.39-15.35-.49-5.69.8-11.31,2.07-16.86a88.92,88.92,0,0,1,20.31-39.64c5.39-6.1,12.1-10.67,19.13-14.8,6.35-3.74,12.59-7.68,17.09-13.57a21.64,21.64,0,0,0,4.09-7.62c1.48-6.13,2.21-12.43,3.44-18.62a34.22,34.22,0,0,1,2.49-8.29,61.65,61.65,0,0,1,11.07-15.53c2.39-2.49,4.82-5,7-7.64,7.15-8.79,12.51-18.24,12-30-.17-4.14.05-8.43,1.82-12.31,4.46-9.74,10.48-18.31,19.73-24.43A54.2,54.2,0,0,0,304,441.3c4.24-4,7-8.67,6.82-14.73a64.62,64.62,0,0,1,.47-8.33c.57-5.89.4-11.88,2.76-17.54a72.19,72.19,0,0,0,2.41-8c3.26-11.56,9.61-20.64,21.3-25.53a84.48,84.48,0,0,0,8-3.95,82.51,82.51,0,0,0,7.91-4.81A21.86,21.86,0,0,0,363,344.85,55.42,55.42,0,0,0,364.16,334a20.77,20.77,0,0,1,5.88-14.8,99.68,99.68,0,0,0,7.09-8.54,15.25,15.25,0,0,0,3.29-9.87c-.24-7.84.05-15.7-.14-23.55a76.61,76.61,0,0,0-1.22-10.87c-1.47-8.74-2.9-17.47-1.88-26.36a41.36,41.36,0,0,1,5.89-17.89c3.58-5.62,8.54-9.84,14.12-13.39a24.41,24.41,0,0,0,8.27-8.87c2.63-4.63,3.62-9.7,4.45-14.82,1.06-6.51,3.84-12,9.33-16.08a32.79,32.79,0,0,0,5.12-4.65c1.67-1.9,3.31-3.88,3.5-6.61.52-7.06,1.22-14.12,1.64-21.18A12.63,12.63,0,0,0,428.56,131Zm-21-24.48a10.1,10.1,0,0,1-2.29,7.36c-1.45,1.82-2.1,4.25-3.08,6.38-4.45-2.64-5.44-7.46-2.18-11.93a21.35,21.35,0,0,1,2.22-2.62c1.52-1.52,3.12-3,5.06-4.79C407.36,103.23,407.42,104.86,407.52,106.5ZM256.36,48.91a4.08,4.08,0,0,1,.37,1c-5.64.93-16.27-2.68-22-7.31,2.93-.53,6.05-1.13,9.19-1.65a3.66,3.66,0,0,1,2.21.06C249.82,43.27,253.72,45.32,256.36,48.91Zm-16.7.21-8.74,1.52v-6.3Zm13.8-19.71c2.42-.24,4.88-.07,7.81-.07-5.47,4.74-11.59,7.15-18.57,8.63,2.5-2.54,4.62-4.91,7-7A7.13,7.13,0,0,1,253.46,29.41Zm-.66-17.83c.78,12.23-8.54,23.1-17.29,26.33.11-1.23.61-2.59.25-3.68s-1.58-2.24-2.41-3.33C237.16,23.22,245.82,14.62,252.8,11.58ZM240.33,3.84c.39,3.72.82,6.58.92,9.46a5.34,5.34,0,0,1-1,3.43c-2.13,2.5-4.54,4.77-6.8,7.1-.53-3.06-1.07-6.12-1.64-9.43ZM224.85,6.37a45.89,45.89,0,0,1,5.37,21.27l-9.3.84C219.82,21,221.58,13.83,224.85,6.37ZM209,3.83c3.12,1.69,4.33,4.73,6.55,6.83.63.61,1,1.5,1.63,2.09a3.68,3.68,0,0,1,1,4.38c-.51,1.63-.38,3.46-.59,5.86-2.67-3-5.24-5.41-7-8.23C209.45,13,209.37,10.5,209,8.31A31.29,31.29,0,0,1,209,3.83ZM201,11c5.12,2.43,13.33,11.65,16.74,18.54L214.08,36C205.62,30,203.06,20.74,201,11Zm-4.2,17.94a56.29,56.29,0,0,1-5-4.15c2.31.61,4,1,5.6,1.49,3.26,1,6.18,2.33,8,5.47a35.9,35.9,0,0,0,4,4.93l.1.06.19.23-.22-.21-.07-.08C205.25,34.09,201,31.59,196.82,28.92Zm-1.93,21.26a13.66,13.66,0,0,1,2.09-2c3.56-2.27,7.13-4.54,10.81-6.6a6,6,0,0,1,3.64-.59c2.37.38,4.67,1.15,7.48,1.89A41.82,41.82,0,0,1,194.89,50.18Zm22.87-15.06c7.59-6.24,10.53-5.39,14.8-.08C228.06,42.1,222.53,42.13,217.76,35.12Zm-60,693c-8.82,0-17.28-1.4-24.49-6.9a35.1,35.1,0,0,1-3.2-2.75,31.17,31.17,0,0,0-19.32-8.71c-2.49-.24-4.93-1.12-7.92-1.83a94.45,94.45,0,0,0,9.57-1.66c6.55-1.87,12,0,16.77,4.29.86.76,1.67,1.58,2.46,2.42,6.6,7,15.28,9.14,24.49,9.8,2.75.2,5.56-.47,8.33-.74C163.9,727.62,163.5,728.1,157.72,728.1Zm77-166.1a13.59,13.59,0,0,1-3.65,7.37c-4.6,5.34-10.7,8.7-16.57,12.43a122.88,122.88,0,0,0-14.14,10c-9.34,8-15.8,18-20.69,29a101.54,101.54,0,0,0-8,29.19c-.76,6.35.43,12.6,1.65,18.82,1.14,5.87,1.86,11.74.44,17.68a18.73,18.73,0,0,1-6.29,10.61c-1.84,1.51-3.23,3.54-5,5.55a1.36,1.36,0,0,1-.44-2.26,10.89,10.89,0,0,1,2-1.81c5.28-4.06,7.37-9.52,7.65-15.92A50,50,0,0,0,169.65,667a54.79,54.79,0,0,1-.72-25.17c1.16-6.2,2.87-12.3,4.56-18.38,2-7.3,5.92-13.74,10.3-19.89,5.92-8.32,12.28-16.34,19.94-23.23,5.24-4.71,10.74-9.15,16.29-13.52s11.5-8.65,16.4-14.06C235.82,555.82,235.06,558.89,234.68,562Zm32.79-63.14c-3.28,7-8.35,12.73-13.62,18.34-3.31,3.53-6.46,7.21-9.95,11.12a37.92,37.92,0,0,1,5.92-16.3c2.59-3.74,5.88-7,9-10.44,3.75-4.15,7.59-8.22,11.31-12.22C270.25,492.53,268.94,495.72,267.47,498.86Zm38.7-80.64,0,0c-.24,4.37-.43,8.74-.75,13.11a4.18,4.18,0,0,1-1,2.39c-2.33,2.51-4.48,5.35-7.27,7.26-7.37,5-13.88,10.79-18.92,18.08,0,.05,0,.09,0,.13l-.21.22.17-.26.06-.09c1-7.94,4.93-14.67,9.72-20.94,2.07-2.71,4.69-5,7-7.54,3.76-4.1,7.49-8.24,11.23-12.36v-.1l.2-.21ZM375.47,302a12.59,12.59,0,0,1-2.18,5.94,62.45,62.45,0,0,1-6.83,8.25A24.37,24.37,0,0,0,359.21,334a55.59,55.59,0,0,1-.4,6.82c-.83,6.92-4.68,12-10.7,15.43-4.58,2.61-9.4,4.83-14.1,7.25-5.68,2.91-11,6.36-14.64,11.63a93,93,0,0,0-5.62,10.35,35.1,35.1,0,0,0-1.45,3.71c-1.36-10.85,1.78-17.94,8.45-24.24,4.43-4.2,9.65-7.63,14.63-11.25,2.91-2.11,6.05-3.91,9.07-5.88,9.26-6,13.78-14.53,12.35-25.26-1.2-8.92,1.59-16.14,7.45-22.6,3.58-4,7.25-7.85,11.32-12.25C375.57,292.9,375.79,297.46,375.47,302ZM422.86,157.6a7.81,7.81,0,0,1-1.92,3.6,25.19,25.19,0,0,1-4.25,3.87c-7,5.05-10.47,12-11.75,20.19-.72,4.64-1.77,9.18-4.36,13.25a19.51,19.51,0,0,1-6.2,6.16A53,53,0,0,0,380,217.8c-4.59,6.08-6.55,13.1-7.72,20.4-.36,2.21-.57,4.44-.91,7.21l-1.73-6.76a28,28,0,0,1,.54-14.58c2.28-8.25,5.49-16.07,11.26-22.65,2.1-2.39,4.46-4.57,6.71-6.84,2.88-2.89,6.11-5.53,8.56-8.74,2-2.66,4.07-5.86,4.54-9,1.57-10.6,7.9-17.87,16.08-24.11,2-1.55,4-3.15,6.5-5.08C423.5,151.09,423.37,154.38,422.86,157.6Zm.63-18.13a27.91,27.91,0,0,1-9.44,9.89c-8.43,5.56-14.82,12.81-16.77,22.81a27.51,27.51,0,0,1-8.64,15.29c-4.74,4.47-9.87,8.6-13.61,14C368.45,211,364.22,221.37,364,233c-.13,5.74,1.68,11.22,3.66,16.59,2.06,5.59,4.29,11.12,6.11,16.78,2.8,8.68.15,16.1-5.92,22.72-4,4.33-7.89,8.73-11.44,13.38a23.42,23.42,0,0,0-4.54,18.67c1.43,8.65-.93,16.14-8.11,21.68-2.92,2.26-6.47,3.73-9.52,5.86-5.37,3.74-10.85,7.41-15.81,11.64a31.35,31.35,0,0,0-11.49,25.16c0,4.81,0,9.62-.06,14.43-.07,7.58-3.3,14-8.11,19.66a118.21,118.21,0,0,1-9.32,9.68c-10.69,10-16.14,22.39-17.67,36.61-.79,7.34-2.33,14.53-6.64,20.78a84.15,84.15,0,0,1-6.62,7.92c-3.25,3.61-6.77,7-9.89,10.72a42,42,0,0,0-10,27c-.09,7.64-3.06,13.66-8.08,19.11-5.34,5.79-11.85,10.23-18,15a157.81,157.81,0,0,0-35.38,38.07,66.83,66.83,0,0,0-8.65,18.17c-.59,2-1.34,4-2,6.06a7.86,7.86,0,0,1-.1,1s0,.09,0,.14a3.63,3.63,0,0,1-.46,1.68,14.12,14.12,0,0,1-.93,2.19c-.5,3.11-1,6.21-1.45,9.32a66.62,66.62,0,0,0,1.91,28.18,31.83,31.83,0,0,1,.64,15,13.34,13.34,0,0,1-4.66,8.08c-.79.66-1.59,1.3-2.33,2-3.57,3.51-3.45,7.64.44,10.85a23.43,23.43,0,0,0,4.25,2.64,3.15,3.15,0,0,1,2.05,3.3,3.69,3.69,0,0,1-2.41,3.57,14.33,14.33,0,0,1-4.12,1c-9.73.36-18.52-1.81-25.37-9.13a24.77,24.77,0,0,0-7.61-5.82,21.78,21.78,0,0,0-14.77-1.3,26.57,26.57,0,0,1-7.62.83c-3.59-.22-5.24-2.44-4.85-6a40.57,40.57,0,0,1,1.2-5.16c1.6-6.37,3.54-12.68,4.73-19.13.88-4.81.75-9.8,1.17-14.71.71-8.31-1.08-16.32-2.92-24.34-2.47-10.76-9-18.65-18.37-24.39a84.85,84.85,0,0,0-12.58-5.88c-11.06-4.5-19.93-11.21-24.93-22.19-2.53-5.56-3-11.42-3.11-17.38-.07-5.43.24-10.88-.23-16.28-.84-9.66-6.09-17-13.82-22.82-2.05-1.54-4.07-3.13-6.09-4.72A48.17,48.17,0,0,1,6.05,489C3.84,476,5,462.8,11.16,450.53c3.21-6.35,6.45-12.67,9.52-19.08a47.94,47.94,0,0,0,4.5-23.24c-.45-10.36-1.27-20.77-.68-31.09.84-14.86,5-28.81,15.19-40.58a67.43,67.43,0,0,1,12.14-11.13c8-5.64,16.1-11.08,24-16.77a37.73,37.73,0,0,0,14.88-21.15,80.65,80.65,0,0,1,7.32-18.75,29.74,29.74,0,0,1,9.73-10.67,61.08,61.08,0,0,0,18.49-18.18,18.49,18.49,0,0,0,1.73-3.37,45.29,45.29,0,0,0,3.06-16,106.14,106.14,0,0,1,.8-12.48c.94-6.41,4.2-11.9,8.07-17.05a46,46,0,0,1,14.49-12.49,113.42,113.42,0,0,0,31-25.59,18.93,18.93,0,0,1,3.23-3.28c5.1-3.65,6.51-9,7-14.63.21-2.77,0-5.57.07-8.36.15-6.39,1.74-12.1,6.86-16.71a21.72,21.72,0,0,0,7.31-17.36c-.09-4.17.05-8.35.36-12.5.62-8.31,5.65-14.12,12.2-19.72.13,1.38.29,2.28.29,3.19q0,6.27,0,12.54c0,1.87.56,3,3.28,2.12.2-11,0-22.25.11-33.45l.79-.12a18.06,18.06,0,0,1,.36,2.51c0,9,0,18,0,27v4.26h3.29V55.94c2.28-.56,4.35-1.46,6.44-1.51,4.78-.11,9.58.09,14.35.37,4,.23,8,.85,12,1.14,3.29.24,6-1.38,8.67-3a71.28,71.28,0,0,0,17.82-15.12,153.13,153.13,0,0,1,10.8-12C308.22,18.65,317,13.32,327.73,12c8.8-1.09,16.75,2.08,21.13,10.34,1.36,2.58,2.46,5.29,3.67,8,.26.58.45,1.18.69,1.77,3.38,8.41,9.47,13.63,18.67,15.46,5.61,1.11,11,2.92,15.62,6.42,6.32,4.76,10.26,10.6,9.94,18.72a22.39,22.39,0,0,0,.66,5.63A9.81,9.81,0,0,0,402,84.63a12.6,12.6,0,0,1,3.16,3.27c1.83,2.7,1.95,5.47-.4,8q-3.27,3.51-6.62,6.94a17.64,17.64,0,0,0-4.65,7.34c-1.54,5.18,0,9.46,3.88,13.06,4.3,4,9.62,5.28,15.35,5.43,1.43,0,2.86-.14,4.28-.09C423.41,128.82,426.53,134,423.49,139.47Z"/><path d="M166.35,629.76a16,16,0,0,1-.46,1.68A3.63,3.63,0,0,0,166.35,629.76Z"/><path class="a" d="M166.39,628.71c0,.39,0,.74,0,1,0,0,0-.09,0-.14a7.86,7.86,0,0,0,.1-1l0,.05Z"/></svg>