<svg xmlns="http://www.w3.org/2000/svg" viewBox="0 0 429.52 733.09"><defs><style>.a{fill:#fff;}.b{fill:none;}</style></defs><title>PGE</title><path class="a" d="M423.81,147.61c-.31,3.48-.44,6.77-.95,10a7.81,7.81,0,0,1-1.92,3.6,25.19,25.19,0,0,1-4.25,3.87c-7,5.05-10.47,12-11.75,20.19-.72,4.64-1.77,9.18-4.36,13.25a19.51,19.51,0,0,1-6.2,6.16A53,53,0,0,0,380,217.8c-4.59,6.08-6.55,13.1-7.72,20.4-.36,2.21-.57,4.44-.91,7.21l-1.73-6.76a28,28,0,0,1,.54-14.58c2.28-8.25,5.49-16.07,11.26-22.65,2.1-2.39,4.46-4.57,6.71-6.84,2.88-2.89,6.11-5.53,8.56-8.74,2-2.66,4.07-5.86,4.54-9,1.57-10.6,7.9-17.87,16.08-24.11C419.34,151.14,421.34,149.54,423.81,147.61Z"/><path class="a" d="M383.27,159.1c2.83,1.49,2.83,1.49,2.24,4.4-.85-1.73-1.52-3.09-2.2-4.45Z"/><path class="a" d="M383.31,159.05l-.3-.12.26.17Z"/><path class="a" d="M371.08,194.58c2.83,3.3,4.51,3.37,6.95.42,1.29-1.58,2.43-3.28,3.66-4.9,2.24-2.95,3.18-6,1.07-9.45a6.16,6.16,0,0,1-.06-6.17,25.28,25.28,0,0,0,1.91-4.54,6.07,6.07,0,0,1,2.76-4.19,4.25,4.25,0,0,0,1-6.36,10.68,10.68,0,0,0-4.5-3.35c-2.12-.77-4.64-.47-6.79-1.21-5.21-1.81-10.4-1.43-15.7-.65a21.47,21.47,0,0,1-6.2,0,6.17,6.17,0,0,1-3.53-2c-1.69-2-1.2-8.21.46-10.37a24.49,24.49,0,0,0,2.79-4.07,2.64,2.64,0,0,0-3.09-3.7,15.17,15.17,0,0,0-2.38.88,24.31,24.31,0,0,0-1.22-3.44,1.91,1.91,0,0,0-1.47-.95,2.57,2.57,0,0,0-1.69,1.2,35.49,35.49,0,0,0-1.39,4.28,10.16,10.16,0,0,1-1.43-2c-.25-.69,0-1.6-.35-2.21s-1.19-1.57-1.85-1.61-1.57.77-1.95,1.44a15.87,15.87,0,0,0-1.05,3.25c-.53-.09-.88-.17-1.23-.22-3.66-.43-5.2,1.44-3.64,4.66A17.58,17.58,0,0,0,335,143c.77.88,1.45,1.6,1.09,3a44.09,44.09,0,0,0,1.14,25.3,11.73,11.73,0,0,1,.32,2.92c.38,6.17.65,12.35,1.19,18.51a4.67,4.67,0,0,0,2,3.36c1.18.58,2.91.13,4.28.13,1.26.76,2.61,2.25,3.93,2.22,2.08-.06,3-2.13,3.76-3.92a5.3,5.3,0,0,0,.4-1.45c.28-2.25.53-4.5.79-6.75l.57-5c2.1,0,3.78-.12,5.43,0a3.68,3.68,0,0,1,2.26,1.12c1.46,1.73,2.73,3.61,4,5.27-.84,2.15-1.66,4-2.27,5.89-.39,1.26-.32,2.8,1.12,3.26a6.22,6.22,0,0,0,3.65-.27C369.48,196.31,370.16,195.37,371.08,194.58Z"/><path d="M371.08,194.58c-.92.79-1.6,1.73-2.5,2a6.22,6.22,0,0,1-3.65.27c-1.44-.46-1.51-2-1.12-3.26.61-1.9,1.43-3.74,2.27-5.89-1.23-1.66-2.5-3.54-4-5.27a3.68,3.68,0,0,0-2.26-1.12c-1.65-.17-3.33,0-5.43,0l-.57,5c-.26,2.25-.51,4.5-.79,6.75a5.3,5.3,0,0,1-.4,1.45c-.75,1.79-1.68,3.86-3.76,3.92-1.32,0-2.67-1.46-3.93-2.22-1.37,0-3.1.45-4.28-.13a4.67,4.67,0,0,1-2-3.36c-.54-6.16-.81-12.34-1.19-18.51a11.73,11.73,0,0,0-.32-2.92,44.09,44.09,0,0,1-1.14-25.3c.36-1.39-.32-2.11-1.09-3a17.58,17.58,0,0,1-2.8-3.59c-1.56-3.22,0-5.09,3.64-4.66.35.05.7.13,1.23.22a15.87,15.87,0,0,1,1.05-3.25c.38-.67,1.31-1.48,1.95-1.44s1.45.91,1.85,1.61.1,1.52.35,2.21a10.16,10.16,0,0,0,1.43,2,35.49,35.49,0,0,1,1.39-4.28,2.57,2.57,0,0,1,1.69-1.2,1.91,1.91,0,0,1,1.47.95,24.31,24.31,0,0,1,1.22,3.44,15.17,15.17,0,0,1,2.38-.88,2.64,2.64,0,0,1,3.09,3.7,24.49,24.49,0,0,1-2.79,4.07c-1.66,2.16-2.15,8.36-.46,10.37a6.17,6.17,0,0,0,3.53,2,21.47,21.47,0,0,0,6.2,0c5.3-.78,10.49-1.16,15.7.65,2.15.74,4.67.44,6.79,1.21a10.68,10.68,0,0,1,4.5,3.35,4.25,4.25,0,0,1-1,6.36,6.07,6.07,0,0,0-2.76,4.19,25.28,25.28,0,0,1-1.91,4.54,6.16,6.16,0,0,0,.06,6.17c2.11,3.42,1.17,6.5-1.07,9.45-1.23,1.62-2.37,3.32-3.66,4.9C375.59,198,373.91,197.88,371.08,194.58Zm-20.53-56.05.78-.74.21-.19-.19.21c-.25.26-.51.51-.76.76l-.79.77c-3.15-.21-6.37-.87-9.44-.46a8.38,8.38,0,0,1-5.38-1.07l-.15-.15.17.13c1.12,1.5,2.22,3,3.37,4.5a1.14,1.14,0,0,0,1,.35c1.52-.71,2.44,0,2.37,1.33,0,.64-1.36,1.22-2.38,2.05.64,2.11.88,5,3.68,6.5,3.49-1.5,4.08-2.54,4.12-6.94-.77.09-1.7.45-2.31.17-.4-.19-.64-1.38-.46-2,.54-1.85,2.12-1.75,3.5-1.25l1.91-3.22Zm32.72,20.57-.26-.17.3.12c.68,1.36,1.35,2.72,2.2,4.45C386.1,160.59,386.1,160.59,383.27,159.1Zm-34.78,35.74.74.13a34.35,34.35,0,0,0,1.11-4.18c.37-2.62.54-5.27.81-7.9.35-3.39,1.79-4.43,5.21-4.37,3.22,0,6.45-.2,9.66-.41a2.09,2.09,0,0,0,2.23-1.55c.45-1.33,2-1.27,2.56.09a18.47,18.47,0,0,0,4.81,6.33,3.61,3.61,0,0,1,.9,4.15c-.65,2-1.09,4.05-1.84,6.9,1.86-2.43,3.14-4.17,4.5-5.85,1.59-2,2-3.92.68-6.27-1.15-2-1.87-4.1-.9-6.51,1-2.56,1.52-5.34,2.65-7.85,1.43-3.16.18-5.56-2.1-7.36a22.09,22.09,0,0,0-6.46-3.22c-4.45-1.57-9,.05-13.43.3s-8.22-.05-11.45-4.28c-.23,1.93-.31,3.28-.56,4.59A25.91,25.91,0,0,1,346.5,162a2.79,2.79,0,0,1-3,1.89,2.6,2.6,0,0,1-2.51-2c-.57-2.05-1-4.14-1.49-6.22l-.63-2.7a38,38,0,0,0-.57,8,20.15,20.15,0,0,0,5.82,14.78A7,7,0,0,1,346.2,180C346.79,185,347.71,189.91,348.49,194.84Zm18.57-1.7c5.64-4.13,5.66-4.15,6.6-7.7-1.42-1.52-2.89-3.08-4.39-4.7l-4.25.84c1.22,1.34,2.22,2.46,3.26,3.55a3.51,3.51,0,0,1,.48,4.78C368.11,190.93,367.62,192.06,367.06,193.14Zm-26.29-16c-.31,5.91.6,14.32,1.71,16.06a6.33,6.33,0,0,0,1.68-5.55c-.27-2.11-.68-4.21-.74-6.32A4.51,4.51,0,0,0,340.77,177.12Zm4-21.54h-2.65c1.41,1.43.06,3.27,1.87,4.54Z"/><path class="a" d="M348.49,194.84c-.78-4.93-1.7-9.85-2.29-14.8a7,7,0,0,0-2.11-4.31A20.15,20.15,0,0,1,338.27,161a38,38,0,0,1,.57-8l.63,2.7c.49,2.08.92,4.17,1.49,6.22a2.6,2.6,0,0,0,2.51,2,2.79,2.79,0,0,0,3-1.89,25.91,25.91,0,0,0,1.11-4.37c.25-1.31.33-2.66.56-4.59,3.23,4.23,7.06,4.53,11.45,4.28s9-1.87,13.43-.3a22.09,22.09,0,0,1,6.46,3.22c2.28,1.8,3.53,4.2,2.1,7.36-1.13,2.51-1.62,5.29-2.65,7.85-1,2.41-.25,4.53.9,6.51,1.35,2.35.91,4.3-.68,6.27-1.36,1.68-2.64,3.42-4.5,5.85.75-2.85,1.19-4.91,1.84-6.9a3.61,3.61,0,0,0-.9-4.15,18.47,18.47,0,0,1-4.81-6.33c-.56-1.36-2.11-1.42-2.56-.09a2.09,2.09,0,0,1-2.23,1.55c-3.21.21-6.44.46-9.66.41-3.42-.06-4.86,1-5.21,4.37-.27,2.63-.44,5.28-.81,7.9a34.35,34.35,0,0,1-1.11,4.18Z"/><path class="a" d="M335,137.81a8.38,8.38,0,0,0,5.38,1.07c3.07-.41,6.29.25,9.44.46l0,0-1.91,3.22c-1.38-.5-3-.6-3.5,1.25-.18.6.06,1.79.46,2,.61.28,1.54-.08,2.31-.17,0,4.4-.63,5.44-4.12,6.94-2.8-1.53-3-4.39-3.68-6.5,1-.83,2.35-1.41,2.38-2.05.07-1.29-.85-2-2.37-1.33a1.14,1.14,0,0,1-1-.35c-1.15-1.48-2.25-3-3.37-4.5Z"/><path class="a" d="M367.06,193.14c.56-1.08,1.05-2.21,1.7-3.23a3.51,3.51,0,0,0-.48-4.78c-1-1.09-2-2.21-3.26-3.55l4.25-.84c1.5,1.62,3,3.18,4.39,4.7C372.72,189,372.7,189,367.06,193.14Z"/><path class="a" d="M340.77,177.12a4.51,4.51,0,0,1,2.65,4.19c.06,2.11.47,4.21.74,6.32a6.33,6.33,0,0,1-1.68,5.55C341.37,191.44,340.46,183,340.77,177.12Z"/><path class="a" d="M344.77,155.58l-.78,4.54c-1.81-1.27-.46-3.11-1.87-4.54Z"/><path class="a" d="M351.33,137.79l-.78.74,0,0c.25-.25.51-.5.76-.76Z"/><polygon class="a" points="351.35 137.81 351.54 137.59 351.33 137.79 351.35 137.81"/><path class="a" d="M350.55,138.53l-.79.77,0,0,.79-.77Z"/><polygon class="a" points="335 137.79 334.83 137.66 334.98 137.81 335 137.79"/><path class="a" d="M319.39,55.82a15.72,15.72,0,0,0-2.18,2.28C313.09,65.81,309,73.54,305,81.3c-.46.88-.36,2-.58,3.44l10.7,1c1,1.66-.58,4.19,2.11,4.92,2.63-.89.89-3.47,2-4.83C322.82,84.63,327,87,330.47,84,326.93,74.65,323.69,65.43,319.39,55.82Z"/><path class="a" d="M351.23,78c.26,2,.52,3.88.73,5.71.14,1.22.66,1.89,2.45,1.42.15-2.15.31-4.46.44-6.51,2.47,0,4.67.08,6.86,0,2.52-.1,3.49-1.4,2.92-3.73a8.07,8.07,0,0,0-.72-1.75c-3.2-6.48-6.38-13-9.67-19.4-.39-.77-1.41-1.81-2.05-1.76A3.42,3.42,0,0,0,350,53.81q-5.19,10.78-10.18,21.66a15.17,15.17,0,0,0-.63,3.13Z"/><path d="M319.39,55.82c4.3,9.61,7.54,18.83,11.08,28.19-3.45,3-7.65.62-11.24,1.85-1.14,1.36.6,3.94-2,4.83-2.69-.73-1.11-3.26-2.11-4.92l-10.7-1c.22-1.4.12-2.56.58-3.44,4-7.76,8.12-15.49,12.24-23.2A15.72,15.72,0,0,1,319.39,55.82Zm-.73,6.43c-3.71,6.94-7,13.11-10.35,19.9,1.73,0,2.75,0,3.77,0s2.24-.15,3.41-.24a17.9,17.9,0,0,0,.57-2.44c.1-1.38-.06-2.8.17-4.16A2.06,2.06,0,0,1,317.67,74a2.1,2.1,0,0,1,1.61,1.2,8.81,8.81,0,0,1,0,3c-.08,1.2-.27,2.39-.43,3.77h7.39C323.75,75.4,321.34,69.19,318.66,62.25Z"/><path d="M351.23,78l-12,.59a15.17,15.17,0,0,1,.63-3.13q5-10.86,10.18-21.66A3.42,3.42,0,0,1,352.19,52c.64,0,1.66,1,2.05,1.76,3.29,6.44,6.47,12.92,9.67,19.4a8.07,8.07,0,0,1,.72,1.75c.57,2.33-.4,3.63-2.92,3.73-2.19.1-4.39,0-6.86,0-.13,2.05-.29,4.36-.44,6.51-1.79.47-2.31-.2-2.45-1.42C351.75,81.89,351.49,80.06,351.23,78Zm10.29-2.9-9.18-18.78-8.95,18.74h7.39c1.13-2.63-.89-5.5,1.37-7.94,3.31,2,.53,5.66,2.54,8Z"/><path class="a" d="M318.66,62.25c2.68,6.94,5.09,13.15,7.61,19.68h-7.39c.16-1.38.35-2.57.43-3.77a8.81,8.81,0,0,0,0-3,2.1,2.1,0,0,0-1.61-1.2,2.06,2.06,0,0,0-1.44,1.33c-.23,1.36-.07,2.78-.17,4.16a17.9,17.9,0,0,1-.57,2.44c-1.17.09-2.29.2-3.41.24s-2,0-3.77,0C311.62,75.36,315,69.19,318.66,62.25Z"/><path class="a" d="M361.52,75.11h-6.83c-2-2.32.77-5.94-2.54-8-2.26,2.44-.24,5.31-1.37,7.94h-7.39l8.95-18.74Z"/><path class="a" d="M334.05,113c.26,2,.52,3.87.73,5.7.14,1.23.65,1.89,2.45,1.43.14-2.16.3-4.46.44-6.51,2.46,0,4.66.07,6.86,0,2.51-.11,3.49-1.41,2.92-3.74a9.14,9.14,0,0,0-.73-1.75c-3.2-6.47-6.38-13-9.66-19.39-.4-.78-1.41-1.82-2.05-1.76a3.43,3.43,0,0,0-2.15,1.83c-3.47,7.19-6.84,14.42-10.18,21.67a15.06,15.06,0,0,0-.63,3.12Z"/><path d="M334.05,113l-12,.58a15.06,15.06,0,0,1,.63-3.12c3.34-7.25,6.71-14.48,10.18-21.67A3.43,3.43,0,0,1,335,86.92c.64-.06,1.65,1,2.05,1.76,3.28,6.43,6.46,12.92,9.66,19.39a9.14,9.14,0,0,1,.73,1.75c.57,2.33-.41,3.63-2.92,3.74-2.2.09-4.4,0-6.86,0-.14,2-.3,4.35-.44,6.51-1.8.46-2.31-.2-2.45-1.43C334.57,116.83,334.31,115,334.05,113Zm10.29-2.9c-3.08-6.31-6-12.24-9.18-18.78C332,98,329.09,104,326.21,110h7.39c1.13-2.62-.89-5.49,1.37-7.94,3.31,2.05.53,5.66,2.54,8Z"/><path class="a" d="M344.34,110.06h-6.83c-2-2.33.77-5.94-2.54-8-2.26,2.45-.24,5.32-1.37,7.94h-7.39c2.88-6,5.74-12,9-18.73C338.35,97.82,341.26,103.75,344.34,110.06Z"/><path class="b" d="M400,108.31c-3.26,4.47-2.27,9.29,2.18,11.93,1-2.13,1.63-4.56,3.08-6.38a10.1,10.1,0,0,0,2.29-7.36c-.1-1.64-.16-3.27-.27-5.6-1.94,1.83-3.54,3.27-5.06,4.79A21.35,21.35,0,0,0,400,108.31Z"/><path class="b" d="M401.23,176.8c-.47,3.18-2.5,6.38-4.54,9-2.45,3.21-5.68,5.85-8.56,8.74-2.25,2.27-4.61,4.45-6.71,6.84-5.77,6.58-9,14.4-11.26,22.65a28,28,0,0,0-.54,14.58l1.73,6.76c.34-2.77.55-5,.91-7.21,1.17-7.3,3.13-14.32,7.72-20.4a53,53,0,0,1,14.4-13.13,19.51,19.51,0,0,0,6.2-6.16c2.59-4.07,3.64-8.61,4.36-13.25,1.28-8.2,4.74-15.14,11.75-20.19a25.19,25.19,0,0,0,4.25-3.87,7.81,7.81,0,0,0,1.92-3.6c.51-3.22.64-6.51.95-10-2.47,1.93-4.47,3.53-6.5,5.08C409.13,158.93,402.8,166.2,401.23,176.8Z"/></svg>