<svg xmlns="http://www.w3.org/2000/svg" viewBox="0 0 1521.25 943.07"><defs><style>.a{fill:#fff;stroke:#000;stroke-miterlimit:10;stroke-width:3px;}</style></defs><title>PGE</title><path class="a" d="M511,410.41s34.13-36.43,0-82.62c-36.38-49.25-97-9.83-97-9.83s-9.09-92.42-133.41-92.45S151.7,318,151.7,318s-21.22-27.3-62.16-12.14-30.32,56.1-30.32,56.1S-1.42,349.73,1.61,410.41Z"/><path class="a" d="M143.05,941.57c-30.17-21.94-49.37-85,0-128.9s107-19.2,120.67,0c0,0-5.48-74.06,87.77-93.25s153.59,71.31,112.45,128.9c0,0,109.71,2.75,79.54,93.25Z"/><path class="a" d="M657.19,226.28c-30.17-21.94-49.37-85,0-128.9s107-19.2,120.68,0c0,0-5.49-74.06,87.77-93.26S1019.23,75.43,978.09,133c0,0,109.7,2.74,79.53,93.25Z"/><path class="a" d="M733.81,444.14c2.71-40.86-28.77-79.8-68.69-91.06a97.87,97.87,0,0,0-45.33-1.54c-16-54.4-61-96.64-138.19-85.1-49.48,7.4-98.14,43.57-120.22,88.67-21-3.58-51.44-14.12-71.81-5.55A117.15,117.15,0,0,0,241.25,388c-19.91-7-42.52-4.68-60.08,6.63-26.74,17.23-37,52.31-27.82,81.06H724.69A78.39,78.39,0,0,0,733.81,444.14Z"/><path class="a" d="M527.83,196.52c37.6-18.1,61.13,10.87,61.13,10.87s6.94-49.34,66-60.48,84.54,39.76,84.54,39.76,20.67-42.33,59-50.28c26.87-5.57,49.51,1.85,66.22,16.09,50.23,42.78-4.64,102.42-4.64,102.42H505.56S490.24,214.62,527.83,196.52Z"/><path class="a" d="M522.34,579c-37.6-18.1-61.13,10.88-61.13,10.88s-6.94-49.35-66-60.49-84.54,39.76-84.54,39.76-20.67-42.33-59-50.28c-26.87-5.57-49.51,1.85-66.22,16.09-50.23,42.78,4.63,102.42,4.63,102.42H544.61S559.93,597.14,522.34,579Z"/><path class="a" d="M754.88,647c-3.46-52.15,25.82-87.76,76.77-102.12,18.61-5.25,57.59-3.8,76.82,0,9.39-63.34,84.23-125.54,175.22-117,63.57,6,117.39,47.1,135.59,107.91,16.41-9.55,53.38-28.54,102.63-9.52,35.71,13.79,50.75,38.17,56,55.18,25.41-8.89,59.92-12.12,82.33,2.32,34.13,22,47.17,66.77,35.51,103.46H766.53A100,100,0,0,1,754.88,647Z"/><path class="a" d="M1489.5,941.57c30.17-21.94,49.37-85,0-128.9s-107-19.2-120.68,0c0,0,5.49-74.06-87.76-93.25s-153.59,71.31-112.45,128.9c0,0-109.71,2.75-79.54,93.25Z"/></svg>