<svg xmlns="http://www.w3.org/2000/svg" xmlns:xlink="http://www.w3.org/1999/xlink" viewBox="0 0 229.13 341.26"><defs><style>.a{fill:#004b2c;}.b{fill:url(#a);}.c{fill:#f69220;}</style><radialGradient id="a" cx="125.33" cy="130.86" r="99.99" gradientUnits="userSpaceOnUse"><stop offset="0" stop-color="#fff"/><stop offset="0.11" stop-color="#fdfefc"/><stop offset="0.19" stop-color="#f9fbf2"/><stop offset="0.26" stop-color="#f1f7e2"/><stop offset="0.33" stop-color="#e5f0cb"/><stop offset="0.39" stop-color="#d7e7ae"/><stop offset="0.43" stop-color="#cee29c"/><stop offset="0.57" stop-color="#71c675"/><stop offset="0.72" stop-color="#10a84b"/><stop offset="0.84" stop-color="#158741"/><stop offset="1" stop-color="#1d5631"/></radialGradient></defs><title>PGE</title><path class="a" d="M.41,336.45A.36.36,0,0,1,0,336V318c.32-.05.69-.11,1.11-.16s.85-.11,1.31-.15.93-.08,1.41-.11.94,0,1.39,0c2.14,0,3.71.47,4.69,1.42s1.47,2.51,1.47,4.66a8.71,8.71,0,0,1-.39,2.8,4.76,4.76,0,0,1-1.11,1.86,4.16,4.16,0,0,1-1.74,1,8.2,8.2,0,0,1-2.3.31c-.56,0-1.2,0-1.93-.11s-1.51-.19-2.34-.35v7.33Zm1.16-8.75a17.2,17.2,0,0,0,2,.34,17.8,17.8,0,0,0,2.06.13A7.19,7.19,0,0,0,7.44,328a3,3,0,0,0,1.31-.75,3.2,3.2,0,0,0,.78-1.41,8.14,8.14,0,0,0,.26-2.22,7.93,7.93,0,0,0-.31-2.41,3.15,3.15,0,0,0-.9-1.43,2.93,2.93,0,0,0-1.43-.67,11,11,0,0,0-1.91-.16c-.81,0-1.52,0-2.13.08s-1.13.12-1.54.19Z"/><path class="a" d="M22.85,335a6,6,0,0,1-1.8,1.19,7.24,7.24,0,0,1-1.19.41,5.35,5.35,0,0,1-1.34.16,4.29,4.29,0,0,1-3.3-1.14,4.47,4.47,0,0,1-1.05-3.15,3.89,3.89,0,0,1,1.31-3.31,6.09,6.09,0,0,1,3.77-1h3.54v-1.06a5.16,5.16,0,0,0-.19-1.52,2,2,0,0,0-.63-1A2.75,2.75,0,0,0,20.8,324a8,8,0,0,0-1.77-.16,13.65,13.65,0,0,0-2.23.16,9.64,9.64,0,0,1-1.34.16c-.28,0-.43-.15-.43-.46v-.65a11.94,11.94,0,0,1,2.19-.41c.76-.07,1.46-.11,2.11-.11a7.48,7.48,0,0,1,2.46.34,3.64,3.64,0,0,1,1.53.95,3.47,3.47,0,0,1,.77,1.44,7.5,7.5,0,0,1,.21,1.84v9.34h-1c-.27,0-.4-.13-.4-.41Zm-.06-5.6h-3.6a5.19,5.19,0,0,0-1.75.25,2.73,2.73,0,0,0-1.11.66,2.37,2.37,0,0,0-.57,1,4,4,0,0,0-.16,1.15,2.88,2.88,0,0,0,.84,2.35,3.36,3.36,0,0,0,2.24.7,4.68,4.68,0,0,0,2.39-.59,8.13,8.13,0,0,0,1.72-1.29Z"/><path class="a" d="M36.93,336.18a8.07,8.07,0,0,1-1.61.37,12.81,12.81,0,0,1-1.88.15,5.54,5.54,0,0,1-2.5-.51,4.12,4.12,0,0,1-1.62-1.42,6.33,6.33,0,0,1-.87-2.22,14.78,14.78,0,0,1-.25-2.86c0-2.54.44-4.36,1.32-5.48a4.72,4.72,0,0,1,3.92-1.67c.27,0,.57,0,.88,0l.89.1a7.15,7.15,0,0,1,.76.12,1.66,1.66,0,0,1,.5.15.48.48,0,0,1,.35.49v.76c-.57-.09-1.12-.17-1.63-.23a11.67,11.67,0,0,0-1.56-.1,4.65,4.65,0,0,0-1.7.29,2.73,2.73,0,0,0-1.22.94,4.5,4.5,0,0,0-.73,1.75,13,13,0,0,0-.24,2.73A12.31,12.31,0,0,0,30,332.5a4.57,4.57,0,0,0,.8,1.76,2.53,2.53,0,0,0,1.24.87,5.11,5.11,0,0,0,1.6.24,9.1,9.1,0,0,0,1.74-.15,6.72,6.72,0,0,1,1.1-.15.4.4,0,0,1,.34.13.48.48,0,0,1,.09.27Z"/><path class="a" d="M41.23,320.12a1.24,1.24,0,0,1-.84-.24,1.54,1.54,0,0,1,0-1.74,1.59,1.59,0,0,1,1.68,0,1.54,1.54,0,0,1,0,1.74A1.24,1.24,0,0,1,41.23,320.12Zm-.78,2.67h1.1a.36.36,0,0,1,.41.4v13.26H40.85c-.27,0-.4-.13-.4-.41Z"/><path class="a" d="M48.69,322.79h6.6a.35.35,0,0,1,.4.4v13.26H54.58c-.27,0-.4-.13-.4-.41v-12H48.69v12.36H47.58c-.27,0-.4-.13-.4-.41v-12H46a.37.37,0,0,1-.41-.41v-.89h1.63v-2.72a6.25,6.25,0,0,1,.13-1.33,2.65,2.65,0,0,1,.49-1.09,2.39,2.39,0,0,1,.92-.73,3.4,3.4,0,0,1,1.46-.27,7.25,7.25,0,0,1,.8.05,4,4,0,0,1,.9.19.39.39,0,0,1,.26.22.84.84,0,0,1,0,.27v.71L51.6,318l-.42,0-.37,0h-.36c-.74,0-1.22.19-1.43.58a3.45,3.45,0,0,0-.33,1.67ZM53.83,319a1.13,1.13,0,0,1,.27-.87,1.57,1.57,0,0,1,1.67,0,1.54,1.54,0,0,1,0,1.74,1.57,1.57,0,0,1-1.67,0A1.13,1.13,0,0,1,53.83,319Z"/><path class="a" d="M68.43,336.18a8.24,8.24,0,0,1-1.61.37,12.92,12.92,0,0,1-1.88.15,5.51,5.51,0,0,1-2.5-.51,4,4,0,0,1-1.62-1.42,6.14,6.14,0,0,1-.87-2.22,14.74,14.74,0,0,1-.26-2.86c0-2.54.45-4.36,1.33-5.48a4.71,4.71,0,0,1,3.92-1.67c.27,0,.56,0,.88,0l.89.1a7.15,7.15,0,0,1,.76.12,1.76,1.76,0,0,1,.5.15.49.49,0,0,1,.35.49v.76c-.58-.09-1.12-.17-1.64-.23a11.42,11.42,0,0,0-1.55-.1,4.62,4.62,0,0,0-1.7.29,2.68,2.68,0,0,0-1.22.94,4.36,4.36,0,0,0-.73,1.75,13,13,0,0,0-.24,2.73,12.31,12.31,0,0,0,.28,2.92,4.43,4.43,0,0,0,.8,1.76,2.48,2.48,0,0,0,1.24.87,5.11,5.11,0,0,0,1.6.24,9.17,9.17,0,0,0,1.74-.15,6.64,6.64,0,0,1,1.09-.15.37.37,0,0,1,.34.13.43.43,0,0,1,.1.27Z"/><path class="a" d="M85.41,318.87a7.93,7.93,0,0,0-2.68.4A3.67,3.67,0,0,0,81,320.59a6.11,6.11,0,0,0-1,2.47,20.77,20.77,0,0,0-.3,3.86,19.81,19.81,0,0,0,.38,4.29,6,6,0,0,0,1.13,2.53,3.73,3.73,0,0,0,1.88,1.19,10.31,10.31,0,0,0,2.64.3c.58,0,1.11,0,1.61-.07a11.81,11.81,0,0,0,1.28-.17v-6.53H85.38a.36.36,0,0,1-.41-.4v-1h4.79a.36.36,0,0,1,.4.41V336a12.9,12.9,0,0,1-2.12.52,16.28,16.28,0,0,1-2.47.19,9.64,9.64,0,0,1-3.65-.6,5,5,0,0,1-2.31-1.81,7.72,7.72,0,0,1-1.21-3,22.55,22.55,0,0,1-.35-4.21,21.41,21.41,0,0,1,.39-4.39,7.8,7.8,0,0,1,1.26-3A5,5,0,0,1,81.94,318a9.24,9.24,0,0,1,3.36-.54,16.15,16.15,0,0,1,2.2.15,9.89,9.89,0,0,1,1.72.36.55.55,0,0,1,.38.57v.79c-.51-.09-1.13-.18-1.87-.27A19.15,19.15,0,0,0,85.41,318.87Z"/><path class="a" d="M99.87,322.73a1.35,1.35,0,0,1,.68.11.39.39,0,0,1,.13.33v1l-.39,0H100a4.6,4.6,0,0,0-2.2.5,6.75,6.75,0,0,0-1.91,1.59v10.24H94.73c-.27,0-.4-.13-.4-.41V322.79h1a.35.35,0,0,1,.4.4l.06,1.52a6.17,6.17,0,0,1,.73-.67,5.94,5.94,0,0,1,1-.64,6.73,6.73,0,0,1,1.13-.48A4.47,4.47,0,0,1,99.87,322.73Z"/><path class="a" d="M109.47,336.7a8.56,8.56,0,0,1-2.63-.37,4,4,0,0,1-1.82-1.2A5.32,5.32,0,0,1,104,333a13.36,13.36,0,0,1-.35-3.27,14,14,0,0,1,.35-3.36,5.92,5.92,0,0,1,1-2.23,4.09,4.09,0,0,1,1.71-1.25,6.43,6.43,0,0,1,2.33-.39,5.77,5.77,0,0,1,2.45.45,3.56,3.56,0,0,1,1.49,1.22,5,5,0,0,1,.73,1.83,12.68,12.68,0,0,1,.2,2.29c0,.36,0,.72-.05,1.08a5.64,5.64,0,0,1-.14.87h-8.6a16.71,16.71,0,0,0,.3,2.37,3.87,3.87,0,0,0,.72,1.6,2.81,2.81,0,0,0,1.36.91,7.24,7.24,0,0,0,2.22.29,12,12,0,0,0,2.12-.15,7.17,7.17,0,0,1,1.12-.15.37.37,0,0,1,.34.13.43.43,0,0,1,.1.27v.71a7.69,7.69,0,0,1-1.67.35A22.38,22.38,0,0,1,109.47,336.7ZM109,323.79a4.12,4.12,0,0,0-1.87.38,3,3,0,0,0-1.19,1.07,4.81,4.81,0,0,0-.64,1.64,11.5,11.5,0,0,0-.22,2.05h7.28c0-.13,0-.25,0-.37v-.34a12.38,12.38,0,0,0-.13-1.93,3.19,3.19,0,0,0-.52-1.38,2.32,2.32,0,0,0-1-.83A4.31,4.31,0,0,0,109,323.79Z"/><path class="a" d="M123.36,336.7a8.49,8.49,0,0,1-2.62-.37,3.89,3.89,0,0,1-1.82-1.2,5.2,5.2,0,0,1-1.07-2.17,12.89,12.89,0,0,1-.35-3.27,13.54,13.54,0,0,1,.35-3.36,5.77,5.77,0,0,1,1-2.23,4.12,4.12,0,0,1,1.7-1.25,6.52,6.52,0,0,1,2.34-.39,5.8,5.8,0,0,1,2.45.45,3.52,3.52,0,0,1,1.48,1.22,4.66,4.66,0,0,1,.73,1.83,11.81,11.81,0,0,1,.21,2.29,9.77,9.77,0,0,1-.06,1.08,5.84,5.84,0,0,1-.13.87H119a14.22,14.22,0,0,0,.3,2.37,3.86,3.86,0,0,0,.71,1.6,2.84,2.84,0,0,0,1.37.91,7.2,7.2,0,0,0,2.22.29,12,12,0,0,0,2.12-.15,7,7,0,0,1,1.12-.15.4.4,0,0,1,.34.13.48.48,0,0,1,.09.27v.71a7.58,7.58,0,0,1-1.66.35A22.36,22.36,0,0,1,123.36,336.7Zm-.43-12.91a4.16,4.16,0,0,0-1.88.38,3.15,3.15,0,0,0-1.19,1.07,4.6,4.6,0,0,0-.63,1.64,11.5,11.5,0,0,0-.22,2.05h7.27a2.4,2.4,0,0,0,0-.37v-.34a12.29,12.29,0,0,0-.14-1.93,3.31,3.31,0,0,0-.51-1.38,2.3,2.3,0,0,0-1-.83A4.26,4.26,0,0,0,122.93,323.79Z"/><path class="a" d="M133.2,324.28a4.56,4.56,0,0,1,.71-.62,5.07,5.07,0,0,1,1-.59,7,7,0,0,1,1.27-.43,6.2,6.2,0,0,1,1.54-.18,4.35,4.35,0,0,1,3.14,1.13,4.89,4.89,0,0,1,1.16,3.62v9.24h-1.11a.36.36,0,0,1-.41-.41v-8.77a3.56,3.56,0,0,0-.85-2.68,3.16,3.16,0,0,0-2.25-.8A5,5,0,0,0,136,324a5.73,5.73,0,0,0-1.16.46,6.12,6.12,0,0,0-.94.62,7,7,0,0,0-.67.64v10.76h-1.11a.36.36,0,0,1-.41-.41V322.79h1a.35.35,0,0,1,.4.4Z"/><path class="a" d="M163.08,319h-8.65v7.25H162a.37.37,0,0,1,.41.41v1h-8V335H163c.27,0,.4.13.4.41v1H153.26c-.27,0-.4-.13-.4-.41V317.62h9.81a.37.37,0,0,1,.41.41Z"/><path class="a" d="M168.51,324.28a5,5,0,0,1,.7-.62,5.16,5.16,0,0,1,1-.59,6.75,6.75,0,0,1,1.27-.43,6.14,6.14,0,0,1,1.54-.18,4.31,4.31,0,0,1,3.13,1.13,4.85,4.85,0,0,1,1.17,3.62v9.24h-1.11a.36.36,0,0,1-.41-.41v-8.77a3.56,3.56,0,0,0-.85-2.68,3.18,3.18,0,0,0-2.26-.8,5,5,0,0,0-1.36.18,5.82,5.82,0,0,0-1.17.46,6,6,0,0,0-.93.62,7,7,0,0,0-.67.64v10.76h-1.11a.36.36,0,0,1-.41-.41V322.79h1a.36.36,0,0,1,.41.4Z"/><path class="a" d="M187.09,336.7a8.56,8.56,0,0,1-2.63-.37,3.94,3.94,0,0,1-1.82-1.2,5.2,5.2,0,0,1-1.07-2.17,13.36,13.36,0,0,1-.35-3.27,14,14,0,0,1,.35-3.36,5.77,5.77,0,0,1,1-2.23,4.09,4.09,0,0,1,1.71-1.25,6.43,6.43,0,0,1,2.33-.39,5.8,5.8,0,0,1,2.45.45,3.56,3.56,0,0,1,1.49,1.22,5,5,0,0,1,.73,1.83,12.68,12.68,0,0,1,.2,2.29c0,.36,0,.72-.05,1.08a7.21,7.21,0,0,1-.14.87h-8.6a16.71,16.71,0,0,0,.3,2.37,3.75,3.75,0,0,0,.72,1.6,2.76,2.76,0,0,0,1.36.91,7.24,7.24,0,0,0,2.22.29,12,12,0,0,0,2.12-.15,7.17,7.17,0,0,1,1.12-.15.37.37,0,0,1,.34.13.5.5,0,0,1,.1.27v.71a7.83,7.83,0,0,1-1.67.35A22.38,22.38,0,0,1,187.09,336.7Zm-.44-12.91a4.19,4.19,0,0,0-1.88.38,3.15,3.15,0,0,0-1.19,1.07,5,5,0,0,0-.63,1.64,11.5,11.5,0,0,0-.22,2.05H190c0-.13,0-.25,0-.37v-.34a12.38,12.38,0,0,0-.13-1.93,3.19,3.19,0,0,0-.52-1.38,2.32,2.32,0,0,0-1-.83A4.31,4.31,0,0,0,186.65,323.79Z"/><path class="a" d="M201,322.73a1.28,1.28,0,0,1,.67.11.37.37,0,0,1,.14.33v1l-.39,0h-.34a4.6,4.6,0,0,0-2.2.5,6.75,6.75,0,0,0-1.91,1.59v10.24h-1.11c-.27,0-.4-.13-.4-.41V322.79h1a.35.35,0,0,1,.4.4l.06,1.52a6.17,6.17,0,0,1,.73-.67,5.94,5.94,0,0,1,1-.64,6.73,6.73,0,0,1,1.13-.48A4.47,4.47,0,0,1,201,322.73Z"/><path class="a" d="M210,341.26q-.94,0-2-.09a10.64,10.64,0,0,1-2-.37.48.48,0,0,1-.35-.52v-.76c.59.11,1.21.21,1.86.29a18.34,18.34,0,0,0,2.22.12,6.26,6.26,0,0,0,1.81-.22,2.61,2.61,0,0,0,1.16-.65,2.4,2.4,0,0,0,.61-1,4.83,4.83,0,0,0,.18-1.39v-1.57a10.88,10.88,0,0,1-1.64.91,5.38,5.38,0,0,1-2.23.42,4.22,4.22,0,0,1-3.74-1.69,8.74,8.74,0,0,1-1.18-5,12.34,12.34,0,0,1,.42-3.51,5,5,0,0,1,1.23-2.17,4.37,4.37,0,0,1,2-1.1,9.89,9.89,0,0,1,2.61-.31c.32,0,.7,0,1.12,0l1.26.08,1.15.13.85.12a.9.9,0,0,1,.46.2.56.56,0,0,1,.11.37v.62H215v12.5a4.58,4.58,0,0,1-1.22,3.4A5.25,5.25,0,0,1,210,341.26Zm.74-17.36a7.07,7.07,0,0,0-1.86.23,2.85,2.85,0,0,0-1.39.86,4.18,4.18,0,0,0-.88,1.74,11,11,0,0,0-.31,2.9,7.55,7.55,0,0,0,.87,4.2,3.19,3.19,0,0,0,2.83,1.24,4.78,4.78,0,0,0,2-.44,7.63,7.63,0,0,0,1.52-.89V324c-.4,0-.82-.06-1.27-.08S211.29,323.9,210.72,323.9Z"/><path class="a" d="M224.19,334.88a35.41,35.41,0,0,0,2.15-5.68,50.3,50.3,0,0,0,1.33-6.41h1.08c.18,0,.29,0,.34.13a.51.51,0,0,1,0,.27,42.48,42.48,0,0,1-1.45,6.42,41.84,41.84,0,0,1-2.46,6.14c-.43.86-.85,1.63-1.24,2.3a10.68,10.68,0,0,1-1.21,1.7,4.5,4.5,0,0,1-1.3,1.06,3.15,3.15,0,0,1-1.53.37,2.38,2.38,0,0,1-1-.16.53.53,0,0,1-.27-.49v-.65l.49,0h.43a2.82,2.82,0,0,0,1.11-.21,2.93,2.93,0,0,0,.9-.67,7.37,7.37,0,0,0,.84-1.13c.28-.45.58-1,.91-1.6-.58-1-1.13-2.06-1.67-3.18s-1-2.27-1.46-3.44a36.47,36.47,0,0,1-1.13-3.5,22.1,22.1,0,0,1-.66-3.38h1.16c.18,0,.3,0,.35.12a.63.63,0,0,1,.11.28,24.53,24.53,0,0,0,.64,3.11c.28,1.05.6,2.07,1,3.06s.77,2,1.2,2.89S223.74,334.06,224.19,334.88Z"/><path class="b" d="M165.42,39.22a46.22,46.22,0,0,1,6.75,8,69.78,69.78,0,0,1,5.26,9.17,80.5,80.5,0,0,1,6.48,20.29,96.45,96.45,0,0,1-2.33,42.57c-.43,1.73-1,3.42-1.55,5.12s-1.14,3.36-1.75,5c-.32.83-.62,1.67-1,2.48l-1,2.42c-.7,1.61-1.34,3.24-2.09,4.83-1.54,3.15-3,6.33-4.74,9.38s-3.48,6.07-5.33,9a139.69,139.69,0,0,1-12.55,16.74c-1.15,1.3-2.35,2.57-3.53,3.84s-2.42,2.5-3.72,3.67a67,67,0,0,1-8,6.64c2-2.85,3.76-5.76,5.54-8.66.89-1.45,1.74-2.92,2.62-4.37s1.7-2.92,2.51-4.4c3.29-5.89,6.41-11.82,9.26-17.86s5.5-12.13,7.93-18.3l1.76-4.66.88-2.32c.29-.78.52-1.55.79-2.33.53-1.54,1.1-3.07,1.54-4.64s1-3.11,1.36-4.69A120.14,120.14,0,0,0,175,77.74a106.45,106.45,0,0,0-2.82-19.47A93,93,0,0,0,165.42,39.22ZM106,211.74a90,90,0,0,1-12.66,3.67,47.6,47.6,0,0,1-6.1.82,27,27,0,0,1-5.67-.24,17.56,17.56,0,0,1-4.89-1.5,15.9,15.9,0,0,1-4.06-2.87,30.36,30.36,0,0,1-6.26-9.45c-.84-1.87-1.59-3.83-2.28-5.86s-1.28-4.11-1.84-6.24c-2.23-8.54-3.66-17.56-5.32-26.92A50.84,50.84,0,0,0,55,170c-.52,2.33-.9,4.68-1.2,7.05a75.3,75.3,0,0,0-.4,14.42,59.35,59.35,0,0,0,.94,7.32,49.42,49.42,0,0,0,1.94,7.34,34.78,34.78,0,0,0,8.46,13.76,26.51,26.51,0,0,0,3.41,2.76A24.37,24.37,0,0,0,72,224.83a25.84,25.84,0,0,0,8.46,2,30.74,30.74,0,0,0,8.14-.57A41,41,0,0,0,96,224a55.76,55.76,0,0,0,12.71-7.36,62.73,62.73,0,0,0,5.46-4.69,44.12,44.12,0,0,0,4.78-5.34C114.56,208.47,110.29,210.22,106,211.74ZM34.68,123.39a106.66,106.66,0,0,1,15.44-12.18A120.4,120.4,0,0,1,85.66,95.84c1.56-.45,3.16-.78,4.74-1.16s3.19-.67,4.8-1c.8-.16,1.59-.34,2.41-.48l2.45-.4L105,92c6.56-1,13.17-1.71,19.82-2.28s13.35-.82,20.09-.91c1.69,0,3.37,0,5.07,0s3.39,0,5.09.08c3.41.09,6.82.2,10.28.47a69.46,69.46,0,0,0-9.77-3.63c-1.66-.53-3.35-.92-5-1.38s-3.39-.79-5.1-1.14a139.07,139.07,0,0,0-20.77-2.5c-3.49-.11-7-.23-10.49-.09s-7,.34-10.5.58c-1.75.14-3.48.4-5.22.6l-2.61.33c-.87.11-1.75.27-2.63.41-1.75.3-3.5.59-5.24,1s-3.49.73-5.21,1.22a96.49,96.49,0,0,0-38,19.27,80.56,80.56,0,0,0-14.34,15.76,67.84,67.84,0,0,0-5.3,9.14,45.45,45.45,0,0,0-3.56,9.84A93.41,93.41,0,0,1,34.68,123.39Zm166-19.47a90.75,90.75,0,0,1,9.5,9.12,46.16,46.16,0,0,1,3.76,4.88,27.6,27.6,0,0,1,2.63,5,17.3,17.3,0,0,1,1.14,5,15.86,15.86,0,0,1-.45,4.95A30.39,30.39,0,0,1,212.17,143c-1.19,1.65-2.52,3.28-3.92,4.89s-2.93,3.17-4.49,4.72c-6.28,6.2-13.38,11.95-20.65,18.07a51,51,0,0,0,6.94-1.73c2.28-.71,4.5-1.55,6.71-2.48a76.44,76.44,0,0,0,12.69-6.86,63.7,63.7,0,0,0,5.87-4.48,49.38,49.38,0,0,0,5.38-5.35,34.73,34.73,0,0,0,7.69-14.21,26.43,26.43,0,0,0,.69-4.33,24.61,24.61,0,0,0-.1-4.46,25.75,25.75,0,0,0-2.49-8.33,30.69,30.69,0,0,0-4.57-6.77,40,40,0,0,0-5.63-5.29,55.7,55.7,0,0,0-12.72-7.33,62.13,62.13,0,0,0-6.79-2.38,45.13,45.13,0,0,0-7-1.47C193.55,98.16,197.2,101,200.65,103.92Zm-40.85,106a106.76,106.76,0,0,1-18.27-7.29,120.44,120.44,0,0,1-31.08-23.09c-1.17-1.12-2.26-2.34-3.38-3.53s-2.17-2.43-3.25-3.65c-.54-.62-1.09-1.21-1.62-1.85l-1.57-1.92-3.15-3.85c-4.13-5.2-8.06-10.55-11.89-16s-7.38-11.15-10.83-16.95c-.89-1.44-1.69-2.92-2.56-4.37s-1.67-3-2.47-4.45c-1.63-3-3.24-6-4.74-9.13A70.16,70.16,0,0,0,66.73,124c.37,1.7.88,3.36,1.32,5s1,3.33,1.57,5a138.58,138.58,0,0,0,8.22,19.24c1.65,3.08,3.29,6.18,5.17,9.13s3.79,5.89,5.75,8.8c1,1.44,2.09,2.81,3.13,4.22l1.58,2.1c.53.7,1.12,1.38,1.67,2.07,1.14,1.37,2.27,2.74,3.49,4s2.37,2.66,3.65,3.9A96.49,96.49,0,0,0,138,210.87a80.88,80.88,0,0,0,20.81,4.54,70.37,70.37,0,0,0,10.57,0,46.27,46.27,0,0,0,10.29-1.84A94,94,0,0,1,159.8,209.88ZM60,75.88a90.57,90.57,0,0,1,3.16-12.79,45,45,0,0,1,2.34-5.7,27.39,27.39,0,0,1,3-4.79,17.44,17.44,0,0,1,3.74-3.48A15.56,15.56,0,0,1,76.75,47a30.15,30.15,0,0,1,11.32-.7c2,.2,4.11.54,6.2.95s4.21,1,6.33,1.53c8.51,2.34,17,5.61,26,8.85a50.32,50.32,0,0,0-5-5.15c-1.76-1.61-3.6-3.12-5.5-4.57a76,76,0,0,0-12.29-7.55A60.44,60.44,0,0,0,97,37.55a49.56,49.56,0,0,0-7.32-2A34.65,34.65,0,0,0,73.53,36a26.35,26.35,0,0,0-4.1,1.57,23.93,23.93,0,0,0-3.81,2.32,25.83,25.83,0,0,0-6,6.31,30.76,30.76,0,0,0-3.57,7.35,39.3,39.3,0,0,0-1.77,7.51,55.56,55.56,0,0,0,0,14.69,62.07,62.07,0,0,0,1.34,7.07,44.08,44.08,0,0,0,2.23,6.81C58.52,84.91,59.13,80.34,60,75.88Z"/><path class="a" d="M132.74,60.41c-1.38,0-2.07-.66-2.07-2V1.64Q134.46,1,139.21.47T148.1,0q10.44,0,15.36,4.49t4.92,15A26.88,26.88,0,0,1,167,28.56a15.58,15.58,0,0,1-3.75,6.05A14.58,14.58,0,0,1,157.38,38a26.43,26.43,0,0,1-7.72,1.07,40,40,0,0,1-4.75-.3q-2.5-.3-5.27-.9V60.41ZM139.64,31c1.5.29,3,.53,4.49.74a33.75,33.75,0,0,0,4.49.3,18.74,18.74,0,0,0,4.83-.56,7.16,7.16,0,0,0,3.41-2,9.22,9.22,0,0,0,2-3.84,22.76,22.76,0,0,0,.69-6.13,22.54,22.54,0,0,0-.74-6.38,8.12,8.12,0,0,0-2.2-3.76,7.71,7.71,0,0,0-3.58-1.81,22.34,22.34,0,0,0-4.79-.47c-1.72,0-3.35,0-4.87.17s-2.78.26-3.76.43Z"/><path class="a" d="M38.92,177.24c1.35,0,2,.65,2,1.94v27.35a38.28,38.28,0,0,1-7,1.85,48,48,0,0,1-8.31.68,31.77,31.77,0,0,1-11.1-1.69A15.66,15.66,0,0,1,7.31,202a23.68,23.68,0,0,1-4-9.32A65.34,65.34,0,0,1,2.12,179a65.86,65.86,0,0,1,1.31-14.23,23.24,23.24,0,0,1,4.09-9.32,15.56,15.56,0,0,1,7.09-5.11A30.58,30.58,0,0,1,25,148.8a40.16,40.16,0,0,1,7.56.63,24.4,24.4,0,0,1,4.76,1.31,2.39,2.39,0,0,1,1.31,1,4,4,0,0,1,.3,1.77v3.8q-2.46-.35-6-.64c-2.34-.2-4.52-.29-6.54-.29a25.64,25.64,0,0,0-7.26.88,8.84,8.84,0,0,0-4.73,3.34,16.63,16.63,0,0,0-2.57,6.75,62.39,62.39,0,0,0-.8,11.14A62.39,62.39,0,0,0,12,190.45a17.7,17.7,0,0,0,2.79,7,8.88,8.88,0,0,0,4.68,3.34,23.43,23.43,0,0,0,6.63.84c1.29,0,2.52,0,3.67-.12a29.11,29.11,0,0,0,3.08-.38V184.5H25.59a1.7,1.7,0,0,1-1.27-.51,1.91,1.91,0,0,1-.51-1.43v-5.32Z"/><path class="a" d="M217.5,180.77a1.77,1.77,0,0,1,2,2v5.47H194.63v18.52h20.61a1.77,1.77,0,0,1,2,2v5.57H194.63v19.22h23.83a2.16,2.16,0,0,1,1.52.52,1.93,1.93,0,0,1,.56,1.47V241H187.59c-1.39,0-2.09-.66-2.09-2V180.77Z"/><path class="c" d="M125.33,126.75h0a4.11,4.11,0,1,0,0,8.21h0a4.11,4.11,0,0,0,0-8.21Z"/><path class="c" d="M116,136.31l4.1-1.11a6.82,6.82,0,0,1-1.11-1.9Z"/><path class="c" d="M119.88,121.5c.36,1.33.73,2.7,1.11,4.08a6.78,6.78,0,0,1,1.89-1.1Z"/><path class="c" d="M130.78,121.46l-3,3a6.72,6.72,0,0,1,1.92,1.11C130.05,124.2,130.42,122.83,130.78,121.46Z"/><path class="c" d="M132.06,132l4.13-1.1v-.06l-4.13-1.1a7.11,7.11,0,0,1,.1,1.14A6,6,0,0,1,132.06,132Z"/><path class="c" d="M134.69,136.3l-3-3a6.82,6.82,0,0,1-1.11,1.9Z"/><path class="c" d="M118.59,129.74l-4.12,1.09v0l4.12,1.1a6.62,6.62,0,0,1-.1-1.1A7.11,7.11,0,0,1,118.59,129.74Z"/><path class="c" d="M125.33,124a6.86,6.86,0,0,1,1.12.1c-.37-1.38-.73-2.75-1.09-4.11h-.06c-.36,1.36-.73,2.72-1.09,4.1a6.74,6.74,0,0,1,1.11-.1Z"/><path class="c" d="M125.33,137.69a7.08,7.08,0,0,1-1.13-.1c.37,1.38.74,2.75,1.1,4.12h.06c.36-1.37.73-2.75,1.1-4.12a7,7,0,0,1-1.12.1Z"/><path class="c" d="M119.88,140.24l3-3a6.73,6.73,0,0,1-1.91-1.11Q120.42,138.22,119.88,140.24Z"/><path class="c" d="M116,125.42c1,1,2,2,3,3a6.78,6.78,0,0,1,1.1-1.89Z"/><path class="c" d="M130.79,140.27c-.38-1.38-.74-2.75-1.12-4.14a6.84,6.84,0,0,1-1.93,1.11Z"/><path class="c" d="M134.67,125.42l-4.06,1.1a7.13,7.13,0,0,1,1.1,1.88Z"/><path class="a" d="M13,269.64a7,7,0,0,1,2.32.61c.88.32,1.33.71,1.33,1.16a3.45,3.45,0,0,1-.21,1,13.68,13.68,0,0,0-.35,3.76,29.53,29.53,0,0,1-1.57,9.94,25,25,0,0,1-4.06,7.8,19.77,19.77,0,0,1-6.08,5.23,13.09,13.09,0,0,1-4.06,1.62c-.21,0-.31-.08-.31-.25s.25-.31.76-.67A32.76,32.76,0,0,0,8,293.12a21.39,21.39,0,0,0,4.2-8.38,31.93,31.93,0,0,0,1.15-8.52,12.16,12.16,0,0,0-.51-4.23,3.52,3.52,0,0,1-.5-1.66Q12.36,269.64,13,269.64Zm13.17,9.52c1.11.69,1.67,1.22,1.67,1.59s-.56.56-1.57.59c-2.89.08-6.18.32-9.89.73q-3.15.33-8.32,1.29a8.58,8.58,0,0,1-1.24.22A4.38,4.38,0,0,1,4.73,283c-.82-.33-1.24-.65-1.24-.95,0-.13.31-.27.93-.4q10.46-1.35,17.16-2.54a21,21,0,0,1,3-.48A8.06,8.06,0,0,1,26.16,279.16ZM12.31,293.85a12.35,12.35,0,0,1,3.58,1.56,3.53,3.53,0,0,1,1.05,2.7c0,.84-.35,1.27-1,1.27a2.33,2.33,0,0,1-1.41-.59,24.73,24.73,0,0,1-4-4.47c-.22-.24-.33-.41-.33-.53s.15-.3.32-.3A5.29,5.29,0,0,1,12.31,293.85Zm3.92-13.14.57,1.39q4.74,8.29,9,12a21.84,21.84,0,0,0,4.08,3l3,1.75c1,.37,1.44.68,1.44.91s-.26.43-.78.46a22.23,22.23,0,0,1-5.55.51,3.75,3.75,0,0,1-3.2-1.26,51.71,51.71,0,0,1-3.21-4.93,66.38,66.38,0,0,1-4.41-8.53,29.46,29.46,0,0,0-1.82-3.77,3.28,3.28,0,0,1-.44-.91.67.67,0,0,1,.72-.63Z"/><path class="a" d="M81,284.19c1.08.58,1.62,1.12,1.62,1.59s-.75.63-2.23.63q-3.24-.07-7-.08c-2.6,0-6,.17-10.19.49a58.86,58.86,0,0,0-9.64,1.38,11.2,11.2,0,0,1-1.79.36,6.1,6.1,0,0,1-2.16-.63c-1-.44-1.54-.81-1.54-1.09s.34-.53,1-.58a53.2,53.2,0,0,0,8.33-.55q5-.6,11.05-.93a87.55,87.55,0,0,0,8.72-1.09,12.39,12.39,0,0,1,1.6-.22A12.44,12.44,0,0,1,81,284.19ZM56.4,276.7A8.18,8.18,0,0,1,59,278.39a5,5,0,0,1,.77,2.92c0,1-.41,1.53-1.25,1.53-.3,0-.62-.22-1-.65a27.61,27.61,0,0,1-2.7-4.93,1.35,1.35,0,0,1-.22-.59c0-.24.18-.35.38-.35A2.86,2.86,0,0,1,56.4,276.7Zm16-7.11c.53.23.79.51.79.85s-.32.39-1,.52a41.74,41.74,0,0,1-4.92.84q-5.78.7-7.53.71a5.23,5.23,0,0,1-2.45-.4c-.46-.32-.69-.6-.69-.83s.47-.29,1.4-.32c2.18-.18,4.59-.49,7.21-.92a38.32,38.32,0,0,0,4.42-.87,3.62,3.62,0,0,1,.8-.18A4.49,4.49,0,0,1,72.39,269.59Zm-8.2,2.27,1.4.52c.87.4,1.3.84,1.3,1.33a9.73,9.73,0,0,1-.26,1,19.71,19.71,0,0,0-.39,3.57l-.18,15.5a49.24,49.24,0,0,1-.6,7.75c-.35,1.45-.66,2.18-.92,2.18s-.56-.52-.74-1.55c-.06-1.75-.08-4.06-.08-6.94v-19a10.82,10.82,0,0,0-.35-3,3.37,3.37,0,0,1-.18-.69.58.58,0,0,1,.57-.61Zm9.39,2.07a4.33,4.33,0,0,1,1.72.86q1.38,1.09,1.38,1.5a1.21,1.21,0,0,1-.55,1,62.2,62.2,0,0,1-6.33,4.94,1.29,1.29,0,0,1-.75.3c-.11,0-.16-.08-.16-.23a.81.81,0,0,1,.23-.33,36.94,36.94,0,0,0,2.31-3.68,18.06,18.06,0,0,0,1.75-3.77C73.28,274.12,73.42,273.93,73.58,273.93Z"/><path class="a" d="M100.5,278a12.3,12.3,0,0,1,3,1,2,2,0,0,1,.87,1.72c0,1-.41,1.52-1.25,1.52a1.88,1.88,0,0,1-1.11-.43,18.58,18.58,0,0,1-3.15-3.28c-.17-.17-.26-.3-.26-.39s.19-.35.39-.35A5.75,5.75,0,0,1,100.5,278Zm6.46,4.71c.19,0,.29.12.29.35a7.55,7.55,0,0,1-.62,2.24c-.76,2-1.76,4.4-3,7.09-.41,1-.86,2.27-1.34,3.78-.31,1.09-.69,1.64-1.14,1.64s-.73-.45-1.16-1.34a10.36,10.36,0,0,1-.84-2.77,1.4,1.4,0,0,1,.72-1.15,8.88,8.88,0,0,0,2.46-2.53,47.67,47.67,0,0,0,4.11-7A.78.78,0,0,1,107,282.68Zm-2.73-11.89a11.65,11.65,0,0,1,2.81.89,1.74,1.74,0,0,1,.82,1.52c0,1-.41,1.52-1.25,1.52a1.8,1.8,0,0,1-1-.39,17.25,17.25,0,0,1-2.93-3q-.24-.24-.24-.36c0-.24.18-.36.38-.36A5.92,5.92,0,0,1,104.23,270.79Zm25.94,16.65c.94.51,1.41,1,1.41,1.39s-.65.56-2,.56c-1.55-.05-3.22-.07-5-.07s-4.32.13-7.34.4a37,37,0,0,0-6.94,1.14,7.71,7.71,0,0,1-1.29.31,5.49,5.49,0,0,1-1.89-.55c-.9-.4-1.34-.71-1.34-1s.29-.46.87-.51a34,34,0,0,0,6-.46q3.65-.51,8-.78a55.26,55.26,0,0,0,6.33-.91,7.57,7.57,0,0,1,1.16-.19A11,11,0,0,1,130.17,287.44ZM125.35,276q.66.29.66.72c0,.27-.31.49-1,.64a34.26,34.26,0,0,1-4.92,1.05,64.75,64.75,0,0,1-7.54.88,4.41,4.41,0,0,1-2.07-.34c-.38-.27-.58-.5-.58-.7s.46-.35,1.39-.39q3.27-.33,7.18-1.1a34.51,34.51,0,0,0,4.41-1.05,2.8,2.8,0,0,1,.79-.22A3.85,3.85,0,0,1,125.35,276Zm-12.06-5.1a5,5,0,0,1,2.06,1.6,3.69,3.69,0,0,1,.48,1.78c0,1-.42,1.44-1.27,1.44-.61,0-1.41-.74-2.42-2.23a9.63,9.63,0,0,1-1.72-3.09c0-.14.11-.23.33-.25A5.88,5.88,0,0,1,113.29,270.86Zm10.23,11.06c.71.25,1.06.47,1.06.65s-.43.52-1.28.7c-1,.12-1.89.24-2.6.36l-4.85.9a20.9,20.9,0,0,1-3.08.36,4.78,4.78,0,0,1-1.36-.16c-.55-.19-.82-.39-.82-.6s.43-.52,1.28-.55q4.48-.65,8.72-1.67c.83-.17,1.29-.26,1.37-.26A8.82,8.82,0,0,1,123.52,281.92Zm-7-3.54,1.39.52c.87.4,1.31.84,1.31,1.33a5.2,5.2,0,0,1-.27.75,12.36,12.36,0,0,0-.39,2.79l-.17,12.14a30.37,30.37,0,0,1-.61,6.06c-.35,1.45-.65,2.18-.91,2.18s-.57-.52-.74-1.55c-.06-1.35-.09-3.12-.09-5.33V282.68a10.87,10.87,0,0,0-.35-3,3.07,3.07,0,0,1-.17-.69.58.58,0,0,1,.56-.61Zm8.33-10.13c.87.54,1.31,1,1.31,1.4,0,.11-.13.25-.39.4a8,8,0,0,0-1.7,1.34,34.3,34.3,0,0,1-3.86,3.26,6.36,6.36,0,0,1-1.7.87.17.17,0,0,1-.19-.19,35,35,0,0,0,3.06-4.62,6.26,6.26,0,0,0,.9-2.54c0-.4.19-.6.58-.6A5.45,5.45,0,0,1,124.88,268.25Z"/><path class="a" d="M147.09,292.73a7,7,0,0,1,2.28,1.53,4.57,4.57,0,0,1,.67,2.64c0,1-.42,1.52-1.25,1.52-.25,0-.52-.2-.8-.6a24.89,24.89,0,0,1-2.26-4.55,1.25,1.25,0,0,1-.19-.53c.05-.24.18-.36.38-.36A2.36,2.36,0,0,1,147.09,292.73Zm7.21-22.3a3.33,3.33,0,0,1,1.32.67c.53.48.8.89.8,1.24a3,3,0,0,1-.74,1.33c-.94,1.21-2.34,3.17-4.21,5.9a2.08,2.08,0,0,0-.33.76q0,.3.33.3c.19,0,.77-.07,1.74-.2a15.6,15.6,0,0,1,2.3-.3c.39,0,.59.11.59.33s-.26.44-.77.58c-2.15.56-3.23.86-3.23.9a6.67,6.67,0,0,0-1.67.58,1.61,1.61,0,0,1-.84.32c-.28,0-.55-.26-.8-.76a2.28,2.28,0,0,1-.48-1.18c0-.26.21-.52.62-.78A13.38,13.38,0,0,0,152,276a16.3,16.3,0,0,0,1.69-4.73C153.74,270.71,154,270.43,154.3,270.43Zm3.15,5.41q.44,0,1.11.87a3.44,3.44,0,0,1,.67,1.31,1.51,1.51,0,0,1-.67,1.18q-1.71,1.83-3,3.36a52.69,52.69,0,0,0-3.57,4.27c0,.11.1.17.3.17s1.37-.28,3.82-.83a6.53,6.53,0,0,1,1.23-.15c.33,0,.49.11.49.32s-.37.53-1.1.71a28.67,28.67,0,0,0-5.7,2.35.83.83,0,0,1-.49.27,1.44,1.44,0,0,1-1-.53,2.42,2.42,0,0,1-.77-1.41c0-.24.16-.44.47-.59a7,7,0,0,0,2.33-2.38s1.25-1.56,3.61-4.68a9.57,9.57,0,0,0,1.64-3.57C156.93,276.06,157.14,275.84,157.45,275.84Zm-5.31,15.8a6.26,6.26,0,0,1,1.9,1,2.4,2.4,0,0,1,.56,1.68c0,.85-.35,1.27-1,1.27a1,1,0,0,1-.67-.41,16.15,16.15,0,0,1-1.88-3.07.74.74,0,0,1-.16-.36c.05-.2.15-.3.32-.3A2.64,2.64,0,0,1,152.14,291.64Zm4.3-1.78a6.52,6.52,0,0,1,1.9.81,1.82,1.82,0,0,1,.56,1.4q0,1.26-1.05,1.26a1,1,0,0,1-.66-.35,14,14,0,0,1-1.89-2.69.71.71,0,0,1-.16-.32q.08-.3.33-.3A3,3,0,0,1,156.44,289.86Zm.22-5.2a5.36,5.36,0,0,1,1.73,1,2.82,2.82,0,0,1,.51,1.77c0,.85-.35,1.27-1.05,1.27-.18,0-.38-.14-.59-.42a18,18,0,0,1-1.66-3.2.94.94,0,0,1-.14-.38c0-.19.16-.29.32-.29A1.89,1.89,0,0,1,156.66,284.66Zm9,6.13c.19,0,.29.12.29.35a.6.6,0,0,1-.22.39c-.62.7-1.57,1.65-2.85,2.86-.69.67-1.51,1.53-2.46,2.57-.12.19-.22.29-.31.29a3.22,3.22,0,0,1-1.86-.91c-.59-.53-.89-1-.89-1.27,0-.08.07-.14.21-.16a2.93,2.93,0,0,0,1.07-.35q2.07-.93,6.07-3.29A3.42,3.42,0,0,1,165.67,290.79Zm13.24-10c.8.38,1.21.68,1.21.9s-.26.55-.79.65a6.43,6.43,0,0,1-1.9.18,72,72,0,0,0-7.81.45c-3.8.46-6.34.82-7.6,1.07a3.8,3.8,0,0,1-.88.18,4,4,0,0,1-1.36-.5c-.54-.26-.81-.48-.81-.64s.22-.28.68-.32c2.31-.26,5-.59,8-1q6.66-1,8.52-1.34a7.74,7.74,0,0,1,1.05-.18A4.9,4.9,0,0,1,178.91,280.76Zm-16.37,5a6.72,6.72,0,0,1,2,.89,2,2,0,0,1,.6,1.52c0,1-.42,1.52-1.25,1.52a1,1,0,0,1-.69-.39,16.6,16.6,0,0,1-1.93-3,.85.85,0,0,1-.16-.36q.09-.36.39-.36A3.12,3.12,0,0,1,162.54,285.74Zm3.69-17.38a3.48,3.48,0,0,1,1.32.67c.53.48.8.89.8,1.24a3.22,3.22,0,0,1-.48,1.23c-.59,1.11-1.49,2.92-2.68,5.43a2.45,2.45,0,0,0-.21.7q0,.3.33.3t2.28-.27a21,21,0,0,1,3-.39c.39,0,.59.11.59.33s-.31.47-.93.62c-2.57.6-3.85.92-3.85,1a9.08,9.08,0,0,0-2,.61,2,2,0,0,1-1,.34q-.44,0-.81-.75a2.28,2.28,0,0,1-.47-1.19,1,1,0,0,1,.42-.72,13.36,13.36,0,0,0,2.09-3.86,19.12,19.12,0,0,0,1.15-4.45C165.85,268.63,166,268.36,166.23,268.36Zm3,14.68a.92.92,0,0,1,.68,1,5.15,5.15,0,0,1-.1.76,8.82,8.82,0,0,0-.23,2.39c0,2.23,0,4,.11,5.35s.1,2.9.1,4.35a9.28,9.28,0,0,1-.59,4c-.68.92-1.23,1.38-1.66,1.38a1,1,0,0,1-.79-.5,18.63,18.63,0,0,0-2.66-2.8q-.57-.36-.57-.63a.19.19,0,0,1,.21-.21,4.6,4.6,0,0,1,.63.06,21.78,21.78,0,0,0,2.38.29c.3,0,.5-.32.58-1a61.38,61.38,0,0,0,.26-7.75,23.38,23.38,0,0,0-.54-5.53,3.71,3.71,0,0,1-.29-1.15c0-.35.14-.53.44-.53A5.62,5.62,0,0,1,169.24,283Zm4.83-11c.72.3,1.08.64,1.08,1s-.28.79-.84,1.21a50.73,50.73,0,0,0-3.51,5.57q-1.92,3-2.61,3-.3,0-.3-.27,2.1-5.25,3-8.37a.24.24,0,0,0-.27-.27c-1.55.11-2.57.16-3.06.16a6.74,6.74,0,0,1-1.18-.08c-.5-.19-.75-.42-.75-.72s.26-.25.62-.27a19,19,0,0,0,4.73-1,7.4,7.4,0,0,1,1.67-.49A4.88,4.88,0,0,1,174.07,272Zm.29,12.09a3.55,3.55,0,0,1,1.46.73c.77.61,1.16,1,1.16,1.26s-.15.42-.46.57a54.74,54.74,0,0,1-5.31,2.83,1.36,1.36,0,0,1-.63.17c-.1,0-.14-.06-.14-.19s.07-.1.2-.21a24.41,24.41,0,0,0,1.92-2.37,10.1,10.1,0,0,0,1.46-2.42C174.11,284.23,174.22,284.11,174.36,284.11Zm-2.16,7a37.41,37.41,0,0,1,3.64,1.3,9.12,9.12,0,0,1,3.08,2,3.09,3.09,0,0,1,.56,1.79,3,3,0,0,1-.24,1.08.81.81,0,0,1-.71.45,2.25,2.25,0,0,1-1-.4,10.72,10.72,0,0,1-2.71-2.35,29.45,29.45,0,0,0-3.26-3c-.58-.37-.87-.65-.87-.83s.06-.24.18-.24A8.12,8.12,0,0,1,172.2,291.13Z"/><path class="a" d="M199.25,284l1.09.49c.56.26.84.55.84.88a1.16,1.16,0,0,1-.16.47,8.28,8.28,0,0,0-.26,1.7l0,3.24a24.59,24.59,0,0,1-.48,4.4,11.27,11.27,0,0,1-1.11,3.18,7.07,7.07,0,0,1-1.85,2.23,4.39,4.39,0,0,1-1.53.9c-.15,0-.23-.06-.23-.17a16,16,0,0,0,1.9-3,13,13,0,0,0,1-3.58,23.15,23.15,0,0,0,.39-4.42v-1.79a9.89,9.89,0,0,0-.25-2.49,2.34,2.34,0,0,0-.35-1.07c-.26-.24-.39-.4-.39-.47,0-.34.2-.5.59-.5Zm4.63-14.1s.36.35,1.06,1.06a2.68,2.68,0,0,1,.59,1.21,3.17,3.17,0,0,1-.86,1.59l-4,4.85a1.58,1.58,0,0,0-.38.53q0,.24.39.24,2.29-.33,5.89-1a15.8,15.8,0,0,1,1.59-.29q.75,0,.75.48c0,.27-.46.52-1.37.76l-6.84,2a12.54,12.54,0,0,0-2.34.86,6.33,6.33,0,0,1-1,.4c-.5,0-.9-.51-1.22-1.51a3.36,3.36,0,0,1-.16-.73c0-.54.4-1,1.19-1.4a7.7,7.7,0,0,0,2.77-2.5,21.44,21.44,0,0,0,1.89-3,9.31,9.31,0,0,0,1-3.09.51.51,0,0,1,.58-.48Zm4.84,13.58c.69.46,1,.83,1,1.12a1.68,1.68,0,0,1-.3.83,12.35,12.35,0,0,0-.49,4.26c0,2,0,3.52.09,4.51.06.75.1,1.58.1,2.49a8,8,0,0,1-.75,3.83c-.59,1-1.11,1.45-1.54,1.45l-1-3.75a.76.76,0,0,0,.66-.43q.4-1,.4-5.65c0-1.64,0-3.8-.15-6.46a1.68,1.68,0,0,0-.2-.89.93.93,0,0,0-.64-.21,16.47,16.47,0,0,0-1.68.2c-1.51.35-2.59.62-3.22.83a1.79,1.79,0,0,1-.59.21,1.57,1.57,0,0,1-.9-.4c-.29-.26-.43-.48-.43-.64s.12-.22.38-.25a39.58,39.58,0,0,0,4.18-.76c1.1-.34,2-.64,2.61-.91a4.85,4.85,0,0,1,.69-.25A5.69,5.69,0,0,1,208.72,283.43Zm-2.26,7.83c.17,0,.25.07.25.2a1,1,0,0,1-.19.43,11.05,11.05,0,0,1-1.87,1.78L203,295.15a1.67,1.67,0,0,1-.93.43c-.26,0-.67-.27-1.25-.81a2.48,2.48,0,0,1-.75-1.24q0-.27.3-.27a10,10,0,0,0,2.62-.55,30.26,30.26,0,0,0,3.22-1.31A.51.51,0,0,1,206.46,291.26Zm-3.38-3.47a5.74,5.74,0,0,1,2,.72,1.14,1.14,0,0,1,.46.81c0,.77-.34,1.15-1,1.15a4.41,4.41,0,0,1-2.38-1.18c-1.13-.88-1.69-1.43-1.69-1.64s.08-.19.26-.2A10.41,10.41,0,0,1,203.08,287.79Zm.31,9.77a20.83,20.83,0,0,0,2.44.61l1,3.75c-.2,0-.44-.18-.7-.53q-1.51-1.78-2.92-3.16c-.37-.29-.55-.48-.55-.57a.17.17,0,0,1,.19-.19A3.31,3.31,0,0,1,203.39,297.56Zm4-21.89a13.75,13.75,0,0,1,1.82,1,5.26,5.26,0,0,1,1.54,1.64,3.52,3.52,0,0,1,.28,1.44,3.58,3.58,0,0,1-.27,1.26,1,1,0,0,1-.84.51c-.09,0-.24-.11-.42-.34a7.79,7.79,0,0,1-1.18-2.05,25,25,0,0,0-1.41-2.64,1.47,1.47,0,0,1-.38-.73c0-.19.07-.28.21-.28A2.57,2.57,0,0,1,207.36,275.67Zm6,9.23,1,.57c.69.38,1,.81,1,1.28a2.44,2.44,0,0,1-.2.42,10,10,0,0,0-.57,2.79c-.18,1.68-.28,3-.28,3.84,0,2.28.45,3.73,1.33,4.36a9.55,9.55,0,0,0,4.71.94c2.06,0,3.45-.29,4.18-.87a6.74,6.74,0,0,0,1.78-3.49l.31-2.35q.07-.81.39-.81t.45,1.29a17.39,17.39,0,0,0,1.16,4.63,3.54,3.54,0,0,1,.45,1.57c0,.59-.68,1.14-2,1.64a18,18,0,0,1-6.21.89q-4.53,0-6.41-1.53-2-1.72-1.95-5.59c0-.65,0-1.43,0-2.34s0-2,0-3.33a8.84,8.84,0,0,0-.32-2.67,2,2,0,0,1-.27-.81c0-.28.2-.43.61-.43Zm1.33-14.58c.49.19.74.47.74.81l-.3.88a33.72,33.72,0,0,0-.58,7.49,3.21,3.21,0,0,0,.5,2,2,2,0,0,0,1.67.61,15.92,15.92,0,0,0,5.07-.69,4.63,4.63,0,0,1,1.49-.48,2.86,2.86,0,0,1,1.5.41c.55.38.82.75.82,1.12s-.38.57-1.15.82a20.06,20.06,0,0,1-5.89.82c-2.27,0-3.83-.42-4.66-1.26a4.69,4.69,0,0,1-1.18-3.35c0-1.45,0-2.71-.07-3.8s-.07-2-.07-2.71a6.77,6.77,0,0,0-.23-2,1.31,1.31,0,0,1-.23-.66.45.45,0,0,1,.51-.51A4.81,4.81,0,0,1,214.72,270.32Zm9,19.49q1.14.54,1.14,1c0,.39-.55.72-1.66,1-1.55.22-3.14.46-4.74.73a14.69,14.69,0,0,1-2.34.2,9.48,9.48,0,0,1-1.79-.19c-.61-.13-.92-.27-.92-.44s.37-.39,1.11-.56c3.51-.85,5.64-1.39,6.41-1.6a13.85,13.85,0,0,1,1.6-.38A6.83,6.83,0,0,1,223.7,289.81Zm-1.11-15.11q1.14.54,1.14,1c0,.3-.45.55-1.33.74-1.24.17-2.51.35-3.79.55a12.27,12.27,0,0,1-1.87.15,8.66,8.66,0,0,1-1.79-.19c-.62-.12-.93-.26-.93-.43s.38-.4,1.12-.56q4.11-1,5-1.22a11.64,11.64,0,0,1,1.25-.29A7.75,7.75,0,0,1,222.59,274.7Z"/></svg>