<svg xmlns="http://www.w3.org/2000/svg" viewBox="0 0 429.52 733.09"><defs><style>.a{fill:#fff;}.b{fill:none;}</style></defs><title>PGE</title><path d="M160.31,633.43l.2-.19,0-.1-.06.07Z"/><path d="M165.25,632.33Z"/><path class="a" d="M160.48,633.21l-.17.22a1.8,1.8,0,0,0,.2-.19Z"/><path class="b" d="M160.31,633.43l.2-.19,0-.1-.06.07Z"/><path d="M166.35,629.76a16,16,0,0,1-.46,1.68A3.63,3.63,0,0,0,166.35,629.76Z"/><path class="a" d="M123.11,662.85c-2.11-1.52-3.83-3.3-4.09-6-2.48.37-3.2,1-2.73,2.58a6.83,6.83,0,0,0,1.5,2.59,45.89,45.89,0,0,0,5,4.8,6.64,6.64,0,0,1,3,5.49c-1.26.09-2.55.11-3.81.28-4.83.63-8.83,4.75-8.9,9.1-.06,4.56,3.14,8.1,8.12,9.22a12,12,0,0,1,3.74,1.65c2.84,1.84,5.45,2,8.21-.1a26.62,26.62,0,0,0,3.51-4c.55-.63,1.11-1.78,1.69-1.79,2.63-.05,2.91-2,3.41-3.73l2.54-.2a9.58,9.58,0,0,0,7.19-4.64c1.72-2.56.87-5.21-2.41-8.19.35-4.63-.32-9.21-5.61-10.73-6.22-1.79-9.58,2.15-11.61,7.21-4.76-1.59-7.21-6.27-6.73-12.26-2.6-.56-3.92.41-3.53,2.86a54.64,54.64,0,0,0,1.55,5.84Z"/><path d="M155.19,645.15Z"/><path d="M155.16,645.13Z"/><path class="a" d="M155.06,645.42c.09-.27.18-.55.06-.17.24-.32.07-.09-.1.14Z"/><path d="M123.07,662.89a54.64,54.64,0,0,1-1.55-5.84c-.39-2.45.93-3.42,3.53-2.86-.48,6,2,10.67,6.73,12.26,2-5.06,5.39-9,11.61-7.21,5.29,1.52,6,6.1,5.61,10.73,3.28,3,4.13,5.63,2.41,8.19a9.58,9.58,0,0,1-7.19,4.64l-2.54.2c-.5,1.7-.78,3.68-3.41,3.73-.58,0-1.14,1.16-1.69,1.79a26.62,26.62,0,0,1-3.51,4c-2.76,2.11-5.37,1.94-8.21.1a12,12,0,0,0-3.74-1.65c-5-1.12-8.18-4.66-8.12-9.22.07-4.35,4.07-8.47,8.9-9.1,1.26-.17,2.55-.19,3.81-.28a6.64,6.64,0,0,0-3-5.49,45.89,45.89,0,0,1-5-4.8,6.83,6.83,0,0,1-1.5-2.59c-.47-1.57.25-2.21,2.73-2.58.26,2.69,2,4.47,4.09,6l.77.79.1.09-.08-.11ZM134,676.57l-.24-.15.27.12.78,1.52a8.68,8.68,0,0,0,2.39,4.05l.61-.43-3.05-3.58Zm-4.45-1.36a34.72,34.72,0,0,0-5.23.06,17,17,0,0,0-5.1,1.55,5.56,5.56,0,0,0-2.71,6.83c.81,2.65,2.79,4,5.77,4.13a11.42,11.42,0,0,0,8.41-3.29c2.17-2,2.25-2.84.84-5.59C131,677.78,130.34,676.67,129.55,675.21Zm8.74,1.67a36.34,36.34,0,0,0,3.44-1.64,8.32,8.32,0,0,0,3.82-10.07c-1.07-3.55-5.68-4.17-7.81-2.19a9.74,9.74,0,0,0-3.52,8,4.16,4.16,0,0,0,.81,2C136,674.34,137.14,675.54,138.29,676.88Zm2,2.35c3.31,1.14,5.63.61,7.77-1.65,1.25-1.33,2-2.67.13-4.44A12.4,12.4,0,0,1,140.25,679.23Zm-6.58,7.17-6.2,4.1C131.71,690.88,132.76,690.16,133.67,686.4ZM129,669.57l-.53-.36a2.13,2.13,0,0,0-.1.55c0,.07.24.22.26.2A3.41,3.41,0,0,0,129,669.57Z"/><path class="a" d="M129.55,675.21c.79,1.46,1.4,2.57,2,3.69,1.41,2.75,1.33,3.56-.84,5.59a11.42,11.42,0,0,1-8.41,3.29c-3-.11-5-1.48-5.77-4.13a5.56,5.56,0,0,1,2.71-6.83,17,17,0,0,1,5.1-1.55A34.72,34.72,0,0,1,129.55,675.21Z"/><path class="a" d="M138.29,676.88c-1.15-1.34-2.27-2.54-3.26-3.85a4.16,4.16,0,0,1-.81-2,9.74,9.74,0,0,1,3.52-8c2.13-2,6.74-1.36,7.81,2.19a8.32,8.32,0,0,1-3.82,10.07A36.34,36.34,0,0,1,138.29,676.88Z"/><path class="a" d="M140.25,679.23a12.4,12.4,0,0,0,7.9-6.09c1.9,1.77,1.12,3.11-.13,4.44C145.88,679.84,143.56,680.37,140.25,679.23Z"/><path class="a" d="M133.67,686.4c-.91,3.76-2,4.48-6.2,4.1Z"/><path class="a" d="M134.76,678.1l3.05,3.58-.61.43a8.68,8.68,0,0,1-2.39-4.05Z"/><path class="a" d="M129,669.57a3.41,3.41,0,0,1-.37.39s-.26-.13-.26-.2a2.13,2.13,0,0,1,.1-.55Z"/><path class="a" d="M134,676.57l.76,1.53.05,0-.78-1.52Z"/><path class="a" d="M123.07,662.89l.83.73,0,0-.77-.79Z"/><polygon class="a" points="123.9 663.62 123.98 663.73 123.88 663.64 123.9 663.62"/><path class="a" d="M134,676.54l-.27-.12.24.15Z"/><path class="b" d="M155.12,645.25h0l0-.12Z"/><path d="M159.6,624.58c0-.2,0-.46,0-.7-2.94.07-3.76,2.74-5.34,4.44l0,.1-.2.19.17-.22.06-.07c.8-2.57,1.61-5.15,2.42-7.76-1.83-1.2-2.81-.35-3.4,1.1-1.22,3-2.35,6.08-3.43,8.91a50.47,50.47,0,0,0-5.52-4.28,10.38,10.38,0,0,0-11.27.8c-3.15,2.66-3.95,5.64-2.5,9.51.36.94.84,1.83,1.37,3-1.63,2.45-3.1,5.3-.52,8.05A8.6,8.6,0,0,0,142,649.68c1.57.8,2.85,2,4.1,2,2,0,2.89-1.93,3.49-3.63,1.68-4.72,3.07-9.56,5-14.18a24.68,24.68,0,0,1,3.67-5.28,10.53,10.53,0,0,0,1.08-2.68A11.64,11.64,0,0,0,159.6,624.58ZM136.28,647.1c-3-.41-3.54-2.33-1.9-5.16,2.16.38,4.27.85,6.4,1.07a2.15,2.15,0,0,0,1.74-1c.4-1.1-.49-1.48-1.49-1.67a21.22,21.22,0,0,1-3.75-.94,6.47,6.47,0,0,1-3.7-8.2c1.2-2.9,5.32-4.19,8.6-2.48a15.4,15.4,0,0,1,4.21,3.26c2,2.19,1.82,3.08.37,5.71s-2.7,5.44-4.45,9C140.56,646.83,138.36,647.38,136.28,647.1ZM149,640.33l-.07.11h0l-.06.16-.78,1.52-.13.29-1.45,5.2-.87-.31,2.32-4.89.09-.33.78-1.51.1-.13,0-.13,0-.06,0,.06,0,.12.07-.1,0,0Z"/><path d="M155.12,645.25l.07-.1-.07.1Z"/><path class="a" d="M166.39,628.71c0,.39,0,.74,0,1,0,0,0-.09,0-.14a7.86,7.86,0,0,0,.1-1l0,.05Z"/></svg>