<svg xmlns="http://www.w3.org/2000/svg" viewBox="0 0 95.09 54.61"><title>PGE</title><path d="M63.15,46.85c2.3.22,5,.27,7.63.76,3.41.64,6.76,1.6,10.13,2.47,3.1.8,6.12,2.09,9.46.92.93-.32,2.26-.44,2.56.93s-.9,2.18-2.06,2.2a63.88,63.88,0,0,1-8.86-.4A35.39,35.39,0,0,1,76.47,52a33.86,33.86,0,0,0-20.58-.12c-5.19,1.63-10.46,3.06-16,2.4A52.15,52.15,0,0,1,32,52.65c-2.35-.67-4.58-1.72-6.88-2.55a18.82,18.82,0,0,0-15.4.82c-1.85.92-3.63,2-5.5,2.84a8.39,8.39,0,0,1-2.91.85c-.41,0-1-.69-1.27-1.2a1.37,1.37,0,0,1,.49-1.27c4.58-1.69,8.39-4.91,13.35-5.91a21.52,21.52,0,0,1,12.9,1.26,7.46,7.46,0,0,0,7.89-.82c5.16-3.46,10.25-6.93,13.63-12.23.81-1.27,1.47-2.64,2.36-4.27-2.75-1.4-5.3-2.81-7.95-4-7.33-3.32-10.93-9.34-12.93-16.6a12,12,0,0,1,.68-7.43C31.27-.13,33-.7,34.61.93c3.58,3.63,7.84,4.16,12.75,4s9.76,1,12.78,5.83c.75-.26,1.47-.49,2.18-.75a15.24,15.24,0,0,1,13.09,1c1.13.62,2.25,1.25,3.4,1.83a10.82,10.82,0,0,0,9.35.66c1.82-.75,3.83-1.49,5.52-.08,1.94,1.64,1.55,3.86.79,6-2.35,6.55-7.3,10.23-14,11.91a34.41,34.41,0,0,1-14,.38C65.36,36.8,64.26,41.78,63.15,46.85ZM91.86,15.59A18.32,18.32,0,0,1,74.38,14,12,12,0,0,0,61.19,14c-2.11,1.27-2.75,1.16-3.76-.66-2.28-4.08-6-5.53-10.38-5.33-5,.23-9.72-.53-14-3.73-.76,7.19,2,12.64,7.15,16.73,3.06,2.41,6.84,3.95,9.64,5.51,1.74-.79,2.82-1.74,3.62-1.55,1.51.36.79,1.74.73,2.87-.18,3-1.56,5.56-3.09,8.07-3.2,5.24-8,8.89-13.06,12.24-.93.62-2.44.85-2.61,2.37,8.64,2.94,16.15-1.24,23.76-2.8,1-3.26,2.25-6.3,2.94-9.45s.91-6.58,1.29-9.56c4.58.06,8.71.21,12.83.14a17.28,17.28,0,0,0,9.47-3C89.09,23.5,91.5,20.47,91.86,15.59Z"/></svg>