<svg xmlns="http://www.w3.org/2000/svg" viewBox="0 0 79.41 8.21"><title>PGE</title><path d="M13.82,2.74C18.36,0,23.08-.32,27.84.21a26.66,26.66,0,0,1,6,1.67A24.17,24.17,0,0,0,44.94,3.63a34.08,34.08,0,0,0,5.43-1.32A39.46,39.46,0,0,1,59,.53a16.34,16.34,0,0,1,8.55,2.13A16.28,16.28,0,0,0,72.31,4.3c.34.06.69,0,1,.13a10.91,10.91,0,0,0,2.91.11c.39,0,.78-.08,1.16-.12s.84,0,1.25-.11.75,0,.74.68a1.09,1.09,0,0,1-.58.78,20.53,20.53,0,0,1-3.19.43A17.32,17.32,0,0,1,67,4.05a15.32,15.32,0,0,0-5.25-1.74,26.76,26.76,0,0,0-10.44,1.4,49.63,49.63,0,0,1-6.56,1.66c-2.69.4-5.38-.24-8-.9-3.28-.83-6.47-2.31-9.81-2.74a17.09,17.09,0,0,0-8.53.8A77.21,77.21,0,0,0,9.27,6.77a14.41,14.41,0,0,1-8.1,1.38,1.21,1.21,0,0,1-.82-.3A1.38,1.38,0,0,1,0,6.68s0,0,0,0,.26-.1.42-.1H2c.36,0,.71,0,1.07,0L4.3,6.48a15.23,15.23,0,0,0,2.49-.35A3.28,3.28,0,0,0,7.3,6a2.27,2.27,0,0,0,.41-.21c.52-.29,1-.56,1.56-.8.79-.36,1.59-.71,2.38-1.09A22.53,22.53,0,0,0,13.82,2.74Z"/></svg>