<svg xmlns="http://www.w3.org/2000/svg" viewBox="0 0 102.49 50.38"><defs><style>.a{fill:none;}</style></defs><title>PGE</title><path class="a" d="M56.23,42.88l-18.64,4c7.74,1.65,14.63-2,21.59-3.39a2.25,2.25,0,0,0,.08-.24,2.16,2.16,0,0,0-.66.37Z"/><path class="a" d="M35.42,46.25a17.9,17.9,0,0,0,2,.56l-2-.67S35.42,46.21,35.42,46.25Z"/><path d="M59.36,43.44c-.51.09-1,.2-1.54.32-2.19.53-4.35,1.22-6.52,1.84a43.89,43.89,0,0,1-6.69,1.47,21.21,21.21,0,0,1-7-.23h0l-.09,0a17.9,17.9,0,0,1-2-.56s0-.07,0-.11L28.3,43.78l0,0a12.09,12.09,0,0,1-1.51-.5A21.6,21.6,0,0,0,13.87,42C8.91,43,5.1,46.21.52,47.9A1.38,1.38,0,0,0,0,49.17c.23.51.86,1.23,1.27,1.2a8.38,8.38,0,0,0,2.91-.84c1.87-.89,3.65-1.93,5.5-2.85a18.89,18.89,0,0,1,15.4-.82c2.3.84,4.53,1.89,6.88,2.55a51,51,0,0,0,7.91,1.65c5.53.66,10.8-.78,16-2.41a33.79,33.79,0,0,1,20.58.13A35.34,35.34,0,0,0,82,49.49a62.37,62.37,0,0,0,8.86.4c1.16,0,2.38-.73,2.06-2.2s-1.63-1.24-2.56-.92c-3.34,1.16-6.36-.13-9.46-.93C77.54,45,74.19,44,70.78,43.37l-1.18-.19c-1.25-.18-2.51-.27-3.77-.36a22,22,0,0,0-2.69.06,23.21,23.21,0,0,0-2.62.35Z"/><path d="M37.56,46.84h0l-.12,0Z"/><path d="M35.42,49.08c.64-1.28,2.09-1.1,3.14-1.41,5.83-1.74,11.46-3.85,16-7.94,2.19-2,4.24-4,5.29-6.83.39-1.06,1.47-2.17.13-2.95-.71-.42-2,.18-3.91.43-2.23-2.3-5.41-4.87-7.63-8.07-3.77-5.41-4.81-11.42-2-18.09,3.19,4.31,7.43,6.4,12.33,7.64C63,12.93,66.2,15.4,67.19,20c.45,2,1,2.32,3.42,1.72a11.94,11.94,0,0,1,12.6,3.88,18.32,18.32,0,0,0,16.28,6.55c-1.75,4.57-4.94,6.78-8.84,8a17.25,17.25,0,0,1-9.94.14c-4-1.12-7.87-2.46-12.23-3.85-1.24,2.75-2.4,5.89-4,8.78s1.88-2.73,0,0a5.57,5.57,0,0,1,3.33-.11l2.69-4.81A34.53,34.53,0,0,0,84,44c6.89.33,12.7-1.76,16.84-7.35,1.34-1.81,2.36-3.82,1-6-1.2-1.84-3.34-1.71-5.29-1.53a10.81,10.81,0,0,1-8.77-3.33C86.84,24.9,86,24,85.05,23.06a15.2,15.2,0,0,0-12.23-4.8c-.75,0-1.51,0-2.31.08C69,12.9,64.73,10.38,60,9.06s-8.65-3-11-7.55c-1.06-2-2.89-2-4.33-.06a12,12,0,0,0-2.8,6.92C41.62,15.89,43.32,22.7,49.38,28c2.19,1.91,4.22,4,6.45,6.14-1.33,1.3-2.35,2.42-3.5,3.4-4.77,4.1-10.64,5.94-16.58,7.76a7.37,7.37,0,0,1-6.49-.58v0Z"/></svg>