<svg xmlns="http://www.w3.org/2000/svg" viewBox="0 0 132.4 46.31"><defs><style>.a{fill:#fff;}</style></defs><title>PGE</title><path d="M62.9,5.07a2,2,0,0,1,2-1.19,12.36,12.36,0,0,0,3.33-.13,2.77,2.77,0,0,1,3.28,1.49C72.06,6.1,72.61,7,73.26,8c.68-1.07,1.25-1.87,1.73-2.71A2.44,2.44,0,0,1,77.4,3.93a42.77,42.77,0,0,0,4.53,0,1.78,1.78,0,0,1,1.81.85c.72,1,1.53,2,2.34,3.06.76-1.1,1.35-2.06,2-2.92A2.41,2.41,0,0,1,89.53,4c2-.1,4,0,6.3,0,.12,2.07.28,3.93.33,5.8s0,3.9,0,5.78c2,.5,2,.61,2.1,2,.11,1.53-1.22,1.42-2.08,1.94.06.61.12,1.16.16,1.58,1.21.76,3.09-.65,3.54,1.35l2.22-1.47c.11-4.28.22-8.51.33-12.81.48-.13.85-.25,1.22-.31,1.35-.24,1.92.22,2,1.63,0,.39,0,.79,0,1.18,0,2.95,0,5.91,0,8.86a10,10,0,0,0,.19,1.43l.46,0a3.77,3.77,0,0,0,.19-1.07c-.28-2.9-.26-2.9,2.56-2.93,5.38-.06,10.76-.16,16.14-.23,1,0,2-.05,3,0,1.36.07,1.59.34,1.58,1.67,0,1.12-.1,2.24,0,3.35a6.31,6.31,0,0,1-1.72,4.66,19.18,19.18,0,0,1-4.57,3.7A17.59,17.59,0,0,0,121,31.92a1.67,1.67,0,0,0,.12,2.83,16.05,16.05,0,0,0,2.53,1.5c2.67,1.38,5.19,2.87,5.52,6.32.8-.06,1.46-.08,2.1-.17s1.15,0,1.13.68c0,.28-.55.74-.89.79-1.62.21-3.25.38-4.88.43a38.59,38.59,0,0,1-13.3-2.15,32.67,32.67,0,0,0-8-1.74,61,61,0,0,0-16,1.4c-3.34.63-6.68,1.33-10,1.65A47.22,47.22,0,0,1,67,42.56c-5-.82-9.91-2.3-15-2.74a39.69,39.69,0,0,0-13.06.81C34.19,41.8,29.56,43.26,25,44.86c-4.07,1.44-8.21,1.55-12.41,1.39-.82,0-1.7-.21-1.79-1.29.18-.17.27-.33.37-.33,1.93,0,3.87,0,5.8,0a41.25,41.25,0,0,1-7.2-5.57C8,37.32,6.28,35.51,4.57,33.7a22,22,0,0,1-2.64-3.16c-.8-1.24-1.9-2.41-1.92-4s0-3.28.08-4.92A9.63,9.63,0,0,1,.5,19.84l2.63-.3c-.07-1.3-.16-2.46-.21-3.63s.39-1.64,1.6-1.71c.64,0,1.28-.07,2-.1V11.48c-1.64-1-1.92-2.14-1.08-4.76l7.9-.46c0-1.57,0-3,0-4.43S13.63,0,15.23,0c3,0,6,0,9.06,0a8.77,8.77,0,0,1,1.5.29v6c2.13,0,4,0,5.92,0a28.54,28.54,0,0,1,5.85.24c0,.83,0,1.6,0,2.37,0,.58.09,1.3-.2,1.71s-1.05.61-1.58.88v8.19c1.28,0,2.44,0,3.61,0,1.74,0,1.71,0,2.21,1.73a7.84,7.84,0,0,0,5.31,5.43V21.38l3.76-.18V18.88l-1.72-.39c-.28-2.8-.28-2.8,2-3.43,0-1.22,0-2.53,0-3.83,0-2,.09-4,0-6.06,0-.92.42-1.18,1.15-1.2,1.44,0,2.89,0,4.33-.06A2.38,2.38,0,0,1,58.9,5.42c.49,1,1.12,1.9,1.87,3.16C61.62,7.19,62.31,6.16,62.9,5.07Zm25,8.43-.39-.78-.09-.12.1.1.39.78.38.41.12.09-.11-.1ZM58.67,8.28l.08.1.1.08-.08-.1Zm28.85.49-.13.09.13-.1L87.93,8l.09-.1L87.91,8ZM72,13.17,71.8,13l-.42.87-.13.08.11-.09Zm12,1.12-.67.65.23.17.42-.84.78-1.17c.09-.12.18-.24,0-.07.07-.2,0-.06,0,.09Zm-.29-3.61-.36,0,.26.83-.13.06.11-.08Zm-.19-3.21.08.11.79,1.17.28.67.24-.16-.54-.49L83.57,7.6Zm-12.61,0,.09.1c-.43,1,0,1.7,1,2.31A2.77,2.77,0,0,0,71,7.6Zm55.23,32.29c-1.14-.87-2.4-1.58-3.61-2.36-.93-.61-1.91-1.14-2.79-1.82a2.67,2.67,0,0,1-.56-4,16.44,16.44,0,0,1,3.27-2.77c1.69-1.13,3.47-2.15,4.67-3.86.51-.73.89-1.56,1.45-2.56-4.65-.44-9,.16-13.34.18s-8.78,0-12.73,0A50,50,0,0,1,98,27c-2.44,1.87-5.45,2.17-8.41,2.2-9.71.11-19.43.12-29.14.16-3.27,0-6.54,0-9.81,0a12.71,12.71,0,0,1-6-1.63,8.86,8.86,0,0,1-4.77-6.22h-38C1.36,25,1.51,28.16,4.1,31c3.16,3.42,6.24,6.93,10.07,9.64a58.23,58.23,0,0,0,5.06,3,3.72,3.72,0,0,0,3.2.24c3.16-1.06,6.43-1.82,9.53-3,7-2.71,14.18-3.07,21.48-2.53A59.82,59.82,0,0,1,62.69,40a55.32,55.32,0,0,0,16.93,1.76,78.65,78.65,0,0,0,8.32-1.32,87.65,87.65,0,0,1,13.19-1.78,36.13,36.13,0,0,1,13.1,2.13,35.37,35.37,0,0,0,11,1.88c.58,0,1.16-.06,1.83-.09A2.33,2.33,0,0,0,126.13,39.77ZM34.15,16l-3.29-.08c-2,0-2.07-.16-2.18-2.14-.05-.82-.2-1.64-.3-2.45l-.45,0a12.36,12.36,0,0,0-.19,1.36c0,.59,0,1.18,0,1.77-.08,1.13-.49,1.49-1.63,1.41s-2.48-.24-3.72-.27a1.31,1.31,0,0,1-1.48-1.42c0-.91,0-1.81,0-2.83H8.09c0,.87,0,1.76,0,2.65,0,1.68-.21,1.89-1.93,1.95-.46,0-.91,0-1.51,0v3.64h29.5Zm74.06,2.42v2.17c1.73.48,18.43.39,20.07-.14,0-.59.07-1.22.12-2Zm-18.08-13c-.09,3.35-.18,6.64.05,10.11h4.21V5.44ZM81.79,15.63V5.74H77.7c-.42,1.38-.53,6.65-.2,9.89ZM68.68,5.35c-3.73-.27-3.86-.16-3.91,3.54,0,2.09,0,4.18,0,6.35a10.93,10.93,0,0,0,4.41.07V5.54A2.62,2.62,0,0,0,68.68,5.35Zm-61.3,4a2.77,2.77,0,0,0,1.16.07H34.08c.51,0,1,0,1.62-.07V8.14H7l-.33.38C6.91,8.82,7.08,9.25,7.38,9.39Zm7.87-7.61V6.3l4.2,0h4.43V1.78Zm37.43,4v9.5h4c0-1.56,0-3.16.06-4.75s0-3.26,0-5.08ZM83.45,23.13v4.36h5V23.13ZM77,27.49h4.76V23.14H77.34C77.22,24.68,77.11,26,77,27.49ZM62.91,23.11H58.5v4.47h4.41Zm-10.48,0v4.81l4.15-.35V23.07ZM64.81,27.5h4.06V23.13H64.81Zm25.62-4.39v4.25l2.25-.15c1.35-.12,1.68-.43,1.81-1.79.07-.7,0-1.42,0-2.31Zm-60.2-11.8v2.76h3.9V11.31Zm32.68,7.58H58.55v2.29h4.36Zm7.85,2.28h4.68V19.11l-4.68-.39Zm17.78-2H83.47c0,.57-.07,1.17-.11,1.94h5.18Zm-23.68-.34v2.3h4.26c0-.7.09-1.37.15-2.3Zm-38.6-7.49H22.33c.12.89.23,1.72.35,2.65h3.58Zm26.37,7.47c0,.75-.08,1.43-.13,2.28h4V18.84ZM81.8,21.19v-2H77.43v2Zm8.57,0h4l.14-1.93H90.37ZM104,9.62h-.14V20.54l.14-.05Zm-18.78,6h2.36L86.32,13.9ZM70.88,23.38h-.13v3.79l.13.05Zm10.51-6.09V17.2H77.78l0,.09Zm-10-.11v.11h3.79l0-.11Zm-6.22,0v.07h3.69l0-.07Zm-6.2,0v.05H62.6v-.05Zm16.49,10h.1V23.47l-.1-.07ZM74.18,9.51c.8-.43,1.63-.83,1.34-2.09Zm1.16,5.64.3-.16c-.39-.61-.78-1.22-1.18-1.82a1.47,1.47,0,0,0-.35.09Zm-22.21,2v.06h3.11l0-.06Zm41,.08v-.06H90.82v.06Zm-8.85-.07v.06h2.92V17.2ZM73.42,15.65c-.35-1-.35-1-1.19,0Zm-13-.39,1.35.22L61,14.42Zm-2-3.28.2,0,.18-.88-.38-.05ZM98,23.25v-.14l-.71-.05v.15Zm-24.32,0v-.11h-.66v.08Zm23.44,1.91a1.45,1.45,0,0,0,.45.19c.07,0,.15-.17.39-.46Zm-47.86-.39-.66-.13,0,.26Zm23.62-.06v.1h.88v-.1ZM73,26.61v.1h.72v-.1Zm-23.72.1ZM73.18,11.52c0-.12,0-.24,0-.37h-.12v.37ZM63,11.41h-.18l0,.6H63ZM49,23.1l-.15,0v.09ZM75.52,11.66a.28.28,0,0,0,0-.15.35.35,0,0,0-.08-.13l0,.15Zm8.57,5.56H84v.06Zm4.34-6.47a.6.6,0,0,0,.09.15c0-.06,0-.12,0-.17s0-.1-.08-.15A.64.64,0,0,0,88.43,10.75Z"/><path class="a" d="M127.05,42.55a2.33,2.33,0,0,0-.92-2.78c-1.14-.87-2.4-1.58-3.61-2.36-.93-.61-1.91-1.14-2.79-1.82a2.67,2.67,0,0,1-.56-4,16.44,16.44,0,0,1,3.27-2.77c1.69-1.13,3.47-2.15,4.67-3.86.51-.73.89-1.56,1.45-2.56-4.65-.44-9,.16-13.34.18s-8.78,0-12.73,0A50,50,0,0,1,98,27c-2.44,1.87-5.45,2.17-8.41,2.2-9.71.11-19.43.12-29.14.16-3.27,0-6.54,0-9.81,0a12.71,12.71,0,0,1-6-1.63,8.86,8.86,0,0,1-4.77-6.22h-38C1.36,25,1.51,28.16,4.1,31c3.16,3.42,6.24,6.93,10.07,9.64a58.23,58.23,0,0,0,5.06,3,3.72,3.72,0,0,0,3.2.24c3.16-1.06,6.43-1.82,9.53-3,7-2.71,14.18-3.07,21.48-2.53A59.82,59.82,0,0,1,62.69,40a55.32,55.32,0,0,0,16.93,1.76,78.65,78.65,0,0,0,8.32-1.32,87.65,87.65,0,0,1,13.19-1.78,36.13,36.13,0,0,1,13.1,2.13,35.37,35.37,0,0,0,11,1.88C125.8,42.65,126.38,42.58,127.05,42.55Z"/><path class="a" d="M34.15,19.57V16l-3.29-.08c-2,0-2.07-.16-2.18-2.14-.05-.82-.2-1.64-.3-2.45l-.45,0a12.36,12.36,0,0,0-.19,1.36c0,.59,0,1.18,0,1.77-.08,1.13-.49,1.49-1.63,1.41s-2.48-.24-3.72-.27a1.31,1.31,0,0,1-1.48-1.42c0-.91,0-1.81,0-2.83H8.09c0,.87,0,1.76,0,2.65,0,1.68-.21,1.89-1.93,1.95-.46,0-.91,0-1.51,0v3.64Z"/><path class="a" d="M128.4,18.41H108.21v2.17c1.73.48,18.43.39,20.07-.14C128.31,19.85,128.35,19.22,128.4,18.41Z"/><path class="a" d="M94.39,5.44H90.13c-.09,3.35-.18,6.64.05,10.11h4.21Z"/><path class="a" d="M77.5,15.63h4.29V5.74H77.7C77.28,7.12,77.17,12.39,77.5,15.63Z"/><path class="a" d="M69.17,5.54a2.62,2.62,0,0,0-.49-.19c-3.73-.27-3.86-.16-3.91,3.54,0,2.09,0,4.18,0,6.35a10.93,10.93,0,0,0,4.41.07Z"/><path class="a" d="M6.68,8.52c.23.3.4.73.7.87a2.77,2.77,0,0,0,1.16.07H34.08c.51,0,1,0,1.62-.07V8.14H7Z"/><path class="a" d="M23.88,1.78H15.25V6.3l4.2,0h4.43Z"/><path class="a" d="M56.7,5.45l-4,.33v9.5h4c0-1.56,0-3.16.06-4.75S56.7,7.27,56.7,5.45Z"/><path class="a" d="M88.5,23.13h-5v4.36h5Z"/><path class="a" d="M77.34,23.14c-.12,1.54-.23,2.89-.34,4.35h4.76V23.14Z"/><path class="a" d="M62.91,27.58V23.11H58.5v4.47Z"/><path class="a" d="M56.58,23.07H52.43v4.81l4.15-.35Z"/><path class="a" d="M64.81,23.13V27.5h4.06V23.13Z"/><path class="a" d="M94.5,23.11H90.43v4.25l2.25-.15c1.35-.12,1.68-.43,1.81-1.79C94.56,24.72,94.5,24,94.5,23.11Z"/><path class="a" d="M34.13,11.31h-3.9v2.76h3.9Z"/><path class="a" d="M62.91,21.18V18.89H58.55v2.29Z"/><path class="a" d="M70.76,18.72v2.45h4.68V19.11Z"/><path class="a" d="M88.54,21.14V19.2H83.47c0,.57-.07,1.17-.11,1.94Z"/><path class="a" d="M69.27,18.86H64.86v2.3h4.26C69.17,20.46,69.21,19.79,69.27,18.86Z"/><path class="a" d="M26.26,14V11.37H22.33c.12.89.23,1.72.35,2.65Z"/><path class="a" d="M56.54,18.84H52.63c0,.75-.08,1.43-.13,2.28h4Z"/><path class="a" d="M77.43,21.19H81.8v-2H77.43Z"/><path class="a" d="M90.37,19.22v1.93h4l.14-1.93Z"/><path class="a" d="M104,20.49V9.62h-.14V20.54Z"/><path class="a" d="M86.32,13.9l-1.15,1.71h2.36Z"/><path class="a" d="M70.88,27.21V23.38h-.13v3.79Z"/><path class="a" d="M77.74,17.29h3.65V17.2H77.78Z"/><path class="a" d="M75.2,17.18H71.38v.11h3.79Z"/><path class="a" d="M68.83,17.2H65.16v.07h3.69Z"/><path class="a" d="M62.6,17.21H59v.05H62.6Z"/><path class="a" d="M75.45,23.4v3.85h.1V23.47Z"/><path class="a" d="M71,7.58c-.43,1,0,1.7,1,2.31A2.77,2.77,0,0,0,71,7.6Z"/><path class="a" d="M75.52,7.42,74.18,9.51C75,9.08,75.81,8.68,75.52,7.42Z"/><path class="a" d="M74.11,13.26l1.23,1.89.3-.16c-.39-.61-.78-1.22-1.18-1.82A1.47,1.47,0,0,0,74.11,13.26Z"/><path class="a" d="M56.2,17.19H53.13v.06h3.11Z"/><path class="a" d="M90.83,17.27h3.31v-.06H90.82Z"/><path class="a" d="M88.21,17.2H85.29v.06h2.92Z"/><path class="a" d="M72.23,15.65h1.19C73.07,14.67,73.07,14.67,72.23,15.65Z"/><path class="a" d="M61,14.42l-.55.84,1.35.22Z"/><path class="a" d="M58.48,11.08V12l.2,0,.18-.88Z"/><path class="a" d="M97.31,23.21l.71,0v-.14l-.71-.05Z"/><path class="a" d="M84.36,8.77,83.57,7.6l0,0,.79,1.17Z"/><path class="a" d="M73,23.19l.66,0v-.11h-.66Z"/><path class="a" d="M83.58,11.51l.12-.83-.36,0,.26.83Z"/><path class="a" d="M84.78,13.12,84,14.29l0,0,.78-1.17Z"/><path class="a" d="M98,24.86l-.84.27a1.45,1.45,0,0,0,.45.19C97.66,25.33,97.74,25.15,98,24.86Z"/><path class="a" d="M48.6,24.87l.68-.13-.66-.13Z"/><path class="a" d="M71.36,13.88l.65-.71L71.8,13l-.42.87Z"/><path class="a" d="M73.78,24.68H72.9v.1h.88Z"/><path class="a" d="M84,14.29l-.67.65.23.17.42-.84Z"/><path class="a" d="M73.69,26.61H73v.1h.72Z"/><path class="a" d="M49.25,26.71Z"/><path class="a" d="M73.07,11.52h.11c0-.12,0-.24,0-.37h-.12Z"/><path class="a" d="M63,12v-.6h-.18l0,.6Z"/><path class="a" d="M84.38,8.75l.28.67.24-.16-.54-.49Z"/><polygon class="a" points="48.87 23.16 49.01 23.1 48.86 23.07 48.87 23.16"/><path class="a" d="M87.52,8.76,87.93,8h0l-.39.8Z"/><path class="a" d="M75.44,11.53l.08.13a.28.28,0,0,0,0-.15.35.35,0,0,0-.08-.13Z"/><polygon class="a" points="83.95 17.27 84.09 17.22 83.95 17.21 83.95 17.27"/><path class="a" d="M88.48,10.58a.64.64,0,0,0,0,.17.6.6,0,0,0,.09.15c0-.06,0-.12,0-.17S88.51,10.63,88.48,10.58Z"/><path class="a" d="M84.75,13.1c.09-.12.18-.24,0-.07.07-.2,0-.06,0,.09Z"/><path class="a" d="M87.53,12.7l.39.78v0l-.39-.78Z"/><polygon class="a" points="58.75 8.38 58.85 8.46 58.77 8.36 58.75 8.38"/><path class="a" d="M87.52,8.77l-.13.09.13-.1Z"/><polygon class="a" points="58.77 8.36 58.67 8.28 58.75 8.38 58.77 8.36"/><polygon class="a" points="87.93 7.98 88.02 7.88 87.91 7.97 87.93 7.98"/><path class="a" d="M71,7.6l-.07-.12.09.1Z"/><path class="a" d="M83.57,7.6l-.06-.13.08.11Z"/><path class="a" d="M71.38,13.89l-.13.08.11-.09Z"/><polygon class="a" points="88.3 13.89 88.42 13.98 88.31 13.88 88.3 13.89"/><path class="a" d="M88.31,13.88l-.4-.38v0l.38.41Z"/><path class="a" d="M87.52,12.72l-.09-.12.1.1Z"/><path class="a" d="M83.6,11.53l-.13.06.11-.08Z"/><text/></svg>