<svg xmlns="http://www.w3.org/2000/svg" viewBox="0 0 1829.17 919.33"><defs><style>.a{fill:#fff;stroke:#000;stroke-miterlimit:10;stroke-width:3px;}</style></defs><title>PGE</title><path class="a" d="M1739.51,205.57c15.09-11,24.69-42.51,0-64.45s-53.48-9.6-60.34,0c0,0,2.75-37-43.88-46.63s-76.79,35.66-56.22,64.46c0,0-54.86,1.37-39.77,46.62Z"/><path class="a" d="M1827.39,714.57c3.43-51.7-25.6-87-76.11-101.24-18.45-5.21-57.09-3.77-76.15,0-9.32-62.8-83.52-124.46-173.72-116-63,5.92-116.39,46.69-134.43,107-16.27-9.47-52.91-28.3-101.75-9.44-35.4,13.67-50.31,37.84-55.55,54.7-25.2-8.8-59.4-12-81.62,2.31-33.84,21.8-46.77,66.19-35.21,102.57h723A99.22,99.22,0,0,0,1827.39,714.57Z"/><path class="a" d="M824.79,184.86s-29.13-38.44-7.62-81.92c36.17-73.07,147.44-36.89,147.44-36.89s-2.88-63.7,81.07-64.54C1155,.42,1151.18,69,1151.18,69s53.28-10,83.93,12.16c35.07,25.36,30.06,55.62,30.06,55.62s60.14-12.08,57.13,48.08Z"/><path class="a" d="M1548.46,337.14s31.76-34.66,0-81.93c-45.47-67.67-135.33-39.78-135.33-39.78s-20.52-61.64-93.18-61.64c-92.6,0-105.49,67.49-105.49,67.49s-53.28-10-83.93,12.15c-35.07,25.37-30.07,55.63-30.07,55.63s-60.13-12.09-57.12,48.08Z"/><path class="a" d="M984.64,445.21c-3.5-31.59,7.47-60.87,64.62-68.54,54.76-7.34,80.9,43.67,80.9,43.67s46-25.33,78-3.78,26.71,49.6,26.71,49.6h-232.4S986.35,460.59,984.64,445.21Z"/><path class="a" d="M432.61,886.31c-2.71-40.86,20.23-68.76,60.15-80,14.57-4.11,45.11-3,60.17,0,7.37-49.62,66-98.36,137.28-91.66,49.81,4.69,92,36.9,106.23,84.55,12.86-7.49,41.82-22.37,80.41-7.46,28,10.8,39.76,29.9,43.9,43.22,19.91-7,46.94-9.48,64.5,1.83,26.74,17.22,37,52.31,27.82,81.05H441.74A78.36,78.36,0,0,1,432.61,886.31Z"/><path class="a" d="M471.76,765.11s31.5-33.61,0-76.25c-33.58-45.46-89.55-9.07-89.55-9.07s-8.4-85.3-123.14-85.33-118.94,85.33-118.94,85.33-19.59-25.19-57.37-11.2-28,51.77-28,51.77-56-11.24-53.17,44.75Z"/><path class="a" d="M581.46,324.66c49.17-23.67,79.95,14.23,79.95,14.23s9.08-64.55,86.29-79.12,110.59,52,110.59,52,27-55.37,77.21-65.77c35.14-7.29,64.76,2.43,86.62,21,65.69,56-6.07,134-6.07,134H552.32S532.28,348.34,581.46,324.66Z"/></svg>