<svg xmlns="http://www.w3.org/2000/svg" viewBox="0 0 79.41 8.21"><title>PGE</title><path d="M65.59,5.46C61,8.17,56.33,8.53,51.56,8a26.66,26.66,0,0,1-6-1.67A24.13,24.13,0,0,0,34.46,4.58,33.28,33.28,0,0,0,29,5.9a39.37,39.37,0,0,1-8.61,1.78,16.4,16.4,0,0,1-8.56-2.13A16.12,16.12,0,0,0,7.1,3.91c-.35-.07-.69-.05-1-.13a10.93,10.93,0,0,0-2.91-.11c-.39,0-.78.08-1.17.12s-.83,0-1.25.11S0,3.89,0,3.22a1.07,1.07,0,0,1,.58-.78A20.37,20.37,0,0,1,3.77,2a17.32,17.32,0,0,1,8.68,2.15A15.27,15.27,0,0,0,17.69,5.9,26.92,26.92,0,0,0,28.13,4.5a50,50,0,0,1,6.56-1.66,20.63,20.63,0,0,1,8,.9c3.28.82,6.47,2.31,9.82,2.74a17.23,17.23,0,0,0,8.53-.8,77.08,77.08,0,0,0,9-4.24A14.44,14.44,0,0,1,78.23.06a1.15,1.15,0,0,1,.82.3,1.38,1.38,0,0,1,.32,1.17l0,0c-.13.15-.26.11-.41.11H77.4c-.36,0-.72,0-1.07,0l-1.22.06a15.08,15.08,0,0,0-2.49.35,2.55,2.55,0,0,0-.52.15,2.65,2.65,0,0,0-.41.21c-.51.28-1,.55-1.55.8-.8.36-1.59.71-2.39,1.09S66.3,5,65.59,5.46Z"/></svg>