<svg xmlns="http://www.w3.org/2000/svg" viewBox="0 0 429.52 733.09"><defs><style>.a{fill:#fff;}</style></defs><title>PGE</title><path class="a" d="M41.33,403.73c-.69-.19-1.71-.75-2-.49a3.18,3.18,0,0,0-1.15,2.22c.1,2.25,1.27,3.89,3.12,5.38,3.88,3.11,8.69,3.28,13.2,4.41a5.56,5.56,0,0,1,3.22,1.64A8.41,8.41,0,0,0,62,419.06c4.49,1,8.41-.65,12-3.09A17.35,17.35,0,0,1,80,413.4c4.41-1,9.19-4,9.12-10.71,0-1.53.67-3.06,1-4.57,5.41,1.93,10.35,3.73,15.32,5.44a25.52,25.52,0,0,0,4.51,1.07c1,.16,2.11-.08,2.2-2-1-.4-2.08-.91-3.23-1.3-4.4-1.47-8.83-2.86-13.21-4.38-1.22-.43-2.66-.73-3.59-2.49a7.25,7.25,0,0,1,2.09-.06c1.08.4,2.07,1.05,3.15,1.48,3.21,1.26,4.64.29,4.61-3.71a48.86,48.86,0,0,0,2.68,4.64,5.86,5.86,0,0,0,2.48,2.11,38.18,38.18,0,0,0,6.36,1.59c.54.1,1.23-.56,1.84-.87-.33-.61-.51-1.53-1-1.78a11.31,11.31,0,0,0-3.69-1.05,5.23,5.23,0,0,1-4.17-3,4.38,4.38,0,0,1-.22-4.94,3.25,3.25,0,0,0,.38-2.17,14.5,14.5,0,0,0-8.46-10.27c-2.84-1.31-5.85,0-6.24,2.59-.61,4,0,7.84,3.19,10.85.87.82,1.82,1.55,3.1,2.62-4.26-1.43-4.23-1.44-5.8-4.69a8.25,8.25,0,0,0-1.67-2.53A4.89,4.89,0,0,1,89,381.67c-.2-4.07-2.49-6.89-6.27-8.34a6.68,6.68,0,0,1-4-3.56c-2.78-5.67-8.13-7.26-14-4.85A15,15,0,0,1,58,366.28a11.57,11.57,0,0,0-4.25.18,3.76,3.76,0,0,1-4.17-1.15c-4.2-4.11-8.25-8.37-12.42-12.51-1-.95-1.58-3.44-3.43-1.95-1.54,1.24.1,2.77,1.11,3.84,4.55,4.82,9.15,9.58,13.9,14.54L47,372.18l-5.43-.69a18,18,0,0,1,3.1-.38c.68-.1,1.66-.42,1.86-.9a2.14,2.14,0,0,0-.66-1.92,72.39,72.39,0,0,1-13-13c-.41-.52-1.48-.55-2.25-.81-.07.81-.5,1.85-.15,2.4a42.67,42.67,0,0,0,4,5.08c1.88,2,3.9,3.93,5.73,5.76l-3.82,3.15c1.82,3.72,5.2,3.6,8.3,4.4a14.47,14.47,0,0,1-1,1.18,11.67,11.67,0,0,0-4.26,8.62c0,.84-.91,1.65-1.37,2.49-.83,1.53-2.13,3-2.36,4.63a9.14,9.14,0,0,0,4.21,9.49c.65.43,1,1.36,1.4,2.06Z"/><path d="M41.29,403.76c-.45-.7-.75-1.63-1.4-2.06a9.14,9.14,0,0,1-4.21-9.49c.23-1.62,1.53-3.1,2.36-4.63.46-.84,1.36-1.65,1.37-2.49a11.67,11.67,0,0,1,4.26-8.62,14.47,14.47,0,0,0,1-1.18c-3.1-.8-6.48-.68-8.3-4.4l3.82-3.15c-1.83-1.83-3.85-3.73-5.73-5.76a42.67,42.67,0,0,1-4-5.08c-.35-.55.08-1.59.15-2.4.77.26,1.84.29,2.25.81a72.39,72.39,0,0,0,13,13,2.14,2.14,0,0,1,.66,1.92c-.2.48-1.18.8-1.86.9a18,18,0,0,0-3.1.38l5.43.69,1.68-2.95c-4.75-5-9.35-9.72-13.9-14.54-1-1.07-2.65-2.6-1.11-3.84,1.85-1.49,2.47,1,3.43,1.95,4.17,4.14,8.22,8.4,12.42,12.51a3.76,3.76,0,0,0,4.17,1.15,11.57,11.57,0,0,1,4.25-.18,15,15,0,0,0,6.69-1.36c5.92-2.41,11.27-.82,14,4.85a6.68,6.68,0,0,0,4,3.56c3.78,1.45,6.07,4.27,6.27,8.34a4.89,4.89,0,0,0,1.68,3.64,8.25,8.25,0,0,1,1.67,2.53c1.57,3.25,1.54,3.26,5.8,4.69-1.28-1.07-2.23-1.8-3.1-2.62-3.19-3-3.8-6.82-3.19-10.85.39-2.56,3.4-3.9,6.24-2.59a14.5,14.5,0,0,1,8.46,10.27,3.25,3.25,0,0,1-.38,2.17,4.38,4.38,0,0,0,.22,4.94,5.23,5.23,0,0,0,4.17,3,11.31,11.31,0,0,1,3.69,1.05c.52.25.7,1.17,1,1.78-.61.31-1.3,1-1.84.87a38.18,38.18,0,0,1-6.36-1.59,5.86,5.86,0,0,1-2.48-2.11,48.86,48.86,0,0,1-2.68-4.64c0,4-1.4,5-4.61,3.71-1.08-.43-2.07-1.08-3.15-1.48a7.25,7.25,0,0,0-2.09.06c.93,1.76,2.37,2.06,3.59,2.49,4.38,1.52,8.81,2.91,13.21,4.38,1.15.39,2.26.9,3.23,1.3-.09,1.92-1.15,2.16-2.2,2a25.52,25.52,0,0,1-4.51-1.07c-5-1.71-9.91-3.51-15.32-5.44-.36,1.51-1,3-1,4.57.07,6.75-4.71,9.66-9.12,10.71A17.35,17.35,0,0,0,74,416c-3.61,2.44-7.53,4.11-12,3.09a8.41,8.41,0,0,1-4.29-2.17,5.56,5.56,0,0,0-3.22-1.64c-4.51-1.13-9.32-1.3-13.2-4.41-1.85-1.49-3-3.13-3.12-5.38a3.18,3.18,0,0,1,1.15-2.22c.31-.26,1.33.3,2,.49.35,4.7,2.2,6.23,6.88,5.81a2.5,2.5,0,0,1,1.71.55c3.09,2.66,6.83,2.72,10.6,2.58,2-.07,3.17-1.3,2.9-3.16-.51-3.46-1.24-6.89-1.88-10.33l.25-.16-.21.2a16.64,16.64,0,0,0-2.22,7.5c-.06,2.25-1.63,3.66-3,2.7-1.73-1.23-3.49-.66-5.16-.78C47.13,408.34,43.69,407.16,41.29,403.76Zm26.5-5.31-.14-.09c-.39-.09-.1,0,.18.05a8.61,8.61,0,0,0,1.4,2.17c1.94,1.65,4.1,3.06,6,4.76a3,3,0,0,1,.91,2.55,3.26,3.26,0,0,1-2.28,1.65,2.49,2.49,0,0,1-2.07-1.25c-.72-3.72-4.33-4.75-6.85-7.8.21,3.49.34,6.23,2,8.55,1.24,1.74,1,2.94-.73,4.1-1.4.91-2.71,2-4.52,3.29a38.47,38.47,0,0,0,4.64-.05c.83-.12,2.24-.67,2.29-1.14.38-3.27,3-2.86,5.17-3.35a8.35,8.35,0,0,0,6-5.4,5.28,5.28,0,0,0-4.35-7C72.91,399.06,70.35,398.78,67.79,398.45Zm0-6.87a107.19,107.19,0,0,0,9.58-4.82c2-1.23,3.59-1.82,5.68-.65a10.06,10.06,0,0,0,2,.63c2.61-7-1.11-11.92-8.1-10.81a10.42,10.42,0,0,0-5.15,3c-1.17,1.15-2.1,1.69-3.63,1-1.63,3.11-3.11,6-3,9.52,2.72-3.44,7.25-5,9.37-9a2.85,2.85,0,0,1,2.63-.62,3.45,3.45,0,0,1,1.63,2.26,2.11,2.11,0,0,1-1.62,2.66c-4.18.95-6.73,4-9.41,6.84l-.19.13Zm-11.21-1.5A60.48,60.48,0,0,0,52.5,385c-1.49-1.49-2-2.74-.36-4,1.87-1.43,1.24-2.7.65-4.22-4.33-.85-7.06,1.26-9.17,4.38-3.07,4.52-.35,8,2.18,11.28Zm11.33,4.79a8,8,0,0,0,1.67.6c2.69.11,5.24,2.29,8.12.29,1-.68,3.08.54,3.34,1.83.73,3.68,3,7.14,1.22,11.34a5.19,5.19,0,0,0,3.53-5.83c-.3-2.25.49-4.19.82-6.22.67-4.05.4-5-3.51-7.26-1.58,1.24-3,2.78-5.47,1.58a3.2,3.2,0,0,0-2.2.31C73.08,392.49,70.77,393.58,67.91,394.87Zm-8.28-3.47c-.34,1.76-1.54,1.82-2.94,1.93-3.6.3-7.23.72-10.28,2.85-3.4,2.38-3.47,5,.06,8.32-.64-1.93-.39-3,1.47-3.48.87-.2,1.57-1.1,2.33-1.72,2.07-1.7,4.08-3.47,6.2-5.11.85-.65,2.1-.91,2.64.26.23.5-.34,1.64-.89,2.15-1.57,1.49-3.39,2.72-4.95,4.21-1.27,1.21-2.52,2.55-2.44,4.5,4,.85,4.92.36,6.09-3,.25-.72.57-1.41.8-2.13.89-2.69,2.11-4.91,5.67-4.06.18.05.44-.21.89-.45-.23-1.12-.48-2.31-.74-3.54ZM72.2,374.7a5.74,5.74,0,0,0-4.4-2.7,15.2,15.2,0,0,0-8.6,1.67,5,5,0,0,0-2.9,5c.05,1.24.22,2.49.2,3.74,0,2.68,0,2.77,2.65,5.19-.81-3.18.57-6.09-1.3-8.82a2.67,2.67,0,0,1,.56-2.6,3,3,0,0,1,2.73-.13,3.15,3.15,0,0,1,1.18,2.47c-.11,2.76-.5,5.51-.79,8.26,1-3.24,3.62-5.89,3.25-9.56-.19-1.89,2-2.73,4-1.84a18.41,18.41,0,0,1,1.63.94Zm28.37,15.08c3.37-2.08,3.68-3.14,1.38-5.94a31.51,31.51,0,0,0-4.43-4.2c-.49-.4-1.72-.67-2-.39a3,3,0,0,0-.92,2.24C95.07,385.13,96.3,388.37,100.57,389.78ZM64,368.78c5.33-.59,8.74,1.4,11.84,4.63C75.92,367.42,70.65,365.25,64,368.78Zm-3.78.55c-5.73-.65-7.94.25-9.73,3.74l3.57.82ZM40.89,398.72c.44-2.46.76-4.26,1.15-6.47l-2-2.35C37.69,393.53,37.73,394.16,40.89,398.72ZM87,388l3.17,4.25C89.82,388.51,89.33,387.81,87,388Z"/><path class="a" d="M67.81,391.6c2.68-2.87,5.23-5.89,9.41-6.84a2.11,2.11,0,0,0,1.62-2.66,3.45,3.45,0,0,0-1.63-2.26,2.85,2.85,0,0,0-2.63.62c-2.12,4-6.65,5.52-9.37,9-.11-3.48,1.37-6.41,3-9.52,1.53.69,2.46.15,3.63-1a10.42,10.42,0,0,1,5.15-3c7-1.11,10.71,3.85,8.1,10.81a10.06,10.06,0,0,1-2-.63c-2.09-1.17-3.71-.58-5.68.65a107.19,107.19,0,0,1-9.58,4.82Z"/><path class="a" d="M56.58,390.08,45.8,392.45c-2.53-3.26-5.25-6.76-2.18-11.28,2.11-3.12,4.84-5.23,9.17-4.38.59,1.52,1.22,2.79-.65,4.22-1.61,1.24-1.13,2.49.36,4A60.48,60.48,0,0,1,56.58,390.08Z"/><path class="a" d="M67.79,398.45c2.56.33,5.12.61,7.67,1a5.28,5.28,0,0,1,4.35,7,8.35,8.35,0,0,1-6,5.4c-2.17.49-4.79.08-5.17,3.35,0,.47-1.46,1-2.29,1.14a38.47,38.47,0,0,1-4.64.05c1.81-1.33,3.12-2.38,4.52-3.29,1.77-1.16,2-2.36.73-4.1-1.66-2.32-1.79-5.06-2-8.55,2.52,3.05,6.13,4.08,6.85,7.8a2.49,2.49,0,0,0,2.07,1.25,3.26,3.26,0,0,0,2.28-1.65,3,3,0,0,0-.91-2.55c-1.88-1.7-4-3.11-6-4.76a8.61,8.61,0,0,1-1.4-2.17Z"/><path class="a" d="M67.91,394.87c2.86-1.29,5.17-2.38,7.52-3.36a3.2,3.2,0,0,1,2.2-.31c2.42,1.2,3.89-.34,5.47-1.58,3.91,2.29,4.18,3.21,3.51,7.26-.33,2-1.12,4-.82,6.22a5.19,5.19,0,0,1-3.53,5.83c1.77-4.2-.49-7.66-1.22-11.34-.26-1.29-2.37-2.51-3.34-1.83-2.88,2-5.43-.18-8.12-.29A8,8,0,0,1,67.91,394.87Z"/><path class="a" d="M59.63,391.4l3.91.72c.26,1.23.51,2.42.74,3.54-.45.24-.71.5-.89.45-3.56-.85-4.78,1.37-5.67,4.06-.23.72-.55,1.41-.8,2.13-1.17,3.37-2.12,3.86-6.09,3-.08-1.95,1.17-3.29,2.44-4.5,1.56-1.49,3.38-2.72,4.95-4.21.55-.51,1.12-1.65.89-2.15-.54-1.17-1.79-.91-2.64-.26-2.12,1.64-4.13,3.41-6.2,5.11-.76.62-1.46,1.52-2.33,1.72-1.86.44-2.11,1.55-1.47,3.48-3.53-3.36-3.46-5.94-.06-8.32,3.05-2.13,6.68-2.55,10.28-2.85C58.09,393.22,59.29,393.16,59.63,391.4Z"/><path class="a" d="M72.2,374.7l-1.84,1.59a18.41,18.41,0,0,0-1.63-.94c-1.93-.89-4.14-.05-4,1.84.37,3.67-2.22,6.32-3.25,9.56.29-2.75.68-5.5.79-8.26A3.15,3.15,0,0,0,61.14,376a3,3,0,0,0-2.73.13,2.67,2.67,0,0,0-.56,2.6c1.87,2.73.49,5.64,1.3,8.82-2.7-2.42-2.7-2.51-2.65-5.19,0-1.25-.15-2.5-.2-3.74a5,5,0,0,1,2.9-5A15.2,15.2,0,0,1,67.8,372,5.74,5.74,0,0,1,72.2,374.7Z"/><path class="a" d="M61.54,399.18c.64,3.44,1.37,6.87,1.88,10.33.27,1.86-.92,3.09-2.9,3.16-3.77.14-7.51.08-10.6-2.58a2.5,2.5,0,0,0-1.71-.55c-4.68.42-6.53-1.11-6.88-5.81l0,0c2.4,3.4,5.84,4.58,9.93,4.88,1.67.12,3.43-.45,5.16.78,1.35,1,2.92-.45,3-2.7a16.64,16.64,0,0,1,2.22-7.5Z"/><path class="a" d="M100.57,389.78c-4.27-1.41-5.5-4.65-6-8.29a3,3,0,0,1,.92-2.24c.31-.28,1.54,0,2,.39a31.51,31.51,0,0,1,4.43,4.2C104.25,386.64,103.94,387.7,100.57,389.78Z"/><path class="a" d="M64,368.78c6.7-3.53,12-1.36,11.84,4.63C72.69,370.18,69.28,368.19,64,368.78Z"/><path class="a" d="M60.17,369.33,54,373.89l-3.57-.82C52.23,369.58,54.44,368.68,60.17,369.33Z"/><path class="a" d="M40.89,398.72c-3.16-4.56-3.2-5.19-.83-8.82l2,2.35C41.65,394.46,41.33,396.26,40.89,398.72Z"/><path class="a" d="M87,388c2.33-.22,2.82.48,3.17,4.25Z"/><path class="a" d="M67.83,398.41c-.28-.07-.57-.14-.18-.05l.14.09Z"/><polygon class="a" points="61.58 399.22 61.79 399.02 61.54 399.18 61.58 399.22"/><polygon class="a" points="67.79 391.58 67.62 391.73 67.81 391.6 67.79 391.58"/></svg>