<svg xmlns="http://www.w3.org/2000/svg" viewBox="0 0 429.52 733.09"><defs><style>.a{fill:#fff;}</style></defs><title>PGE</title><path class="a" d="M248.54,231.28c6.46-5.21,17.27-9.76,22.16-9.33-1.45,4.38-1.44,4.41-5.69,4.52a29.69,29.69,0,0,0-12.25,3c-1.38.67-2.84,1.16-4.26,1.72Z"/><path class="a" d="M280.05,227.39l-7.71-1c.81-1.7,1.56-3.25,2.27-4.75C279.18,222.61,280,223.37,280.05,227.39Z"/><path class="a" d="M248.5,231.23l-2.33,1.53,0,0,2.33-1.51Z"/><polygon class="a" points="243.08 235.07 242.96 235.15 243.06 235.05 243.08 235.07"/><path class="a" d="M243.06,235.05l.79-.74h0l-.76.77Z"/><path class="a" d="M243.85,234.31l.17-.21-.18.2Z"/><path class="a" d="M246.17,232.76,246,233l.21-.23Z"/><path class="a" d="M281.56,313.77a1.92,1.92,0,0,1-3,.29c-.82-.61-1.59-1.3-2.44-1.87-3.08-2.05-5.3-1.78-7.87.88-2.38,2.46-3.45,2.44-5.51-.14-3.58-4.46-5.76-4.87-10.76-2-.41.24-.84.44-2,1a10.18,10.18,0,0,1,1-2.5Q256,304,261,298.75a9.25,9.25,0,0,1,2.52-1.73c3.42-1.74,5.45-1.44,7.9,1.38a55.3,55.3,0,0,1,4.62,6.08C278,307.47,279.69,310.6,281.56,313.77Z"/><path class="a" d="M269.56,266.2c-3.11-2-4.93.43-6.87,2.09-4.89-4.85-5-4.86-11.86-1.5,2.06-3.2,3.85-5.81,6.57-7.65,2.51-1.7,5.1-1.56,7,.53s3.44,4.36,5.14,6.55Z"/><polygon class="a" points="269.53 266.23 269.74 266.4 269.56 266.2 269.53 266.23"/><path class="a" d="M233.67,255.8c1.8-3.37,3.58-6,4.69-9,1.62-4.28,3.82-7.94,8.06-10.17,3-1.55,5.85-3.27,8.86-4.7a27,27,0,0,1,12-2.58c3.6.05,7.18.77,10.78,1.06,4.3.35,6.49-2.59,5.11-6.53a7.81,7.81,0,0,0-5.09-4.83c-4.23-1.57-8.37-.82-12.56.3-7,1.87-12.95,5.65-19,9.31a22.7,22.7,0,0,1-4,2.27c-4.59,1.61-9.3,2.89-13.85,4.57-6.23,2.29-11.9,2.72-17.25-2.25-3.4-3.16-7.75-3.72-12.34-2.21-4.4,1.44-7.43,4.49-10.19,7.88-.4.48-.3,1.35-.41,1.93.33.24.43.38.53.38,1.14,0,2.28,0,3.42,0,4.4,0,6.22,1.14,7.88,5.1.15.35.29.7.46,1,3,5.73,7,10.28,13.92,11.53l9.92,1.76c-2,1.22-3.66,1.8-6.1.84-2-.8-4.51-.65-6.8-.7-.47,0-1.29.9-1.38,1.47-.21,1.29,2.73,4.22,4,3.89,3.53-.93,6.63-.64,9.32,2a1.87,1.87,0,0,0,1.72,0,2.75,2.75,0,0,0,.33-2,6.5,6.5,0,0,0-1.16-1.83c1.44-.87,2.69-1.53,3.83-2.34,1.67-1.16.18-2.36-.41-3.54,1.42-.44,2.4-1.62,3.76-.52-2.16,2.74-2.49,3.54-1.58,4,2,1.12,3.07-.81,4.31-1.65,2.16-1.45,2.13-2.36.31-4.19A2.82,2.82,0,0,0,233.67,255.8Z"/><path d="M233.67,255.8a2.82,2.82,0,0,1,1.09.51c1.82,1.83,1.85,2.74-.31,4.19-1.24.84-2.3,2.77-4.31,1.65-.91-.51-.58-1.31,1.58-4-1.36-1.1-2.34.08-3.76.52.59,1.18,2.08,2.38.41,3.54-1.14.81-2.39,1.47-3.83,2.34a6.5,6.5,0,0,1,1.16,1.83,2.75,2.75,0,0,1-.33,2,1.87,1.87,0,0,1-1.72,0c-2.69-2.67-5.79-3-9.32-2-1.26.33-4.2-2.6-4-3.89.09-.57.91-1.48,1.38-1.47,2.29.05,4.76-.1,6.8.7,2.44,1,4.13.38,6.1-.84L214.7,259c-6.9-1.25-10.92-5.8-13.92-11.53-.17-.34-.31-.69-.46-1-1.66-4-3.48-5.14-7.88-5.1-1.14,0-2.28,0-3.42,0-.1,0-.2-.14-.53-.38.11-.58,0-1.45.41-1.93,2.76-3.39,5.79-6.44,10.19-7.88,4.59-1.51,8.94-1,12.34,2.21,5.35,5,11,4.54,17.25,2.25,4.55-1.68,9.26-3,13.85-4.57a22.7,22.7,0,0,0,4-2.27c6.05-3.66,12-7.44,19-9.31,4.19-1.12,8.33-1.87,12.56-.3a7.81,7.81,0,0,1,5.09,4.83c1.38,3.94-.81,6.88-5.11,6.53-3.6-.29-7.18-1-10.78-1.06a27,27,0,0,0-12,2.58c-3,1.43-5.89,3.15-8.86,4.7-4.24,2.23-6.44,5.89-8.06,10.17C237.25,249.76,235.47,252.43,233.67,255.8Zm10.18-21.49-.79.74-.1.1.12-.08.76-.77.18-.2Zm-16.37,8.33,1.56-.76,2.31-1.53,1.58-.74.16-.18-.15.2-1.56.77-2.31,1.53-1.55.76c-.3.07-.6.15-.18,0Zm.05,3.87,2.29-.83,1.55-.2-.13-.39-1.39.63-2.41.7-.12.38Zm18.64-13.75,2.33-1.53c1.42-.56,2.88-1,4.26-1.72a29.69,29.69,0,0,1,12.25-3c4.25-.11,4.24-.14,5.69-4.52-4.89-.43-15.7,4.12-22.16,9.33l-2.33,1.51L246,233Zm-8.53,7.65-2,1c1.58.71,1.73-.2,2-1l.14-.29Zm-5.46,11.39c-.87.2-1.77.31-2.61.59-5.76,1.9-11.13.85-16.24-2-1.6-.9-3-2-2-4.15,2.92-.26,5.7-.42,8.45-.79a7,7,0,0,0,2.26-1.25l.18-.21-.14.26c-1.94,0-3.88.12-5.82.09-1.14,0-2.18-.61-1.87-1.82.12-.48,1.35-.87,2.13-1,1.58-.22,3.21-.23,4.81-.33-4.5-.89-8.38-2.35-11.77-5.47-3.19-2.94-7.07-3-10.95-1,1.42,3.08,3,5.93,4.08,9,2.42,7,6.81,11.42,14.61,12.85,6.11,1.12,10.93-.09,14.87-4.73l.19-.23Zm47.87-24.41c-.1-4-.87-4.78-5.44-5.78-.71,1.5-1.46,3-2.27,4.75Zm-56.44,20.15L218.42,249C220.47,249.59,222.18,250.48,223.61,247.54Zm-26.45-9c-1.68-1.69-1.69-1.71-2.86-1-.23.14-.28.58-.46,1Z"/><path class="a" d="M222,244.16a7,7,0,0,1-2.26,1.25c-2.75.37-5.53.53-8.45.79-1,2.14.43,3.25,2,4.15,5.11,2.89,10.48,3.94,16.24,2,.84-.28,1.74-.39,2.61-.59l0,0c-3.94,4.64-8.76,5.85-14.87,4.73-7.8-1.43-12.19-5.82-14.61-12.85-1-3-2.66-5.88-4.08-9,3.88-2,7.76-1.93,10.95,1,3.39,3.12,7.27,4.58,11.77,5.47-1.6.1-3.23.11-4.81.33-.78.11-2,.5-2.13,1-.31,1.21.73,1.8,1.87,1.82,1.94,0,3.88-.06,5.82-.09Zm-18.29-9.38c-.52.66-1.12,1.1-1.13,1.55s.61.85.95,1.28c.47-.43,1.14-.79,1.32-1.32C205,236,204.24,235.44,203.72,234.78Z"/><path class="a" d="M223.61,247.54c-1.43,2.94-3.14,2.05-5.19,1.47Z"/><path class="a" d="M197.16,238.54h-3.32c.18-.41.23-.85.46-1C195.47,236.83,195.48,236.85,197.16,238.54Z"/><path class="a" d="M237.59,240.37c-.23.8-.38,1.71-2,1l2-1Z"/><path class="a" d="M229.07,241.93l2.31-1.53,0-.05L229,241.88Z"/><path class="a" d="M229.85,245.72l1.39-.63.13.39-1.55.2Z"/><path class="a" d="M227.44,246.42l2.41-.7,0,0-2.29.83Z"/><path class="a" d="M232.93,239.61l-1.58.74,0,.05,1.56-.77Z"/><path class="a" d="M227.52,242.69l1.55-.76,0-.05-1.56.76Z"/><path class="a" d="M227.48,242.64l-.14.09c-.42.11-.12,0,.18,0Z"/><polygon class="a" points="232.18 251.8 232.32 251.54 232.13 251.77 232.18 251.8"/><path class="a" d="M222.05,244.21l.13-.26-.17.21Z"/><path class="a" d="M237.64,240.41l.09-.33-.14.29Z"/><path class="a" d="M232.94,239.63l.15-.2-.16.18Z"/><path class="a" d="M227.53,246.51l-.21.29.12-.38Z"/><path class="a" d="M223.23,194.69c8.25-2,10.53-7.63,9.83-12.79s-5.83-9.57-11.72-9.68c-5-.1-10.38,2.56-11.8,9-1.27,5.79,2.43,10.93,9.81,13.58a9.63,9.63,0,0,0,.29,2.49c.23.57,1,1.31,1.48,1.33a2.31,2.31,0,0,0,1.64-1.19A9.73,9.73,0,0,0,223.23,194.69Z"/><path class="a" d="M174.08,210.6c8.11-3.72,11.17-8.06,9.82-13.87-1.08-4.65-5.6-8.08-10.79-8.2-6.13-.13-10.66,3.07-12.08,8.53-1.54,5.94.84,9.46,9.29,13.64a21.76,21.76,0,0,0,.24,3.28c.11.5.8,1.29,1.15,1.26a2.33,2.33,0,0,0,1.75-1A19.38,19.38,0,0,0,174.08,210.6Z"/><path class="a" d="M191.79,185.62c7.72-3.34,11.06-7.61,10.05-12.73s-5.5-8.4-11.16-8.74c-4.9-.3-11,3-12.25,8.58a9.76,9.76,0,0,0,.77,6.65c1.83,3.78,5.35,5.18,9.21,6.25a14.55,14.55,0,0,0,.06,3.2c.14.57.95,1.39,1.4,1.36a2.25,2.25,0,0,0,1.55-1.32A15.73,15.73,0,0,0,191.79,185.62Z"/><path class="a" d="M202.16,213.8c7.21-2.13,11.18-6.54,10.61-11.53-.61-5.24-5.23-9.35-11.14-9.89-5.27-.48-11,3.21-12.22,8.06a10,10,0,0,0,.49,6.66c1.62,3.73,5,5.19,8.47,6.52a31.91,31.91,0,0,0,.27,4c.09.5.85,1.3,1.19,1.25a2.4,2.4,0,0,0,1.69-1.16A22.6,22.6,0,0,0,202.16,213.8Z"/><path d="M223.23,194.69a9.73,9.73,0,0,1-.47,2.7,2.31,2.31,0,0,1-1.64,1.19c-.52,0-1.25-.76-1.48-1.33a9.63,9.63,0,0,1-.29-2.49c-7.38-2.65-11.08-7.79-9.81-13.58,1.42-6.4,6.79-9.06,11.8-9,5.89.11,11,4.46,11.72,9.68S231.48,192.7,223.23,194.69Zm-.3-3.44c5.35-1.43,7.29-4.12,6.77-8.9-.4-3.75-4.09-6.92-8.31-7.13-3.6-.17-7.73,2.78-8.46,6.05-1,4.49,1.3,8.07,6.59,9.88,0-1.59,0-3.07,0-4.55,0-1.17.07-2.51,1.7-2.42s1.67,1.37,1.69,2.55C223,188.1,222.93,189.48,222.93,191.25Z"/><path d="M174.08,210.6a19.38,19.38,0,0,1-.62,3.6,2.33,2.33,0,0,1-1.75,1c-.35,0-1-.76-1.15-1.26a21.76,21.76,0,0,1-.24-3.28c-8.45-4.18-10.83-7.7-9.29-13.64,1.42-5.46,5.95-8.66,12.08-8.53,5.19.12,9.71,3.55,10.79,8.2C185.25,202.54,182.19,206.88,174.08,210.6Zm-.05-4c5.06-1.22,7.23-4.16,6.59-8.71-.51-3.63-3.77-6-8.08-6.1a8.45,8.45,0,0,0-8.68,7.07c-.49,3.53,2.08,6.58,6.41,7.68.06-1,.14-2,.17-3,0-1.18.15-2.53,1.67-2.47s1.57,1.41,1.66,2.57C173.85,204.58,173.94,205.56,174,206.57Z"/><path d="M191.79,185.62a15.73,15.73,0,0,1-.37,3.25,2.25,2.25,0,0,1-1.55,1.32c-.45,0-1.26-.79-1.4-1.36a14.55,14.55,0,0,1-.06-3.2c-3.86-1.07-7.38-2.47-9.21-6.25a9.76,9.76,0,0,1-.77-6.65c1.29-5.55,7.35-8.88,12.25-8.58,5.66.34,10.15,3.6,11.16,8.74S199.51,182.28,191.79,185.62Zm-.42-4.08c4.75-.48,7.44-3.56,7.12-7.87-.27-3.58-4.14-6.63-8.23-6.49-4.8.17-8.52,3.41-8.64,7.54s1.93,6.45,6.42,6.81c.09-1.5.1-3,.33-4.48.08-.48.74-.87,1.13-1.29.5.45,1.33.84,1.45,1.37A36,36,0,0,1,191.37,181.54Z"/><path d="M202.16,213.8a22.6,22.6,0,0,1-.64,3.88,2.4,2.4,0,0,1-1.69,1.16c-.34,0-1.1-.75-1.19-1.25a31.91,31.91,0,0,1-.27-4c-3.44-1.33-6.85-2.79-8.47-6.52a10,10,0,0,1-.49-6.66c1.23-4.85,7-8.54,12.22-8.06,5.91.54,10.53,4.65,11.14,9.89C213.34,207.26,209.37,211.67,202.16,213.8Zm.1-3.55a11.9,11.9,0,0,0,2.53-.68c2.67-1.36,4.52-3.34,4.59-6.47a7.27,7.27,0,0,0-4.82-6.66,9.32,9.32,0,0,0-8.86.71A6.9,6.9,0,0,0,198,209.79c1-1.45-.12-3.91,2.44-4.35C201.86,207,201.86,207,202.26,210.25Z"/><path class="a" d="M222.93,191.25c0-1.77,0-3.15,0-4.52,0-1.18-.2-2.47-1.69-2.55s-1.68,1.25-1.7,2.42c0,1.48,0,3,0,4.55-5.29-1.81-7.58-5.39-6.59-9.88.73-3.27,4.86-6.22,8.46-6.05,4.22.21,7.91,3.38,8.31,7.13C230.22,187.13,228.28,189.82,222.93,191.25Z"/><path class="a" d="M174,206.57c-.09-1-.18-2-.26-3-.09-1.16-.21-2.52-1.66-2.57s-1.63,1.29-1.67,2.47c0,1-.11,2-.17,3-4.33-1.1-6.9-4.15-6.41-7.68a8.45,8.45,0,0,1,8.68-7.07c4.31.12,7.57,2.47,8.08,6.1C181.26,202.41,179.09,205.35,174,206.57Z"/><path class="a" d="M191.37,181.54a36,36,0,0,0-.42-4.41c-.12-.53-.95-.92-1.45-1.37-.39.42-1.05.81-1.13,1.29-.23,1.47-.24,3-.33,4.48-4.49-.36-6.55-2.58-6.42-6.81s3.84-7.37,8.64-7.54c4.09-.14,8,2.91,8.23,6.49C198.81,178,196.12,181.06,191.37,181.54Z"/><path class="a" d="M202.26,210.25c-.4-3.26-.4-3.26-1.83-4.81-2.56.44-1.41,2.9-2.44,4.35a6.9,6.9,0,0,1-2.29-12.64,9.32,9.32,0,0,1,8.86-.71,7.27,7.27,0,0,1,4.82,6.66c-.07,3.13-1.92,5.11-4.59,6.47A11.9,11.9,0,0,1,202.26,210.25Z"/><path d="M203.72,234.78c.52.66,1.24,1.22,1.14,1.51-.18.53-.85.89-1.32,1.32-.34-.43-1-.86-.95-1.28S203.2,235.44,203.72,234.78Z"/></svg>