<svg xmlns="http://www.w3.org/2000/svg" viewBox="0 0 429.52 733.09"><defs><style>.a{fill:#fff;}.b{fill:none;}</style></defs><title>PGE</title><path d="M209.77,37l-.19-.23-.1-.06.07.08Z"/><path class="a" d="M164.41,722c-.51,5.61-.91,6.08-6.69,6.08-8.82,0-17.28-1.4-24.49-6.9a35.1,35.1,0,0,1-3.2-2.75,31.17,31.17,0,0,0-19.32-8.71c-2.49-.24-4.93-1.12-7.92-1.83a94.45,94.45,0,0,0,9.57-1.66c6.55-1.87,12,0,16.77,4.29.86.76,1.67,1.58,2.46,2.42,6.6,7,15.28,9.14,24.49,9.8C158.83,723,161.64,722.29,164.41,722Z"/><path class="a" d="M217.76,29.52,214.08,36c-8.46-6-11-15.27-13.06-25C206.14,13.41,214.35,22.63,217.76,29.52Z"/><path class="a" d="M230.22,27.64l-9.3.84c-1.1-7.47.66-14.65,3.93-22.11A45.89,45.89,0,0,1,230.22,27.64Z"/><path class="a" d="M194.89,50.18a13.66,13.66,0,0,1,2.09-2c3.56-2.27,7.13-4.54,10.81-6.6a6,6,0,0,1,3.64-.59c2.37.38,4.67,1.15,7.48,1.89A41.82,41.82,0,0,1,194.89,50.18Z"/><path class="a" d="M217.61,23c-2.67-3-5.24-5.41-7-8.23C209.45,13,209.37,10.5,209,8.31a31.29,31.29,0,0,1,0-4.48c3.12,1.69,4.33,4.73,6.55,6.83.63.61,1,1.5,1.63,2.09a3.68,3.68,0,0,1,1,4.38C217.69,18.76,217.82,20.59,217.61,23Z"/><path class="a" d="M209.58,36.72c-4.26-2.59-8.57-5.11-12.76-7.8a56.29,56.29,0,0,1-5-4.15c2.31.61,4,1,5.6,1.49,3.26,1,6.18,2.33,8,5.47a37.89,37.89,0,0,0,4.1,5Z"/><polygon class="a" points="209.55 36.74 209.77 36.95 209.58 36.72 209.55 36.74"/><polygon class="a" points="77.91 591.42 77.75 591.63 77.95 591.45 77.91 591.42"/><path d="M203.72,234.78c.52.66,1.24,1.22,1.14,1.51-.18.53-.85.89-1.32,1.32-.34-.43-1-.86-.95-1.28S203.2,235.44,203.72,234.78Z"/><path class="a" d="M132.82,334.41c-2.91-9.91-14.49-11.8-21.1-1.67-4.29-.87-4.28-.88-7.13-3.52a9.25,9.25,0,0,0-1.88-1.33c-4.78-2.65-8.64-1.89-13.12,2.57-.57-.23-1.15-.47-1.74-.69-5.54-2.06-10.44.26-12.11,5.69-.22.7-.38,1.65-.9,2-2.22,1.39-2.21,3.39-1.55,5.36.81,2.38,3.09,1.84,5,1.85,5.71,0,11.41,0,17.11.05,1,0,2.54.14,2.8.68,1.33,2.76,3.75,2.28,6,2.31,11,.18,22,.34,33,.54a4.52,4.52,0,0,0,4.23-2.16,6.57,6.57,0,0,0-.55-8.41C138.86,335.2,136.16,334.25,132.82,334.41Z"/><path d="M132.82,334.41c3.34-.16,6,.79,8.07,3.24a6.57,6.57,0,0,1,.55,8.41,4.52,4.52,0,0,1-4.23,2.16c-11-.2-22-.36-33-.54-2.28,0-4.7.45-6-2.31-.26-.54-1.83-.67-2.8-.68-5.7-.07-11.4,0-17.11-.05-1.89,0-4.17.53-5-1.85-.66-2-.67-4,1.55-5.36.52-.32.68-1.27.9-2,1.67-5.43,6.57-7.75,12.11-5.69.59.22,1.17.46,1.74.69,4.48-4.46,8.34-5.22,13.12-2.57a9.25,9.25,0,0,1,1.88,1.33c2.85,2.64,2.84,2.65,7.13,3.52C118.33,322.61,129.91,324.5,132.82,334.41ZM101,344c1.18.13,2.06.27,2.94.31,5.68.23,11.36.51,17,.64q7.58.18,15.15.08c2.58,0,3.75-1.73,3-4a4.62,4.62,0,0,0-4.38-3.13,17.43,17.43,0,0,0-2.63.51c-1.87.32-2.62-.19-2.92-2-.09-.5,0-1-.06-1.52-.42-3.45-2.66-5.37-6.2-5.51a8.06,8.06,0,0,0-8,4.83c-.66,1.27-1.49,2.44-2.46,4-3.11-3.23-6.3-3.9-9.7-1.75C99.91,338.18,100.63,341,101,344Zm2.51-11.54a7.52,7.52,0,0,0-5.35-3c-4.28-.74-5.36,3.08-7.51,5.44a41.91,41.91,0,0,0-3.89-2.3c-4.24-1.9-8,.56-7.47,4.89.18,1.42-.18,2.15-1.51,2.56-.54.16-1,.4-1.58.61,0,.26.07.52.1.78l20.77.64C97.34,337.43,99.39,334.31,103.47,332.46Z"/><path class="a" d="M101,344c-.33-3-1-5.82,1.78-7.61,3.4-2.15,6.59-1.48,9.7,1.75,1-1.56,1.8-2.73,2.46-4a8.06,8.06,0,0,1,8-4.83c3.54.14,5.78,2.06,6.2,5.51.06.5,0,1,.06,1.52.3,1.83,1.05,2.34,2.92,2a17.43,17.43,0,0,1,2.63-.51,4.62,4.62,0,0,1,4.38,3.13c.72,2.32-.45,4-3,4q-7.57.09-15.15-.08c-5.69-.13-11.37-.41-17-.64C103,344.27,102.14,344.13,101,344Z"/><path class="a" d="M103.47,332.46c-4.08,1.85-6.13,5-6.44,9.63l-20.77-.64c0-.26-.07-.52-.1-.78.53-.21,1-.45,1.58-.61,1.33-.41,1.69-1.14,1.51-2.56-.56-4.33,3.23-6.79,7.47-4.89a41.91,41.91,0,0,1,3.89,2.3c2.15-2.36,3.23-6.18,7.51-5.44A7.52,7.52,0,0,1,103.47,332.46Z"/><path class="a" d="M126.57,282.58a21.12,21.12,0,0,0-5.19,12.22,6.68,6.68,0,0,1-3.54,5.11,4.53,4.53,0,0,1-5.41-.23,4.28,4.28,0,0,1-1.35-5.14,20,20,0,0,1,2.37-3.89c1-1.45,2.22-2.8,3.32-4.21,2.14-2.73,2.3-5.9,1.71-9.05a7.07,7.07,0,0,0-4-5.27A5.59,5.59,0,0,0,108,273c-1.27,1.41-1.44,3.47.23,5.57s1.18,3.75.11,5.57c-.84,1.42-1.94,2.68-2.86,4.06-2.71,4.08-3.64,8.33-1.11,12.85,3.84,6.84,12.39,8.34,17.12,4a16.24,16.24,0,0,1,1.91-1.27c3.53,4.54,8,6.06,13.47,4.65,1.45-.37,2.89-.69,4.45.29A9.14,9.14,0,0,0,152.74,307c1.46-1.67,1.24-3.28-.7-4.39a26.48,26.48,0,0,0-2.73-1.18c-.74-1.69-1.46-3.3-2.25-5.09l2.54-1.74c.55.35.89.53,1.2.77s1,.6,1.12,1c.86,2.81,2.65,3.86,5.85,3.27l-3.94,4.11c.56.33.87.65,1.22.71,2.34.43,5.24-2,5.63-4.6.34-2.37-.94-3.84-4-3.82-1.25,0-1.55-.35-1.88-1.44,1.93-1.35,3.45-3.28,2.65-5.68-.72-2.16-2.22-4.08-3.49-6.3,2.27-4.41,1.95-5.91-2.28-9.3a7.53,7.53,0,0,0,.23-2.23,9.61,9.61,0,0,0-1-2.2c2.54-3.33,2.78-6.29.22-8.14a16.39,16.39,0,0,0-6.59-2.93,18.69,18.69,0,0,0-14.33,3.52c-6.75,4.88-9.39,11.34-4.82,19.53C125.69,281.38,126.09,281.88,126.57,282.58Z"/><path d="M126.57,282.58c-.48-.7-.88-1.2-1.19-1.75-4.57-8.19-1.93-14.65,4.82-19.53a18.69,18.69,0,0,1,14.33-3.52,16.39,16.39,0,0,1,6.59,2.93c2.56,1.85,2.32,4.81-.22,8.14a9.61,9.61,0,0,1,1,2.2,7.53,7.53,0,0,1-.23,2.23c4.23,3.39,4.55,4.89,2.28,9.3,1.27,2.22,2.77,4.14,3.49,6.3.8,2.4-.72,4.33-2.65,5.68.33,1.09.63,1.44,1.88,1.44,3.05,0,4.33,1.45,4,3.82-.39,2.64-3.29,5-5.63,4.6-.35-.06-.66-.38-1.22-.71l3.94-4.11c-3.2.59-5-.46-5.85-3.27-.12-.41-.72-.7-1.12-1s-.65-.42-1.2-.77l-2.54,1.74c.79,1.79,1.51,3.4,2.25,5.09a26.48,26.48,0,0,1,2.73,1.18c1.94,1.11,2.16,2.72.7,4.39a9.14,9.14,0,0,1-11.45,1.84c-1.56-1-3-.66-4.45-.29-5.51,1.41-9.94-.11-13.47-4.65a16.24,16.24,0,0,0-1.91,1.27c-4.73,4.3-13.28,2.8-17.12-4-2.53-4.52-1.6-8.77,1.11-12.85.92-1.38,2-2.64,2.86-4.06,1.07-1.82,1.49-3.56-.11-5.57s-1.5-4.16-.23-5.57a5.59,5.59,0,0,1,6.46-.91,7.07,7.07,0,0,1,4,5.27c.59,3.15.43,6.32-1.71,9.05-1.1,1.41-2.29,2.76-3.32,4.21a20,20,0,0,0-2.37,3.89,4.28,4.28,0,0,0,1.35,5.14,4.53,4.53,0,0,0,5.41.23,6.68,6.68,0,0,0,3.54-5.11A21.12,21.12,0,0,1,126.57,282.58Zm-7.37,20.09-1.54.8c-.65,0-1.29.15-1.94.14-5.11,0-7.84-2.83-7.75-7.79a9.79,9.79,0,0,1,2.3-6.28c1.3-1.57,2.69-3.08,3.86-4.74,2.21-3.12,2.2-6.21.21-8.78-1.14-1.48-2.43-1.59-4.21-.55,2.69,3.25,3.2,6.63,1.09,10.18-.72,1.19-1.64,2.26-2.38,3.45a27.36,27.36,0,0,0-2.17,4c-1.35,3.35-.15,6.29,2.22,8.64s5.34,3.47,8.73,1.72l1.6-.74.1-.1Zm28.53-13c-1.22.63-2.08,1-2.86,1.49a8,8,0,0,1-6.72.86,5,5,0,0,1-2.69-2.43c-.33-.66.41-1.83.72-2.94-3.05-2.27-1.89-5.42-1.15-8.55-.48-.28-.93-.52-1.36-.79-2.83-1.77-3.34-4-1.48-6.67a6.88,6.88,0,0,1,5.91-3.08c2.07,0,4.15.23,6.22.2,2.8,0,4.81-1.13,5.14-2.61.37-1.64-.85-3.15-3.88-4-6.4-1.79-11.56.68-16.15,4.87s-3.53,10.34-1,13.86c2.1,2.93,2.31,3.07-.07,5.8a19.41,19.41,0,0,0-4.11,9.26,9,9,0,0,0,9,10.69c2.48,0,4.91,0,7.1-1.44a7.15,7.15,0,0,1,2.56-.78c.3-.06.68.24,1.21.45-.09,1-.17,2.05-.26,3.13,2.2.29,4,.18,5.06-1.12a45.26,45.26,0,0,1-3.3-5.16,3.49,3.49,0,0,0-3.53-2.37c-1.43,0-2.86.1-4.28,0a11.51,11.51,0,0,1-8.69-4.37c-1.48-2-1-3.51,1.15-4.63,2.19,4.58,5.39,6.63,9.78,6.27A8.77,8.77,0,0,0,147.73,289.64Zm3.79-12.38c-4.07-.73-2.51-4.37-3.17-6.65a76.35,76.35,0,0,1-7.9-.06c-3-.32-4.42.24-6,3.24a10,10,0,0,0,.88.64c3.25,2,3.46,2.39,2.56,5.74a13.21,13.21,0,0,0-.56,1.79,1.79,1.79,0,0,0,1.52,2.26c3.48.47,7,.58,10.08-1.4C150.7,281.71,152.29,280.29,151.52,277.26Zm-2.21,9.28c.73,1.77,1.42,3.43,2.16,5.24,1.41.38,2.88-.28,3-1.73.09-1.11-.89-2.49-1.76-3.42S150.33,285.2,149.31,286.54ZM138,287.91c2.67,2.21,2.75,2.21,5.4,0Z"/><path class="a" d="M147.73,289.64a8.77,8.77,0,0,1-7.66,5.91c-4.39.36-7.59-1.69-9.78-6.27-2.19,1.12-2.63,2.67-1.15,4.63a11.51,11.51,0,0,0,8.69,4.37c1.42.12,2.85,0,4.28,0a3.49,3.49,0,0,1,3.53,2.37,45.26,45.26,0,0,0,3.3,5.16c-1.05,1.3-2.86,1.41-5.06,1.12.09-1.08.17-2.09.26-3.13-.53-.21-.91-.51-1.21-.45a7.15,7.15,0,0,0-2.56.78c-2.19,1.45-4.62,1.47-7.1,1.44a9,9,0,0,1-9-10.69,19.41,19.41,0,0,1,4.11-9.26c2.38-2.73,2.17-2.87.07-5.8-2.54-3.52-3.48-9.8,1-13.86s9.75-6.66,16.15-4.87c3,.86,4.25,2.37,3.88,4-.33,1.48-2.34,2.58-5.14,2.61-2.07,0-4.15-.19-6.22-.2a6.88,6.88,0,0,0-5.91,3.08c-1.86,2.64-1.35,4.9,1.48,6.67.43.27.88.51,1.36.79-.74,3.13-1.9,6.28,1.15,8.55-.31,1.11-1.05,2.28-.72,2.94a5,5,0,0,0,2.69,2.43,8,8,0,0,0,6.72-.86C145.65,290.64,146.51,290.27,147.73,289.64Z"/><path class="a" d="M151.52,277.26c.77,3-.82,4.45-2.55,5.56-3.08,2-6.6,1.87-10.08,1.4a1.79,1.79,0,0,1-1.52-2.26,13.21,13.21,0,0,1,.56-1.79c.9-3.35.69-3.78-2.56-5.74a10,10,0,0,1-.88-.64c1.54-3,2.92-3.56,6-3.24a76.35,76.35,0,0,0,7.9.06C149,272.89,147.45,276.53,151.52,277.26Zm-7.13,5.82c2.4,0,5.22-1.31,6.28-3.12a5.38,5.38,0,0,0,.25-2,6,6,0,0,0-2.1,0c-.69.24-1.16,1.05-1.85,1.31a9.44,9.44,0,0,1-3.6.83c-1.24-.06-2.29.13-2.19,1.3,0,.64,1.29,1.23,2.07,1.74C143.52,283.22,144,283.08,144.39,283.08Zm-.71-8.55c-1.27-1.06-2.25-2.2-3.71-.79a1.94,1.94,0,0,0-.13,1.9C141.18,276.85,142.39,276.35,143.68,274.53Zm4.94-.79c-.92-.53-1.62-1.25-2.07-1.12s-.89,1-1.32,1.58c.55.4,1.13,1.14,1.65,1.1S147.87,274.46,148.62,273.74Zm-3.72,2.66c-.68.59-1.48,1-1.42,1.29a5.32,5.32,0,0,0,1.1,1.53c.41-.38,1.06-.71,1.15-1.14S145.3,277.15,144.9,276.4Z"/><path class="a" d="M117.62,303.43c-3.39,1.75-6.34.65-8.73-1.72s-3.57-5.29-2.22-8.64a27.36,27.36,0,0,1,2.17-4c.74-1.19,1.66-2.26,2.38-3.45,2.11-3.55,1.6-6.93-1.09-10.18,1.78-1,3.07-.93,4.21.55,2,2.57,2,5.66-.21,8.78-1.17,1.66-2.56,3.17-3.86,4.74a9.79,9.79,0,0,0-2.3,6.28c-.09,5,2.64,7.78,7.75,7.79.65,0,1.29-.09,1.94-.14Z"/><path class="a" d="M149.31,286.54c1-1.34,2.41-1,3.4.09s1.85,2.31,1.76,3.42c-.12,1.45-1.59,2.11-3,1.73C150.73,290,150,288.31,149.31,286.54Z"/><path class="a" d="M138,287.91h5.4C140.79,290.12,140.71,290.12,138,287.91Z"/><path class="a" d="M117.66,303.47l1.54-.8,0,0-1.6.74Z"/><polygon class="a" points="119.2 302.67 119.32 302.59 119.22 302.69 119.2 302.67"/><path d="M144.39,283.08c-.39,0-.87.14-1.14,0-.78-.51-2-1.1-2.07-1.74-.1-1.17.95-1.36,2.19-1.3a9.44,9.44,0,0,0,3.6-.83c.69-.26,1.16-1.07,1.85-1.31a6,6,0,0,1,2.1,0,5.38,5.38,0,0,1-.25,2C149.61,281.77,146.79,283.09,144.39,283.08Z"/><path d="M143.68,274.53c-1.29,1.82-2.5,2.32-3.84,1.11a1.94,1.94,0,0,1,.13-1.9C141.43,272.33,142.41,273.47,143.68,274.53Z"/><path d="M148.62,273.74c-.75.72-1.22,1.53-1.74,1.56s-1.1-.7-1.65-1.1c.43-.56.77-1.42,1.32-1.58S147.7,273.21,148.62,273.74Z"/><path d="M144.9,276.4c.4.75.91,1.27.83,1.68s-.74.76-1.15,1.14a5.32,5.32,0,0,1-1.1-1.53C143.42,277.44,144.22,277,144.9,276.4Z"/><path class="b" d="M207.79,41.57c-3.68,2.06-7.25,4.33-10.81,6.6a13.66,13.66,0,0,0-2.09,2,41.82,41.82,0,0,0,24-7.31c-2.81-.74-5.11-1.51-7.48-1.89A6,6,0,0,0,207.79,41.57Z"/><path class="b" d="M209.77,37l-.19-.23-.1-.06.07.08Z"/><path class="b" d="M156.08,722.76c-9.21-.66-17.89-2.82-24.49-9.8-.79-.84-1.6-1.66-2.46-2.42-4.82-4.26-10.22-6.16-16.77-4.29a94.45,94.45,0,0,1-9.57,1.66c3,.71,5.43,1.59,7.92,1.83A31.17,31.17,0,0,1,130,718.45a35.1,35.1,0,0,0,3.2,2.75c7.21,5.5,15.67,6.89,24.49,6.9,5.78,0,6.18-.48,6.69-6.08C161.64,722.29,158.83,723,156.08,722.76Z"/><path class="b" d="M205.45,31.73c-1.83-3.14-4.75-4.49-8-5.47-1.63-.49-3.29-.88-5.6-1.49a56.29,56.29,0,0,0,5,4.15c4.16,2.67,8.43,5.17,12.66,7.74A35.9,35.9,0,0,1,205.45,31.73Z"/><path class="b" d="M230.22,27.64a45.89,45.89,0,0,0-5.37-21.27c-3.27,7.46-5,14.64-3.93,22.11Z"/><path class="b" d="M210.58,14.76c1.79,2.82,4.36,5.18,7,8.23.21-2.4.08-4.23.59-5.86a3.68,3.68,0,0,0-1-4.38c-.65-.59-1-1.48-1.63-2.09-2.22-2.1-3.43-5.14-6.55-6.83a31.29,31.29,0,0,0,0,4.48C209.37,10.5,209.45,13,210.58,14.76Z"/><path class="b" d="M214.08,36l3.68-6.49C214.35,22.63,206.14,13.41,201,11,203.06,20.74,205.62,30,214.08,36Z"/></svg>