<svg xmlns="http://www.w3.org/2000/svg" viewBox="0 0 102.49 50.38"><defs><style>.a{fill:none;}</style></defs><title>PGE</title><path class="a" d="M46.26,42.88l18.64,4c-7.74,1.65-14.62-2-21.59-3.39a2.25,2.25,0,0,0-.08-.24,2.16,2.16,0,0,1,.66.37Z"/><path class="a" d="M67.08,46.25a18,18,0,0,1-2.06.56l2-.67Z"/><path d="M43.13,43.44c.52.09,1,.2,1.54.32,2.2.53,4.35,1.22,6.53,1.84a43.5,43.5,0,0,0,6.68,1.47,21.21,21.21,0,0,0,7-.23h0l.09,0a18,18,0,0,0,2.06-.56l0-.11,7.14-2.36,0,0a11.58,11.58,0,0,0,1.51-.5A21.6,21.6,0,0,1,88.62,42c5,1,8.78,4.22,13.35,5.91a1.36,1.36,0,0,1,.49,1.27c-.22.51-.85,1.23-1.26,1.2a8.43,8.43,0,0,1-2.92-.84c-1.86-.89-3.65-1.93-5.49-2.85a18.9,18.9,0,0,0-15.4-.82c-2.31.84-4.54,1.89-6.89,2.55a50.75,50.75,0,0,1-7.91,1.65c-5.53.66-10.8-.78-16-2.41A33.82,33.82,0,0,0,26,47.78a35.23,35.23,0,0,1-5.53,1.71,62.51,62.51,0,0,1-8.87.4c-1.16,0-2.37-.73-2-2.2s1.63-1.24,2.55-.92c3.34,1.16,6.36-.13,9.46-.93C25,45,28.3,44,31.72,43.37l1.18-.19c1.25-.18,2.5-.27,3.76-.36a22.17,22.17,0,0,1,2.7.06,22.73,22.73,0,0,1,2.61.35C42.36,43.3,42.75,43.36,43.13,43.44Z"/><path d="M64.93,46.84h0l.12,0Z"/><path d="M67.07,49.08C66.43,47.8,65,48,63.94,47.67c-5.84-1.74-11.46-3.85-16-7.94-2.18-2-4.24-4-5.29-6.83-.38-1.06-1.47-2.17-.13-2.95.71-.42,2,.18,3.92.43,2.22-2.3,5.4-4.87,7.63-8.07,3.76-5.41,4.81-11.42,2-18.09-3.19,4.31-7.43,6.4-12.33,7.64-4.24,1.07-7.4,3.54-8.39,8.1-.44,2-1,2.32-3.41,1.72a12,12,0,0,0-12.61,3.88A18.32,18.32,0,0,1,3,32.11c1.75,4.57,4.94,6.78,8.84,8a17.25,17.25,0,0,0,9.94.14c4-1.12,7.87-2.46,12.24-3.85,1.23,2.75,2.39,5.89,4,8.78s-1.89-2.73,0,0a5.57,5.57,0,0,0-3.33-.11c-2.53-4.5-.21-.36-2.7-4.81A34.53,34.53,0,0,1,18.47,44c-6.89.33-12.7-1.76-16.84-7.35-1.34-1.81-2.35-3.82-1-6C1.86,28.81,4,28.94,6,29.12a10.79,10.79,0,0,0,8.76-3.33c.93-.89,1.82-1.82,2.73-2.73a15.18,15.18,0,0,1,12.22-4.8c.75,0,1.51,0,2.31.08,1.5-5.44,5.79-8,10.54-9.28s8.66-3,11-7.55c1.07-2,2.9-2,4.33-.06a12,12,0,0,1,2.81,6.92c.19,7.52-1.52,14.33-7.58,19.63-2.19,1.91-4.21,4-6.44,6.14,1.32,1.3,2.35,2.42,3.49,3.4,4.77,4.1,10.65,5.94,16.59,7.76a7.37,7.37,0,0,0,6.49-.58l0,0Z"/></svg>