<svg xmlns="http://www.w3.org/2000/svg" viewBox="0 0 429.52 733.09"><defs><style>.a{fill:#fff;}.b{fill:none;}</style></defs><title>PGE</title><path d="M277.94,459.46l.21-.22s0-.08,0-.13l-.06.09Z"/><path d="M306.13,418.27l0,0,.16-.26-.2.21Z"/><path class="a" d="M306.13,418.17c-.24,4.41-.43,8.81-.75,13.21a4.18,4.18,0,0,1-1,2.39c-2.33,2.51-4.48,5.35-7.27,7.26-7.39,5.05-13.94,10.84-19,18.17l0,0c1-8,4.93-14.77,9.74-21.07,2.07-2.71,4.69-5,7-7.54,3.78-4.12,7.52-8.28,11.27-12.41Z"/><path class="a" d="M278.11,459.2l-.17.26.21-.22Z"/><path class="a" d="M306.17,418.22l.16-.26-.2.21Z"/><path class="a" d="M281.56,313.77a1.92,1.92,0,0,1-3,.29c-.82-.61-1.59-1.3-2.44-1.87-3.08-2.05-5.3-1.78-7.87.88-2.38,2.46-3.45,2.44-5.51-.14-3.58-4.46-5.76-4.87-10.76-2-.41.24-.84.44-2,1a10.18,10.18,0,0,1,1-2.5Q256,304,261,298.75a9.25,9.25,0,0,1,2.52-1.73c3.42-1.74,5.45-1.44,7.9,1.38a55.3,55.3,0,0,1,4.62,6.08C278,307.47,279.69,310.6,281.56,313.77Z"/><polygon class="a" points="269.53 266.23 269.74 266.4 269.56 266.2 269.53 266.23"/><path class="a" d="M252.67,413.29c2.62-.84,5.21-2,7.91-2.44a22,22,0,0,0,9.51-4c5-3.55,7.12-11.4,3.91-17a23,23,0,0,0-6.23-7.16,29.4,29.4,0,0,0-11.69-4.89c-7.87-1.7-15.93-1.76-23.92-2.24-4.92-.3-9.87,0-14.8-.19-3.15-.12-6.29-.61-9.43-.93,2-1.12,4-1.8,4.13-4.28.18-2.73-1.59-4.19-3.78-5.2-4.47-2.05-9-3.92-14.07-3.91-8.54,0-17.09-.87-25.62,0a102.41,102.41,0,0,0-12.26,1.7,16.63,16.63,0,0,0-5.73,3c-4.91,3.54-3,10.34,1.4,12.27a25.26,25.26,0,0,0,8.5,2.28c5.43.28,10.89,0,16.34-.23a9.24,9.24,0,0,1,6.33,1.77c-2.12.55-3.59.89-5,1.3a51.11,51.11,0,0,0-7,2.14c-3.68,1.66-6.23,4.67-5.89,8.62.36,4.19,2,8.18,6.72,9.86,1.94.69,3.91,1.28,6,1.95-5.24,7.83-11.19,14.86-19.13,20.12,2.15,2.1,2.72,2.16,4.91.44a63.66,63.66,0,0,0,11.62-11.69c4.46-5.9,8.83-11.86,14.44-16.85a34.58,34.58,0,0,1,14.28-7.36c5.37-1.47,10.58-.55,15.5,1.68,3.45,1.57,6.21,3.87,7.23,7.85.31,1.22,1.84,2.31,3.06,3.1a40.15,40.15,0,0,0,5.1,2.34c-1.42.62-2.6.85-3.33,1.54a3.5,3.5,0,0,0-1,2.59c.05.52,1.22,1.05,2,1.35a11,11,0,0,0,2.51.32c-2.6,4.39-5.48,8.56-.88,13.37a13.7,13.7,0,0,1-2.53.17c-3.45-.53-6.88-1.16-10.33-1.7-3.88-.62-7.81-.81-11.53.51-3.4,1.19-6.64,2.82-9.91,4.32a9.94,9.94,0,0,0-2.26,1.46c-3,2.53-3,4.07.1,6.58.17.14.23.42.34.63-.25,2.15-.5,4.44.31,6.3a9.84,9.84,0,0,1-.14,9,6.47,6.47,0,0,0,.59,7.21,89.67,89.67,0,0,0,8.54,9.31c3.33,3,6.06,2.32,8.17-1.63a16.25,16.25,0,0,0,2.64,1.57c1.37.51,2.78.66,3.89-.69a3.12,3.12,0,0,0,.4-3.86c-.51-.88-1.16-1.68-1.75-2.5-1.27-1.75-2.55-3.49-3.77-5.16l4.06-5.45h10.47c1,5.35,1.66,10.48,2.86,15.49s4.65,5.84,8.4,2.37c.16-.15.45-.17.67-.26,3.4,3,5.65,2.4,7-1.76a6.62,6.62,0,0,0,.48-1.82q.44-11.18.8-22.36c.05-1.35-.1-2.71,0-4,.25-3.39.74-6.77.85-10.17C252.78,423.21,252.67,418.43,252.67,413.29Z"/><path d="M252.67,413.29c0,5.14.11,9.92,0,14.7-.11,3.4-.6,6.78-.85,10.17-.1,1.34.05,2.7,0,4q-.37,11.18-.8,22.36a6.62,6.62,0,0,1-.48,1.82c-1.37,4.16-3.62,4.72-7,1.76-.22.09-.51.11-.67.26-3.75,3.47-7.2,2.63-8.4-2.37s-1.9-10.14-2.86-15.49H221.08L217,456c1.22,1.67,2.5,3.41,3.77,5.16.59.82,1.24,1.62,1.75,2.5a3.12,3.12,0,0,1-.4,3.86c-1.11,1.35-2.52,1.2-3.89.69a16.25,16.25,0,0,1-2.64-1.57c-2.11,3.95-4.84,4.67-8.17,1.63A89.67,89.67,0,0,1,198.9,459a6.47,6.47,0,0,1-.59-7.21,9.84,9.84,0,0,0,.14-9c-.81-1.86-.56-4.15-.31-6.3-.11-.21-.17-.49-.34-.63-3.1-2.51-3.15-4.05-.1-6.58a9.94,9.94,0,0,1,2.26-1.46c3.27-1.5,6.51-3.13,9.91-4.32,3.72-1.32,7.65-1.13,11.53-.51,3.45.54,6.88,1.17,10.33,1.7a13.7,13.7,0,0,0,2.53-.17c-4.6-4.81-1.72-9,.88-13.37a11,11,0,0,1-2.51-.32c-.77-.3-1.94-.83-2-1.35a3.5,3.5,0,0,1,1-2.59c.73-.69,1.91-.92,3.33-1.54a40.15,40.15,0,0,1-5.1-2.34c-1.22-.79-2.75-1.88-3.06-3.1-1-4-3.78-6.28-7.23-7.85-4.92-2.23-10.13-3.15-15.5-1.68a34.58,34.58,0,0,0-14.28,7.36c-5.61,5-10,10.95-14.44,16.85a63.66,63.66,0,0,1-11.62,11.69c-2.19,1.72-2.76,1.66-4.91-.44,7.94-5.26,13.89-12.29,19.13-20.12-2.09-.67-4.06-1.26-6-1.95-4.68-1.68-6.36-5.67-6.72-9.86-.34-3.95,2.21-7,5.89-8.62a51.11,51.11,0,0,1,7-2.14c1.44-.41,2.91-.75,5-1.3a9.24,9.24,0,0,0-6.33-1.77c-5.45.19-10.91.51-16.34.23A25.26,25.26,0,0,1,152,378c-4.42-1.93-6.31-8.73-1.4-12.27a16.63,16.63,0,0,1,5.73-3,102.41,102.41,0,0,1,12.26-1.7c8.53-.85,17.08,0,25.62,0,5,0,9.6,1.86,14.07,3.91,2.19,1,4,2.47,3.78,5.2-.16,2.48-2.11,3.16-4.13,4.28,3.14.32,6.28.81,9.43.93,4.93.18,9.88-.11,14.8.19,8,.48,16.05.54,23.92,2.24a29.4,29.4,0,0,1,11.69,4.89,23,23,0,0,1,6.23,7.16c3.21,5.62,1.1,13.47-3.91,17a22,22,0,0,1-9.51,4C257.88,411.28,255.29,412.45,252.67,413.29Zm-52.44,17.82-.95,1,.46.29.48-1.3.12-.1ZM254,407.57l-.24-.21.28.18,3.74.75.08-.42Zm-20.28-15.25,2.46-1.94-1.33-1.11-1.08,3.08c-.25,1-.5,2-.74,3l.49.09C233.55,394.37,233.62,393.34,233.68,392.32Zm-14,72.95.15.24-.2-.2c-1.51-2.17-3.07-4.31-4.51-6.53-1.68-2.6-1.53-3.63.47-6.07.65-.8,1.17-1.71,1.89-2.77-3.29-.5-3.28-.5-4.7,1.25-1.2,1.48-2.41,2.94-3.75,4.57C211.66,460,215.65,462.68,219.72,465.27Zm-39.64-62.44,7.2-6.9c6.62-6.35,14.48-9.6,23.84-9.13,7.86.4,14.37,3.06,18.21,10.26.07.13.44.1.89.19,0-.75.06-1.47.11-2.19.24-3,.32-6,.83-9a4.65,4.65,0,0,1,2.26-2.77c1.18-.65,2.16.34,2.79,1.39.4.65.78,1.31,1.19,2a3.5,3.5,0,0,1,1.14-.08c1,.33,2.68.56,2.85,1.17a4.72,4.72,0,0,1-.66,3.47c-.55.88-1.87,1.27-2.71,2a12.83,12.83,0,0,0-1.54,2.46c2.33-.87,4-2.18,5.36-.47,1.61,1.95.15,3.76-.82,5.46l3.4,2.45,3.07-2.47c.29-1.56-.71-3.76,1.35-4.37,1.33-.4,3,.34,4.68.59-.15-.36-.26-.69-.41-1-1.38-2.58-1.4-3,1-4.5a2.22,2.22,0,0,0,1.15-2.12,2.75,2.75,0,0,1,2.6-2.83c1.55-.1,2.57.92,3.22,2.32.4.87.86,2.12,1.57,2.35,1.39.44,2.39.82,2.42,2.43a3.3,3.3,0,0,1-1.9,3.44c-1.41.66-1.6,1.94-2.25,3.13-1.32,2.39-.5,4.71-.95,7.28,4.58-.4,8.15-2.27,10.52-5.81a9.55,9.55,0,0,0,.58-10.39c-2.21-4.19-5.67-6.79-9.95-8.62-7.55-3.23-15.68-3.11-23.62-3.71-8.52-.64-17.1-.5-25.64-.91a23.07,23.07,0,0,1-6.73-1.57,3.31,3.31,0,0,1-1.8-2.52c0-.84,1.09-1.84,1.95-2.44a25.27,25.27,0,0,1,4.1-1.78c-1.62-1.15-2.64-2-3.79-2.67-5.12-2.9-10.92-3.15-16.54-3.29-8.54-.22-17.12-.65-25.63.67-3.56.56-7.23.81-10.24,3.11s-3.12,5,.08,7.43a4.24,4.24,0,0,0,1.66.95,99.13,99.13,0,0,0,11.46,1.54c4.39.16,8.8-.44,13.19-.39a9.26,9.26,0,0,1,4.66,1.54c2.88,1.88,2.78,4.32-.28,5.86-1.91,1-4.16,1.3-6.22,2a38.33,38.33,0,0,0-6.48,2.41c-2.62,1.45-3.23,4.11-2.29,6.9a7.7,7.7,0,0,0,5.79,5.55C176.54,401.74,178.25,402.31,180.08,402.83Zm31,64.34.68-.54c-.31-.64-.57-1.3-.93-1.92-1.42-2.41-2.9-4.78-4.28-7.2-.73-1.28-1-2.73,0-3.92,2.6-2.84,5.07-5.72,6.29-9.45.15-.45,1.24-.6,1.89-.89.28.61.6,1.2.83,1.83a4.43,4.43,0,0,1,0,1.18c2,.44,3.87,1.2,5.75,1.21,4,0,8.24,1.53,12.09-2.33a26.42,26.42,0,0,1,1.18,3.47c.83,5,1.58,9.95,2.34,14.93.23,1.51.48,3,2.45,4a12.54,12.54,0,0,0,1.06-2.75c.59-5.13,1.1-10.28,1.59-15.43.14-1.47-.11-3.08,1.7-3.69,1.61.49,1.75,1.56,1.62,2.78-.44,3.88-.8,7.77-1.33,11.65-.38,2.71.73,4.64,3.07,6.76,1.69-7.76,1-15,1.25-22.2-3.29-.83-3.42-1-2-3.1a14.1,14.1,0,0,0,2.8-7.71c.09-4.41.49-8.82.65-13.23.14-3.87.31-7.78-2.22-11.18-1-1.4-.44-2.8.61-3.75a7,7,0,0,1,3.62-2c3.68-.33,5.21-2.55,6.22-5.59a25.07,25.07,0,0,1,1.74-3.52c-.62-1.22-1.19-2.37-1.66-3.31a9.5,9.5,0,0,1-.38,2c-.26.64-1.06,1.15-1.13,1.78-.54,4.61-.5,4.61-4.35,5.33-.73,1-1.21,2.34-2.1,2.67-2.35.88-3.57,2.66-4.71,4.82-3.74-1-5.66-3.91-8-6.29-.22-.22,0-.88-.19-1.08-1-1-2.17-1.89-3.27-2.83l-.18.27.19.14-1.83,2.38c1.39.75,3,1.56,4.54,2.45,3.62,2.1,4.31,4.75,2.15,8.28a45.23,45.23,0,0,0-2.71,4.14c-.76,1.61-2.66,3.44-.91,5.14,1.56,1.53,3.45,0,5-.79,1.8-.94,3.34-2.35,5.12-3.35.76-.43,2.18-.75,2.69-.36,1.15.86.21,1.84-.64,2.43-2.19,1.54-4.45,3-6.67,4.47-.82.55-2,1-2.31,1.79-1.08,2.68-3.2,3-5.66,2.9a30.13,30.13,0,0,1-5.4-.45A53.11,53.11,0,0,0,214,425.94a9.49,9.49,0,0,0-6.46,2.16,72.68,72.68,0,0,0-5.36,5.9c.72,1.33,1.6,2.22,1.47,2.94s-1.44.92-2.48,1.52c.1,1.14-.17,2.7.42,3.84,1.89,3.64,1.46,7.07-.32,10.52a3.74,3.74,0,0,0,0,4A37.24,37.24,0,0,0,211.1,467.17Zm38.49-57.85c.53.22.64.31.74.3a2.58,2.58,0,0,0,.53-.19Z"/><path class="a" d="M180.08,402.83c-1.83-.52-3.54-1.09-5.29-1.51a7.7,7.7,0,0,1-5.79-5.55c-.94-2.79-.33-5.45,2.29-6.9a38.33,38.33,0,0,1,6.48-2.41c2.06-.69,4.31-1,6.22-2,3.06-1.54,3.16-4,.28-5.86a9.26,9.26,0,0,0-4.66-1.54c-4.39-.05-8.8.55-13.19.39A99.13,99.13,0,0,1,155,375.92a4.24,4.24,0,0,1-1.66-.95c-3.2-2.39-3.22-5-.08-7.43s6.68-2.55,10.24-3.11c8.51-1.32,17.09-.89,25.63-.67,5.62.14,11.42.39,16.54,3.29,1.15.65,2.17,1.52,3.79,2.67a25.27,25.27,0,0,0-4.1,1.78c-.86.6-1.93,1.6-1.95,2.44a3.31,3.31,0,0,0,1.8,2.52A23.07,23.07,0,0,0,211.9,378c8.54.41,17.12.27,25.64.91,7.94.6,16.07.48,23.62,3.71,4.28,1.83,7.74,4.43,9.95,8.62a9.55,9.55,0,0,1-.58,10.39c-2.37,3.54-5.94,5.41-10.52,5.81.45-2.57-.37-4.89.95-7.28.65-1.19.84-2.47,2.25-3.13a3.3,3.3,0,0,0,1.9-3.44c0-1.61-1-2-2.42-2.43-.71-.23-1.17-1.48-1.57-2.35-.65-1.4-1.67-2.42-3.22-2.32a2.75,2.75,0,0,0-2.6,2.83,2.22,2.22,0,0,1-1.15,2.12c-2.44,1.46-2.42,1.92-1,4.5.15.29.26.62.41,1-1.67-.25-3.35-1-4.68-.59-2.06.61-1.06,2.81-1.35,4.37l-3.07,2.47-3.4-2.45c1-1.7,2.43-3.51.82-5.46-1.41-1.71-3-.4-5.36.47A12.83,12.83,0,0,1,238,393.3c.84-.76,2.16-1.15,2.71-2a4.72,4.72,0,0,0,.66-3.47c-.17-.61-1.83-.84-2.85-1.17a3.5,3.5,0,0,0-1.14.08c-.41-.68-.79-1.34-1.19-2-.63-1.05-1.61-2-2.79-1.39a4.65,4.65,0,0,0-2.26,2.77c-.51,2.94-.59,6-.83,9-.05.72-.07,1.44-.11,2.19-.45-.09-.82-.06-.89-.19-3.84-7.2-10.35-9.86-18.21-10.26-9.36-.47-17.22,2.78-23.84,9.13Z"/><path class="a" d="M211.1,467.17a37.24,37.24,0,0,1-9.91-10.38,3.74,3.74,0,0,1,0-4c1.78-3.45,2.21-6.88.32-10.52-.59-1.14-.32-2.7-.42-3.84,1-.6,2.38-.95,2.48-1.52s-.75-1.61-1.47-2.94a72.68,72.68,0,0,1,5.36-5.9,9.49,9.49,0,0,1,6.46-2.16,53.11,53.11,0,0,1,13.48,1.21,30.13,30.13,0,0,0,5.4.45c2.46.14,4.58-.22,5.66-2.9.31-.77,1.49-1.24,2.31-1.79,2.22-1.5,4.48-2.93,6.67-4.47.85-.59,1.79-1.57.64-2.43-.51-.39-1.93-.07-2.69.36-1.78,1-3.32,2.41-5.12,3.35-1.51.8-3.4,2.32-5,.79-1.75-1.7.15-3.53.91-5.14a45.23,45.23,0,0,1,2.71-4.14c2.16-3.53,1.47-6.18-2.15-8.28-1.55-.89-3.15-1.7-4.54-2.45l1.83-2.38-.19-.14.18-.27c1.1.94,2.23,1.84,3.27,2.83.22.2,0,.86.19,1.08,2.31,2.38,4.23,5.26,8,6.29,1.14-2.16,2.36-3.94,4.71-4.82.89-.33,1.37-1.69,2.1-2.67,3.85-.72,3.81-.72,4.35-5.33.07-.63.87-1.14,1.13-1.78a9.5,9.5,0,0,0,.38-2c.47.94,1,2.09,1.66,3.31a25.07,25.07,0,0,0-1.74,3.52c-1,3-2.54,5.26-6.22,5.59a7,7,0,0,0-3.62,2c-1.05,1-1.65,2.35-.61,3.75,2.53,3.4,2.36,7.31,2.22,11.18-.16,4.41-.56,8.82-.65,13.23a14.1,14.1,0,0,1-2.8,7.71c-1.44,2.14-1.31,2.27,2,3.1-.29,7.16.44,14.44-1.25,22.2-2.34-2.12-3.45-4.05-3.07-6.76.53-3.88.89-7.77,1.33-11.65.13-1.22,0-2.29-1.62-2.78-1.81.61-1.56,2.22-1.7,3.69-.49,5.15-1,10.3-1.59,15.43a12.54,12.54,0,0,1-1.06,2.75c-2-1.05-2.22-2.51-2.45-4-.76-5-1.51-10-2.34-14.93a26.42,26.42,0,0,0-1.18-3.47c-3.85,3.86-8.11,2.34-12.09,2.33-1.88,0-3.75-.77-5.75-1.21a4.43,4.43,0,0,0,0-1.18c-.23-.63-.55-1.22-.83-1.83-.65.29-1.74.44-1.89.89-1.22,3.73-3.69,6.61-6.29,9.45-1.09,1.19-.77,2.64,0,3.92,1.38,2.42,2.86,4.79,4.28,7.2.36.62.62,1.28.93,1.92Zm29.42-31.91c.47-1,1.09-1.64,1-2.15s-1-.88-1.49-1.31c-.37.53-1.08,1.1-1,1.59S239.79,434.43,240.52,435.26ZM219,428.7c-.85-.53-1.4-1.1-2-1.14-.35,0-.75.8-1.12,1.25.52.41,1,1,1.58,1.16C217.83,430.05,218.34,429.31,219,428.7Zm21.6-3c-.55.63-1.3,1.17-1.21,1.45.18.56.83,1,1.28,1.46.42-.5,1-1,1.18-1.53C242,426.82,241.2,426.33,240.64,425.74Zm-31.59,15.44c.66-.7,1.39-1.16,1.34-1.49-.1-.6-.68-1.13-1-1.69-.47.35-1.31.71-1.31,1.05C208,439.65,208.57,440.24,209.05,441.18Zm19-7.79-2-1.26c-.32.57-.87,1.13-.9,1.71,0,.34.88,1.11,1.16,1C226.85,434.69,227.27,434.07,228,433.39Zm-17.15-1.3c-.83-.5-1.42-1.11-1.75-1-.54.19-.91.84-1.36,1.29.42.36.89,1.07,1.24,1C209.55,433.3,210,432.71,210.86,432.09Zm35.08-18.61c-.76-.59-1.22-1.19-1.78-1.3-.31-.06-1.19.84-1.1,1.09a2.51,2.51,0,0,0,1.28,1.38C244.58,414.75,245.19,414.05,245.94,413.48Zm-25.77,22.64c-.74-.6-1.25-1.3-1.59-1.23-.59.13-1.06.74-1.59,1.14.39.41.8,1.17,1.17,1.15C218.74,437.16,219.3,436.62,220.17,436.12Zm14.41,2.07c-.66-.47-1.11-1-1.55-1s-.9.58-1.35.91c.45.46.83,1.1,1.38,1.32C233.31,439.48,233.91,438.74,234.58,438.19Zm.37-7.95c-.6-.64-1.08-1.41-1.33-1.35a5.1,5.1,0,0,0-1.54,1.1c.39.39.73,1,1.18,1.12S234.2,430.65,235,430.24Z"/><path class="a" d="M219.72,465.27c-4.07-2.59-8.06-5.26-10.65-9.51,1.34-1.63,2.55-3.09,3.75-4.57,1.42-1.75,1.41-1.75,4.7-1.25-.72,1.06-1.24,2-1.89,2.77-2,2.44-2.15,3.47-.47,6.07,1.44,2.22,3,4.36,4.51,6.53Z"/><path class="a" d="M233.73,392.35l1.08-3.08,1.33,1.11-2.46,1.94Z"/><path class="a" d="M254,407.57l3.86.3-.08.42-3.74-.75Z"/><path class="a" d="M233.68,392.32c-.06,1-.13,2.05-.2,3.08l-.49-.09c.24-1,.49-2,.74-3Z"/><path class="a" d="M249.59,409.32l1.27.11a2.58,2.58,0,0,1-.53.19C250.23,409.63,250.12,409.54,249.59,409.32Z"/><path class="a" d="M200.22,431.11l-.48,1.3-.46-.29.95-1Z"/><path class="a" d="M254,407.54l-.28-.18.24.21Z"/><polygon class="a" points="219.67 465.31 219.87 465.51 219.72 465.27 219.67 465.31"/><polygon class="a" points="200.22 431.11 200.34 431.01 200.22 431.11 200.22 431.11"/><path d="M240.52,435.26c-.73-.83-1.47-1.31-1.54-1.87s.66-1.06,1-1.59c.53.43,1.37.79,1.49,1.31S241,434.29,240.52,435.26Z"/><path d="M219,428.7c-.7.61-1.21,1.35-1.52,1.27-.59-.14-1.06-.75-1.58-1.16.37-.45.77-1.27,1.12-1.25C217.64,427.6,218.19,428.17,219,428.7Z"/><path d="M240.64,425.74c.56.59,1.32,1.08,1.25,1.38-.14.57-.76,1-1.18,1.53-.45-.48-1.1-.9-1.28-1.46C239.34,426.91,240.09,426.37,240.64,425.74Z"/><path d="M209.05,441.18c-.48-.94-1-1.53-1-2.13,0-.34.84-.7,1.31-1.05.37.56.95,1.09,1,1.69C210.44,440,209.71,440.48,209.05,441.18Z"/><path d="M228,433.39c-.74.68-1.16,1.3-1.72,1.47-.28.09-1.18-.68-1.16-1,0-.58.58-1.14.9-1.71Z"/><path d="M210.86,432.09c-.83.62-1.31,1.21-1.87,1.3-.35.06-.82-.65-1.24-1,.45-.45.82-1.1,1.36-1.29C209.44,431,210,431.59,210.86,432.09Z"/><path d="M245.94,413.48c-.75.57-1.36,1.27-1.6,1.17a2.51,2.51,0,0,1-1.28-1.38c-.09-.25.79-1.15,1.1-1.09C244.72,412.29,245.18,412.89,245.94,413.48Z"/><path d="M220.17,436.12c-.87.5-1.43,1-2,1.06-.37,0-.78-.74-1.17-1.15.53-.4,1-1,1.59-1.14C218.92,434.82,219.43,435.52,220.17,436.12Z"/><path d="M234.58,438.19c-.67.55-1.27,1.29-1.52,1.19-.55-.22-.93-.86-1.38-1.32.45-.33.9-.9,1.35-.91S233.92,437.72,234.58,438.19Z"/><path d="M235,430.24c-.75.41-1.28.94-1.69.87s-.79-.73-1.18-1.12a5.1,5.1,0,0,1,1.54-1.1C233.87,428.83,234.35,429.6,235,430.24Z"/><path class="b" d="M287.89,438.17c-4.79,6.27-8.69,13-9.72,20.94,5-7.29,11.55-13.05,18.92-18.08,2.79-1.91,4.94-4.75,7.27-7.26a4.18,4.18,0,0,0,1-2.39c.32-4.37.51-8.74.75-13.11-3.74,4.12-7.47,8.26-11.23,12.36C292.58,433.16,290,435.46,287.89,438.17Z"/><path class="b" d="M277.94,459.46l.21-.22s0-.08,0-.13l-.06.09Z"/><path class="b" d="M400,108.31c-3.26,4.47-2.27,9.29,2.18,11.93,1-2.13,1.63-4.56,3.08-6.38a10.1,10.1,0,0,0,2.29-7.36c-.1-1.64-.16-3.27-.27-5.6-1.94,1.83-3.54,3.27-5.06,4.79A21.35,21.35,0,0,0,400,108.31Z"/><path class="b" d="M306.13,418.27l0,0,.16-.26-.2.21Z"/></svg>