<svg xmlns="http://www.w3.org/2000/svg" viewBox="0 0 124.72 124.28"><defs><style>.a{fill:#c1272d;}.b{fill:#fff;}</style></defs><title>PGE</title><path class="a" d="M104.05,53.77c.3,9.49-6.09,12-14,13a42.22,42.22,0,0,0,2.29,4.09A4.08,4.08,0,0,0,94.23,72c1.36.51,2.83.77,4.13,1.39,1.69.81,2.24,1.92,1.61,3.59a59.59,59.59,0,0,0-2.82,12.78c-1.53,10.68.89,20.5,6.22,29.74a3.15,3.15,0,0,0,3.29,1.79,30.79,30.79,0,0,1,3.72,0,4.88,4.88,0,0,1,2,.28,2.05,2.05,0,0,1,1.12,1.4c0,.4-.74,1-1.26,1.17a8.76,8.76,0,0,1-2.35.09c-8.11,0-16.23,0-24.34-.11q-29.88-.3-59.76-.68c-7.76-.11-15.52-.37-23.28-.56-1,0-2.1.16-2.48-1.37,1.5-1.9,3.67-.84,5.53-1s4,0,6.43,0v-3.88q0-28.4,0-56.78a36.2,36.2,0,0,1,.72-4.93c-2.77-3.38-3.11-7.42-.21-11.71-3.3-2.49-5.61-5.39-5.43-9.87s3-6.83,6.2-9.1a3.29,3.29,0,0,0-.47-.9C8.59,19.38,9.05,12.44,12,8.41,16.74,1.77,23.85-1.27,31.72.5c8.86,2,12.35,11.12,6.42,19a21.13,21.13,0,0,1-3.07,3.13c-1.1,1-2.35,1.72-3.53,2.57.67,2.24,1.36,4.55,2,6.64a10.82,10.82,0,0,1,9.72-8.15,68.29,68.29,0,0,1-.31-7c.39-6.72,7.27-12.16,14.59-11.21,5.27.68,9.38,3,12.17,7.52,4.56,7.34,2.34,18.56-9.16,20.69-.65.12-1.32.12-2.37.21a10.28,10.28,0,0,1-1.46,9.29c-2.05,2.81-5.1,3.88-8.46,4.39-.44,3.13.88,6.58-1.88,8.63.16,2,.41,3.63.41,5.28q0,27.54,0,55.08V120c1.3,1,2.08.58,2.8-.34A43.41,43.41,0,0,0,58.67,98.2c.73-5.22.83-10.31-.78-15.32-.82-2.55-2-5-3.08-7.79,1.73-3.6,6-1.76,8.5-3.49,1-2.87,2-5.78,3.11-9C59.93,51.33,67.42,41.83,76.7,39c-.17-1.25-.38-2.54-.54-3.83-.82-6.64,1.72-12.08,6-16.91,7-7.81,22.47-10.64,31.74-5,6,3.68,10.14,8.6,10.7,16.14a34.38,34.38,0,0,1-2.35,15.46,12.48,12.48,0,0,1-9.58,8.17,75.63,75.63,0,0,1-8.67.71l-.16-.17ZM89.28,76.07c1.16-3.94-.32-6.31-2.73-8.3a11.25,11.25,0,0,1-1.88-1.41,3.44,3.44,0,0,1-.85-2.26c.21-1.13,1.29-1,2.21-.73a17,17,0,0,0,9-.29A8.4,8.4,0,0,0,100.88,58c.91-2.34.36-4.37-1.43-5.61-1-.71-3-1.12-2-2.86.8-1.42,2.29-.25,3.34.14a18.39,18.39,0,0,0,11.54.67,9.76,9.76,0,0,0,7.08-6.14,43.17,43.17,0,0,0,2.39-8.37c1.6-10.56-3.32-18.4-13.23-21.68-4.37-1.45-8.86-.85-13.3,0C84.84,16,75.76,27.92,79.63,38.19c.35.93,0,2.11,0,3.24-5.47.9-9.72,3.36-11.85,8.23-2.23,5.08-.5,9.8,2.77,14a19.25,19.25,0,0,0-2,1.84A8.93,8.93,0,0,0,66.78,74a2.37,2.37,0,0,0,2.65,2c2.47,0,4.95.07,7.42.08C81,76.08,85.13,76.07,89.28,76.07Zm12,45.22C92.9,107.72,92.87,93.67,96.4,79H78c-3.15,0-6.3.06-9.45,0-3-.1-5.89-.38-9.28-.61,2.85,7.56,2.84,14.74,1.79,22s-4,13.86-8.53,20.21C68.88,121.65,84.72,121,101.27,121.29ZM39.11,44.24c-1.29.84-2.26,1.37-3.12,2a5,5,0,0,0-1.41,5.78c.72,2.07,1.86,2.84,4.32,2.9a20.56,20.56,0,0,1,2.36.05,3.6,3.6,0,0,0,4.12-2.24c.6-1.69,1.14-3.68-1-5.13a2.92,2.92,0,0,1-.72-2.58c.28-1,1.42-.51,2.3-.54a17.14,17.14,0,0,0,5.55-.86c3.79-1.47,6-6.42,3.06-10a19.21,19.21,0,0,1-1.46-2.57,14.06,14.06,0,0,1,2.41-.59c1.35-.05,2.7.15,4,.11a9.7,9.7,0,0,0,9.33-8.17C70,16.4,65.8,10.32,59.34,8.58c-6.79-1.84-12.42,1.7-13.75,8.56-.42,2.14.46,3.95,1.08,5.86.32,1,1.28,2,.09,3.28-4.38-.33-8.44.56-10.23,5.38C34.87,36.14,36.12,40.22,39.11,44.24ZM27.37,24.13c1.4-.83,2.4-1.31,3.27-2,1.7-1.28,3.62-2.41,4.93-4C41.44,10.87,36.76,4.33,30.41,3c-4.75-1-13,2.05-16,6.6-3.94,6-1.76,11.09,2.88,13.41,1,.52,2.75.6,2.41,2.26s-1.86.79-2.87,1a8.45,8.45,0,0,0-7.16,7.1c-.29,2.79,2,6.15,5.16,7.63a16.21,16.21,0,0,1,1.55.63c1.12.66,1.23,1.61.29,2.44a11,11,0,0,1-1.16.68c-1.91,1.31-2.27,3.2-2,5.35S15.3,53.32,17.22,54c2.72,1,4.71-.06,6.54-2,3.84-4.15,3.34-8.09-1.45-10.92-.52-.31-1.27-1.13-1.16-1.37a3.39,3.39,0,0,1,1.53-1.51c1.39-.69,3-1,4.3-1.83,3.54-2.18,4.23-5.37,2.15-8.94C28.58,26.46,28.09,25.48,27.37,24.13Zm3.53,96.24a25.8,25.8,0,0,0,.53-3.33c.06-3.37,0-6.74,0-10.11,0-15.83.1-31.66,0-47.49a4,4,0,0,1,2.09-3.76c-3.08-4.7-2.72-8.86,1.22-12.33-.75-3.17-1.45-6.13-2-8.6L26.8,40.32c1.72,2,3.06,4.6,2.22,7.47-.77,2.61-2.3,5-3.55,7.6,2,.87,1.64,2.9,1.64,4.79q0,28.18,0,56.38v3.81Zm3.21-29.61v15.4c2.09,1.42,4.38,1,6.55.66,3.57-.55,3.64-.77,3.55-4.34,0-.78.07-1.57.07-2.35,0-3.12,0-6.24,0-9.37Zm-10,15.76c0-2.64,0-5.21,0-7.77s-.08-5-.12-7.55l-8.76.47c-.56,2.92-.45,12.49.26,15C18.24,107.49,21,108.48,24.14,106.52ZM34.31,75.16c-.61,3.46-.5,10.22.31,12.88,2.24,0,4.59.16,6.91-.05,2-.17,2.64-1,2.68-3.12.06-3.46,0-6.92,0-10.25ZM34,60c0,3.38,0,7.06,0,10.75a1.59,1.59,0,0,0,1.62,1.78c3,.09,6.07.43,8.52-1.64V60ZM24,75.05l-9.1-.53c0,4.55-.09,9.19.1,13.91,3.33.49,6.17.8,9-.72Zm20.08,45.32V109.09l-10,.54v10.74ZM24,60H14.85c0,3.2,0,6.33,0,9.45A2.07,2.07,0,0,0,17,71.9a15.63,15.63,0,0,0,7-.38Zm0,50.17-8.8-.42V120.3H24ZM64.85,76c-1.66-1.64-2.92-1-4.12-.91l-.06.68ZM93,74.85c0,.31-.07.61-.1.92h3.6l.06-.26Z"/><path class="b" d="M89.28,76.07c-4.15,0-8.29,0-12.43,0-2.47,0-4.95-.12-7.42-.08a2.37,2.37,0,0,1-2.65-2,8.93,8.93,0,0,1,1.82-8.49,19.25,19.25,0,0,1,2-1.84c-3.27-4.19-5-8.91-2.77-14,2.13-4.87,6.38-7.33,11.85-8.23,0-1.13.31-2.31,0-3.24C75.76,27.92,84.84,16,95.25,14.08c4.44-.82,8.93-1.42,13.3,0,9.91,3.28,14.83,11.12,13.23,21.68a43.17,43.17,0,0,1-2.39,8.37,9.76,9.76,0,0,1-7.08,6.14,18.39,18.39,0,0,1-11.54-.67c-1-.39-2.54-1.56-3.34-.14-1,1.74,1,2.15,2,2.86,1.79,1.24,2.34,3.27,1.43,5.61A8.4,8.4,0,0,1,95,63.08a17,17,0,0,1-9,.29c-.92-.23-2-.4-2.21.73a3.44,3.44,0,0,0,.85,2.26,11.25,11.25,0,0,0,1.88,1.41C89,69.76,90.44,72.13,89.28,76.07Z"/><path class="b" d="M101.27,121.29c-16.55-.29-32.39.36-48.75-.73C57,114.21,60,107.7,61.05,100.35s1.06-14.49-1.79-22c3.39.23,6.33.51,9.28.61,3.15.1,6.3,0,9.45,0H96.4C92.87,93.67,92.9,107.72,101.27,121.29Z"/><path class="b" d="M39.11,44.24c-3-4-4.24-8.1-2.58-12.58,1.79-4.82,5.85-5.71,10.23-5.38C48,25,47,24,46.67,23c-.62-1.91-1.5-3.72-1.08-5.86,1.33-6.86,7-10.4,13.75-8.56C65.8,10.32,70,16.4,68.86,22.47a9.7,9.7,0,0,1-9.33,8.17c-1.34,0-2.69-.16-4-.11a14.06,14.06,0,0,0-2.41.59,19.21,19.21,0,0,0,1.46,2.57c2.93,3.56.73,8.51-3.06,10a17.14,17.14,0,0,1-5.55.86c-.88,0-2-.5-2.3.54a2.92,2.92,0,0,0,.72,2.58c2.17,1.45,1.63,3.44,1,5.13A3.6,3.6,0,0,1,41.26,55,20.56,20.56,0,0,0,38.9,55c-2.46-.06-3.6-.83-4.32-2.9A5,5,0,0,1,36,46.29C36.85,45.61,37.82,45.08,39.11,44.24Z"/><path class="b" d="M27.37,24.13c.72,1.35,1.21,2.33,1.76,3.27C31.21,31,30.52,34.16,27,36.34c-1.31.81-2.91,1.14-4.3,1.83a3.39,3.39,0,0,0-1.53,1.51c-.11.24.64,1.06,1.16,1.37C27.1,43.88,27.6,47.82,23.76,52c-1.83,2-3.82,3-6.54,2-1.92-.69-3.39-1.71-3.69-3.92s.08-4,2-5.35a11,11,0,0,0,1.16-.68c.94-.83.83-1.78-.29-2.44A16.21,16.21,0,0,0,14.84,41c-3.18-1.48-5.45-4.84-5.16-7.63a8.45,8.45,0,0,1,7.16-7.1c1-.18,2.57.55,2.87-1S18.34,23.55,17.3,23c-4.64-2.32-6.82-7.41-2.88-13.41,3-4.55,11.24-7.58,16-6.6,6.35,1.31,11,7.85,5.16,15.13-1.31,1.61-3.23,2.74-4.93,4C29.77,22.82,28.77,23.3,27.37,24.13Z"/><path class="b" d="M34.11,90.76H44.28c0,3.13,0,6.25,0,9.37,0,.78-.09,1.57-.07,2.35.09,3.57,0,3.79-3.55,4.34-2.17.33-4.46.76-6.55-.66Z"/><path class="b" d="M24.14,106.52c-3.14,2-5.9,1-8.63.15-.71-2.51-.82-12.08-.26-15L24,91.2c0,2.52.1,5,.12,7.55S24.14,103.88,24.14,106.52Z"/><path class="b" d="M34.31,75.16l9.91-.54c0,3.33.05,6.79,0,10.25,0,2.12-.65,2.95-2.68,3.12-2.32.21-4.67.05-6.91.05C33.81,85.38,33.7,78.62,34.31,75.16Z"/><path class="b" d="M34,60H44.12V70.85c-2.45,2.07-5.52,1.73-8.52,1.64A1.59,1.59,0,0,1,34,70.71C34,67,34,63.34,34,60Z"/><path class="b" d="M24,75.05V87.71c-2.83,1.52-5.67,1.21-9,.72-.19-4.72-.09-9.36-.1-13.91Z"/><path class="b" d="M44.08,120.37h-10V109.63l10-.54Z"/><path class="b" d="M24,60V71.52a15.63,15.63,0,0,1-7,.38,2.07,2.07,0,0,1-2.11-2.42c0-3.12,0-6.25,0-9.45Z"/><path class="b" d="M24,110.2v10.1h-8.8V109.78Z"/><path class="b" d="M64.85,76l-4.18-.23.06-.68C61.93,74.94,63.19,74.32,64.85,76Z"/><path class="b" d="M93,74.85l3.56.66-.06.26h-3.6C92.94,75.46,93,75.16,93,74.85Z"/><path class="b" d="M104.05,53.77l-.19-.13.16.17Z"/></svg>