<svg xmlns="http://www.w3.org/2000/svg" viewBox="0 0 429.52 733.09"><defs><style>.a{fill:#fff;}</style></defs><title>PGE</title><path class="a" d="M137.05,462.34c1.67-.46,1.08-3.17,3.28-3.85s2.77-2.54,2.3-4.6c-.22-1-.76-1.81.09-2.8,1.28-1.5.78-3.09-.05-4.61-.6-1.12-1.28-2.2-1.92-3.3-1.16-2-1.56-3.89,0-6,2-2.67,1.15-5.27-.78-7.64a8.79,8.79,0,0,0-11.48-2.1,5.52,5.52,0,0,1-4.68.69c-5.24-1.45-10.5-1.69-15.09,1.77-5.57-3.08-10.48-2.52-13.42,1.4-2.79,3.71-2.06,7.55,2.2,11.7-.58,1.61-1.56,2.58-3.48,2.26-5.13-.85-10.07.29-14.87,1.76-6.25,1.92-11.77,5.34-14.29,11.43-2.23,5.39-3,11.27-.91,17,1,2.86,2.66,5.54,3.41,8.45,1.86,7.22,6.4,10.74,14,11.41a13.27,13.27,0,0,0,7.44-1.13c3.51-1.77,4-5,1.33-7.8-1-1.06-2.3-1.92-3.86-3.21,3.31-1.74,6.37-.78,9.28-.92,1.47,2.39,2.7,4.78,4.28,6.91,4.4,5.93,13.31,7.24,19.32,5a6.06,6.06,0,0,0,3.94-5.26c.29-2.41-1.11-4.05-3.25-5.13-.67-.33-1.33-.68-2-1-.44-4.33,3.5-3.64,5.32-5.11,2.42,1.24,2.1,2.72,1.24,4.58-1.33,2.87-.77,4.36,1.72,6.22a8.47,8.47,0,0,0,12.24-2.11c2.41-3.62,3.6-7.59,2.39-11.91C139.66,470.48,138.35,466.53,137.05,462.34Z"/><path class="a" d="M130.68,503.24c-2.73-2.4-5.78-1.8-8.8-.89-2.2-3.36-4.9-5.64-9-5.05-4,.56-5.82,3.83-7.89,6.77-4.09-1.61-7.52-1.09-10.36,2.14-2.59,3-2.36,5.93,0,9.42h20.17a36,36,0,0,0,.9,4.38c1,3,2.64,3.83,5.89,3.52,2.06-.2,4.14-.23,6.21-.24,8.18,0,16.36-.12,24.53,0,3.06,0,4.32-.54,5.1-3.12a7.34,7.34,0,0,0-3.75-8.37,38.07,38.07,0,0,0-5.11-1.51C148.76,503,138.11,498.25,130.68,503.24Z"/><path d="M137.05,462.34c1.3,4.19,2.61,8.14,3.74,12.13,1.21,4.32,0,8.29-2.39,11.91a8.47,8.47,0,0,1-12.24,2.11c-2.49-1.86-3-3.35-1.72-6.22.86-1.86,1.18-3.34-1.24-4.58-1.82,1.47-5.76.78-5.32,5.11.65.34,1.31.69,2,1,2.14,1.08,3.54,2.72,3.25,5.13a6.06,6.06,0,0,1-3.94,5.26c-6,2.24-14.92.93-19.32-5-1.58-2.13-2.81-4.52-4.28-6.91-2.91.14-6-.82-9.28.92,1.56,1.29,2.82,2.15,3.86,3.21,2.71,2.77,2.18,6-1.33,7.8a13.27,13.27,0,0,1-7.44,1.13c-7.58-.67-12.12-4.19-14-11.41C66.65,481,65,478.36,64,475.5c-2.1-5.77-1.32-11.65.91-17,2.52-6.09,8-9.51,14.29-11.43,4.8-1.47,9.74-2.61,14.87-1.76,1.92.32,2.9-.65,3.48-2.26-4.26-4.15-5-8-2.2-11.7,2.94-3.92,7.85-4.48,13.42-1.4,4.59-3.46,9.85-3.22,15.09-1.77a5.52,5.52,0,0,0,4.68-.69,8.79,8.79,0,0,1,11.48,2.1c1.93,2.37,2.81,5,.78,7.64-1.6,2.1-1.2,4,0,6,.64,1.1,1.32,2.18,1.92,3.3.83,1.52,1.33,3.11.05,4.61-.85,1-.31,1.82-.09,2.8.47,2.06-.06,3.91-2.3,4.6S138.72,461.88,137.05,462.34Zm-16.28,12.85a13.88,13.88,0,0,0,6.8-7c.67-1.51,1.5-1.91,3-1,.21,3.75-2.66,5.85-4.88,8.71a18.34,18.34,0,0,0,2.51,1.93,12.1,12.1,0,0,0,2.61.76c.51,2.05-.87,2.45-1.94,3.13s-2.24,1.81-1.56,3.1a4.77,4.77,0,0,0,2.86,2.17,5.81,5.81,0,0,0,3.63-.72,7.12,7.12,0,0,0,3.81-5.88c.39-6.92-.55-13.55-6.14-18.68-.39-.36-.77-1.32-.57-1.58a2.8,2.8,0,0,1,1.79-.93,11.33,11.33,0,0,1,2.56.3,6.61,6.61,0,0,0,0-1.05c-.57-2.89-.57-2.85,2.43-2.6a9.35,9.35,0,0,0,2.39-.51c-.87-1.49-2.06-2.65-2.09-3.84s1.21-2.19,2-3.38c-.17-.33-.37-.8-.63-1.24-2.21-3.71-4-7.4-1.08-11.65.48-.7.12-2.27-.36-3.19-1.77-3.35-5.85-3.94-8.89-1.39a27.48,27.48,0,0,0-2,2.13c-6.7-3.6-13-3.18-19.08,1l-1.41-1.09c-2.63-2.12-6.22-2.11-8.32,0s-1.65,4.79,1.21,7.53c1.69,1.62,1.84,2.86.51,5-1,1.55-1.94,3.06-3,4.72l4.26,1.45-3.64,5.34,4.87-.7,1.47,3.16,4.51-.75c-.16,1.1,0,2.11-.43,2.57a4.73,4.73,0,0,1-6.85-.12,4,4,0,0,0-2.87-1.48c-3-.33-3.69-1.46-3.22-4.36a6.3,6.3,0,0,0,.3-2.46,38,38,0,0,0-1.8-4.47,31.34,31.34,0,0,0-16.87,3.25c-5.09,2.38-9,6.07-9.83,11.87-.6,4.38-1,8.79,1,13.05,1.55,3.33,3,6.72,4.22,10.18a7.3,7.3,0,0,0,5.85,4.91,49.24,49.24,0,0,0,4.92,1c2.46.3,4.54-.37,5.88-2.55-1.79-2.16-1.79-2.16-5.17-3.08-1.94-.54-2.27-1.5-1.08-2.92s2.39-2.87,3.45-4.39c1.83-2.62,1.58-5.23-.36-7.72-.46-.58-.91-1.17-1.34-1.73,1.64-1.58,1.87-1.69,2.79-1a6.32,6.32,0,0,1,2.87,5.13c0,1.73,0,3.47,0,5.86,2.16-.59,3.73-.94,5.25-1.45,1.93-.66,2.39-.49,3.28,1.34,1.17,2.38,2.28,4.8,3.6,7.11,2.35,4.09,10,6.47,15.68,4.52a2.81,2.81,0,0,0,2.19-2.81c0-1.62-1.31-2.06-2.51-2.51-.58-.22-1.31-.06-1.91-.25a17.17,17.17,0,0,1-2.24-1,33.22,33.22,0,0,1,1.74-5.59,73.56,73.56,0,0,1,4.81-7.72c.26-.39,1.34-.46,2-.31.27.06.56,1.1.42,1.56a12.12,12.12,0,0,1-1.3,2.32Z"/><path d="M130.68,503.24c7.43-5,18.08-.21,17.84,7a38.07,38.07,0,0,1,5.11,1.51,7.34,7.34,0,0,1,3.75,8.37c-.78,2.58-2,3.16-5.1,3.12-8.17-.09-16.35,0-24.53,0-2.07,0-4.15,0-6.21.24-3.25.31-4.85-.51-5.89-3.52a36,36,0,0,1-.9-4.38H94.58c-2.34-3.49-2.57-6.47,0-9.42,2.84-3.23,6.27-3.75,10.36-2.14,2.07-2.94,3.91-6.21,7.89-6.77,4.13-.59,6.83,1.69,9,5.05C124.9,501.44,128,500.84,130.68,503.24Zm23.2,16.39c.43-5-2-7-6.32-5.4-1,.36-2.08,1.1-2.72,0a4.09,4.09,0,0,1,.08-2.73c.58-2.28.15-4-1.66-5.35a9.34,9.34,0,0,0-10.16-.75c-3.25,2-4.85,4.66-4.1,9l-4-.88c-4.93-1.1-7.45,1.45-6.15,6.22.06.22.3.39.73.92C130.72,520.36,142.19,521.12,153.88,519.63Zm-57.67-7a9.82,9.82,0,0,0,1.48.27c5.32,0,10.64.06,16,0a6.73,6.73,0,0,0,3.36-.75,14.39,14.39,0,0,1,8.54-2.21l2.25-4.33c-2.78-2.59-4.52,1.26-7.25.62l-2.08-3.2c-2.12-3.24-5.87-3.59-8.42-.65a34.46,34.46,0,0,0-2.37,3.89,32,32,0,0,1-2,2.54c-2.24-2.23-4.71-3.19-7.26-1.82C96.33,508.08,95.5,510.1,96.21,512.62Z"/><path class="a" d="M120.75,475.18a12.12,12.12,0,0,0,1.3-2.32c.14-.46-.15-1.5-.42-1.56-.62-.15-1.7-.08-2,.31a73.56,73.56,0,0,0-4.81,7.72,33.22,33.22,0,0,0-1.74,5.59,17.17,17.17,0,0,0,2.24,1c.6.19,1.33,0,1.91.25,1.2.45,2.47.89,2.51,2.51a2.81,2.81,0,0,1-2.19,2.81c-5.67,1.95-13.33-.43-15.68-4.52-1.32-2.31-2.43-4.73-3.6-7.11-.89-1.83-1.35-2-3.28-1.34-1.52.51-3.09.86-5.25,1.45,0-2.39,0-4.13,0-5.86A6.32,6.32,0,0,0,86.91,469c-.92-.69-1.15-.58-2.79,1,.43.56.88,1.15,1.34,1.73,1.94,2.49,2.19,5.1.36,7.72-1.06,1.52-2.26,3-3.45,4.39s-.86,2.38,1.08,2.92c3.38.92,3.38.92,5.17,3.08-1.34,2.18-3.42,2.85-5.88,2.55a49.24,49.24,0,0,1-4.92-1A7.3,7.3,0,0,1,72,486.47c-1.22-3.46-2.67-6.85-4.22-10.18-2-4.26-1.61-8.67-1-13.05.8-5.8,4.74-9.49,9.83-11.87a31.34,31.34,0,0,1,16.87-3.25,38,38,0,0,1,1.8,4.47,6.3,6.3,0,0,1-.3,2.46c-.47,2.9.26,4,3.22,4.36a4,4,0,0,1,2.87,1.48,4.73,4.73,0,0,0,6.85.12c.44-.46.27-1.47.43-2.57l-4.51.75L102.33,456l-4.87.7,3.64-5.34-4.26-1.45c1.06-1.66,2-3.17,3-4.72,1.33-2.16,1.18-3.4-.51-5-2.86-2.74-3.29-5.4-1.21-7.53s5.69-2.15,8.32,0l1.41,1.09c6-4.13,12.38-4.55,19.08-1a27.48,27.48,0,0,1,2-2.13c3-2.55,7.12-2,8.89,1.39.48.92.84,2.49.36,3.19-2.88,4.25-1.13,7.94,1.08,11.65.26.44.46.91.63,1.24-.74,1.19-2,2.3-2,3.38s1.22,2.35,2.09,3.84a9.35,9.35,0,0,1-2.39.51c-3-.25-3-.29-2.43,2.6a6.61,6.61,0,0,1,0,1.05,11.33,11.33,0,0,0-2.56-.3,2.8,2.8,0,0,0-1.79.93c-.2.26.18,1.22.57,1.58,5.59,5.13,6.53,11.76,6.14,18.68a7.12,7.12,0,0,1-3.81,5.88,5.81,5.81,0,0,1-3.63.72,4.77,4.77,0,0,1-2.86-2.17c-.68-1.29.41-2.38,1.56-3.1s2.45-1.08,1.94-3.13a12.1,12.1,0,0,1-2.61-.76,18.34,18.34,0,0,1-2.51-1.93c2.22-2.86,5.09-5,4.88-8.71-1.51-.87-2.34-.47-3,1a13.88,13.88,0,0,1-6.8,7Zm-10.88-25.05,0,0c.18,2.35-.19,4.91.65,7,1.45,3.61,5.7,5.23,10.53,4.57,3.66-.51,5.56-2.94,6.4-6.24.38-1.45.52-2.95.7-4a37.07,37.07,0,0,0,5.47.21,4.55,4.55,0,0,0,3.73-3.83c.17-2.13-1.5-2.82-3-3.48a5.61,5.61,0,0,0-6.12,1.07,13.12,13.12,0,0,0-1.59,1.95c-3-7-11.06-8.05-15.6.53-.85-1.35-1.7-2.68-2.5-3.94-2.51-.24-4.82-.53-6.76,1.27-2.29,2.12-2,4.84,1,6A6.2,6.2,0,0,0,109.87,450.13ZM102,436l2.49,1.89c1.5-1.78.86-3-.42-4.08-1-.87-2.08-1.49-3.5-.78a3.13,3.13,0,0,0-1.79,3.45c.13,1.5,1.19,2.68,2.36,2.45C102.9,438.6,102,437.27,102,436Zm31.42-1.42a5,5,0,0,0-.76,1.62,2.13,2.13,0,0,0,.57,1.56c.24.24,1,.18,1.42,0a3.81,3.81,0,0,0,1.83-4.23,3.1,3.1,0,0,0-3.63-2.13c-1.76.19-3.06,1.35-2.7,2.58C130.71,436,132.19,434.46,133.38,434.62Z"/><path class="a" d="M120.77,475.19h0Z"/><path class="a" d="M153.88,519.63c-11.69,1.49-23.16.73-34.35,1-.43-.53-.67-.7-.73-.92-1.3-4.77,1.22-7.32,6.15-6.22l4,.88c-.75-4.32.85-7,4.1-9a9.34,9.34,0,0,1,10.16.75c1.81,1.36,2.24,3.07,1.66,5.35a4.09,4.09,0,0,0-.08,2.73c.64,1.13,1.75.39,2.72,0C151.83,512.66,154.31,514.67,153.88,519.63Z"/><path class="a" d="M96.21,512.62c-.71-2.52.12-4.54,2.19-5.65,2.55-1.37,5-.41,7.26,1.82a32,32,0,0,0,2-2.54,34.46,34.46,0,0,1,2.37-3.89c2.55-2.94,6.3-2.59,8.42.65l2.08,3.2c2.73.64,4.47-3.21,7.25-.62l-2.25,4.33a14.39,14.39,0,0,0-8.54,2.21,6.73,6.73,0,0,1-3.36.75c-5.32.07-10.64,0-16,0A9.82,9.82,0,0,1,96.21,512.62Z"/><path d="M109.87,450.13a6.2,6.2,0,0,1-7.15,1.14c-2.91-1.21-3.25-3.93-1-6,1.94-1.8,4.25-1.51,6.76-1.27.8,1.26,1.65,2.59,2.5,3.94,4.54-8.58,12.61-7.51,15.6-.53a13.12,13.12,0,0,1,1.59-1.95,5.61,5.61,0,0,1,6.12-1.07c1.49.66,3.16,1.35,3,3.48a4.55,4.55,0,0,1-3.73,3.83,37.07,37.07,0,0,1-5.47-.21c-.18,1.05-.32,2.55-.7,4-.84,3.3-2.74,5.73-6.4,6.24-4.83.66-9.08-1-10.53-4.57-.84-2.1-.47-4.66-.65-7l.2-.17Zm13.26-1.57a3.81,3.81,0,0,1-1.58,4c-.21.18-.23.58-.33.87l3.28,1.09c-.25-2.05.91-4.34-1.42-5.89-.91-3.68-3.77-4.89-6.62-2.66a11.59,11.59,0,0,0-1.9,2.67,6.54,6.54,0,0,0-1.64,6.24c1.19,4.13,6.74,5.19,10.16,2.08,0-.09.1-.19.16-.28l-.11.32c-2.17-.2-4.35-.31-6.49-.64a2.37,2.37,0,0,1-1.69-1.18c-.37-1.2.73-1.32,1.63-1.51a1.56,1.56,0,0,0,.61-.44l-2.68-4.62C117.69,446.21,119.55,446.2,123.13,448.56ZM108,447.09a3,3,0,0,0-.39-.46s-.21.08-.32.12c.15.18.29.36.45.52A1.79,1.79,0,0,0,108,447.09Zm26.27.55a2.76,2.76,0,0,0-.48-.25c-.06,0-.25.15-.24.2a3.22,3.22,0,0,0,.21.51Z"/><path d="M102,436c.08,1.23.94,2.56-.86,2.93-1.17.23-2.23-1-2.36-2.45a3.13,3.13,0,0,1,1.79-3.45c1.42-.71,2.49-.09,3.5.78,1.28,1.09,1.92,2.3.42,4.08Z"/><path d="M133.38,434.62c-1.19-.16-2.67,1.42-3.27-.61-.36-1.23.94-2.39,2.7-2.58a3.1,3.1,0,0,1,3.63,2.13,3.81,3.81,0,0,1-1.83,4.23c-.41.19-1.18.25-1.42,0a2.13,2.13,0,0,1-.57-1.56A5,5,0,0,1,133.38,434.62Z"/><path class="a" d="M123.08,456.93c-3.42,3.11-9,2.05-10.16-2.08a6.54,6.54,0,0,1,1.64-6.24l0,0,2.68,4.62a1.56,1.56,0,0,1-.61.44c-.9.19-2,.31-1.63,1.51a2.37,2.37,0,0,0,1.69,1.18c2.14.33,4.32.44,6.49.64Z"/><path class="a" d="M114.56,448.61a11.59,11.59,0,0,1,1.9-2.67c2.85-2.23,5.71-1,6.62,2.66l0,0c-3.58-2.36-5.44-2.35-8.62,0Z"/><path class="a" d="M123.08,448.6c2.33,1.55,1.17,3.84,1.42,5.89l-3.28-1.09c.1-.29.12-.69.33-.87a3.81,3.81,0,0,0,1.58-4Z"/><path class="a" d="M108,447.09a1.79,1.79,0,0,1-.26.18c-.16-.16-.3-.34-.45-.52.11,0,.28-.16.32-.12A3,3,0,0,1,108,447.09Z"/><path class="a" d="M134.29,447.64l-.51.46a3.22,3.22,0,0,1-.21-.51s.18-.22.24-.2A2.76,2.76,0,0,1,134.29,447.64Z"/><path class="a" d="M123.13,457l.11-.32-.16.28Z"/><path class="a" d="M109.87,450.13l.17-.2-.2.17Z"/></svg>