<svg xmlns="http://www.w3.org/2000/svg" viewBox="0 0 92.98 54.08"><defs><style>.a{fill:none;}</style></defs><title>PGE</title><path class="a" d="M36.75,46.59l18.63,4c-7.73,1.65-14.62-2-21.58-3.39a2.25,2.25,0,0,1-.08-.24,2.16,2.16,0,0,1,.66.37Z"/><path d="M33.72,46.92a2.25,2.25,0,0,0,.08.24c7,1.43,13.85,5,21.58,3.39h0l.1,0A17.9,17.9,0,0,0,57.56,50s0-.07,0-.11l7.14-2.36,0,0a11.46,11.46,0,0,0,1.5-.5A21.57,21.57,0,0,1,79.11,45.7c5,1,8.77,4.22,13.34,5.91a1.35,1.35,0,0,1,.5,1.27c-.23.51-.86,1.23-1.27,1.2a8.18,8.18,0,0,1-2.91-.85c-1.87-.88-3.65-1.92-5.5-2.84a18.89,18.89,0,0,0-15.4-.82c-2.3.84-4.53,1.89-6.88,2.55a51,51,0,0,1-7.91,1.65c-5.53.66-10.8-.78-16-2.41a33.86,33.86,0,0,0-20.58.12A35.39,35.39,0,0,1,11,53.2a62.37,62.37,0,0,1-8.86.4C1,53.59-.27,52.87.05,51.4s1.63-1.24,2.55-.92C6,51.64,9,50.35,12.07,49.55c3.37-.86,6.72-1.83,10.13-2.47,2.63-.49,5.33-.54,7.63-.75l0-.1A11.87,11.87,0,0,1,33.72,46.92Z"/><path d="M49.65,53c-1.22-6-.67-1.1.78-7.08.69-2.85,1.5-5.62,3.52-7.89.75-.84,1.22-2.32,2.54-1.51.7.43.79,1.87,1.47,3.66,3.08.87,6.84,2.46,10.71,2.92C75.22,43.89,81,42,85.56,36.35c-5.3-.78-9.14-3.54-12.55-7.27-2.94-3.23-6.61-4.85-11.11-3.57-2,.57-2.52.19-3.12-2.2A11.94,11.94,0,0,0,49.41,14,18.35,18.35,0,0,1,36,2.77c-3.2,3.7-3.64,7.55-2.88,11.57a17.42,17.42,0,0,0,4.57,8.83c2.86,3,5.89,5.77,9.17,9C45,34.52,42.75,37,41,39.82s-3,5.57-4.49,8.52c-.26-.64-2.08,2-3.47.44,2.78-4.35,6.71-12.3,9.46-16.6A34.21,34.21,0,0,1,32.81,22c-3.54-5.92-4.44-12-1.46-18.31,1-2,2.25-3.88,4.78-3.66,2.2.19,3.09,2.14,3.85,4a10.85,10.85,0,0,0,7.07,6.15c1.23.4,2.47.74,3.7,1.11a15.21,15.21,0,0,1,10,8.51c.31.69.66,1.36,1,2.08,5.5-1.25,9.75,1.34,13.15,4.91s6.77,6.19,11.87,6.16c2.28,0,3.11,1.62,2.1,3.78a12,12,0,0,1-4.78,5.75C77.57,46.14,70.76,47.84,63.23,45c-2.72-1-5.52-1.82-8.46-2.78-.52,1.78-1,3.21-1.35,4.69-1.36,6.14-1.81-.36-.61,5.73"/></svg>