<svg xmlns="http://www.w3.org/2000/svg" viewBox="0 0 323.21 323.21"><defs><style>.a{fill:#fff;stroke:#000;stroke-miterlimit:10;stroke-width:3px;}</style></defs><title>Sun</title><circle class="a" cx="161.61" cy="161.61" r="98.81"/><polygon class="a" points="161.61 320.2 185.7 278.24 161.61 278.24 137.51 278.24 161.61 320.2"/><polygon class="a" points="3.01 161.61 44.98 137.51 44.98 161.61 44.98 185.7 3.01 161.61"/><polygon class="a" points="161.61 3.01 137.51 44.98 161.61 44.98 185.7 44.98 161.61 3.01"/><polygon class="a" points="320.2 161.61 278.24 185.7 278.24 161.61 278.24 137.51 320.2 161.61"/><polygon class="a" points="275.14 272.34 261.92 225.79 245.09 243.04 228.27 260.29 275.14 272.34"/><polygon class="a" points="48.08 272.34 61.29 225.79 78.12 243.04 94.94 260.29 48.08 272.34"/><polygon class="a" points="48.08 50.87 61.29 97.42 78.12 80.17 94.94 62.92 48.08 50.87"/><polygon class="a" points="275.14 50.87 261.92 97.42 245.09 80.17 228.27 62.92 275.14 50.87"/></svg>