<?xml version="1.0" standalone="no"?>
<!DOCTYPE svg PUBLIC "-//W3C//DTD SVG 20010904//EN"
 "http://www.w3.org/TR/2001/REC-SVG-20010904/DTD/svg10.dtd">
<svg version="1.0" xmlns="http://www.w3.org/2000/svg"
 width="343.000000pt" height="343.000000pt" viewBox="0 0 343.000000 343.000000"
 preserveAspectRatio="xMidYMid meet">
<metadata>
Created by potrace 1.11, written by Peter Selinger 2001-2013
</metadata>
<g transform="translate(0.000000,343.000000) scale(0.100000,-0.100000)"
fill="#000000" stroke="none">
<path d="M2007 3424 c-1 -1 -31 -4 -65 -7 -35 -3 -66 -8 -69 -11 -6 -6 -8
-575 -2 -580 5 -5 38 -9 67 -7 21 1 22 4 22 110 l0 109 78 -5 c67 -4 83 -1
122 19 52 27 79 72 87 147 11 103 -27 180 -102 210 -26 10 -131 22 -138 15z
m116 -93 c32 -26 42 -110 21 -182 -9 -34 -58 -46 -156 -41 l-28 2 0 119 0 119
73 -2 c46 0 80 -6 90 -15z"/>
<path d="M1323 3070 c-106 -21 -178 -95 -209 -215 -16 -60 -12 -211 7 -277 12
-45 25 -63 26 -35 1 64 41 233 70 294 50 107 134 141 275 112 64 -13 179 -48
271 -83 l68 -26 -23 29 c-31 38 -132 114 -193 144 -100 50 -214 72 -292 57z"/>
<path d="M2220 3012 c0 -5 4 -12 9 -17 14 -16 50 -134 65 -215 28 -147 16
-364 -31 -530 -45 -164 -171 -439 -287 -629 l-57 -93 40 31 c105 83 236 253
319 412 42 79 106 252 116 309 3 19 8 46 11 60 13 54 12 238 -1 313 -18 102
-63 216 -116 294 -39 57 -68 85 -68 65z"/>
<path d="M1629 2616 c-2 -2 -34 -7 -71 -10 -217 -18 -453 -124 -597 -267 -83
-83 -159 -202 -175 -274 l-6 -30 21 30 c38 53 175 181 238 224 175 119 382
189 651 220 156 18 188 20 359 21 90 0 162 2 160 4 -11 11 -144 48 -219 62
-79 14 -351 29 -361 20z"/>
<path d="M2517 2423 c98 -80 124 -106 169 -165 68 -92 68 -158 1 -258 -33 -50
-158 -174 -236 -236 -28 -21 -50 -42 -51 -46 0 -12 103 23 178 60 183 92 288
232 276 371 -11 124 -129 243 -301 300 -93 31 -101 26 -36 -26z"/>
<path d="M1210 2278 c0 -4 7 -38 15 -76 45 -216 190 -482 355 -651 114 -117
240 -198 383 -246 100 -33 141 -39 259 -38 115 2 158 16 79 27 -271 36 -543
208 -760 480 -98 124 -300 434 -301 464 -1 9 -30 48 -30 40z"/>
<path d="M1807 2201 c-3 -14 0 -21 9 -21 16 0 18 9 5 28 -6 10 -10 9 -14 -7z"/>
<path d="M1768 2185 c3 -19 8 -23 15 -16 8 8 7 16 -5 27 -14 14 -15 14 -10
-11z"/>
<path d="M1852 2190 c-8 -13 -8 -20 -2 -20 6 0 13 7 17 15 9 24 -1 27 -15 5z"/>
<path d="M1732 2158 c5 -15 28 -23 28 -10 0 5 -7 13 -16 16 -10 4 -14 1 -12
-6z"/>
<path d="M1880 2160 c-8 -5 -11 -12 -7 -16 4 -4 15 0 24 9 18 18 8 23 -17 7z"/>
<path d="M1784 2136 c-18 -29 -9 -54 22 -62 45 -11 73 38 38 67 -25 21 -43 19
-60 -5z"/>
<path d="M1726 2120 c-19 -6 -19 -7 -1 -13 20 -8 29 -4 24 11 -2 5 -13 6 -23
2z"/>
<path d="M1880 2110 c0 -5 6 -10 14 -10 8 0 18 5 21 10 3 6 -3 10 -14 10 -12
0 -21 -4 -21 -10z"/>
<path d="M1736 2074 c-4 -10 -1 -14 6 -12 15 5 23 28 10 28 -5 0 -13 -7 -16
-16z"/>
<path d="M1876 2083 c-11 -11 -6 -23 9 -23 8 0 15 4 15 9 0 13 -16 22 -24 14z"/>
<path d="M1766 2044 c-9 -24 -7 -28 9 -14 17 14 20 30 6 30 -5 0 -12 -7 -15
-16z"/>
<path d="M1846 2051 c-3 -5 1 -14 9 -21 12 -10 15 -10 15 3 0 19 -16 31 -24
18z"/>
<path d="M1806 2042 c-2 -4 -1 -14 5 -22 5 -8 9 -13 10 -10 0 3 2 13 4 23 3
17 -10 24 -19 9z"/>
<path d="M749 1930 c-122 -22 -172 -125 -164 -332 8 -207 80 -277 271 -265
124 7 120 1 118 159 -1 73 -2 139 -3 146 -1 8 -25 12 -86 12 l-85 0 0 -35 c0
-21 5 -36 13 -37 16 -1 49 -5 65 -7 8 -1 12 -24 12 -81 l0 -80 -60 0 c-71 0
-101 12 -123 49 -33 57 -42 235 -15 315 22 66 54 81 163 79 99 -2 110 3 94 43
-5 15 -20 24 -46 29 -58 11 -114 13 -154 5z"/>
<path d="M1109 1718 c-17 -81 -17 -237 0 -308 28 -112 88 -196 170 -237 26
-13 58 -18 116 -17 71 0 89 5 156 37 50 24 99 59 145 102 l69 65 -55 -21
c-382 -149 -472 -96 -551 319 -13 67 -26 122 -30 122 -3 0 -12 -28 -20 -62z"/>
<path d="M2423 1607 c-3 -4 -5 -140 -5 -300 l-1 -292 177 -3 176 -2 0 34 c0
22 -6 36 -16 40 -9 3 -67 6 -130 6 l-114 0 0 93 0 94 103 1 c56 0 108 1 115 1
6 1 12 14 12 30 0 17 -6 33 -12 38 -7 4 -58 8 -113 8 l-100 1 -3 91 -3 92 88
0 c176 -1 165 -4 161 39 l-3 37 -163 0 c-90 1 -166 -3 -169 -8z"/>
<path d="M1770 710 c-23 -46 -17 -50 23 -15 31 27 34 40 12 49 -10 4 -21 -7
-35 -34z"/>
<path d="M2207 690 c-13 -30 -22 -59 -20 -63 3 -5 18 -5 34 -2 16 4 29 2 29
-3 0 -14 -25 -22 -66 -22 -23 0 -33 -4 -28 -11 3 -6 22 -9 40 -7 19 2 35 2 35
-2 1 -3 3 -33 4 -68 3 -55 1 -64 -16 -71 -20 -7 -20 -7 1 -26 26 -24 40 -11
42 39 1 20 5 39 9 42 5 3 23 -9 40 -27 31 -31 56 -30 44 3 -8 20 -60 42 -80
34 -12 -4 -15 3 -15 39 0 40 3 45 23 46 12 1 31 2 42 3 37 2 20 21 -17 20 -43
-2 -45 1 -18 36 34 43 22 68 -25 50 -17 -6 -24 -6 -20 0 3 5 2 18 -4 27 -8 15
-13 9 -34 -37z m63 -20 c0 -15 -38 -32 -45 -20 -3 5 -3 15 0 20 8 13 45 13 45
0z"/>
<path d="M694 685 c5 -55 -11 -75 -60 -75 -19 0 -34 -4 -34 -10 0 -10 18 -14
58 -10 15 1 22 -4 22 -17 0 -28 -53 -107 -89 -133 -18 -12 -30 -24 -28 -26 6
-7 71 28 88 47 14 17 16 16 34 -7 22 -29 45 -31 45 -4 0 12 -10 24 -24 30 -24
9 -24 9 -8 54 9 25 19 46 22 46 3 0 22 -34 44 -75 41 -80 54 -92 100 -91 44 1
40 18 -12 51 -45 29 -120 120 -109 132 3 3 21 7 39 8 18 2 39 3 46 4 6 1 12 5
12 10 0 14 -37 20 -75 11 -38 -8 -39 -7 -36 44 1 29 -13 56 -31 56 -5 0 -7
-20 -4 -45z"/>
<path d="M1217 724 c-1 -1 -19 -4 -40 -7 -21 -3 -41 -8 -44 -11 -6 -6 0 -8 35
-9 25 -2 32 -16 32 -74 0 -51 -1 -53 -27 -54 -16 -1 -41 -3 -58 -4 -16 -2 -41
-3 -54 -4 -18 -1 -22 -4 -14 -12 12 -12 32 -13 101 -4 l52 6 0 -80 c0 -47 4
-81 10 -81 10 0 13 24 14 113 0 26 2 48 6 48 3 1 32 3 65 4 33 2 68 3 78 4 9
1 17 5 17 10 0 15 -37 19 -100 12 l-60 -7 0 63 c0 35 5 64 10 64 6 1 15 3 20
4 6 1 15 3 20 4 6 0 10 6 10 11 0 8 -64 12 -73 4z"/>
<path d="M2582 694 c-11 -21 -30 -47 -41 -56 -11 -10 -18 -24 -15 -32 5 -12
13 -12 59 4 48 17 54 17 69 2 15 -15 16 -14 16 11 0 17 -8 30 -22 38 -17 9
-20 9 -15 -4 4 -10 -2 -16 -21 -20 -36 -7 -38 -3 -13 32 16 22 20 35 13 48 -8
14 -13 11 -30 -23z"/>
<path d="M1590 712 c0 -10 33 -42 43 -42 15 0 6 30 -12 40 -24 12 -31 13 -31
2z"/>
<path d="M1680 690 c21 -30 40 -32 40 -5 0 15 -29 35 -50 35 -6 0 -2 -14 10
-30z"/>
<path d="M2103 708 c-6 -7 -14 -23 -17 -35 -4 -11 -13 -27 -21 -33 -8 -7 -15
-21 -15 -31 0 -16 5 -18 28 -13 15 3 23 2 17 -3 -5 -4 -19 -18 -30 -31 -25
-30 -5 -46 32 -27 14 8 32 11 39 8 8 -3 14 1 14 10 0 8 -7 17 -15 21 -8 3 -15
1 -15 -4 0 -6 -7 -10 -16 -10 -12 0 -6 12 21 41 28 32 34 44 25 53 -9 8 -16 6
-27 -11 -9 -13 -22 -23 -30 -23 -14 0 -10 11 22 55 17 24 5 55 -12 33z"/>
<path d="M2688 663 c2 -32 9 -64 14 -70 11 -13 75 -18 102 -7 33 13 16 27 -25
21 -51 -7 -69 0 -69 24 0 14 7 19 29 19 37 0 62 10 55 21 -3 5 -23 6 -45 3
-39 -7 -40 -6 -33 20 5 21 3 26 -13 26 -17 0 -19 -6 -15 -57z"/>
<path d="M1272 634 l-23 -46 29 21 c39 27 55 48 47 61 -13 21 -32 9 -53 -36z"/>
<path d="M1789 665 c-3 -2 -30 -7 -60 -11 -55 -6 -90 -23 -53 -25 10 -1 25 -1
32 0 6 1 12 -7 12 -19 0 -13 -7 -20 -19 -20 -11 0 -23 -4 -26 -10 -4 -6 5 -10
19 -10 36 0 33 -27 -3 -35 -15 -3 -32 -5 -37 -4 -21 4 -35 -2 -28 -12 4 -7 23
-9 50 -5 l44 6 1 -55 c2 -67 2 -72 10 -80 8 -8 16 28 18 85 1 24 4 47 7 49 4
4 35 8 104 11 24 1 24 1 7 15 -11 7 -24 12 -30 10 -7 -2 -29 -6 -49 -9 -33 -5
-38 -3 -38 14 0 11 5 21 10 21 6 1 15 3 20 4 6 1 16 3 23 4 8 1 7 4 -3 11 -8
5 -22 7 -31 5 -10 -3 -16 1 -16 10 0 9 14 19 30 23 32 8 50 32 25 32 -8 0 -17
-2 -19 -5z"/>
<path d="M1110 655 c0 -18 33 -66 43 -62 16 6 10 39 -11 55 -17 13 -32 16 -32
7z"/>
<path d="M1550 641 c0 -12 35 -41 48 -41 14 0 15 10 4 26 -9 13 -52 25 -52 15z"/>
<path d="M2589 587 l-46 -10 4 -41 c3 -23 -2 -60 -10 -83 -17 -50 -5 -57 18
-12 9 17 19 28 22 25 4 -3 17 4 31 16 l24 23 -4 -30 c-2 -22 -8 -29 -20 -27
-22 4 -15 -19 12 -36 27 -17 32 -3 36 89 1 51 -2 81 -9 86 -7 5 -33 5 -58 0z
m41 -45 c0 -21 -7 -32 -26 -41 -30 -13 -39 -9 -31 13 4 9 14 12 26 9 12 -3 21
-1 21 5 0 5 -11 13 -25 16 -31 8 -23 26 11 26 20 0 24 -5 24 -28z"/>
<path d="M1606 558 c-11 -18 -28 -43 -38 -55 -16 -17 -18 -25 -9 -42 15 -27
19 -26 30 2 5 12 18 46 30 75 23 58 15 70 -13 20z"/>
<path d="M2286 556 c-23 -35 -20 -39 15 -21 16 9 29 21 27 27 -8 22 -25 19
-42 -6z"/>
<path d="M2687 507 c3 -41 11 -78 18 -86 9 -9 35 -15 69 -15 71 -1 88 14 73
64 l-10 35 -13 -32 c-8 -18 -17 -34 -22 -34 -59 -11 -92 0 -92 31 0 19 27 30
73 30 15 0 27 4 27 9 0 16 -28 20 -62 10 -18 -5 -35 -9 -37 -9 -2 0 0 11 3 25
5 18 1 27 -13 34 -18 10 -19 7 -14 -62z"/>
<path d="M2176 558 c4 -7 14 -21 22 -30 13 -16 11 -19 -22 -34 -37 -18 -49
-44 -20 -44 22 0 59 49 59 78 1 13 -7 28 -16 33 -24 12 -32 11 -23 -3z"/>
<path d="M2116 523 c-7 -7 13 -33 25 -33 5 0 9 6 9 14 0 15 -24 28 -34 19z"/>
<path d="M2070 501 c0 -13 29 -35 37 -28 7 8 -15 37 -28 37 -5 0 -9 -4 -9 -9z"/>
<path d="M2020 486 c0 -8 8 -24 18 -36 16 -19 20 -20 25 -8 6 17 -18 58 -34
58 -5 0 -9 -6 -9 -14z"/>
<path d="M1046 247 c-15 -11 -18 -27 -17 -97 1 -46 6 -89 11 -94 7 -7 10 13
10 57 0 65 1 67 25 67 21 0 25 -5 26 -32 2 -72 4 -88 14 -88 12 0 13 120 0
128 -5 4 -21 7 -35 7 -32 1 -41 34 -11 42 11 3 18 9 15 14 -7 12 -17 11 -38
-4z"/>
<path d="M567 243 c-10 -16 -7 -182 3 -188 6 -4 10 9 10 33 0 38 1 39 36 39
59 0 88 68 46 106 -19 17 -87 24 -95 10z m87 -29 c17 -44 4 -65 -45 -70 -28
-4 -29 -2 -29 41 0 44 0 45 34 45 22 0 36 -6 40 -16z"/>
<path d="M1106 241 c-4 -7 -5 -15 -2 -18 9 -9 19 4 14 18 -4 11 -6 11 -12 0z"/>
<path d="M1369 232 c-20 -17 -24 -29 -24 -81 0 -70 15 -92 66 -96 49 -4 56 2
55 45 -2 47 -13 61 -41 49 -19 -8 -19 -8 3 -15 31 -9 28 -64 -3 -64 -37 0 -57
24 -61 71 -5 62 17 92 62 87 21 -2 33 0 31 6 -6 20 -62 18 -88 -2z"/>
<path d="M2092 153 l3 -97 48 -1 c26 -1 50 2 53 7 5 8 -10 11 -58 10 -25 -1
-28 3 -28 34 0 32 2 34 34 34 19 0 38 5 41 10 4 6 -10 10 -34 10 -40 0 -41 1
-41 35 0 34 1 35 40 35 22 0 40 5 40 10 0 6 -23 10 -50 10 l-51 0 3 -97z"/>
<path d="M960 230 c0 -5 7 -10 15 -10 8 0 15 5 15 10 0 6 -7 10 -15 10 -8 0
-15 -4 -15 -10z"/>
<path d="M714 188 c-2 -4 13 -8 33 -10 27 -2 39 -8 41 -21 2 -11 -2 -18 -10
-16 -52 7 -86 -21 -73 -60 8 -25 26 -31 69 -24 36 6 36 6 36 59 0 62 -17 85
-62 82 -16 -1 -32 -6 -34 -10z m76 -76 c0 -38 -52 -58 -64 -26 -9 22 11 44 40
44 16 0 24 -6 24 -18z"/>
<path d="M865 186 c-21 -15 -27 -98 -9 -116 14 -14 74 -21 74 -9 0 5 -11 9
-25 9 -29 0 -47 29 -41 65 7 37 14 45 42 45 13 0 24 5 24 10 0 15 -43 12 -65
-4z"/>
<path d="M969 187 c-4 -71 -2 -121 7 -124 12 -4 13 122 1 133 -4 4 -7 0 -8 -9z"/>
<path d="M1176 184 c-19 -19 -21 -97 -3 -112 18 -15 66 -22 72 -11 4 5 -4 9
-17 9 -40 0 -50 14 -46 61 3 42 5 44 38 49 27 4 31 7 17 13 -28 11 -44 9 -61
-9z"/>
<path d="M1509 200 c-5 -21 -4 -119 2 -135 l8 -20 2 20 c1 11 1 37 1 58 -1 31
3 40 23 49 14 6 25 15 25 20 0 11 -11 10 -30 -2 -9 -6 -17 -5 -22 3 -4 7 -8
10 -9 7z"/>
<path d="M1615 180 c-23 -25 -22 -86 1 -111 11 -12 28 -18 46 -17 36 3 48 18
14 18 -37 0 -56 10 -56 30 0 13 7 18 23 16 41 -5 66 10 60 36 -11 48 -57 62
-88 28z m65 -19 c11 -22 7 -27 -32 -29 -21 -1 -28 3 -28 16 0 10 3 22 7 25 13
14 43 7 53 -12z"/>
<path d="M1770 193 c-23 -9 -30 -24 -30 -69 0 -43 21 -72 50 -69 8 1 23 3 33
3 10 1 16 6 13 11 -3 4 -16 7 -28 4 -13 -2 -29 1 -37 6 -21 13 -5 43 21 41 41
-4 48 0 48 21 0 47 -28 68 -70 52z m50 -32 c12 -23 5 -29 -32 -29 -20 0 -28 6
-28 18 0 35 43 43 60 11z"/>
<path d="M1880 121 c0 -87 17 -87 22 -1 3 52 5 55 31 58 17 2 28 -2 29 -10 3
-30 6 -65 7 -91 0 -16 5 -26 11 -22 13 8 6 111 -9 129 -8 10 -27 15 -52 13
l-39 -2 0 -74z"/>
<path d="M2234 191 c-8 -9 -4 -130 6 -136 5 -3 10 21 12 57 3 63 3 63 33 63
30 0 30 0 33 -63 4 -74 22 -75 22 -1 0 73 -12 89 -61 86 -22 -1 -42 -4 -45 -6z"/>
<path d="M2397 188 c-9 -7 -19 -28 -21 -47 -8 -67 30 -104 84 -82 25 10 25 10
-5 11 -35 0 -52 10 -57 30 -2 10 7 15 32 16 19 1 38 3 43 3 13 2 7 49 -9 65
-19 19 -44 20 -67 4z m61 -34 c3 -19 -2 -22 -32 -22 -40 0 -41 1 -25 29 14 27
53 22 57 -7z"/>
<path d="M2520 185 c-2 -21 -3 -86 -1 -119 2 -33 16 -6 17 32 2 65 4 71 24 77
11 3 20 10 20 15 0 6 -10 6 -24 0 -17 -6 -26 -5 -30 3 -2 7 -5 3 -6 -8z"/>
<path d="M2629 179 c-22 -22 -25 -77 -5 -104 8 -11 25 -18 44 -17 23 0 29 -3
25 -14 -5 -13 -16 -17 -55 -17 -10 0 -18 -4 -18 -8 0 -5 17 -9 38 -9 49 0 59
19 58 115 l-1 70 -33 2 c-22 1 -41 -6 -53 -18z m67 -46 c2 -50 -15 -70 -45
-53 -15 7 -21 21 -21 43 0 39 17 59 45 55 16 -2 20 -11 21 -45z"/>
<path d="M2750 180 c0 -12 10 -43 21 -70 22 -52 20 -80 -6 -80 -8 0 -15 -5
-15 -11 0 -18 32 -5 52 22 25 32 57 129 50 148 -7 18 -18 -3 -25 -46 -3 -17
-9 -39 -14 -48 -8 -14 -13 -10 -26 24 -10 23 -17 48 -17 56 0 7 -4 17 -10 20
-5 3 -10 -3 -10 -15z"/>
</g>
</svg>
