<?xml version="1.0" standalone="no"?>
<!DOCTYPE svg PUBLIC "-//W3C//DTD SVG 20010904//EN"
 "http://www.w3.org/TR/2001/REC-SVG-20010904/DTD/svg10.dtd">
<svg version="1.0" xmlns="http://www.w3.org/2000/svg"
 width="201.000000pt" height="201.000000pt" viewBox="0 0 201.000000 201.000000"
 preserveAspectRatio="xMidYMid meet">
<metadata>
Created by potrace 1.11, written by Peter Selinger 2001-2013
</metadata>
<g transform="translate(0.000000,201.000000) scale(0.100000,-0.100000)"
fill="#000000" stroke="none">
<path d="M1170 2001 l-35 -6 -3 -239 c-3 -256 -2 -257 47 -251 28 3 28 3 30
125 l1 55 74 0 c60 0 80 4 103 21 41 30 57 70 57 145 0 71 -15 106 -59 135
-27 17 -153 27 -215 15z m183 -82 c19 -23 23 -92 8 -132 -12 -31 -59 -50 -107
-43 -21 4 -39 8 -41 9 -1 2 -3 43 -4 91 -2 102 2 107 76 101 36 -3 55 -10 68
-26z"/>
<path d="M647 1706 c-103 -37 -152 -126 -149 -276 1 -72 28 -205 32 -160 2 26
9 62 26 140 48 221 134 255 409 162 66 -22 122 -38 125 -36 2 3 -14 20 -35 39
-134 118 -297 170 -408 131z"/>
<path d="M1433 1655 c13 -28 43 -129 53 -178 12 -62 15 -202 6 -277 -25 -200
-110 -411 -287 -715 -27 -47 -27 -49 -5 -30 166 140 301 358 362 583 27 102
29 288 4 381 -23 85 -72 183 -113 229 -33 36 -33 36 -20 7z"/>
<path d="M885 1334 c-260 -32 -463 -143 -587 -322 -53 -76 -95 -191 -46 -126
124 166 336 290 575 338 166 33 249 41 441 41 181 0 173 11 -48 61 -30 7 -292
13 -335 8z"/>
<path d="M1630 1213 c0 -5 16 -18 34 -31 53 -36 146 -133 167 -174 50 -98 -4
-198 -190 -353 -39 -32 -69 -60 -67 -62 9 -10 141 42 194 76 116 75 182 170
182 262 0 55 -37 134 -84 176 -51 47 -236 130 -236 106z"/>
<path d="M590 1039 c0 -45 41 -173 84 -265 164 -347 441 -556 734 -555 77 1
168 17 112 21 -128 8 -292 72 -420 165 -155 112 -352 357 -474 589 -26 50 -36
62 -36 45z"/>
<path d="M1080 995 c0 -8 4 -15 10 -15 5 0 7 7 4 15 -4 8 -8 15 -10 15 -2 0
-4 -7 -4 -15z"/>
<path d="M1040 994 c0 -17 17 -36 24 -26 3 5 -1 15 -9 22 -8 7 -15 9 -15 4z"/>
<path d="M1116 991 c-5 -8 -2 -20 12 -33 13 -13 22 -16 26 -9 4 6 1 11 -8 11
-8 0 -16 10 -18 23 -2 16 -5 19 -12 8z"/>
<path d="M1020 955 c7 -9 15 -13 17 -11 7 7 -7 26 -19 26 -6 0 -6 -6 2 -15z"/>
<path d="M1078 953 c-19 -5 -30 -27 -22 -47 7 -19 40 -26 53 -13 25 25 4 67
-31 60z"/>
<path d="M1000 926 c0 -2 7 -6 15 -10 8 -3 15 -1 15 4 0 6 -7 10 -15 10 -8 0
-15 -2 -15 -4z"/>
<path d="M1140 919 c0 -11 27 -12 34 -1 2 4 -4 9 -15 9 -10 1 -19 -2 -19 -8z"/>
<path d="M1020 885 c-11 -13 -10 -14 4 -9 9 3 16 10 16 15 0 13 -6 11 -20 -6z"/>
<path d="M1126 881 c-11 -12 -14 -21 -7 -26 6 -3 11 1 11 11 0 12 6 15 21 11
16 -4 18 -3 8 9 -14 17 -13 18 -33 -5z"/>
<path d="M1046 865 c-3 -8 -1 -15 4 -15 13 0 22 18 11 24 -5 3 -11 -1 -15 -9z"/>
<path d="M1083 851 c0 -11 5 -17 9 -15 11 7 10 34 -1 34 -6 0 -9 -9 -8 -19z"/>
<path d="M214 769 c-28 -3 -62 -14 -77 -23 -51 -34 -77 -125 -70 -258 4 -101
31 -163 82 -192 40 -23 145 -31 204 -15 l38 10 -3 122 -3 122 -67 3 c-42 2
-68 -1 -69 -8 -1 -5 -1 -17 -1 -25 0 -31 3 -33 37 -31 l35 3 0 -68 c0 -76 3
-74 -75 -70 -77 4 -107 68 -101 211 7 135 31 159 157 155 75 -2 76 -2 71 21
-2 14 -8 27 -13 29 -19 13 -98 20 -145 14z"/>
<path d="M500 587 c-41 -200 25 -400 149 -449 67 -27 173 -11 258 39 46 27
129 101 121 108 -2 3 -32 -6 -65 -19 -197 -80 -298 -64 -357 56 -25 51 -76
249 -76 296 0 41 -18 22 -30 -31z"/>
<path d="M1589 497 c-3 -77 0 -478 4 -484 3 -5 68 -9 144 -8 l138 0 0 30 0 30
-105 5 -105 5 0 77 0 77 70 0 c118 -2 115 -3 115 31 0 33 5 32 -107 32 -60 0
-73 3 -74 17 -1 9 -2 42 -3 73 l-1 58 103 0 102 0 0 35 0 35 -140 -1 c-100 0
-140 -4 -141 -12z"/>
</g>
</svg>
